<mxfile host="Electron" modified="2023-05-22T10:09:03.949Z" agent="Mozilla/5.0 (Macintosh; Intel Mac OS X 10_15_7) AppleWebKit/537.36 (KHTML, like Gecko) draw.io/21.2.8 Chrome/112.0.5615.165 Electron/24.2.0 Safari/537.36" etag="IEATMs1HJQAfh0BY-uW2" version="21.2.8" type="device">
  <diagram name="Page-1" id="i66wW2ux6Cv1uSO-_sNB">
    <mxGraphModel dx="1393" dy="1036" grid="1" gridSize="10" guides="1" tooltips="1" connect="1" arrows="1" fold="1" page="1" pageScale="1" pageWidth="1169" pageHeight="827" math="0" shadow="0">
      <root>
        <mxCell id="0" />
        <mxCell id="1" parent="0" />
        <mxCell id="xEwQvtv_3SWGgPXGp5aQ-1" value="" style="shape=image;aspect=fixed;image=data:image/png,iVBORw0KGgoAAAANSUhEUgAAAw8AAAMNCAYAAADeFEjdAAABYGlDQ1BJQ0MgUHJvZmlsZQAAKJF1kMFLAlEQxr8tRciFOoR1CNlTEFiIeuhqFmJ4WEyxusS6blqoPXY3qlunjp0i+guibh2CvUgU/QNBkNEpT3UPtkPZNk+r1aIH874fHzPz5g3QJyqMVTwAqjVTzyRnpMWlZcn3BC8C8NMtKqrB4rKcphR8a++x7yBwvZ3kvc7qDet1e+R8fe/j+jTYzP7N7zkDRc1QSd8pYirTTUAIE8tbJuO8Szys01DEB5xLHT7hXOhwvZ2TzSSIb4iH1LJSJH4kDhW6/FIXVyub6tcMfHpRq+UWSEcpxpBGEhJypFlkEEceKcxi7p+aWLsmgQ0w7EDHGkoow6QOcXIYKtCIU6hBxRRCxBGEKaJ817936HosAEwf0VNN11u5B6wgMLjveuPP9J154OqCKbrys1nB9hir0UiH/RbgPXSclzzgmwBaDcd5sxyndQz0PwCX9ie+KWa0pt6B+QAAAGJlWElmTU0AKgAAAAgAAgESAAMAAAABAAEAAIdpAAQAAAABAAAAJgAAAAAAA5KGAAcAAAASAAAAUKACAAQAAAABAAADD6ADAAQAAAABAAADDQAAAABBU0NJSQAAAFNjcmVlbnNob3RhVsvFAAACPWlUWHRYTUw6Y29tLmFkb2JlLnhtcAAAAAAAPHg6eG1wbWV0YSB4bWxuczp4PSJhZG9iZTpuczptZXRhLyIgeDp4bXB0az0iWE1QIENvcmUgNi4wLjAiPgogICA8cmRmOlJERiB4bWxuczpyZGY9Imh0dHA6Ly93d3cudzMub3JnLzE5OTkvMDIvMjItcmRmLXN5bnRheC1ucyMiPgogICAgICA8cmRmOkRlc2NyaXB0aW9uIHJkZjphYm91dD0iIgogICAgICAgICAgICB4bWxuczpleGlmPSJodHRwOi8vbnMuYWRvYmUuY29tL2V4aWYvMS4wLyIKICAgICAgICAgICAgeG1sbnM6dGlmZj0iaHR0cDovL25zLmFkb2JlLmNvbS90aWZmLzEuMC8iPgogICAgICAgICA8ZXhpZjpQaXhlbFlEaW1lbnNpb24+NzgxPC9leGlmOlBpeGVsWURpbWVuc2lvbj4KICAgICAgICAgPGV4aWY6VXNlckNvbW1lbnQ+U2NyZWVuc2hvdDwvZXhpZjpVc2VyQ29tbWVudD4KICAgICAgICAgPGV4aWY6UGl4ZWxYRGltZW5zaW9uPjc4MzwvZXhpZjpQaXhlbFhEaW1lbnNpb24+CiAgICAgICAgIDx0aWZmOk9yaWVudGF0aW9uPjE8L3RpZmY6T3JpZW50YXRpb24+CiAgICAgIDwvcmRmOkRlc2NyaXB0aW9uPgogICA8L3JkZjpSREY+CjwveDp4bXBtZXRhPgqExPmKAABAAElEQVR4AeydB4BV1dHHDx0URVEQBXERLNiV2EWNImLBHrtR7B1j1xg1ltiN+ey9l9hiL0RFsYOxY0exVxBsdPzmN+/O5e7d13bZ9/btvhl4e+89Zc6c/6lzaqvfhYKTI+AIOAKOgCPgCDgCjoAj4Ag4AgUQaF3A3q0dAUfAEXAEHAFHwBFwBBwBR8ARUARcefCM4Ag4Ao6AI+AIOAKOgCPgCDgCRSHgykNRMLkjR8ARcAQcAUfAEXAEHAFHwBFw5cHzgCPgCDgCjoAj4Ag4Ao6AI+AIFIWAKw9FweSOHAFHwBFwBBwBR8ARcAQcAUfAlQfPA46AI+AIOAKOgCPgCDgCjoAjUBQCrjwUBZM7cgQcAUfAEXAEHAFHwBFwBByBtrkgmD17djjxxBPDueeeG7gKolWrVrmcurkj4Ag4Ao6AI+AIOAKOgCPgCDQ3BOS2t1atW2lfH9G32GKLcN9994U2bdrkjElO5aG1KAsPPfSQMmvdunXo1KmTKxE5YXQLR8ARcAQcAUfAEXAEHAFHoPkhwATBlClTwqxZs8Lbb70dCk0X5FQeZKohtGvXTjWP/v37h9dee03fmYVAmXByBBwBR8ARcAQcAUfAEXAEHIFmjoD07bccOjQ88sgjYfbvs2UmIn8/P7fyEOGAFoJG0rZtxqkvX2rmGcTFdwQcAUfAEXAEHAFHwBFwBBIIMNvABAFUqK+fX7VQFv7HEXAEHAFHwBFwBBwBR8ARcAQcgRBcefBc4Ag4Ao6AI+AIOAKOgCPgCDgCRSHgykNRMLkjR8ARcAQcAUfAEXAEHAFHwBFw5cHzgCPgCDgCjoAj4Ag4Ao6AI+AIFIWAKw9FweSOHAFHwBFwBBwBR8ARcAQcAUfAlQfPA46AI+AIOAKOgCPgCDgCjoAjUBQCrjwUBZM7cgQcAUfAEXAEHAFHwBFwBByBgvc8lBqi2bNn66VzdrZsOrxCZ80m3efkIY44ubY+vOCbix92YglDfU3zNX+Y27s6zPIHDrMiDJSb+DFM0s7hVYinndPLBR/m3vjYd0GZkFtkSl8SYv6Nnz5FpsypwLVMs36obGKTDS948+M6dA0HDlnwS/oFJyjbpYVJWXnPRfCbOXNmfI9JHXf4FTdG3HtiMppZ+kl42WQydyZbPrlwS/yQLx8v48mzEL8kdml/ZleIh8lu7uGjcsoznV9M/mRY2d6NJ3ZJvklZME9+1+EjmGfL82l3SR6FeOI2J/ZiR7klL0C4zcYvHZ/kd1K2WK5EPJL29m5hZOMDD5UZrMQDbkgD4hDzN0aJJ3a4zcYz4SwvD/xa+PjJiVvE0MLMJ5fJn0u2fH6Tclu8LD/ad9IN73anUS57c1/I3twVki/Nx9wnzTGzNMTc3FgYyae1H0kze8dfmm8ufkl3+Lc6z3jZ02TJxcfcJe3TvC1u6lZkFCHjtsf4Gx97pnmYebZnMTzS2GTjY2a5+Jk9T9yk87/6Iw0KlEX8Ez/Lq/adrT3GzmTPJ5fhn3ziFyrGP+6y+RXPcT2DG6N8spgbe8IXPqR7kuBhP2tvzS11W0wRpvYNblAaf8wsrvbOMxsRjvYJqNtTcmVzb+UjV7yJmYad59I1ky0nD5MjC+bmR/HJJmCJzJpEebAEJrIWYXum45ksRNgl3WFnDWOSV5qHJQzm5iftxr6T4SXDMvv4KbKTaTSTZsn85i4fD0104WOFQ8OWDJYr41s88vGkIM6WH12abO4IA4rl1i/5Y5lTXjWcqJLj3TA2p7We4o+KDb52kWAt+8THbC4cjPimZeNbzcDSSN7T7ogfLsxcZZOws3VcTW6Nq/FMP4VfLrktL2i1hlyJtLLw0+zsG7+5wjW+uezhYWlNfPORhYN7KJ9cVIjYE27ancqUYVDHThmn/hCe5Y3WwlM81XKRlMdkrOUg8aE+xb/5Mau0ea0QUuERPv6zhZUtrtbpT9tZ2ElZeE+7w8zKLe9gms2dGNbKr7hBRgs/Di/Kw5qK4iYdXh13Wdzgh5/KIR4MixkzZoR27doZi7pP4WUNoGFujuBllEsm7Akrn73xAA/I3Noztk+8WP2azU2xcuHOOl7GR/FJ5x8J19ITEcxtQpz4Fbng0YZyJL9aRHhigP98+VXlirDAf77wTK5ccsfhE7b8svEyc54WnpnF/nnBnl+ED260nkqY4Yz0hgjL8pkapP/gTyjmk7KHt3XUaLc0bHEDdtnigXfaEeQze3tiF8cpkjdph71R7E4Mku9mn3wm83Yufube2jj7rvWMMM3HA1kgq08M2zr5TNzg1mQvxJM8SzuXzZ2lZZzOKoH8ieTl08JR+SRcbcdxgmWKCAOe/HK1rebF8GoVpZeZW3gqb4RJbGaO7AkO8o5bzTc56mLDEj4aV/Of5ZlLbnhoOGATyWx1ucqahZdiJu6tHko6sThhJ0JlTR/cmzvSRPkQfoII2/hreJGfQvFMsKj3a6rmq7f/enmwSH37zTeaqQCdyPGzBEk/afQOO+ywrOHgb8qUKaFLly55eST5r7feell5mWGfmj7aiJB5kv7ScvG9/PLLq7eZVGYJMrcrrrBCXh7wbxthQBymTZ+uOBhOCZZh77331g5A61a5sSLcdu3bh/bymzhhQtJ7/E6YI0aMCMoH3O0nfk1u3PBr07qNptPXX3+daSyiQhwzk5cPPvhA8SJM85/tCZ7I9uCDDya967vF99tvvw1tJb01XwguKltCLuVrson9PoIJDY8EXIcnleUCCyygmGWTx8xaE474X2edderw0IpI7JCv1+KLKyaaZlElbDzSz759+wq+GX9ppvAaMGCAplHaX/Lbwuk833yax9N87Pu4445T+cG3UBpg/8svv5jX+Em4yPvEk08q9kk50u+WL0ijb6QcK2WJ63vvvRfn17ZtMo1Wmhff8Gkjst9www0aj1goeaFBAK8ffvghtANzy6s8xW/yp3IJL+qLXXfdVStSKvo0wW+hhRbKWy7hCx/wWnfddTONRIIRPJAF/osttlgmv0b5MimTvkfmyLfEEkuoXLynCX6rrbaaljfs6/CJ4kv5oOx26NChTr5ALpVN3J59zjkxr0L5AvxRMPArAdcSDbORI0cWLEft2mbKLWn9odQJuejdd98NlDnimC+exJ88ffHFFysrlS3JVOSaNGmS4pALK8wJg/jx3GnHHZUD5tnyBvWF5keRLx9P8sbAgQPVTVKkiLk+Fl544bz51cLhueiii+ad9fjjhn/Uuhi3+eQCV2SjTUwT/sDw8ssvL5hfyYuWPvihLk3nC+xHjRqVwTefXOKOsMkXr776aloslYl4vff++5repDnf8M8VV9qRM844ow4vDMi91HHzzDtvXh5JLC1fZGUohsl8Uaj9XYf6QmgW7VKCrC0pVPcQbzDgiVvtXEdpl2Cnrztsv4Omdz6swNDqMm0rU0ywx/8NUv/m6xPQF8AdT8oTGJM3MqpObabPPPOMpmHBekfSmfrsqaeeqs0g8fXxxx/HfQLNF+n+j8hk+RX7v550UqZPkOBhr8R/nnk6FazLLI132GEH81rrCWbEvWOnTooJuNCPy5VfwWyVVVZROfGXJPxAS0qfgXTKySPB/4QTTkiyiN/h/NVXX4Wnpb6GjLd+lOBPWWceiAzgfff995moSGw7SEVQG87asSRhVpBOOJQGA140ohSyadOm1faY5Qv/NOD5qPsi3cP3P3yfqTDzORS7RRZZRF1Q2LPREjU1Ydy4cbq8IZs9ZsSPeHTr1i107NhRnaXjiSEYUBjFsc4sqMMcf+aVihNc0mR8a0SuDh07ZG1AzY+5JW7zzz+/VgZml3wic+fOnbXAZmuQzS38+C211FJ10hE32M07zzyqCP78889Z3Zg78AK3ZZZdNqdcFMRu0oDPEIWM5SWFqGfPnnWcUCmBN0QDTyfWCBlyUa9eveKOr+Fobg2D96VzTWWXj7CnE0IZyUXki05SiWkDL440j+RwTJ7IlVcF8IDc8MrWyKRZgi+YGKXjSR5UXnRKzVGOJ/Fcql+/OrbGcz5RoOYX5Tqb4mOecEs1TFiaxyTtVIEj7cUuSZTbqVOnarlLmqff4YlyoPkgYWly8ewhvCZOnKj5NV+ewDt5DF6Uk2xp379//0DnWkehUjJb8IRJOAsuuKA2NmaefGIPL9IbXoXwpwxbnJJ8eKec9ejRQ3nlyxf4t19PyUe5iHQkb0yXclmISD/SkvjUkU/sOgsfOnaTJ0/Oy8ryBfWx8SFeaaIOph0hPH65CH5aX4gM2YgwKBvUY/kId+QFzRfwIlzxYDLil/eVV1k5vPTyi1jnl0vcgi1lMxvBq0+fPqGTpDej/Pnqa/yTf0iDVjnqKdrdeaS+mBHNaGYL08zI79Qv2Qg5GDyjHbF8kQ9/ZnwsX6TTEfyod+BndWK2MM0MTHoX6BMQT5TrQnjBkzjCkw52LRIzqE9Nn/Dbb7/l5UWciP+iPRbVjjP+4Jmm5ZZfLjzy6CNqXEg26lDSMhfRL+rQoX3evoXKIHKhvJHPsskEf7DHHvzzyYV/4lpTU0ME64iGPeUb2X/99dec4eGTdIcX+Zu8lk022sYFFlhQBx3yyYUg8MyWXy1tSJ/u3bpLX/Y7nCu1EbNcRBzz5el+0v4xGJetXUjyJF65+rCk70orrRQmyMDxRRddFIYPH5702ujvMluUO8arrrpqeP3118OKK64Y3nzzzUYJnODgxSgbQFFZZ0vodGDWCJJ4SYIfv7R50g3v1iAXCssyVSF+xh/3/LJ1ypCrmPDqExb88vIEj0i4tDvkjP2LO/mwaNR+RnZ0FtCozR3+07JSQZCO2exqMc0TXhKn5Hst/4kPc8MTSsfTnCITv2xpY27gQRxyuYnjJe403KhizxWm8TVc7NueSdnz8ojiZtib/1xP8ne6k5vTrfDOFnYumZN8TH4BI84XSXt7xx0/8kvsxyxTT+yV5JmMA9hDxfDAnclv4ZF/0w2Jpqfle3viOUUmEzilsY3zhPhJukuxqPOZrMPSPHGM/MQ1W9okmVn87Jm249tkpIQzo5ltMCHpz9yneVr8eKbLftI/9oXcmHvckTbMJhWTv5ENTNK45DK3cOxJeFDav9nzTLoxLJL2yXdLp2zxxYxw7Jn0l363MDFX2ZCzQJ7MFwfjr/V2uvNqlvI02fLFEzf6E+zpCGdza3wSrLO+4g7KJTtlIRlv3OfLa8oM+eQlm1vMspmrv8SfYvMP7qCCMkW8yR+EX6dNiWTOhUPkPSvWZpd+FhMHZDFKh212aXNzb0/c4cbyvrk3c3PHEzdF9QkiT9l4JPmZvT2TdvZudjwhk8/s7Yk98tVJG3Mgz0JukmUhWz2eYFXr1XCpZRiFRz2N5Pnktjim3Zi5CB66iLLFINs//vGPcOyxx+bkl5ZBv8X/0KFDw0MPPxx69+4dPv3006zOzLB2T9xMy/AkwmjzkBXOXMHiVlDICQQaVyEeAA6fYtwVU0nAix9utYOdEJ4wsEsncsJJ/KqZJuIVG2Z5gV8xhCsNO4tji5diIHjkIg1JwqMCAHdhqDyzuceNylZAPngSrqV5kpeljcUx/Uy6tXfc5HNndhoH85TlSdiGSxZrNVJe4CA/3gulK/HMx1PxL4CXhiWhU+EUokLpaf4NE/u2J+b84rQ0iyxPwlI+4FGAwAn3+fBKypRUHGANhvjVzkWBsAgniXn627yrLPA0g1zPKH1UfpEjSVbfIDv8VMYIw6S7+N3sEm7TccWt5dUkJjGP6AU7s9e4pB3IN+YxL/nONRJtXsGXOEHpVLXvXGEZD+z5gVchQn6VLwozl3uLJ7JlCz+Z3oV4FJLN5CfMQnytnGRzBx94mOy55NJ8lYgXy1ys7k76MV6F+Jkf3FnamxnPpH/DAvmT5rF74QGBu/Gy/JF0g19+xaS54RL7T7wky4KlQ8K67ivhRqa4z0YatwJ5UWUSN4Xkx122tE6Ha3iAWbpPYDjnkjfJS+UqAlfjmfSb6x232ZAyeQphYHzBweSz+JqdPa18FJIPe8JF2c1GSf68W7jZ3GJm7okn72kiLMwtT6ft7ZtwCqV3zF/cxu/GIMsTN/l4Jvf7ZPGucdf4R3FIusFcKZKFsIqRKcmjIe+pubWGsCjeDxGKIxp54zttluaYz97s6lRudZnEDWTaKvlt/JJm2d5rubPEixzmyyRpXsmKM22X/Ca8WmEmLRPvhdwVsoeVhRNXNoSdME8Ep6/KE0UjD1m4ubCxMJMssplhb+b2TPqxd+zy2Zs7nrlkSts1Br/6yIXbQhVdWka+c5HJb09zl/xOvpt98lmMPLg3PvZM8ki+F2UvOBSiZBrCMxdfM7dnLr5WLrO6E/7p+iarO2OOPPZe4JmXj/jFPp+bpJ292zNX0BZXtRf+taieshcKC97JtKoVVuoj5pWWKeEudpMwS74m7YsJN+k+ySf9no8XPArxSfrHbZ1lLlGAhfik5crlPm1u4afNlV+2NE+ngXxbGcjKIyGY2dszYRW/Ju2S77GD5Es2+RL25r9Wvk7Y2yvuci3JMjc8jV/SLNt7LXcpvGrZZfOcMDO39kxY1XrFvpAbPBRyV8jeeOR7YpckeBZqKyxcy4tJ/7xjn6ZsZkm3Zl/XZ/H1DvxyyZS2s/Awz0f53GGXz974qrsc/axk39rei+FpvBvyrD2k1hAO9fBDZND+WMMGsXaRUa9yaEn1ENOdOgKOgCPgCDgCjoAj4Ag4Ao5AFgTKOvOA4oAC0adPHz0Rgncml2wEI4t8buQIOAKOgCPgCDgCjoAj4Ag4AhWCQFmVh+RUUKENfBWCj4vhCDgCjoAj0EIQsCl9omMz3jxpm+zboqpLH2SAy8kRcASaFoG43LKePxKFwWenDAKGBU97lwqNtV8lg6isykPJYuGMHQFHwBFwBByBfAhEe+6YAdeBLL6jDaB448hX7if56aefwq+//Bqmz5B7d7AoYQMMeydHwBGoiwB7JvSYbjkqfumllw5du3ZVxcE6x3E5ruu1qkxixSqKteGDklU61SEEVx6qKpt5ZB0BR8ARqFIERAmwpbMcET5mzJhw6qmnhiflcsTkzIPNQJiZfVcpah5tR6BJEaAzbB1k3tdaa61w1llnhTXWWCO+G6tJBWziwGNlQQZDqLOo4ziK1sxLJV6TKQ/cnMiNmJYpShVB5+sIOAKOgCNQvQjQmHLkMUfWfv7553rbK7MMjGzOmpk5Cvn32SyHyJwGyGVlXBjHZWOlboCrN1U85o5AfgS4MJCL05KXg9JffPHFF8NGG22kZZoy+vbbb4eamhrtONvdPrjT2cX8QbQIW+tDM8tw/fXXhwsuuEAviDPzUkWy7MqDTjWJ9sh0sY0ClSpyztcRcAQcAUegehGgAYWef/75sNNOO4Xvv/9ev1EKWBJxxBFHhNVWXS30WLRHPPtgfjjIw9ZXqyf/4wg4AmVFwDrAPFEGvvryq/DW229pB3nihIlh6tSpets4S5puueWWMHjwYJWvWpX+bbbZJmy11VY66GHYlSrByqo8oCxAUyTBt9xii9B9kUXCbbfdVqq4OV9HwBFwBByBKkbgu+++CxtvvHEYO3asNqh0QPbYfY9wwIEHxJfn0dGgoU03tvot7p0cAUegvAgky6K980TJ79mrpyoJKA6MtN9www1hwoQJYfPNNg9L9l0yPP3006Fnz57lFbgSQovqMZtxKbUCVVblwSLFprSnRo5UuF15qIRc5zI4Ao6AI9AyEKCTAY0YMSJsttlmqjSwRGnXXXfVmQbecWO3t5t7/CTfxWPtbxw4OQKOQFkQsLKY7ATzboPQHTt2DAcffHA49NBDw6WXXqqKxMcffxx69+4d7rjjjrDDDjto+bV+Z1mEboJA0viUS4SyD6vosiUZzZGFSzoNRcQtk5Qr0h6OI+AIOAKOQMtEgDZmxx13DJtvvrm2LV26dAkvv/xyOOSQQzTCjFhaB6RlIuCxcgSqAwHK8YwZM8L+++8fRo8eHRZeeGEt25T/IUOG6MDBrJkzqwOMMseyrMoDSkKsJcnuDlMaYrMyR96DcwQcAUfAEWhZCAwdOjTcc8890sCEsO2224bHH39cZxlsxoGTSKztaVkx99g4AtWFALMK9qNMP/LII2GXXXZREP773/+GQYMGxftrqwuZ0se2rMpDUkkgoe1X+mh6CI6AI+AIOAItEoGoLSFuw4YNC4899pgOUg0/Yng48cQT9VSlNsx2yyy3kyPgCLQcBNKDAJTxo448Mpxwwgla3tn/gDJByWeWwpYqthwEMvEibmDBCVXs74LS2DR2nMuqPDS28M7PEXAEHAFHoMoRkA4DnQI2Tt54443aadhvv/10j4OemCSNqhi68lDl2cSjXx0IzJbyvpMsWxo+fLh2oO+8885w6WWXaflnEKElku3rYL/HiiusqHVhqQdLyrphuiUmmsfJEXAEHAFHoOkQ4M4gTlvZe++9tbPwhz/8Iey7774642B7G2hIebcGlVE5Loor9ehc06HiITsC1YMA5ZoN1FbGp8s+iN122y288cYb4amnngqHH3542HrrrUMvOYVJ5x/FfUshUxzAYMqUKXpfzbffflvy6DWZ8sCGaf3fghKx5KnlATgCjoAj4AjUQoDLRrnDgcaThpSTV3hnNoInhJLAuz2POuqo8Nyzz2lDa+a1mPqHI+AIVDwCVp55stfplFNOUZkp0/zOOeccvVCOi+Y4fYkL5jBvaZTEoVxxK7vyoBW1jAChOBBhi3S5IuzhOAKOgCPgCLQcBH744Ycw6plRqghcJssT2Bhta4CTHQXezZybpmmDOnXsFLp36y6bKlteh6LlpLDHxBHIjgDl+Vu5hXr69BmBY1rTRJm/8MILA8sYX3nllTBu3LjQr1+/FqlApONe6u+yKg+mLMw777waL0aJkpV7qSPr/B0BR8ARcARaFgIDBw5URaDzvJ3DmmuuqQNSxNBOV7LY0v60FcXCiO/+/fvrEY829W92/nQEHIHmgcDSSy8dPvroI8YCahHlG1p11VVD586dw6+//hq2kMuJP3j//Vru/KNhCJR99wiVdL+llgqcvcvOcEvghonvvhwBR8ARcASqGQEuHYX++tcT4/aEQalsbQubKWfJaKVtpLY10tWMn8fdEWjOCOQagE7WAWeffbYuafzwww85wdmpERAoq/LwO8uVImolSoSP9hga/nQEHAFHwBEoFgH2M6Ac3H333eqF9zVWnzPrUCwfd+cIOAItEwH6m6ZYrLD88nEkr7/+uvjdXxqOQFmVBza2SY0fS2sJGxv4iyPgCDgCjoAjUAQCtB/XX3+9dhAWX3zx0GWBLj4gVQRu7sQRqAoEpH4wYtnSEkssoZ9XXXW1GbeYZ3KWJROpzH7iUkawrMqDRkQSNKk0JN9LGVHn7Qg4Ao6AI9AyEGA/A/TJJ5/oDERNTY1++x9HwBFwBOogIP3OZZddVvueX375ZR3r5m7AzCt9aVvNY89Sxqv8ykMpY+O8HQFHwBFwBKoCARrMn376SePavbucmCSNJ2ZOjoAj4AikEegpdzxQP0ydOjVt1ey/bRCeU6WWXHJJuddieK1B+lJEsOzKg1Xu9pwpG6fZtObkCDgCjoAj4AgUiwAN5m+//abOuy28cEUpDtqmRYqMtXX2zBY/7Mw+/czmvlxm1jYnZbL3cslQTDjIZLIWch+7S6VPIX9u37wR6NKli0Zg2rSWpzxYypx33nl6HG2HDh3MqGTPsisPVPgoDDvvvHM49NBDQ9u2bUuuIZUMPWfsCDgCjoAjUHYErAMbdwSlXakISigBnOwEIZnJydPe1VL+EBd+tI1mZ9/mpqmeJhvhJzegNpU82cItFis22QvQurQDP0Y2amvf/myZCLCUh7SeNcsHqxsjhct6zwMVI0fkvf322+Guu+7S90suuaQx4uE8HAFHwBFwBByBJkWALikdlNEvvxw+kGMhP/jgAz2SfCk5npzlBOuss07o2LFjLRlNafjqq69U0ZhXNnfON998sUJRy3EZP6xT/vXXX2uoiy22mMpURhGKDspk/SrfevZIOVtwwQUDd02pAoHSRihi59TCEZijL7bwiJYnemVVHtD8rJDznCU/+y5PdD0UR8ARcAQcgeaOQKWNFmtHVEA98sgjw7/+9S9t19LtHQfMS4sXVltttfDMM89oB9biwQZw1mRDxxxzTDjnnHNUCVGDJvqDbN9++23gJCvix71MrBRgENDkbiLR6gRr8vTs1Utls/RIO8Sd2ZE+t956a9hh++1D23bt1KnFzfil/ft3BgG9zVnyxPyyFGhhWTLYLEj0Q0v7ZiFvkULabCXOrc7hvdR5uKzKAxFycgQcAUfAEXAEWgoCs2U5DMeQs87Y7p+gEd9uu+3C5ptvHn7++edw//33h5EjR6I9hFdffTUw+j1x4kS9+bbUjfzc4DxzxgxdITAzoTAQt0ollU0wbtU6swQsLSsdLRQ1nnQkd9lll3BI167hu+++084W7ltiB7Ox06tv376K10EHHRQuvfTSxmbv/OqBAHk2qUCYgkw+LmXdUrm1QD3Ac6eOgCPgCDgCjkC5EaDR5sJT9u/NmD5DG/EDDjhAR+nvvPPOsNdee8nJJ4eHJ598Us222GILbdBRMoYMGaL7/1A+KpUWk9mQl2QJ1pgxY+JjICu5c61KgWhoiyyyiKYFONuPvZbIPkMUoh9++CGwlIzO1Y8//hjOPffcTEerxB2uSk3n+splnVJ71te/u29cBEgHfmklonFDqc3NlYfaeGT9ssrSnjhKvmf15IaOQAtHQBtqaWyNtEzIN08vH4aKP1syAjayzawCS5LYz3DZZZeFNqJQsIqeBt3KAkt+HnroIR35xvyll14K7WS5DMpHmpL+sKtVphJlTixi/riho2xk4Sb9x2aRW+Nrz2xuWWY1YMCAWAbjEfuJZODb6gR9MrovPzMz9/ZtYdkzyRc3aXM1KOYPMw/8E4yTZN88u8psAwqRhXnzzTdnnEbpZbLa0+TBkZnZE7N0nMyOJ2li37iF7Jun+QWr2H30nnGd+Zt0h4nKFGGvdhHW2Bl/e4/9Ru6xNzt7Kj/5MDvMTbGN/UdhJPmLhzlxSL0neamflH/DhrCcGo4AeZofF+Exs3bPPffUSseGc87t05ct5cZGbRitoNKHrCAwUsGUM2tA+Zm5OvI/jkCVIECDQueJSoslG+2lI7TQQguFBWRJhpUJe+LGyRFoiQiQt6dNm6ZlgVFtzpFHibAlMOT8ZDlgPwOzEhDm6bKB2ZtvvhkGDx4cJkyYoLMTpqTsu+++4f/+7/+0vOHOfigrr/7vf2HY3nvrgSTKXP7gjw4aCsAjjzwSunXrlglPZKYNW3TRRZUH7RzfzIyMGZ3pVI8eMzr06NFD9zwgI20dHRPe//3vf4fddttN/RL3v/3tb7pPg/CoF3DD++uvvx6WW245/TZZkQ37xx9/POwqy4YmTZqsipfJzEwNGM0zzzxq9Nprr4WVVlrJrBvtyaZ05JDA9anvwl1rKjEnHc8///zw97//PVbKcMPv9NNPD8cee6zigUCaPpIeEEu9zjr7bPVnWKiF/LniiivCloLx4r17K5+77747bLP11oGTuc4443Txc5ooXNIZ/73uiUCEwVGcxx9/vOJOerSS9IBM9jGjR4dNNtlEl8ph3rqVLMOSf+uvv34gLJQm+Fha8Bw1apSmJZenWfzM/sILLwyHHHKIKrnkRe5TMbx4XnHF5bpsCWXt+ReeD2uttZYuc3tN0n2bbbYJn332GWIo4aZ1m9Yq/8knn6ztBbKAEfnKqYEIUA+IV9KMJZLgyZ6UUre4rjwUSC8yNaNKw4YNC59++qkWLhLJyRFwBOY0WpQJGp5k2VhxxRXD7bffrp0Hs3fMHIGWhgCjs9xeO27cOG246ZRychIbSTldUHprOgJPvCkjf/nLX8IRRxyhjXu2jtN9990XLrroIuVFuaGDxY8O/rXXXhueeOKJ8NFHHykv43nU0UeHf/7zn1r+cBtT1FaxzwJFgUv17KShttK2Wbm0jqGVX2ZE1C6SmXcUI/xIwOHXX3/VDjVhsX/j119+lQ7M79oJJE50gGf9PiussMIKqij96U9/UnmJP/YsGbI4wJtOrvV2Lr744nDLLbeoe9zipxQ0fvz4uL7aeOONVS7CIjRk6iwnMs2WePAPc+KKPNBf//pX/aFgtG/fXrGgr8DeCdtgjnuVXPzCD78sadMwxExH3cFJ8k8bGaD8+edf1A3+cA+l487AJdjyj0HNpLs11lgjvPLKK2qmdhIeSgn82KCP4vjQgw+FzTbfTM3gv8MOO4R77703DicZR3gcLfmKAwDojKqyInKrYhN1gX7/PZM2yCMBwzKcceYZ4eSTT1EF1+KKOXLj5swzz9TZOTbjt5Mw0nHErVM9ECB/kdZR3sQnmJIapSk5GdnKqjxoIZECZhUCxbSpM44VPp78qAB4PvjAA+EwGQFBc7YCZVq8Joy46dp1wdClywIah6aORyY5/a8jUD4EKMeUFzoVdEomTZoUdwIoQ2PHjg0rrbiSNnRssLv5ppvCmjIyhZ2VF3uWT2oPyRFoXARYdkQHrIess58s5YAyQUedvM0yglVXXTX8+c9/DkOHDs3kfYIXO+yzjbeihHTq1Cm89dZboU+fPtoBmCGKw94yq3DbbbeFTz7+JDwqswibyWZsiKPPTXFg5oAlC3RoJTAN49HHHtON28i15557qj3+6FxQhmnfekbHsG637XY6Ar6IzDgssMACetoS5RVSniIzfNu2yXT6sEOROPa4Y8XfGfEs/RdffBH69eunMzKMXKM8GO2xxx6qOPC97rrrhqeeekr9gQd1ycorrxzeffddc16vJzyQSf/Jk+9sxMwJcoAJdOKJJ8YdauLXWY7LnSXY8Bwto/koh1bf4ZeN1vBeeumlA0oIGKLcMctCHCAUjFNPPTXuU/wseWNJqQdR1IwYiUdxgAxnwoGyyY682lEXe0s7/DHb8MqYV7S3eNFF/wyHHXa4yoQdg54cEcyRu1tvs3V47733AvUxcqOoIjszUy+88EKcfvBmZoWZB/pAd0qcd5Y4Ezfkwg/PAw88sM6GaRQHwiW/oOzwxD39v8svvzwcddRRag7mzKSAt9PcIUBaoOxZ3uGZLf/MXSi1fZdVeSAyZCqWOPCuxZqMI+9NTWRuZLvgggu00CAP35j3lfO5/7TjjloAmcaFtOAidwXIrgL5H0egzAhQhuNKSsoKnSjKDESDRWNEZ4dGiw7RegMH6nKOK6QBYcmDuS91JVdmWDy4KkSAkfqJ0lG6+uqrwymnnKKdbsrG+E/GayftP/f+R/J7pv3beaedwvnSznBvAkSZSZcBOl10BpSknPF+04036tGidB7HvvNOGLLZZurvwQcfjJy1Ctdff33oIJ01SqH+hPemm26qygij5HQY00T4M6VjR6d4R2nnVJ7If9rtnO9MOed7J4nPP/7xj0wchBf+e8mRqQfsv3/4P5lFoLPMTeAs5ULRuEuWbBHfFZZfXpfM8I4ffnSOUZpoZ9nUTPtbX2KQ75tvvsl0cDO9DGVh+BOett/Cm2U4jMoTntVlBx98sGx+n67LapCltxxVC1kfAYzoRKN8UM+x/IolZvCZJOkG7bXXXuG0007Td/vDsabMTJDujLrbzI/Z1/dp8kyePFlno4j36bL06dBDD4tZEVcU2A/lzhGUQTrwdN5RMH/55ZcYd5QH8pj1xOBNx559OdC7onBAFqZ+ZPsTpSPuVl99dU1zcIUwQ5Fk3w8DTeQFM9c8J7I6NR8E6l8y5yJuljWWWWaZ8I5Uft9L5dDUhEz8mNZlOpcztvlm6pmpZTZV3X7HHXrsnikOcUaXzE7hhHj6zzGopjxAOaBB0DIg+V9nFuWb5xKyphcF4QE5opKRO5b90TjRidhTGlYaMhQK9aslyP84As0TAcoBywakJxb2kz0JLFliFJolJPvuu4+u1+/YKXMxHG7/LZ1n7nQ4VUalsxHr+3WUXyyVt/iBrKzw1BlxeWJ/3HHHaXh0eLtx5n7UFk2RskY7yyj5lClT1D9lM0nw4kfbFisO8s1yFwsv6d7ekUjt5eVSuejV+MiLviPXWmutnTEXt4RPXfGynNzELAr2Z511tra1vGs7HPmF16HSyeRpHU8Lt6hnpknOOFXG8hqZEVYmvIycdORt34fVZShjyNhHBg0hsEbp+lR+PPmtt956mkbCRZdlwZO+A7MVaG0sL1N8lEPmD9gTxh3Sn8AOhW1uiOVyhPv3KB9JzALLr1Bo+CHnJ598ou/ff/+9XlJIeMQPXPv06RM6RRcWovSSJ6+7/rrwvlxsiKzwZj/Ec889p/s38FswPSReXURJMr/zzz+/LHu6SGehKRPQYzIThlJiR7ziNo2VOvQ/FY1AeWcepOBAjC6gQDQZSWaV3KrBUwlutdVWqg1TsJHtkksuDmuuuZYWFDJ2mpIZ3eztmXbr345AS0Ygme8pPzSelCGIhobZBdZ9c5QlI3oPP/ywjsgx6sSUP1P7bEikNCb9KgP/4wg0EwR0Fk1kpW2wMsEJRVdJpyxJlAE2zeKOZT7MBsSj9pHDDTbYQN9wk2xrMDTe+hR7MdAOKR0zRslZHsT6dMoia8xz3XcQBaX84LW9XJQGWXj4z0fKn7Bl2Q0zCuZP/SC3vNimX+1QR8xYMgPhf40119B2ONMSZxzQaWWQYaBs8LW4ZmyK+4sfZOktgxd0npOk9RGYCe288866gfiNN94Iq6yyig5kzBIMSUc2DiMft4NzK3g+osPOEi3CZXO4xlyCMDyST6sXa2pqYpZmHxsUeNE4SCiEy90i0KuyoRw+yMAyMDDMxxd3/NiQzib53jIzwYzIN19/E/bZZ1/F35SHbWSZ02233a5pTFiF8gVumDFiqR7L6ZihOeqooyW8oxQb5GZvBvtImSGzJVv4c2peCOSvIZpXXIqXNipoZOw+ffpohwbPTO8+++yzsv5vgI7kUMCcHAFHYC4RkHJEYwRtueWWOpq1tAwe0MCxeY5NlZS0YhomZeJ/HIEKQYA2hGUra665Zlh77bV1LXcu0ej4cYzrxzLjRttCmbjpxpvqdPQ6deykR2Tm6wAShh3tyQkrrM1nmQgdZjqwKC7Hn3C8LqVh5JzNsvnaMwbQ6kPwsjgwS1EsTZs2NXbKspk0WR1Ah5z488snd9o/3+DM5l7I5OTJIAbpJYZ6kAPphVtG59mfpR1ZsWPWB3NWIrD/AuUi1w/M2T+AYmDKQSF5LV7E1epFFbaIP/ihA255g7BYMoc5Pw6pyCVr0hx/8GjfoYMuK6XD/+hjj2oeVpmiJL3//gcUhyuvvFLdFyMvfFHKWHrHrMWgQYPUL4os/5iJJr8eI3sqIItLEdF3JxWEQFlnHiol3hQcfovKVC3rVCE2nA2UqcjkOmzcODkCjsDcIUApooGgPNEoM1LJuepsMmXUlc2RNMB2+srchea+HYHyIcAoOZuH7ZQb1nPvsfvuWZf9WBmokZFnlnb8Ip3+adOn1ek8zZo1Mx5VzhsTKVN0iOnA0imm08uILooMYTHGbsuPrDOd7qjhis6oLTVJ2+cL39zSaS2Wei++hHZymRVh+Qo3FBtRP8CLOgIcG0ImE7z42Te8+AYjNZdvZoGef/55DZPZmv79+6t7Tkvim70CLGdO8kjLhKwmM8ehPj3yaeWfDjvpb5yclIU9P47YrQ/dLxuckQe/LFuiv8JMFZvOoYcFNy72y0mEK5YmH0/k5whX9m3wg6bL8bs33XxT2H//zOlQBx90cDgwOikKP/kIfrghTzETMmLECFV0mYG6R46LHSYb/5lxo8911JFHhp6yP8bkycfX7SoLgfrl3MqSvd7SkEEp7JzDzBpPFAdGC9g8xGkEUio1E8O4UAGpd+DuwRGocgRo9LRhkTJIOdxazjfnSErMWKNLGWRkKzPylb+BqnIoPfqVgoC0KQP+MEDzMCKxPO87WV9OXieP045YW2Kdvq/kAIGfJv+kHXs6WGmyAay0efobvixXYjMs73/4wx9UceBdw4+ezDywQdWIGQvsxZO0eRnFnjKoZuaowNPiYnEr4Dy2HrLZEG1z6cJylwNtMZQc0WazM20yBH897la/Cv9ReSRabB5Ox8e+efLbTDacK4l7RsmVxJybv6F333lXZyTgSVoio8WXkXr6DiiPdILBjzshMl3zoPdl4NbcGw+eu+yyq5ojQ9Kc06nqpIO4F0caNvdpvCVLgXADsWwJHocddlgczllnnaXv8E3+kJ99ZuStxXtlNoDjljjAz/BH4YQ6yAAPS5iuueYa/SYcnWESvrybDIShFIX36KOPqh1KGgqr2eMXrDh4hvtG0GDg85vshTE3GUb+t74IkLZKgjHLFlF62W9Yamo65SHKdHHESxxTqzDJ9ENlipYTIBh1uVFOsGCkwckRcATKgwCNHg0JZZHZPo4WpB5gM+Xw4cNVCG9QypMWHsrcIUBnjFHbg+TISogji9mAe99//qOzAXSQyMv8mB0YK50/NqbSycSME44aSvCmHHF6IcSaezbG2vIZM6upqdGyRniM+JpyQrevPh1z+M0tcRDJrrvuqh3Hzz//XE87AjPrjLLfgJOaDDee9VkWVR/5uJ8CYm8G+0WQgc4z9xrwThqxef1/cvme2oksyIMiZke3smSIezsg3NKXwM0IWcrGJWkod9RtmIE9S6G++/47dW9/jLdehBf1xVneqR168Uf8ObGOe0OyETw5LQk+l8qyOAuXMPnBh1kWFFbo/AvOV/NYeRKzZZdZVg+zEIs4v7Ic7kiZGVASYFROCQMiTuQnLvCbKgrAVFFsoCGy9BvCnj0V8ICQQzwoBhwXDLaQKc9qryb+p74IkC4QiLJRn8EEylCpqcmUh7+edFLW9Z6liDCZ3CpMlkroNJqYnXf+eVoJEKYmgJg5OQKOQGkRoDGjUaXBoMStvfY6enwgyjxrwlnGRHl1cgSaAwK0L/+SW585nc867owAsjyP+xq4dZ1OM9+ryEZSiLzOkaWrRd8NiSflhx83MsOPE41QXDjhhh8dWzqVuOGbNo5NwLzjFuIStHISWF0ro9lbywAeHcwfpSPOiDhKED86PbjhMjUjzBubCIPwIfDhiNvoQ5cS0VmP+re6LAws6bzTUe+6YFfdaIw/llrCizqNtGeTMMokHX5ONerYoaP6I/352alXmcAyf/EPsQdj6WWW1nRidJ78AjYoh2wAZ48IJ2upUpHxqh1y8OFUSJZdQQ/IHVV03OmY8+so/q+66irh20qPl+VoXWRHWUE5IPyPP/lY9yEQv4Ulv5JHUK7o/OMWnrhDuQI3+DK7w43WnSQs/LEEjHqbAVkId8iPLPDsHGHAfhbobLmFO77xXE38z9wgYPmIvMq7fc8Nz3x+y9pCExky1JtvvinHtJ0V9t1v33yyNZodmZ+weXKjIkRB3XDDDfUdc37yR7/9T3kRIE9QAfLUdChv8B6aIADuVkZKDQhh2WgJYfHO6SfL9l9Wg6ZsijClFsP5OwKNgoDlZ5av0DFilJe2BHOWmjBSTaeR8sVyDi7H+nHSj2F7aYvsxBwre5QFOmLUhfzSZGHRsaSM4IZO2F133amdVJQIOnz84LW/3LXAiTq33nqrdoZxb+frq6IjTR5hzy8du2yk4UQWuNOOaxQ3/BMGMiWJMMwtdtTtrO3HDCLO/5G1+3S0t9tuOzU3O/YN0All2YUtPbKZlWQY6XfC5Ae1aSvLeaSjnI+Qi58u5RHMJk6YqJt88UPHHwXgtym/6WlwdH4Z7GCGJDNz00oVRdLVVi2Y0shGYE4u4kStjBIxW9Ofjj840Pm3vV3Emc624ceTGRCOfAUvwuQOBzCno8+gCkuqTHbFWeRVPuKXfhVKB6fY4Zc8gMzEhw30o0XBoGNv4ZF25557rt7Hs9FGG6k5R2mj0JFHyEv77LNPeP/993UZlvqTcPDH0rK999k7zCvx5RsZrNO6u+z5eVM2TOsJXpLkYGY82euy7bbb6lGteiy+8LO0z5debpcfAdKGdDCyPGLfpXi2koTL2Upz3BZToezgJ2M2FjHVZSMiZPJkpBsrjDQfoklFdb+cO89U7ZOywYhK2jJ+2r1/lw8BPTVEgrN8kCdLlk+oKgoJ3KlsOKqQhr0p8Kex/EQu1EK5Z0qbjdTHH398FaWCR7UhCND5o4PFTbf7yh0LxRD5m4vaxsmmWNo4lqVox6gYzwXcwBte8ZNOrZhZ5xLvdAZxY/UdnUC+9YmDyE6X2iY6BFjBl1+y3TLZjY+FjzvM6LQamX/jpcuWJDzzY7zMPUutkN3sJfC4w0s8sINn0p99E7bJafbY0THliSLFcZ3go/bylBe1Iz1ZgoF/NpazBj8XWbzhCcHLwsvlh3jgGnf44wefZDolZaJu5DQm4oxMMX/CjHhYWDEfsdPjp8U9YZl8KJg1NTXq/D+yEoK9X/DIRvghLIujyYtb7Axfvs3OnmZmfvk2P7wnyWRDCtLD+FrYfKfJ+PKM7cVvJhUS7bnYG0bwM/l4NgZx7D9LdZaX271viGY9svG9U2b6UJZQBk2Bzuauas0k7YYOHRoekuPUmeliH2I+mlOr5HPVyHaW0XjaeyMHUYcdGZzNPGTY3UQzRnGArNDU8eAGZUNgv/32C2/LUXk0llRcniZlgz4OiHLBFDL3MDRWpR4zz/NiYZHuS9QsEVZeZWUdfWMUl1E6s8/Dwq0cgYpBwOou8i3vdKS0QyrvkpnrdFARnDYQt8mOuHXM0hGDb7JM0P3Cb9LM/KTbV3NnblWJiTqFDOIllQzjwWhyknT5r9TTKm/k1/iZO76T8pu9hdGnTx+9C4AjmjnS0/oA1ukcP368Kg7wYJCR40TzkcWLp2Ip/lqJUpOXwDFygHy848d4xH7FDrL7CEy5iMPEMsIfM8jcUKcxKEK6K/+IlzqK/uBDfUU8MDbexB9CPssjmBleahn9wY36k2/zj5XJxLvGMyWD8cPOqNh9MKZ4mjwWVjIclSXK3+aOcNIyJsM3OfxZ2QjUVSdLLK9lMIKh8kp+lyxoKZg33XSj7v6nYDMVZ5nXM23JUC+a8adyGgjpwShNWfJD0ZJVj0NwT57IUq6YE27yd7YsZ4Q4zYQRYSPPF4aEPysZATpI1qbwjDtMUecs/k5FIukHqySflNP4U/0IX/Ob9GNmsWN5SZtZJxc32RSHpF/ezb8utYk6xWk39p2UxcwsDNpfiGU4rJ1nGRd7DLhvYcstttBlN9Zx5g6NQkQ8kM2ethSskL9a9hGOudKnllv5iLFI4I+ZmeNeeYlZmswNdRrxTPsze/wn5cE8/Q1vc6/PlAzmx9ykZUnyS9uZn5xuorjhzsLBrfmrI1sigCTPpPuEE38tEgFrG8lL9Kn58W5lqEg29XZWduWh3hI2hgfJ3HfcLlfCyz+OaJ1Xpq3IvFZ4GyMI59FwBEgHMjynVpDhdRmTP8uGA8sDKBuVUIkvKGuNyQsMx3EXhFElyGay+NMRcAQahgB1PfsdueOBd9bYs2djscUWCxxV+qiYz541W9vpr776Kiwoy9Lqdr8bFnbF+JJ4W31rClXFyOaCNDsEaBuZ1YOWk6VbLAcc8fiIWopmKSLVJMuWShGRfDyppJ6Vmw45km0D2ZAF2ZQbU4vlJCpCNi6xia2SOkRgZIRcnBICVqq9yncpybinRy1KGabznoOAKmzSWyfdTameY1veN8IfOHCg3vR+ww036LGJ5M1KKivlRcRDcwRaDgKUZcr4pnKkJ4MEzDCyr5JNxB07dpANyL3D+lL+20kHqKVSLznOlcsBwSI5+9NS41vKeCX7LdJIlDKoiuZts25sZAeTN996MwzedHBJFYiqUB44+3rqlKma+EO4GEYyWbmVBst5/33iiXDC8SeIDGZSGU86Z3Qik500jssrdhPi3MTC1JZaFcHcMHS/9ULA0lyVCKl4mpLoWLBp+tlRz+pJIchi8jWlXB52y0OAfEWjS73jeaw86Uv5ThLHnw4aNEh/SfOW/E5e8xmHxklh6zPw1IHOxmHbbLmAg/3SZa2xI1UVysPPclwZnXWmCpnWacpMxukVbKNDlrXWWiuzRKOxU7UB/MhoHCfIsXisNWdU6OeffvaGtQFYupeGI0DFx+luWkakkTXC3Dt4hoY/GwUB0ZOpjz1fNQqazsQRKDsC9FN0mWvZQ/YAy6480AngBAIqbPuVOhmmyDnDRk2pOCADa9NQHFiX9sILL5hYFfMkfbrLqTsTomVV3rBWTNJUhSBJJYFyouSKQ1WkfakjSV1G/rLTZPh+W87V5zx+sRCF1ckRcASaEwKUYbvIzvsq5U25sisPjHAvL0e0cdNz9+7dyzKybcsxyFz8aECaijT8Cm6mahXAOQO/TQWXh1tlCFgZJdrsUVKSMuvkCMwtAnG9L/lpBZnd+lhO96EpsFPGYmV1bgNy/46AI1AeBKRpsDZjnXXWKU+YHooiUHblwXDfSi6jSN6uaOaleCa7HnEDUoqAnKcj4Ag4Ao5AxSLAQBLrzU866aRw8t/+1mR73yoWIBfMEWhGCLSVPUs6OCwye9+uvAnXJMqDaoqS6OUim2cgcxG2Z7JyId/44VBRkIaQPRs/lOrkCKqFygdlhx8dMNKiFOTpWgpUnScIMPNtdQjtguc1zxeOQPNFgLuhjKq1LCdvogcD6jie1HO8l4qaRHkoVWScb8tHwAqDdWJbfozLGMOowslXCScrpjJK5kE5Ao6AI+AIOAKOQAoBVvBA9Im07ZZREdtIbv2llJdG+XTloVFgdCblQABN+i3Z4Pjss89qcPk6ueWQp6WEwcZ9G6m45+67887McXsrldQyyyyjpyK1FAw8Ho6AI+AIOAKOQHNFgDacO5IeffTRsN1224V2sjqglFRa7inJY81IzHmHvAOoMPifIhAgrwxYbTXdbk7+sTxUhFd3UgQCHFt59jnn5HXZupXczB5t+B8jlx06OQKOgCPgCDgCjkDTI/Dggw+WTYiyKg+mKNBJee7Z50KvxXuFmpqa0K5du7JF2ANqvgjoVFy0jo+TFbgF26m8CJAGo0aNKm+gHpoj4Ag4Ao6AI+AIVAwCZVUebKPae++9FwZtMkhB4N4DJ0egGATYpIsCyozDjTfeGPr27VuMN3fTiAhMlYsE5+3c2Wd9GhFTZ+UIOAKOgCPgCDQnBMqqPLB5g44fSgQ/J0egPgj4UqX6oFUat2zO8nQoDbbO1RFwBBwBR8ARaA4IlO4cp+YQe5fREXAEHAFHwBFwBBwBR8ARaCkIRHuKSxkdVx5Kia7zdgQcAUfAEXAEHAFHwBFwBMqAgK7qkeXdpaayLlsqdWScvyPgCDgCjoAjUO0ItJbOw+dffBEuvPBCP9GwCjIDS0lZFj548OAwZMgQPee/CqLtUUwgQB4YMGBAePPNN8OTTz4Z1l9//ZKWfVceEuD7qyPgCDgCjoAj0NwR4ObdA/Y/IHz33Xfx0crNPU4uf34EOEzk6aefDoM32SS/Q7dtUQigNDDb0EbuYBo3bpy+c3cTykMpyZWHUqLrvB0BR8ARcAQcgTIjQEdy5qyZYfbvs8NqcjfOn/60Q5kl8ODKicCUKVPD6aedLhdnyX8OtfADacoJf5OHZadQsliplfyzw4kwLxWVVXkwDckixFMjLRndrtguVUSriS9aaDrzmFm14EBe4xfnNYk4o3Fo504NR4B7HsC0jTRQhm0x3LjbBexJE/KmkyPgCJQQgaj+I4QVV1wxHH/8CSUMzFk3NQKTJ00Kp512mnYcqWOdqgcBa4d5zpa0Z8AAKnU7W1blgchZxuY9vhxO3p0aB4Fk58zw5lltCNs0HveIUIhQTktdmBonBSubiykAs2ZnpkqLlZY7Otq3bx+mT59erBd35wg4Ao6AI+AIOAIVLWDdlAAAQABJREFUiEBZlQc6tnQ+ll9uuXDttdeG7t27KyR0bp0aBwHD8qOPPgq//vprWE6wBvNq6zgzMk5+e+WVV8K2224bGPnWqVzPa3Of0RjYkiK78cYbF82rW7du4eabbw4oEdWWF4sGyR06Ao6AI+AIOALNAIGyKg/WsW0jHYhhw4Y1A3gqU0Q6xfyuuebqcPXV14Rll1023HTTTbqM5PHHHw9bbLGFdJRZshN0GmvgwIHhmWeeiWd9iJWlRWXGsBGkIvKC0VFHHRW+/fbbmCG4OTUCAgLjTz/9lJdRMo/hdsKECWHRRRfN68ctHQFHwBFwBBwBR6CyESir8lDZUDQf6egA9+rVK3z99de6xnHxxRdXxYAlIZtvvrnutqfj1rp1m9BK1vmPGjUq4Oazzz5TpaEaRuBtjwczDlC/fv3CB++/j9bUfBK6GUtqStps2SPRtl07zXfMOFi6NOOoueiOgCPgCDgCjkBVI+A7F5th8rMxShUH6QhvseUWuhyEjtlWW22lsWndqnX4+OOPdX35rbfcoh23L+TMb37aqauCDrQujREliyVbNgLOhmk6r2Dgv9JigIrGj1nGTFrIh+Cu75pL/Y8j4Ag4Ao6AI+AINEcEfOahmaRacsT2ggsu0A7xLrvsEm6W5UqtpYOM/ZjRo7VTPHTo0FBTU6Mx21ncHH3MMapssKRpn332qZ7N06IkcTqQYUfHVecdqkB5qqRsDf4Qm9ZR5GxWopJkdFkcgWpFwAZSBg0apPcEgAPl1MptteLSnOJtgzKk2+qrr164jo32rZH2LGnu1KlTfBpec4q3y8qYXOZUSZ5LLLFEGDt2bL32IzYUQ1ceGopcmf3Z6DnBzmTzr2SU3XbbLT7i9ptvvgmTJk9WqQ444IA4Q9EAzD///OHLL7/UC0Q0o0knThz4Ep4yp6EH5wg4Ao5ApSGgbYIINX78eG03OBWNAw60zfEtYpWWXFnl4XhOVhwwOmaDZVkdRoYoG59//rkqDJxImOxf5PPndpWHgKUd5ZjbpfkmD2i5lvdSUZMpD2+88Ubo3Llz6Nu3b6ni1qL4JjOIRYw9DmZ++eWXa2bh+NtNN900zjjYs1mVymLxxXvF7uXF2PjTEXAEHAFHoAoRoIMBWTvCc9111w1PPfmkDy41o/xgHcV0euaMgqQ7KxaYmccPnU3LAzn9uEVlIkAZlnJrs08ImXwvldDl3fMgkZwlWi7TKquuumpYeumlNV6W4UsVyZbAF4wMp/YdOuiIAXsfoMky43DmGWeq2VJLLaVPyzzPPfecLlni9KUVV1wpriCoLJwcAUfAEXAEqhcBOozaaYwGk2hjvBPZ/PKDpVmcngWigMpo/QmeHG3u1EwRiMpuuaUva44hw7KBkmkyyDq4lvHV0P9kRUAxkkIOvSVTU9Drr72uigJTzLaR4dZbb9VK4YcffggrrbRS2HDDDfV74W4L64iSepQ/hr19+9MRcAQcAUfAEXAEHAFHwBEohEBZlQc6wLYWK0g/2JSIQkK6fQYB23DaWzbFXHzxxaIAZDafMvUInXfeeWHllVdWPWLcuHHh7bffVsWBy/i4NM6VtAyO/tcRcAQcAUeg4QgkR60bzqXpfVbzDDz9ARuUpG9haZotVZKLnHk3t96nyIZWdZiVVXkAUsuwsghHEbZMWB1wN04sweygAw8MU6dODSxL4jdt2rQw/PDDFV/s55tvvrDnnnuGV199VZctsWnaC3rj4O9cHAFHwBGodgS4L0h/0Yx4c8ODdrIaZ+CJN30BnlArNlrrM6kiqFH8Z3bkVgd/I1N4VLPyFYNTIS/JtLC9LKUUrck2TJcyUi2dN5mESo8lYGuuuaZGl83Tv0yZohtnUBz69+8frrvuuvhoUqswWjo2Hj9HwBFwBByB0iKgA1HSeZQeqHZCm9vAlHWcbdae+4CqhSytZN5BlYi27drWUiay4UB/g34HOBlmmBmO2fy4WXkRQPUbMGBAeO2118K7774blllmmZIK4MpDSeEtDXMbLeEUpcGDB2tmoWCzKZoj25iRGDlyZNhss83CsssuG1588cUw77zzZioIcccUpZMj4Ag4Ao6AI9BgBERx2H///cNtt92mbQt8KrkzSafZ5ON9hhx53kEOH7HOcINxaGYewUCxkNUf9Bk4ndEUinxRMWWB5yWXXBJWWGGFovzl4+l2jYOApqmkC8vTeb/vvvvCcccd1zjMc3Bx5SEHMJVsjKJw4403hn333TdTCUSVAYpDsoLEHRroAgssEJ6Uo/c23FA2T0vEck9OVnKsXTZHwBFwBByBSkGAtuThhx4OU5jxFqLtoc2pVLLOr8onwrdu0zr88ssvmU9pQ6uVWPJciNLKxZVXXqkKRCF/bl9eBEw5LkeoPgRdDpQbOYzPPvtMFQc0gcUXXzy88847YYKcrkTlyFQkxG2hkyZNCn369NFKfcstt9TL5WpVoI0sl7NzBBwBR8ARaPkI6Ey3dLj1nzwZyGIkn85LvBdCFIlKemeGYeLEiYG7kJCbb+S94/Y7KkrOSsLMZCG9OeCGG4wh+hFO1Y1AWXMAhRUN1n5An9Zoqzs5Cseeyo4TlaCuC3XVW6NZmsS4CQWc2QcIXNkkjWLRVvZG/Prrr+EJmX2wSl8d+Z94GhtcnBwBR8ARcAQKI5Bsw3FNuxR3KKXtkQaoIn60i/bj+PLFFltMlRyTnzX8++y7T5guig+bgnVjcJGyw7dS4llqOUhf66vxzk/+gIBTlSJQVuXBKhfWyg0fPjxwK7JT8QhYAWZzNFiec845cyrsHGwYZbHRgpdfflndWyWQw0vVGYMreGqFWHWxb/wIO46Nj6lzdAQcgfojYG3dbzJ4huLAEqtkXc+AJmYHHXSQmmsfRdoDG0yywTbqtOQ7ksDbzOsvmftwBJo3AmXd82CFDcj++c9/KnIUSC2wzRvHkks/Wyo5rpMHL3Ck0uvUqVPB/QtUbkwn44fNYRDvThkEQKLW+Ing5dQwBECOvOX5q2H4uS9HwBFoXARoLz/88MPQf9n+Us/PGT2njqJt5Imb66+/XgfjFl544TBBlja9//77YfLkydp2slxn+rTpYcGuC4bevXvrjwNIjLy+MyT8WU0IlFV5AFgKWrKwueJQXHazS1zArmvXruHrr74O//rXv8JOO+0UWotZjG2kTljFOGb06MAeCb7XWmstdWd2xYXcsl3R4e3cubOOPoGLU/EIxGVZYKNhhsiPt99+e/FM3KUj4Ag4Ao2IAOv0pZOhHF9+6aUwcP31dXO07XHgaWR1Pv2Qbt26ad/E2sdin3379g3rrbde2GijjcLaa68d+MavzWJYWCaT8Y3N/cURmBsEJK9pnpc8TF/Q+telHpgvu/IwNxhVs18yBJUO9Morr4RePXuF0aIYoBBwklK2c6qff/55rdQkO6nCscEGG+goiytsc3IShW6GLAMDX5Z4ZcNxjmt/SyNAXgI7jgemUR4zZow+Hcc0Uv7tCDgCpUZA28ioA8UFqeusu64GWag+sg49+wMXXHDBMO8884S20h5Y/caTGXyWOFHXsXT4559/1rqP4zHHjRsXbrnllngTNnxOOeWUMGyvvULPXr0ysxxR5C2sUmPh/KsDAXqF7NVpSx9R3mmPaYtL3c9z5aGZ5C8qq/bt22sltOiii4abb7457PHnPcJrUkFyFCtLkqiU+McIChUc061kIDTQr776SjMV4zGl1kibCaQqJkvBKHBgd+utt4YddtihOYnfpLKSjwQ4HeXjvhGU2KSS26TCeeCOgCNQdQhQ/0B33nmnzoLyjtnsWfkPxMCNtZVvvvlm6CbLl2gbrH6DD2RtJ+0FhDLx22+/6b1KJ598si53ghedN75RIODLoSaPPfZYWKR7d1VK1LP/cQQaAQHyG8oqeZJldxw/zKE6fGNXKirrhmnrbOjxXxKx5PRhqSLYUviiOEBkBnDcZZedw3vvvaejGvR+OasZO35kHtzwvvvuu2vl1iHyL4Yl10ibFeZRI9CYMrPG9oMPPtC1tqyd/VDex48fr0FQoK3hKTZMTsp6X9J6ZnQU4rfffqv3d2h5KpZJCdzRKNLA8kRRhSjbVGROjoAj4AiUCwGrV6kTL7744rDzzjvHQaudDhHFRnVe8EcdRp9kq6220otUMcuoCHOcU9dB1tbOIzMUdNj+9Kc/6cmG+Kf9HTVqVNhjjz0yCokoLmPHjg29ZAaiQ8eOYejQoeGLL77Q8KwtSD/nhOhvjkBxCJAnmQFjhmyLLbbQPFqcz4a5KqvyoCJKBCmQn3zySfjxxx/r3ZFqWDRbli+twATHfv36hU8//TTMmDkjPPvss+Gaa64JF154YXj44YcDt0/PksqQy+TYWJ2uBFsWIpUTGxocRpns179//7C0XBO/5JJL6pIopsS//PJLVe6KlZrNfMstv3z4Mpo9OuOMM8Ly8s2GPidHwBFwBByBTIf+/PPPD4cffvhcjbqy9PKFF16I9xLWB1s6cCgU7IG47tprdUnshIkTwtFHH63LoeBF+8wJiKwYuOqqq1SJsBUB+HdyBOYGAVNw54ZHMX7LqjxYpBgxX3rppXV5jWncxQjrbuYgQCWjIyoyks0mmXXWWSfsueee4Ygjjgibb7555iSmREXkldIc7Er9RrqgsDEKpSNaMhLA+z333KPrZLnYz8pCMbLADz7wgP7yl7+E5557LnTp0qUY7+7GEXAEHIEWiwD1I+3boYceGo477jitW+e2vVt/4PphZlTf1hc45JHGObPsSTwvIPX0WWedFbhnghUCjAq3lRlbljtxRCyrCvbeZx8dTK1vWO7eEUgjoPkvbViC77IqD8hPxJhWsY7Q3BbyEmBSESwtA/DkmNZp0YZUEw78sFN73EjnEsLc7GZFHU4zw17d41b8OJUGAcOYNGEZTxtZxkM+32abbQKb1tPLetjPcuCBB+qlfhwFeMMNN8SCwcvKiG36+0CWQt133306qoVDwvni88/DwIED9eSoP/7xj+Hrr7+O8wQN6oUXXqBpHzOWF5SZI488MrAMyskRcAQcgeaAAHWikb0zcHbppZeqsda74iZZd5p7q0tt8IY61cxwwzs/LlvV5UvmsYin8dFnxEeYwVRnnQmTuv/BBx8MU6Q95+ATCPfMLrNXkZlqW55qceNp70WI4U6qHAHLh6WGoezKQ6kj1FL4kwGoMDhPms7nfHJbtBho9FiyQiXEj8rP3gs9WXcJaUVEpeZUEgTiwivpxRG7pkSA+8cff6zT1Kyv5fvKK68MHWUdLFPcm2yySVhkkUXC3nvvHeabbz490SNbKj0qG+8uOP+C8Jts1oPHbrvtFnrLNPhLcizhtttsq8uiei7WU6fOieC9994bjjnmWF1nyzd+kGn//fcPd999d+gum/icHAFHwBFoDghQJ9oAGXUt9SaHXXCqYDZKm7duJReCzs4MysAH4rjuQYMG6cwFgypcqMreiTlqSjbODTdD7tVWW00HUlmJ0a9vP62X2S/XUWatGQBiMzZEfc3PyRGoJAR8Z2MlpUZKFiqYnj17xsdgUn1QidDZY08D77jJV7GYfZvWbXRk2/yIJx0RSQXpn42EAMrB+RdcoModDRRT1pyQxSg/G+ZQ9NizwPrcHj166F0cmEHvvvOOnpbAvgmUjTSpMiLNGiNZn8sdHnfccUcYNmxYuFYUEEtvpvCvuOKK8L///S/8T0a4usj6WtYDczkj/p544okw6cdJ4eqrr1Y/6TD82xFwBByBikRA2jzqMOo67lVg0ETrvSxdfe5EYm/gMrLvjCfLpbmHYamlltL2kPjhN0nUr/DP164m3c/NO+Eg14cffRi+++47OQhll/D000+HZ555JnSet3M45dRTwilyahOrCJwcgUpCwJWHSkqNLLIwEpGmkSNHasVG5WaVnL5HlaCNUViliB0Voi17SfPz78ZHAIXhoosuUsbgT1qg9J155hkys7CPph9Hm7KEj069KQ546L/ccqGvNCjj5VAB0i0bwRM697zzlPff/vY3/SZcwrrkkkv0Z2GvsMIKOpJ29tln60zHOeecI61mCNtuu6368z+OgCPgCFQKAtRbVneZTAy8PPbYozIAclF46623zFjrO2vrGJhh4GRdud9hnuigELOLPRR4oU2F6uuvANta1sbbnljSPtAmcFrT6n/4Q3hPlqf+/e9/DxfIIBTHx9bU1CgP2gT8Jf2qhf+pWgSsrHDC179lMPFTGVTkSP9Ski9bKiW6JeZNhqHzyRSrVnhSoUiNoqH++9//rjW1mzEtsUDOXhGgUmcTHHdrcLIS+w8+lz0Jb7zxRth72N6xG+xIQ05i4pkkNkNPl7S1qeukXfKdmQXCwz1P8oE1LrizGye59ZkwOGucWRAaKU76cHIEHAFHoNIQoC7jx2AIM7bt5cI2ZuGHSf1JR5q6zH7a9lF9yu+RRx4Jmw7eVJf7ziNLfpm5pT60o6QrLZ7Z5GGp8liZfX700UfVmqO6+y7ZV/bCXa9xIb7g4uQIJBFgfyX7aZilYt/kdNmcX0py5aGU6JaKt1ScLFuiQuFyuI032iiuSC1IbrbkxuT5Za8EN03rhTdm6c+SIkCjhrJGg0UDCFHha2Mn7zyh9ddfX+11FkBN5vxhxolGhGP/8hHLlaB48528M4vBVD5p/7RMfxMeMw9cHLPTTjtlliqJhJyFjnwmjzLyP46AI+AINDUCUmfddNNNOiiyl7Rls+SuBJQA9gJwhwL3JEyN9nwxgDb5p8lh3Mfjws3iZ7Gei2m9xsALy5Q4hIL2stmQxJ1Bn0033VRPZGJwCUJxYl+GHsIhex2dHAEQoP1WZTvqY2DGKpN2MoBZSiqv8hBFkghZp6qUkWtJvJMdPLqe3Bfw2eefKY5ssMKeU5mM+smaTswYteDMaVtCY/ZiGb/6S+MioHlbKv/kMjEt3GJmT0JcaaWVdC3u/fffr8evTpw4US/++4NMWXMHyiUXXxKXE/zReNqyJFNG9pEj/tqJssB0/WMyUsVsxYjHR2iad+rYKawn0/fkAxoclBTeWeJ05FFHxoqJytu4EDg3R8ARcATqhQB1E0Snf4DUgRwcMVVOJZpfDo+48647tf5jxpRT5ZiF4MI1iPqLDc99+vQJO8ueAfaBoVhwwzPEDDAXuR177LFa/6lhBf/hkA2JlMaLwUFO1/vrSX/V72dFceLOH07og2jzDbcKjpKLVkIEyP+WB3jST+BZ6na9rMqDdVeTkUpGvIT4NnvWhhmZYls58hOic/r666+H77//XjOKVjpijhvMqWA23HBDnGrFOXnSJLXDXjyouf9pXARAFXz5FUKYNOUErIMPPjhcKxf80cBxVB9LnB5//PGw2+67qXDKS9wyo0CaW5nhyffX33wTVlxxxbC5nB9OYzNksyFhlVVWCR+N+0hP6kLRIG8MHjxYT3Hi+4QTTlAZ5U/jAuDcHAFHwBFoAALUlwx2cXka7Rf120knnRQmycESO2y/fVzvFWQt/hh1Zb8Adykww0sdyt6yDaP2sCCPCnJADU1c/vOf/+jdEx988EHgriAugdW6XeLr5AiUG4HyKg9RR2UF0Zzp7AwZMiQeSS13xJtjeNYpfUJGX3jn5BxwpJJNEnZUKixb4lQdlq+gjT7zzCh1lnaf9Ovvc4cAnXSwZsRMEqYgM9KJzc0/yyY5/PFjYyDHD0Kk5WGHHablhAbD0h13dkkcje3o0aPVDeYsl2IZE+kuHpQnvLCjcV5jjTXCQgstlNkfIfZOjoAj4Ag0NQLMmjKDwDKkNlIvTpLBLjrNSlFdSn1ZiGjf+FFXsvfsqaeeCtddd51+P/fsc2GxxRbTerEQn0qwt7ggy9Zbbx0++ugjFYsBw+5yrPdsiSPxdHIEyo1A4ZLYiBJZwWf9PSMLbG5KLu1oxKBaJCu6omBI55An6zkhq2AMXxudxo6KhV33dBxfejlzpB3mThECiQ5+JVTCpKVRMh3NDHtL57RZOh8wMoUyg/k1MrPBMika5idFoTRK8zLz+jwrAbf6yOtuHQFHoDIQoF2CWI7J2n7qKga9vpDDJNjvNTd1C7wg6rg9dt893CmHiEhXWwdnuNHZeNtTHVfgH6vXEa2mpiaMGTNGcWIfB3dFpOVPf1dglFykFoBAkx7VaoVbcn9Ro7QtAO+5igLjC6ZAcMkNChgbqPJ1AMGYERwqFJbFONVGIK5oBdwHHngg670KtX00ny/yBY0zcTzxxBN12dN2220X/o/Ljyhzc0nWqKHMfibrjJ0cAUfAEagPAtYHOGL4cD2Vjm/aNW5bNjvqKnuvD2/cWj3HRat/2nHH8L9XX9XlS5xGwyWZa621VoN511eWxnBPnY7C8Nijj+nyVE6eYm8IN1QbRvZsjPCchyOQC4EmVR7iSkEqDKfiEVh11VXDiy++qOvWOZGBU3SMYkwjg+FSKXP5DMSmWrWP7KS2sbeqfVrjglZ2yy23tCgctBERHYHRNt7p5LNulhun43g3cowZNXRyBBwBR6BYBH7++edw2eWXa510yimnBC7HtA5wuj0rlqe5gw8/BlF4nnXWWXqZ5oQJE8LGG2+sdypYWOankp8m6+BNB+shKH/5y1/0VCqWNG0jeyHVnoEhiWtO7CL7So6ny9YwBEh/++VM/4axruOryZQHKwR1JHKDnAgYZhy9yubZ2XJ8HYrEcnKp2N13360zCx3lBApOq+D8/6222irMnCFLnNpkbrHkVk1O3ZGpipxhVJsFmHKb53ly2Zo2MNUGQCPGl02KdU71akT+zsoRcARaFgIMX7EHi7qXgQduU6bja2Rtnn3X92n+GbG3ztT48eN1PxibqbkjidmH5kiHHHKI3gXB4Ro7yqzKD7IPorOcTMVyJvoAHJjCqX2cVsWJjJ2kb4A9+0AEDN0vobjQJ4gwN7yaIx7VLDMDg/QJ2f/IJYM1NTWqRJQSkyZTHkoZqWrg/b4c38YIDZnmHblQhlN6ROeUSiAT+7gSkG+OdcUNZBt6qTScMtPaHI2K8uX7bxonR7CvwmcgGgdL5+IItGgEpNP6oZweRHvFpmY6sSgSpWifGDhrJfstuT+HQbdXZQkT90ZMESXCOs/NCWvaK4757i5LvCaLwtBNbqhm74jNsqAsZaP5RIHgqFvaPPoQ8CkV5tnCd7PGR4D2lrQfN25cYCZvAbk0ttRpWvYeJBEiUxNRnprBc2Tyxoe45XDs27ev3iB480036+kRVL6mMBiuKBQjRozQo1yTlXHyveUg0rCYgAUjMa44NAy/Or6kLLviUAcVN3AEHIEsCNxx+x3xiUGbbbZZSTs8HNRibSNHwEKcipe9i51FWDHS/kpkZbzEsJZ5dp8NN6WvBCXD45t9bN1kH+NP0lnkdCoGEiH6AfQPWNLMRaAsVx6w2gA1x47O5XvvvacXh3K09/ZyDC6n8BEPp+aLAH0YfgwWM0hc6n5eWZUHK3hcGU+HjcipmWRop/ojQEWw+x67622bVBwzZ82MlTIqnLfeeitslOX26fqH5D4cgSIR8LJcJFDuzBFwBK659hrtAyyzzDKha9euerOy9RNKgQ5tJj8umoPog7Dsp94kHW02diuVsM4DC+snITd0/gXn6xIVLv3kiG8UgJ1ESXjm6af1ND0UIlYmPPbYY+G2W2/V2Ykxr4yJZyU45pV7fjiyFv7sgesyfxdZ+rRTmDZtWtyH0MD8T7NCwPJIOYQuu/LAtes/yaUvnBZEREutHZUDxHKHEVeuUWWCopDMNGbPNC34Ype0L7e8Hp4j4Ag4Ao6AI5BG4Ouvv1ajZZddRtsoxr7L0VZxz02X6P6j5557Li1W3m/a2xkyWDdgwICwoKwxHxfdvZDXUwMtk7MOP/zwgyoKxx13vM7QLLjgAnpwCns3bhUlYaBchgex9t36VXZUN5hqv0CUBU5dPPPMM3XQEZ4c+c6hGnffc7fsi+ikPBsornurIgTKqjyoBi3g6vQh2VUysnV0qwjzoqJquPTu3VsLOwV+pqwlx3zddddVM46z49ejR4/QXdY7svZRn7zLbxExx5/9mKo0vkUJ4Y4cAUfAEXAEHIESIcDmTvoFXbsupCGUQ3GwqCwgyzvoaH/++edmVPCJfMjLXTm0pSwZWlpmTWhj2aAMWYe/ILMiHBAWYXJK3iJyKRz7yaD//ve/4YcfJoQ111yzlrKFe37ZSM2FFwRPfmywZZbiS7lXo5NsqkaJYFbmwAMO8L5CNhAr1Iy8yJYAI75L3dfzDdOGdoU9KdiS+npHwy8//yKlXSolyRxtxZzTFDhqrhiSKkL94tYqNTKV8i+GgbtxBBwBR8ARcARKgIB1clh6U26iM02baJ3+YsOn7fyvKA88rR3lVCNOOuQiTpYL9ZCOvu0g0BUAsha9IYSMl112WTj00EOlPxB0oJBBwC6yIbYxCPlnCwZcJIsit8cee4Tbb789XC2Xir7z7rt6EqHFsTHCcx6lQ8DSyU5eKl1IGc6uPJQa4Qbyt0qVc6nJDL//LoqDjJJAxx17bJgkS7/QNC3DFAqGSogbPJ0cAUfAEXAEHIEmR0AGsVRpkE5xsYNhjSkzG4dpZ5mlrw/R7o4cOVL94l9H9IUB72+88YaeZLT22muHf8uN1uwrYKVFQ+ka6cQfdthh6n3TIZvq0awSkIZVbNufN2zhZUubcHeDXJ7HyoZDDj4kcCQ8p1FxlDlxc6pMBEgby4dnnHG6zFLdpwflsDSvlOTKQynRnQveVAz8Djn4YB3BSFYUe/z5zw3iTAaDj1cEc+CjIfjkk0909Elx8UpyDjgF3mhOLD8xGT5v585hiSWWaLyGrUD4bu0IOALNFwHqD44M5XhJfrbswjrjpYwZ9yCw3p+wnn/u+bDbbruFzYYM0QtXu0qni2VINhuSbC+p51g69Nprr8mcvrSl8s/kNnn5puPdq1cvuYhuo3DXXXfr8iCtK8VOKk11Gted0TeG+MUcelXuauIWbGjzzTcLDz30sL7jP+Mi8zlXfxO8iGdbUXQOOuggZck9Es8++2w49dRTw6lyeZ+Gm5B1rsJ1z42GgOUXGJ577nl6mhZK53HHHddoYWRj5MpDNlQqzIyKIlmBzY148NHMRifZK4JwxRVXBCpJGpF0IzA3OFeLX3AjPzH937qVnFwy4vEwaNCgaom+x9MRcATmAgGOZx01apR2xrUOieph6pRkp2gugoi9Ur9TX9EGcjkchNmrr70aXn/j9XDbbbepmbUFPPnNM888YZeddwm77LqL7gdgfwB13WxZDZCPkP/JJ5/SU6SYiWBjNvxEAG17TZ4kD/wgH6sNNpIbsHln9uKBBx5MOivdexT+AbLn4cknnwz33HNP+Pvf/x722muvUFNTo3hpHEongXNuJgi48lDhCcWNkJymQCUyt/T222+H/nIpDBflOGUQYP8IFTYVIhfmOBWPAHkS3DhB7e2xY3UUTs8LL56Fu3QEHIEqRYB6l7X8xx9/vNbBLI/ZWDrMmJeCrNML/0svvVSDYKT9dVlq9MH7H4SRT48MTz31VHhX1vpDdO6p41jedOVVV8o+gKvjASat90J+BYIz922f4Ysvviij+m3D4E0HywzCQ3oePzzgn4wv7/wOP/xwDZd39jiUg0wOk4FL5NjHwfGtK6+8cpgsS6UNw3LI42FUNgJlVR5M07YCw+RbaaqJyga9PtJJ3aHUEKSYUsWfPWHE+kbDP8O5uv9aAzGvjC6NlQ5wg0kaAdQ7q4Bz8hF3kKaBpEUuwh6CX530isIye3XYVH+QU2SkoQRLL89NlRAeriPQ/BDgtmdO+eFuggMPPDB8+OGHdeu7xoqW1FWz5ceo/r333Kt16+lnnBGWW265sPzyy4dtt9s2Dsnq3/Hjx+t9SdxG/Zr8XpXlSl988YW6y9T4sZc6L4STJNxzp0T7du3DAQceECsw1JkchkIdSrj8rr76avV69tlnB26ENnmS/Ip9xy/tiNbP8tQ6Wp7FEIoUF84xyDZCZIcXfJwcgdy9lxJgY1or5wpz+/Eaa66hHY8SBNXsWVJI+f00+ScdvWCKtL4/TnnAjxZ4eVJBQgU7uM0evfJHgEYJXCdNmqQjNIzSJH8mESqB/cws29PSiJErKu5ZUUM0XUaBfpQwSFMnR8ARcASaOwLvvPOORoHLYxnAKVndRsdZfltvvbUOqBGozXpkwxC3NTU1YautttJ1//fff3/4VJQJyAad9KOef1AirrrqKt1TwS3RU6VOt74RrPaSJUJggDIxfPjwenKv69zaEpvp0PaniPYDGYg/S67gsdvuu2vj1ZCBzLpSuUlzR6CsyoOBxRrCsbKEhqk8yDVZQ2bOk8KquMizwRT5pRKwCtmxbjCaOT0avmDLLanJH1fFc5Y2DQHH67FelrRNNha5GOOOdbL4fzeaur72uuv0uL7PPvtM+eTy6+aOgCPgCDQHBGqkg7rKKqtofbbaaquVTGTqaepTjlKlbr322mv1oIz0DAECYA9Zu6kfYmYnJ5m9mjfgj/k/99xzdeaFTcm0H/zYZ0C4bFxu164dQjQghDleGIBikzc/+MOb8G1J1RyXtd9ww++kv/5Vn2wwnz5jeoxNbdf+VW0INInyoCBLpjQqpiNlbqvpSYfTCnA63lQAVrFRCXz11Vd6jNstN9+iFaRVDFQW8OAJwdOpcREAX3C1kR2O1P3222/199133wU6+tdJp5/9AMvIhULJSpx00rSM0scqd5OQhg3e+MHdOuusE84//3y9MMjcGA++cYMf+Giay3c2srwjHrJZu5kj4Ag4AmVDYMSIEXoUOXUXdWRcP4kE1nY1VBjj9emnn+phDtTXK624ot5p0L59ez1hKBdv6vQ4fKkrH3jggZyd52xtNWaQPdtES1WpszP1cybk0047TZUINiezxxH3e8kMhPaN5N38Z1wX95d2p0+fPoorJ0cRV54MRp0ipyexVy2mPO3AENnUzt4HZPj+++/jWZvYr780OQLkcfIU+YV04mf5vlTCNZ3yUKoYVQlfMsZ7sh6RS2kYnejVs5cc57Z5+POefw4bbLCBmtGJ5SQhKmSthKoEm6aOJmmzkMxAcNwfZy1zWsaee+4Z9t13X13by2U8WsBFUBoTRsL+dvLJ4aSTTpKbS5/UQm8Fn3SjUsA9BM+amho1MzdccoRycswxx4SLLrpIlRVc8xshN5Hed999cxpAmAgxA/Lggw9qY5Ax8b+OgCPgCJQPAeovltZC1JOc7oMZx7bSrlHvWYeooVJZx/8zURxs4Ka9tJcvyWlLNpBWaPgkbjulDmamQOtd8WR1sslmHTbtwEW7v/Rd/Jlb9hyuvdbauiGamY9XX/2ftgnwZN8HnXtOcmIvCLMxDSX2aPSp6RPGyzIr6n/6AGD5wQcfhKWWWiqcfvrpuseEcDEXAXMGhQ1KCG7ho/HP6dotmgIBFME4n0reJI0sz5VKnrJumC5VJKqRL51FzoDWTCIVFesoUSJYGjNBrq3nG7srr7wyXCObr7gBk5ObnMqAAAVXGgkrwBRq3idOmCiNZWYtK1J89vnnesITjQZngkNcCsiyJ07YsEterBKABx1+Lg1iY2FnuVdhpJwOMmiTTdQvG9tQTI4++uiw6qqrhldeeSVce8214Z5779FGxMLA8X777aeb92wvhTLwP46AI+AIlAkBq9fovNKRX0fW1tPpXX311XXvA4NfbNidm1PwqHtvuvGmsOdee2qs5p9/ft2XxgeKhXXu80WZG5htudL777+vnTKt23+v3eGGH3Gi/qaz3a9fv7CJ1M0bb7RRWLx37zgIi7cZmIKDOZfMsU9xEbmhOu4MmsMin8g2ePBgbXOMN17hTxsxZswY7Sdcf8P14Z8y2MSGdUuDZBAaR/GDcrXmmmsG9qaYWdKdv1cAApJO5EbSkj4AN4ZLYuVVCudW6iaZeSADasTmVvoq8q+YRfFlAy2dPyoDFIY7/n2HFmqOVGNakXWJVAbrr7++Tk3OlPc+cru08bBnFcFX1qhS2XJjKpunJ06cGNgIyN0Hd919V1iw64J6bjgCDRw4UNfcchQgU+r8PheFAj9LSuMDkcakFz9GF+wbO0aBNpFGgpkNZh9oaFm+xuUw/5MLhp747xPx8YI77bQTXpSQjVM//sxlg8LTyRFwBByBJkFA6h+bAaCDzmg7HXQUB4iDVegIT5MBFpulSMqpo+aRAXWkdZZ5Z+kog2ks/4GWlDZwstTJ1KH8iu6ci1vjTd2MX/ZtLrBAl7DrrrvqzDGDMOaGpaovvfSS3hsxbNiw0FsuzrQweaYpKQcyQyg59SXCBw9Og0LO0884LWu4YEQfYvr0GdrZxB8y8EySycoThQ577aLWdpb04u9NhABlg/Qh7ekX7LHHHiVv28uqPBA5y6CcTkOBSxb+JsK9WQRLATb8OFqOQkyBnyQzCttvv71WmuaGipd3zqz+v4svVgWDzU6MREOWBs0i4s1QSPJ0t27ddGNzd3kyAsUZ5ihzTCOTPigKFHQ2xbGeFCJdevToocubfpMbUNVMZirSZGXmrrvuUj+XXHKJKhYsgYLHmWeeqYrLBhusr8f8MXLHaBPKDH5vkBEnhpMuvPBCzSdp/v7tCDgCjkCTICD1lx0Napunn3jiidBRRlT7yXIbZl6t/eKJ4kFnmB9tHs+TZQkoyzupS3/+6WfpRAU9+pTlUFab4q5Ygi9E3ckMPvvP2L/2gwzC3HrrrarcJDvf1g4Xyz/pjoEk/Nvt1km7Qu/443fLLbeo03XXXU/xSPszZcUwM39pd8lvBqggXdEQo5h04e9NioCku5WHZPkopUxlVR4sIl9Kp4kOVPsOHTKdF6kEnAojQCGHGFWgQjznnHPikQO1MxzlqRWCuKVzyugL3yNHjowrWWXkf0qCAA0aDQ0zQTMiBZkG5+mnn9alRgRKGlJ56+yQdPpJHyp1UnjJJfuE2bNmyzKnCZrOmrYJSbWhEr+jR49WHiussEK8TMqckebMSuGXWQhGIy677DJtbI877viw5dAtdeOcVTTmz5+OgCPgCDQFAtRFDCrypPNMvUWHf4011tC6kRlcjlnVelLqte7du6uiwYzC/LIkl3qXOu8MubuB+hV3Bx9ysHb099lnn4zSQRhSd2JXLFGHIhO8uXPB/Gq9LOb6FDdGuLXZFDPL98S9kjwZSOKb+ro+hB/jw8ZoI5XNPqKnmREPRqz5xq+Zp5zrJwNPEG7yuVNH/qesCKgiLOmXplKnU/ElKC1ZA74tMhOkYJNZTfOV3NgAbtXpBQw1s0j0a2pqtNNoMw3gqBjLU0me4EyFB9GBxd7RVjhK+geMrUKmklbco3TBvIesacWMDr2Ruhe3o0Y9q0rDAnLMK24wT5Kmv5izMR57liCZX+xYutanT59w4T//qeY0SCwHYJPca3LJEYoNsxMmV5K3vzsCjoAj0BQIUJfR6ebJD0IxYAkQqxQ4ZY7ZCKu3mE3/5ONPdBaXmVrqQPaBbbLJID15kA44s7J2UpDylfoV//Ul82Ny4V/fIznjbzPHoEgyntTy7JcgLE5cStf7+dhp/R/htvPOO6tT6noIO+OlT/lmdoYBpudfeEHbA3WY+mNuMX5bjtaHkrzUwP80OQJaHhL5WvN5Il+WSsD6l6JSSeJ88yJghZ/OYVupYCGuj2czVz5iMy7LY/Dfq2fPuMIzfvn8ul3jI0DBBvvFJC2GDBmisxGckDRD9iywb+HSSy/VNbQbb7yxpm2udMJ8m2220YbmiCOO0JO3UAqmSiO66aabhq/kNCVG2yDCvPnmm5X/gAED9NQRZivIO/DJFUbjx945OgKOgCNQfwToWB915JE620o9RztIfWmXoJoZy34ef3yE1q2EQt1mnfP6h1o+H9TFyEm9zKEa7JuoDyWVG5bMwuuoo45SxSA9u4Adbc4UUVDYCG2zJOk9JYqbuIVYtcC3Dz3WJ1VatltXHppJ+mpBjmQ9/PDDtdN4xx13yOjyhTljQIXKyA0zDlQQekOkuKbiTfLLycAtSoKAVfScGb7FFpuHI6VRZE3vvLIJj5OU2Oz06KOPxid8pIWIZ5qkYWT0jWP9lpPbw5nqn0822nFiByNKjCzReJLe3C7O7APfrNOF2KDo+SCNrn87Ao5ApSFAHSaVle7tQjY6uiwjykXNRWkw+TmdD9JTkmRPAYdacHhGsUR8wYQny5YYLKKdYdXBRNmnYW3+TOkLrC7LwDiR5y/S7oAhfiCTwcI0c57cGcGTf65AGELV/XTloZmlPxXCmf/4R3xiD+vX6TwO22uYXnl/r9xOyYUznO5DxWCnN7AOlE4nZJ3XZhb1kojbunU0RR6NsDQkECpVKmetXOWdETEaukLLw1DoHnroYfXLvQufRyclcAyvTd9vuOGGOnrEueesBz7ggAPCdNlLUVNTo2Fw4Q8NDQoi936w1pfpemYYIJQDS2+mwpm1wi6pNCTf1VORfzTOuBW5CsW1SJbuzBFwBByBOgjY6Dj1KpTu6KbrMPu2Zx2GFWZgcv7xj3/MLLOSGvXOO+9UKbVdQXnKQ/gHE+Ozyy676DHdtEUc+9q2TVttB9hnynImDss4S/oRkPqNcM0WxNixY3UpLP0HNqJ7ZZ8NpaY3I5+wDHrLLbfM9EHku5Tk9zyUEt0S8aawf/PNN2G99dYLr7/2epgiS1VuvOnGcNPNN8WjCASNOzqOF1xwgY5ol0icZs125v+zdx4AUhRLH29QMiIgBkRBgqKi75kDJh4GMCsKpqeiz4iYM+asYED8UAygmBOYA+oTxaz4FMyCGAhiRCQpIH71q91a5vb2jkszt3tXdTc7Mz0d/9NTXdVd3b04y+yrAh8cOPPhmgDNNcS5NO2c5+Z3VZn8RyjigtQcLX3NO9SeN3HHP0oEvswvZxg7q5FA0Xi5/vDDD8MLL4zRDYLeeustfW551QAV/LH0yY9kpoKxeDBHwBFwBBwBQ4DVFOHZbEjHqDR8NltZMr8lneH7bBjLgdky8REPHUesQsU1lgmlkbUjN8jcOYhOSg46q5zyDwHe6YABA8Ls2bPDjTfeGM6U/Z7iJFce4kS3knHz8VIhsglBks1AWG2HHmds3z/+6OMwZ+4cZQiYr7SQybbHHXec2j0ifBKXU3EEwIaDYVw2VqsIToYvtqr6J+8HkyDeE89KItJi7wZVBuRsaZs74Xhr9LpFn+FOvdD4CSf3XNvIEs+513gkfcyYIIawWX1rWY2Gei7DDzXTapXFafdlCO5eHAFHwBFwBCIIwNfZaZuJ05ikMlm8a9euER9lu7Q2iXaAzUHXXHPN1MpKtEdpWSCXbBGNnThYmpaRcMbR2VuKeZZO+YkA7T3vG6I9pi0uLj3q4yr5SVR5oHAmBFEZzWQEt2VV5CopbQFFYsKYCY5UCj5mcDKBlGccrLYTpQzG4tfI8TUkip5tMx7wpnemJhMbA7GDa5zUWJRaJ0fAEXAEHIGKIbCizFvDTPWjjz7SpbwxQ62IjESbj3xglBm9SMsFJkfY82y5gftuYjZrssMgGQkZPXp0RoazcH6ufgSy6wfvzN5bXLlLXHmwAqX6aEW4dcUh57vNfPSCD0TPOBNp6UWmN4BeZmwZd9555zBkyBDF0Xp9FeN0uJyRu2MGgX79+oWtt946sEpHNjPNePKLMiHAaBerhTg5Ao6AI+AIVAyBv6SjkAUz2qzeJvxd5++w2267hWeeeaZikZUjVLbcMErmT34q8x1oF5944gk1TbVOzHJE615rKAKJKg8mnLWT7dpZTozJNyrwyseS0YprKNDlLZZpkpi0XHTRReHKK64UrEw9SJmtsHHLF198obtnspTaVltttTSZyKjDUke/ykaAOmmTi7Of+X0FEEBp5fD6VwHwPIgj4AiUhEB2z3hJ/rLdrS3Ndk/8vox8kY5D5sANunZQOOuss9SyABt2luQ2iq1Mab796aefBiZdo8gwiRsFxtI00xjLi59rJwKJKg8GMSvEsI6xMQMXNAyZpWcboXnvvfd0Qy97wmQq1vFnFaWXX35ZcWQnYzYMwyylItvaW9x+dgQqjYArDZWG0CNwBByBoghkC67sX8RSpj/IwiGsUsfIcevWrUPbtm21Y3L11VdPWTVI5xDCbmYkv2i0lb4jX7fffnuYOHGidkJ17txZl8hmx2uWzWaemaWtXX/i39r2aOIZWUgceV5HFAgmSz/99NO6FxDXlKlPnz5L5aZoBFV0TT6++eabsOGGGypudPK+9NJLmdij+cw4+kWtRKBalAeQphLykfgwWOn1jhUXILBigrT1krPjJqM1mDI98MADujTXpEmT3GykdDj9qSPgCDgCjkCBIUD7xx4FBx98SBj92GidEIqbyRHZQm3dOnVl75yGKnzTcx4XkQcEbRaiUCVF2mR663HnwI0zI9x6lus2MoGZzj4sBbrJnIJ1WCUv7T87n1gU/POf/wwfTfwoHHLIIWHM82PC7XfcnlKMIvMZssNV9H78+PFhyy221LwSB6s6ku9sfCsav4erOQhUm/JAhYTMlKnmQFq1JXnjjTeEUYRQv0H9sMkmm2QiXy69ZwMbfj1w/wP6gdNL4TbnGYj8whFwBBwBR6AAETBhFTlhypQpOrePM2Q9+Swb2r1797DuuuvqEqIzps+QzTHfCOxLQHhGJ3bccUedH/if//wn3HLLLRlloyohQQlgQ07mIqI4QKRvZeBsC6Dw7Ouvv9bjrrvu4rYYMZ+RSdOMXKy00kq6cuI6ndfRpbbvvPPO8Nrrr4X3339fV1wEC5OlLKLsDlnSNwUg269kMmMMfeCBB4ZHHnlEOiXr6OpMmC6pfCZ+nPIbAXuvdk4ityWvI5lE6p5GqQjABNjYi/W2mBhdEtnnP0fMlpwcAUfAEXAEHIFCQ8AEbto9E3j322+/0KlTJxW2EZR79eoVMOVlHxzWs3/88cfDNddcEy644IIw7NZhuqAIgvqfC/8MQ4cODavI3AGWMx82bFho0rixmvoiMOtRRQAhsHXp0qWKYgu6ySe7QrOrM3lHoP9MNgC96aabdN7jV199pcrKySefHDBZjpYF7LLJBEo7gy2kO1LL+Y477tANZR95+BF177Xvvop3Y8FLKd3Rm7rx33xDIPM+5b1its57RpmNm1x5iBvhCsZPhUDr58wBA7WPPztK3LUC+UeeDY3fOwKOgCPgCBQIAgj+tHs//fST7rSMckD7xjw/lixFkGY/HnEsYrVgbSBnbBqWF0WDfY5mfv99eP3110PTpk3DfNlMdZdddgmnnX667q1TVZDQ9rKMaVUS+zg99+yzYYIsH84qdhCmUcxrXGeddRQTdhPG307SscgqjGCn5c+SA1Q2SGcOpQt8GP04XTYRW65uCicet2jZQpeHfZjRh6w40sH9lKcI8I55ryic48aN07offe9xZLvalAcqcdyFiwOwpOK0j9cwsh4Fu4/mA0aZi2lE/eh1WhGx62LP3cERcAQcAUfAEagGBGjDGF2YKgIQuyDT644iQa87S5dCakYjZ2sf7cyzTBuIAiHhlOR6m2220QnVmOXQjrJj8h577KHyB/fIIhUla5e33HLpPAHmW1g+yxLvcpLXevXqifCX+mNEYd68eWFnUXSkUGp2RdmIkwnY4IFyVV/C4MbCKRtttJHGwX3Pnj11Y7eJolCwG/TkyZPDk088qfMjG4upF9h06NAhDB48WEcyCPPgAw9qnIygRDEtS/7dT/UiEK33DRs2DNtuu61mKO73mOicBz40KuqMGTO08qI1U7lxcyodAZQG8EO7hKFEaXG6xwFmWypJOIYqtVJlxVFqOH/oCDgCjoAj4AjEiABtHKMLHWWUHaK9YzlyRg2qgu6///6w2WabhTPPPFOXP2VkAnOm7Pa0tLSs84421Hr6ceNgfgK7Qi/5W0yHyjFNgOXYpbBh3fXW1VESdpcujUgLP3+IyRKrVrLa08UXX5zqjJWoWB3pxRdf1Htkq7+XiKOIDIQzgRIlbZ+99wlXX3N16NixoybHcydHoKwIJKo8UHGpoGjNixYuStnrlTWntdwfk7/ADfyyP3LFVRjEAhmW/V6GaUsi9tWgh0OVEHkXxkhK8u/ujoAj4Ag4Ao5AUgggFCOU169fX0cLOGe3d5XJy+liskRbyhwJhO4DZOlTJl2XlazNpDefxUpYpITJy0b2vDx5ZuL3U08+FbbfYXttk0ttnyMKAGkwp+O8887Tg3CslsSysexOzUpJzAuhk5a2n8VU1ltvPe2ZZj4DXZDEofKDnL0T196in8uCQLUoD2RMtXM528dWlszWJj/2URs+t912W+AojZhQxVESffzxx4F9IpxJLEWI9cH33HNPZbTlYfhLY6i9V6wKYr1vNFzY4j700ENqq+x1rPbWCy+5I1BWBOC5OhouPeQIwZjrQO+8844qEFxbG8h1ZcjiGTBgQHjhhRfCa6+9FnqIiQ9pwsvsuZ1Ji/yZUP7kk0+GIUOGqH8MjCTnmexgLoLp0Ntvv61uxBFtTzRO8U4Yri38GTLvwJZjt8ii6Ztb5ixhjbJ5LKMJmE9xlJUsLTuXNZz7yx8ErJ4l/Q4TVR7yB+7CyglMAgbmVPUI/N//3RReffVVZej2EVZ9KjU3Rhos6ibYsc8IjfJee+1VcwvsJXMEHIEqR4BVg6699lrlIwcccIAK4lWdiPF3hCwUAcyM6PzAfGnEiBGaNs8YmaDX/tRTT9XVnBj9WLhwYUroTwvvDRo2CP/4xz909MI2VKOdZh+mD/73QRHFgnIQL4oD8yGgtWVvh89kKVTLkzr6jyNQQQSiikNUVsxWMCsYfc5grjzkhKX6HZXZiFCGDSV2oNHKUdHc0TtizKoq4qtoPvIp3BLsQYVY2ozhZ8el7G9Hh73FO8yKUQfO4Fc33cCWPSb36Qg4ArURAdojOPDw4cMz7VxJ+x9UFh/SUv4uZ/j94YcfHkaOHBmYC9Fr317h/AvO11WIWNEo5S81QZu5hIxMnHTSSeG4Y48Na8ou1rSlxu8sX8R/9NFHh379+slqT8treeyZnYn3Q1lBySYmLx1HMB9+dgTKh4DVa86sLMbSu+wHonW4fFGVy7crD+WCK1nPrIrAur0cTvEgYB8YQ+esQOFUTgSEYQmXygTSq8h95oFfOAKOgCOQhYDx30suuUSf0CMfV3uX3QuLCRKKCvMv99p7r4ywRZ7at28f2Fhu99131x2ks8OS2aibXbNHwgn9TlDFATcO6wlmPwoma5uwlwWF3zoCFULA6h6B9957b92skF3JTzvttArFV9ZArjyUFSn35wg4Ao6AI+AIOAJVhgCdDZgsseoiNHr0aJ3Iqzcx/0RH4ps3b64jC/379w8ryaRtOu7KLeRLR8rKMoG5fYf2OoKhSoP0rWyz7TZqzkl6ULnjjRkHj76wEbD6hNKLGR7KBKNl5h5X6XyN1LiQ9XgdAUfAEXAEHAFHoGQEROBZFDHL7dy5c2okkxHNmAkha7fddlMhi70WLr74Yp0HYSnrDsyRfNgIQonZYsRV/LMAB0pRczGN+nLSl+GVV17RPRkIh0AX7SkuMS5/4AiUEQEbvVPvUr+oY0zNj5sSVR5yaUJFCh53aT1+RyAJBOTjjTY01PvovWUh9ZHbXWruAHe53C28PaOHIdstV1j8Wxj8c9j90pT9yhFwBByB6kGAFYrgZ/Al5hYoIYgnQJglQT/LyAd5gEy4ryuLQUTlE3NXTyX9SL6vuOKKcIvsH/HLr7+qKSzhiAuKxldSFO7uCJQXAWvTVW2Q70hqWux1LVGzJT4cCtmmTZtQT5hEfbHl594/qPJWFfef7wjcd+994fkxz2vdZm8NVvPIRUceeWRmiPEosbHdfocdMo2X+R8nq0HdIRMKje655x7didWUB/mIwsOPPKJrhaemH4aAH74tJi+zCdGAcweEqdOmqlsHsee97PLLLTo/O1/VuowAAEAASURBVAKOgCNQPQgIb5o2bVpRGUDcxCH2/CB3dJIN6UwuiZ4rnLjknX0VmDjtsk2FUfSABYBAosqDfkwCCkuk/SlLnyH06JEAoyiAd+FZrCkISH0eO3ZsePDBB7UBoVglKQ/4YWlAqFu3bqo86E3k56spX+mKIObECiH0ZpnSjX0uK3jce9+95kVXW9BePMkLw4tPP/1U+PSzzzQ/bBTkykMGKr9wBByBakKAPtLMjsoqDuBCv2kCJPIHS7IilxiVaXTBPOc4w4uVJE7MnoRR64hGZkQlRxh3cgQKEYFElYeMsGNIudJgSOQ8m7JVZb0wMEnB3HtEcsJdtY7W+tEgLsP+kAbLzIkYKch+P3/9lTI1sp4x9lYo4kfeK8kRD+4kp8qFuGX8pb81fV61Jc0ZWyZdeWrfPY1psWWHaWQjMeAXLCwMj4jrL7GLtqH/iHe/TBgBfS/UMXlP0XeUcDY8uRqEwGabbaY8C06A6VBSgjYjsv/9738VSUYLKqs4FHkl8n0Yv0qqPEXS95tahUCUF3NNmxltg+MAI1HlIY4C1OQ49eVbT0YVFBRmiZAZrWhVEK1HkYUA7+3/ZKfv6667Tj/gbGHYvPMeZsyYkfnQaWQQpLPfT9++fcP+++9vwdR/5oYLiedc2TX1VFmaLdoAEpcxkDfeeEMFd+5RPpIi0jN67PHHdYQkmkd7ZmeesVKEMcCddtpRrpcud2j+/Jw8ArYh4M477xzYGZd3ZEfyufEUCx0B4w0tZKUjGiapTWGO7LHQQlY7SoruvfdercPbb7+9dlqUxpuSypOn4wiUBwFr4wlj/Jhz3OTKQ9wIVzB+qxBsZMPullVBAwcO1Pkm9ABbr0hVxOtxFEegcZMmgQOyRrK4r9TmdOaun3uOj545Ewzto4TQuOWKj56zppIeCqJu0ibx4E/9yrlZs2Y6jI4on8QmblHmRR7It+3imiv/GQwk36x8Yn5efnmsPfJzNSBg74Gkeafcv/zyy2GPPfYInWVjQMw0cHehqxpeTk1IUupTA1nClI4TRiWPkU3YHn74Ya1TcRePestIB+dD//3vRNKMu0wef+1DgPoLwZv5jpAT2CvF3ONCpFqUB+uJzRROCi0ljauMBRsv+IwaNSrMnz9fy0DloHeGf0jvwW1p527qQQm/F1xwgTfyJWBTlc6Zep2ONPs+mlZpz8yf+TEBze7tOWcbTYgqBvgzd/yooMdFQsR3zgFRVy+68EJdgcTuo2euIer3nwv/1F0yub78isvFFSUIFuE8QkGqpp+6deuEAQPOU37D6BDCHp0Q1Evejb+fanoxBZos9YWmC5516qmnhmuvvTY89thjsdWjVPu5tLm84YYblN8AX89dd40t3QJ9PZ7tAkSAHaZfffWVcOyxxy2VD2MqR+LKA73e1sggWKhA5EJBsdcLRqZkmZKAMNVypZY6emAmBOBnAlqxSLIc0EYtTnsHWV781hGoGgRE2qfeWt3kuvO664ZVV101LJHePkZIeGbXmUTFfZ4oy3fccYeGP+zQQ8Ni8W8CasafX8SKAO8LMn6t/EJ40jnnnKvuTPJnfX4aEONV/o4UGv8pBwLWDp1wwgnh2kHXCl9YEi677LJw3nnnVXlHF2lZvYb3XHXVVXRLhO7/6q4ju4xCeB0ux8tzr3mBAHXaviMWQ1lX2lko6h5HRpNVHtICw2yxa0SIoHCLxCQns0JBHCUs4DhhZO3btw8ff/xxpiKwE+fs2bPD1ltvHZ55+umwAuYo6Ya+rEWNNvZlDeP+HIHyIGCDYdG6+feSvzMrS6nigPIgR9RPtIGvIz3dCKjKJ6Sn2yk5BMDcDlLlvcCPtNNCJvAvlvcB77ZnnHXUKy2gWWOmHvzHEciBAPXL6knbtm3DzrvsHMaMGRMuueSScNKJJ4YVmQtRhUR6EGmioNiu1ozuQ9FRWnXwH0egEBCgXkudtm8p+xxXERLdJI4CLic2Wd98840OeaPpm5ARVwELNV5jdBMnTFC7TBSIQw45RCsI5gKvv/Z6aN68he6Xse2224Z33nkntTRcusDRCoSxhzFqc0cQcEqvSiT1krpJL6tT2RHQOiq4oQDkIqvDPGPUjH/qHUqEKQ3mhzMHPIGVlbjGD/N9MJGx535eKtTHgQWYZw55F/AaPeQd8C5SPFvek/hjREjfl5w1DI0Y75rvyalaEeBN8K3xLkrla/LO7H3ZOamMZ6f35JNPatLUpY032STzzVdVfogX+uSTT8Kll16q1yeKktJclJTsvOhD/3EECgCB6up8T3bkQV4EHzAaPsIEH6wKExEGVgDvKrEsIhzQDINTly5dwt13363H119/HYbcOEQ2DrsjzJs3L7BDZ9euXdXflltuGU4++eTQu3dvxRa8LY7EMl5ACdnKPpplF3rK/ea0fgluucRF6q01ypgH8K1r7x6SjQTQ+i1+OEeJDgYjJotDxJPtz/z4ueoR4L3qu02fo9jztk3J+0t4uffYVj3+lY3RvpfUe8v1daZS4MvLKBdZ32Fl81De8HzrX3zxhZpd0MZtvvnmYfz48VoP4R2VJTChM26TTTaVQoew3vrrhSFDhlRZ/JXNn4d3BAoJgaWtdAK5hpGZMKHCQ3rcIeOWQB4KJQlj/gJYRsgynDp06BBuGHxDGHzjYG3EzzrrrPDAAw+E77//XkcgDj7o4HDggQeGli1ahJtvuSX07NkzrLDCCkuxLxQQEsin4YwpWFU0UAlkOW+SqCtLqKIU2Hedqp9LBRXurc6SaVMecKu7RIQB4QfMfUizAS0X8aHQGdWvX1/DWRrm7uf4EABrFAdGgGx0gbkppuLxjiDeHX6jR3y58pjLgwDvBOJbu/se6XSSIxfZ94l/u87lLwk38rD22muH++67L/xbVj/64IMPdEWv/8m5iawkV9k8PvPMM2HvvffWcrZu3VoVE5Tg6i53Eth6Go5AVSOQqPLAR2pMLXr2jzf3azVc7Bz1ZW70+rGfwCBZhpWVT+66667Qr1+/sGDBgvCbCMQoEVADEcK++PLLsOaaa7qQHAFy3333DRdddJH2niIwZSSkiB+/LBkBeqGtLjJHYdPNpFdPCDe+ceuV5p5l5GwpOZ5FeQBhuMcfZjIQ1w1lGUe7Nv/q4D+xIWDvZhFmL/IuUPoWy7tA0DIyP9GzPfNz9SPAu9pETH9efPFFmYsiivpSnb5I5vjG4Hu8Y33P6W+viKeEbsgLRJtFng886MAwafJk7fj6/LPPwjqdO2dyoqNi4t/C2AMrC/dgQJlwA4uPPvpIeQzLWk+fPl2fw5+crxh6fi50BOgEfeGFF3RfKOq9tb9xlCtR5SGOAnicKaELxQEmyL4QfeVgUnq3HXYIH8owLbRQenPnzp2r1/jLZrr6oBb+YA5GI2MNTS2EoEqLTPNvjTETaK23mgvul5d6ukQadMj8Ra9xM4bHNSMP1FWtr3LvFDMCvDNpdJjTYLhH36mlru9O3gdnvbYHfs4LBFDSWU3oyiuv1PdTgu6g3yfvGYWdjSinTZtWvfmnPkkO+hzQJ2y/w/ahQ/v24Y8//xQTo/VDq1atwu233x722msvzWOuMqEsWJ1ktAzzXUYcmK9DRwdzHG688UaYjyoW1VtYT90RqFoEOnbsqAsBXH/99eGUU06p2sizYnPlIQuQQrw1JkrvzDUyAvHQQw+FP4XhQjQMMNMePXqE1Vdf3RlmjhcMPjQ6KqDmeO5O5URA8DQsrW4iEjCXYXmxa6ZHREn8ZasDhIuaLTWU5YUlsnJmwL1XBgG+B5Rp3oUdvIPoW0j1ZqfdxL9TfiHAe+M9ci6NUON5eygb+K9O0rxG6tkqq6wS5kiH1zXXXBMulD1ifvrpp7DPPvtoPjfaaKPQvXt3XXWwnazUxAjlTz//rCsTstY9qzb9Lh1oVn5G3J9/7rmwfrqzSDso0uU1P9VZdk/bEagUAtRl+Xas7VRleRnffqXSk8CJKw/GyrTZkRv/cMv+Cq0x0LMEo3fwvffe0x4mele0waeJl396bHfaaafArtKs/es4l4yzY1MyNhV5UhKeKGjZShr8IFtkiU6SRtnAD4xRpIaKZMfDlBMB+Iv14BKUex2NEIXCCBM1JXkvvBX14+/H4Kn2M+8DsnNJGbIvaln+Sgofp7vuNC8JDBgwIJx77rkyYjBYTHSvDzOmzwgTZESdgx5WkyXIC7yHzgnOKAjbbbdduEcWGllDlAcjG9ksiU+ZPz87AoWCAN+xtqUJ8uDElQeEAO15VFlAGiUprH/Ey66iYEaDzvrqrEjBjpg2xGz4Malsjz320HkP9UXowpTJyRHIFwSop1ZXo3lKi6HqFPWTEWgknDCKlAIRDejXsSHAe4gqECQUfU+xJewROwIgkP7eqXN0iiHwn3rKqbKSYMoU46uvvgpXX321jjDMl00l4RXU13XWWSccKhtLHn300TqaQlS5eA7uTo6AI1BxBBJXHrBDxHaR3oLiRgsVL0hNDGkKA4xxxIgR4dJLLg3Tpk/ToprSBWNkWLdv376Ka1lwsLBl8et+HIEqQ8C6OZcVIYJDmjINPwqEU2IIZHCXFEE+ep+didKeZfv1+8JAwHoyS8qtvXM7l+Svwu6R791GCqQSpjYilEhZlWn48OFljz6tjJQ9gPt0BByB0hBIVHnQ9aSFAazRpo0sAbh4qe1zaTms5c/YapyRBpg0B4L/GmusIbtwXiwT3HqHZuXYYZqwUGwMv5a/Ky/+MhAoq/wv9dwpTxCIKHJ5kiPPRowIWNugHUykU8K3SMcWftRfCX5izGb5oy6EPJa/VB7CEag2BJJVHqyY6Q+ZHgUTaO2Rn5ciwOo0M2bMSI3SRBg1+zkcffQx4aijjtaeGG3fRd5aFpYTJ04M68uqFaaEWEOxNEW/cgQcAUfAEaitCNAmvPXWW2Ed6dkvSXEAG9oazISYxOzkCDgCtQ+BRJUHmE02uQCbjUjkXhg5GzVFzbtg2tiAGv2lmoPcLbX0sEd6NkWBG/DX5TOZUJbjXRQJWMtuwNXrYuVeumFoNsqVi81DOwKOQBIImHnsSiutpPsfsFLfV1OmLDNpTI+j7csyA7gHR8ARiAWB6HeoUwJEnsHSJ045L1HlIRbUamqkKAWiPLwmy87B3JkrUm6S8GYAwuTpTp06aZwuJC9F0gTe6Me39KlflQcBsKSuev0qD2ru1xGoPgT4ZlndjH0ebrvttjBnzpzMMr2l5krCIZj06dMnsDGVkyPgCFQvArS71kHP0stxKg6U1JWH6n3fJacuFQHGzs6YJuCW7LmcTyReFBOn1PD7zTcPDT/++JMKvvbxOTblR6BDhw7hsMMOc+Wh/NB5CEegWhDQ0WhRAhA8UCJatGih1zYaQduTi6yzRYUUb0tyQeRujkCiCPCtPvvss+GVV16JfYM4Cpao8mCMyBgPZ+up5NqpKAKGiZ2j+IlGIZPO/wqzfv01LPjjj7DiiisGlmplHon5J7ac+DrWGaAHDx4cTj/9dNXYwcqpfAiwWVjGrE7kDDZ26tmzZ5E6WL4Y3bcjUDYE4IfWaqg5pt07fysbgOILDG1jKWtfFFfB0O5zRWbP4JnON3Mh5G6OQLIIIPd17dpVjyRSTlR5oHAwHdZlZsWgli1bhsmTJ6ttlkgbSZS3oNNg18CHH344HHnEETK0LIJuGjJj9sx7QJBr3LhxuHXYMN2Ns7EoFDzn8F714q//D1G8IHrQevfuXdyDu5SIgCmmeHjggQdkmFR2uJQ66uQIJIEA7YntZbNIzG7oOHFBNgnkPQ1HoPAQ0E10hWdklv4tvCLkVY4TVR5g7Aiwn332Wfjtt9/CrFmzFAwGRl11KL1eTPryy7DBhhvq3Ad2ltbe3siIMg3pkr9T9uYL5i8Ih8u+DygTF19yUbjgggu9US0BXuojikOjRo3CPffc4z3mJeCUyxlFgR2goQcffFDrmH7L3hGQCy53iwGBxo0ah1/l75dffimbrX4MefAoHQFHIP8R+G3Wb9qJ2qB+/fzPbAHksPjyRzFmGkGNHnCENc6Q94jnBhxc9BBF4aWXXgqdZb8HRh6WiHvr1q1V0P3kk090qby5c+eKzf6P4fPPPw8PPfhQaN+hvWrXKBgXXnhR6Isi4ZQTARRaJgsK2K445ESoZMd6woRR+lFcjZZemYufHYH4EGi2YjON/IcffihSD+NL0WM2BGif7NvPtFfiVpMpM7KVLqeVuyaXObtsvHN68fVNF9D7nvG9LHsveW8oHYU1iawOat1Mv49MPY2xoImOPMRYjhobNcPxB8iKFlT6Bg0a6GSYLbbYIsW0qShpwY35Diy113mddcL+vfcPX3/9te7CSbi77747nHXWWbrHQ40FygvmCDgCtQ4BJul/+umn4Ztvvsl0RNGYOsWLABgvL2ZihjXtzX333RdvonkQO+WlTZ07d47UuW8Dm7gqDpI33GssSbn5qubNm5cpYqGZCX4uFi8UYs0118yUoaZd8I50iVapi1ZX4yqjKw9xIVvJeI0RvTBmTJglJl5UhBdeeCGgOFiloKLAruxeLvQD555GFbMw5pVw36NHjzB16tRK5sqDOwKOgCOQHwjA144++ujwzNPP6P4ELB6xUqtW+ZG5Gp4LrAhYsMNWWxo7dmwY+/JYbZB4LzWVtF2W4jG/K9q7i3uNLrdIGkgXZj3CvEpGH3ShggJ42SxB/M2332oZTj755ALIcdmzSN2jLnLGAoWNhf/5z3/GPsfVlYeyv6Nq8XlvpDdnm2220QqiDExyk30WhyJmJM2aNQuXXHJJOP/887VSUQAYnIWrlgLlSNSYLudl5Y+8m78cUeWFk5XBznzYMF07F8mklBmzKZs7wLPsTdai4aLPcIdg4H+KSRtLLRpzByf1S7oRXHkuAFJ5NKz/OAKFiIB9W3vuuWeo36B+YGOz98aP15W+CrE8hZZn+Au8ZOjQoeHSSy9VnlxoZShzfuGfac/Gx7+UOYjw36ZNm2pPNr3w1Eko39rXdNYrfaKdopyUeeDAgVr+5aTNoac7H4n3wcE7++ijjzJZPOCAAzLXNeVC23UpTJcuXXTflRtuuCH0798/1uK58hArvJWPfOKEifoB7LjjjiULoKUks8fuu8uE6Qt0OT5GIljHO9+Iig/DZdlUDmPCufKJP2u4cj3PF7cjjzwy3HnnnZod8gvj5RwlyomCx5wV6Pbbbw+EM0ZgfocPHx6OO+44dUch4DAcLEaUxKuvvtqCqDBFr6AqHsLwN5TJ9syRgdZbb73MdSaAXzgCBYQA9Z/vh3Pnzp1VOLj88svDrrvuWir/KKAi5nVW4SscHWWE2/hcXme4EpmjnlFWhGQ6Yrjed999w88//xw233xzVZ7gtdqOSTp6ljattHasEtmp1qDWhoEB5eScz8R7+Uva3nPOOUfzu46YdddUor4hZyAfmEwRZ1ldeYgT3SqIe9r0adpAri8CH5UjW7BcVhIry7r7ED0GM2fODM2bNy8mxC4rjrifs7HYQw89pIzImFOuNNlTYOYPM/VRvjNmysFh+bT77HLBfM2fMWLC4BYlnllcXGfqQToNDcO4UzqYpVdH3ruRpZMJaw/87AgUGAKZb0S+FUxmWom5Essujxs3Lmy77bYFVprCyy5sJio8ZvOrwitRyTnWkVvhuaY4RHm28mSpgwhswqB1V1+wqcN1yVEW3BMbebE2qBDmO1j9ZERywYIF2qY+8cQT2o7WtPoalQ+wP7G2Ps5yJqo8LJEPjHW5bUIHX1CchSu4LzRHhq1S6FbjwpD4iMuDmQ2nopFmGtwc6VSn06GHHho4lkWUe7PNNhMmXT4MlhVvHM/p3d9JRovkZen7YiOm+jmWiPvXv/6lq2hRNibf5SLi2nnnnfUR/mCKvEsO3i9uG2+8cdhp553Ujefmh0A832WXXUKbNm1UQWvbtm2uZNzNESgYBKjTSnJmNJX6zZyw0047Lbz55pv6XRSCgFMwgGdl1IRJ+BuUuc/yV+i3xmdRHFAQrGcXdyPbY4T75QQPDWP10zzVsDNySSEQ74xNYCE2UOvUqZO2h4WQ9/Lk0eQC3gtL9kMZHlmeiMrhN1HlwTb0aSI2czB209aNAZUj37XOq1UEzlHGtSwg8L+cCJPsDeGUDAI0p2cIwzrjjDNKTZB38/TTT+t3wPdglP1+6Ul97rnn9D3SiEWJxgxFoY+syMUmd3xTDNVCxEMauF133XWZ+0Jh/NFy+rUjUBICfAOs9MPu5tT3448/Ptx6661FesZLCuvujsCyEFBlAKFMDngp9c14qLrJPUTdi3baLCtefx4/AmedeZaa8PJuHnnkEX1H8adaO1JIVHmwDw7t71dZGYOlR+VtZoSa2gF5xUrJfIUpshxeeYnZ9yhtrjyUF7nK+UfEtxE2E+BpWLg2MiUBd4h7vpGoImHu2iipr1QjRSyogxm/aUWBe1Ma8MO1xW9p2306Oj85AgWNAMoyy1SzyeMhhxwSJkyYEG6++ebQr1+/TN0v6AJ65qsVAeXLad4MfzY5hkzxjFWnsAzAnXv5qdb8euIpBIbfMTyMe22ctpG33XZrWHXVVVPvRx5bW+hYVRyBRJWHqNCywgorZHLtLzIDReYCJgQuhs09d98TOCpK2MHB1CxeZXARQbai8Xq4HAjw3sTZ3h0+MkJ+xHv0Oc7cL8tfJoz4ZZWlDKWvM89TEdYou9tMWf0iVgSoQwhC0TqsynCOVFVYyuGepJPV+YMPOkhNlm655ZYw8q6Rkv864YT+J2SykuF9GRe/cATKhgB1jPpDh1C0zv+9JKUsFFEoyhal+4oBAd4NcuaI4SPCzbfcrG1q3759w+GH9y3SHseQdK2LMtEdpmsdupUosDWIFgWzHSr7pxO/5ONyxcFQ9bMj4AgUOgIq1KU7RoYMGaIr4aD5jLx7ZLjooouU32V6hQu9sJ7/akGgiOJAG5om3K1dtXpoz/ycPAK8gyuvuCIMvXmoKgu77bZbxoQx+dzU7BRdecjj94ttJZubWMNnzKmi5w022CDVW00vivSgOEUQSPfcR1z8skIIREZDKhTeA+ULAohIdhTL01L5qeijiGBV9EF8d9bRAl+k1/Hhhx/WJY/hm88++2zYcaed1O45OvIdX2485hqJQLpeF6v2EXZH/XOqPgTY62UXWVhk9OjHNBP77LNPeOrJJ2uV6aLxQjvH+TZceYgT3UrGbRNfrSKo0oDQXwqTYkIX/mg4OYpRWkjW1ZuKPaydDggVyvgFN8XYz+XGgTrKYSs91M6aVJilNj7BangQ54Wy6aBODJVreIrxFSsh79l4jE0iVX9pnkMc9tzCxHmm7tmCHKTDninvvPOO1uPff/89sE8O+0DwfVMu/Os3L37JJ/dOjkAUAa0TUl8gUwuoJXadeZD2o/fpH6tbUTe/rhoE6qUXBOH9LM98TuE1gwYNCtttt12YLd86u3+/9NJLYfSoUdgCZ77zqkk9P2MxHn733XcHNs48hV20c9TLqsx9onMeohnXj4vCpZm2M+8oOqVcC14/yCRoVg744IMPAhOpWcOY/RtYsnAbWY6sp2yUtFLLlrXioykFqXI9mjtnbmjdenUXfsuBGt+wfbcwcK75i7qXIzr3Wk0I8L4Wy1LCCEX9TjhBBW9u1Ewy0gDp+4VfyzOWDlYens4z713/5Xm7du0CO/DSeFVXbz9523TTTXUjL/LKJOonpReSY++999blGxvKgh2ZMlUT9p6sI+AIlA8BJqjzfTPSwE7K7N3AUujMF2TDSPZ9YeU1lS3pGJDOQXiR3pcvqYLxbR2g8DaUB22X4dUxUrUoD7z0nj176rbuI0eOTBU0xkLWhKgRzu66665wgjTu4BclKoo15MOGDctcX3nllbqzolakaIACvqYsZe3dBhPDpaQiw2ys5/GHH39Ypv+S4nH3FAKrrraqQ1FgCCj/4LsSHnPZZZep8sA3ls037FtS/zTGUUKnSH9vr776qvbu2+R/3LPjigat6mtrSFlQoKV0ooyXTaLefvvtcMABB4QZM2aExx9/PDzx+BOh6QpNwxFHHBG2k6WQ12rfXrNBPuEHxGF8oarz5/EVBgJan3NkNVqfUbClcmv9VgU6+7vIEd6dKo7A17LiJN/yiBEjwuzfZqsswDfbunXrcP/99+voQ5EOC3mmZOeKJ10wIY3/xZ3hRJUHG1r54vPPAw0MZjkMszjlQECYEBo2w3I003wcv/zyi8xVWNqb16xZs9C4cWNt6FAu/pARiN9ljgR++FYGDBigQ/Xff/99wG+hE/tVGOPGntHMuoqVSwCru1zdsEhMLz797LNij6MO++67r/ZaaFwIP9GHfl0uBEzwKlcg91ytCMCTURpYypneu3r16oX1118/fPLxJyXmi28wF/H+WTK1SZMmqjyYHxozUyTMLe4zeVGSvKJEsEHU1KlTw/Rp00I32Zjxq6++0vlkN910U+Cwtold7Js0baLlYFNH4zdyEXeWPf48RIC3boqkKZOYvf32228y0FYnvP/++6F///7aFtlz6l669uVhiQojS3xui/9arCOH8+bNy3RM2Luw73uNNmvocqzt08p/dunMX7Z7TbvPLmf2fRzlTVR5sAIZG9aGi2ElPjZj9nGUskDjpOECq/32208/Iu7ZG+PLL74IbdZYQxvkKMOimCgR3377re44jK3v/Pnzw8orrxz+/OOPgh+2WyjCDfUEHBBuShP1rdEvS73KCDbO9Cv9pfi3XGkIE4tA+Yt8S6wWg0CE6RLf2KOPPhq6dOmSEajLkiHiomEfcuMQnS9hwjb1AeHdvseyxFWVfoxf1JH8wUtXl13WJ4lJFR0z9GKeLLbBzz//vPIVOidwR1hhoQoLW5X58bgKGwHlb6Ia2Og3VgDffPNNkfqNH4i22alqEDBM4SOYIQ4ePDisvfba2tlBCvAv2nHzVzWpeiylIZC48sDLhzjzcdHgOOVAQBgQvYBTpkzRYXZ8bLXVVuH1118v0ouna/2nmRV++HjQwmfPnh1OOumk8H83/Z/2KPbrd4JsnDS0oBUImAP2jShHy2ISplQNHDgwfPfdd0CTk7z+5YSlwo68l+oSFCuc6Voc0PgwnQ6LpAFm/hRujHROk176shLvnb17unRZX+NAfGICM9+XHmWNKAZ/KspJ/qK9wYw0InywGpMRnS3wCpQHOl0WL5Kdg6OBzKOfaw0CrEqIQkldWLR4kbalfCsnnniizjfccssttZ2lbWKkinrFhF7q/rLaqFoDYgULCqZYVjRt2lRN3FdccUWNKVf7UqIVQgXTLsRg4AIZv4u7DIkqD9mFobC5KkK2v9p6jwD8zDPPZDAaNy61W2IRPKRRjJIxLMIOlslEY8aMCZMmTQoPPvSgbpoS9Vto19QVhBqOshD+o5sRliWM+6k8AlYHKx+Tx5AUAnwrfzH6kD4uvviicNRRR5c9eWm3mFOA+RO9sQ0w+ZFr+BBUlEuVPdoq8ZnFI0uKE9NOlrN2cgQMAeowSjWrj1GvOfhGsACAWrVqFbaXVX7qSX3HDQWCw3vBDcGqP3v7khtTeC0WJl+KvPfPf/5TPcWJlXf7534PeeFKj919992neYFJlUW7prJkDgl/4YUX6v3cuXO1IUdIsAY9LwrpmXAEHIFqRwC+kOq3SpkArL32Orp6W1kzttzyy4XevXurYAXfgsdYfGWNw/05Ao6AI+AIlB8B5qsh93Xs2ElXmbvzzjtjH/ly5aH87ynRENhTUinYKbE8vXemQGyzzTZiI5YSCJgwCNG4Iyw4OQKOQO1FwHiEnRUJ4Qt2jzJQVtpiiy0yJqiYdVgcdhaHskbl/hwBR8ARcATKgQAdy8h18+fP046bn376qRyhK+bVlYeK4ZZYKEYMEP6bY+9XgQa4UaNGmcldxEVj7uQIOAKOAAgYP6Dh0SM9T4GRgz322ENNMJaFFHGceeaZ2iFBHNaQWZyWxrLi8eeOgCPgCDgCFUcgyS5hVx4q/p5iD2mjAxgURHdPrUjCxEUjbnF6g14RFD2MI1CzEIAPIORjo43Qz4EbS0TXr1c/dOvWTUY8S+5wICxLu2p4CcOKRcSxHIdc89x5Tc2qM14aR8ARcAQSVx4QXukNt0bLG5aSK2EUG2zaVPAvp7mRzW+wuOxccqr+xBFwBGoLAvADGyFAAWCFt4YNG4aGwqPr168Xjj/+eBmeWDpCEcWFPRHgL8ccc4yOUDSQcBzEkVEgJE7id3IEHAFHwBGoOQgkztVprFgiz1YtsJ7wmgNpPCW5+eabdQm45WmYpUEu69G2bdtUz1+S41nxQOCxOgKOQAwIsNxzdOQBwV9XjZHVY1AENtpoo5yjB3Xq1glryH4z7dq205VmbLUZwnMQr3dWxPDCPEpHwBFwBKoZgWpRHigzjRWKgzcuZa8BLINITx/nsh5g7KYDZcfYfToCtQ6B9OiDjTzYcpMst4pCwOiDjWBGsWFi9IEHHhjqN6ivoxX4RdngIC7b5yEaxq8dAUfAEXAECh+BatnnAYXBlYbSK48pVscdd1xg86KqoBVlHXPiRRDAHlleQlVEm59xpJUmMkddmzVrVrj99tvzM681MFfUM0gVV7V7SRXS3FN3/psPCBg/RuAvokCIMoAJ0xqyK3PnddYJX8jOzFFq0qRJ6Nq1q5qhomigNNga96o8uLlSFC6/dgQcAUegyhEwWZGI4eXWWcweJXVi5MHVojxUOXo1OMJBgwZVmaKF0kDlomGv6aRCqpRXzSfkA/r555/Dscceq8UGA6d4EYgyNJtvi1sR93iz4LGXAwFrdOANfDOmCOgogtwfeNBB4ZJLLikSY58+fUJDUTDUf3pzLK45fLJ0Eaj8xhFwBByBWBAwaYa2FVNRiGt2Rq/nykMsmOd1pFSBqha0EBCIE6rpAjQmEwhCw4YNC2effbasfzw/YGZR1ZgqmP5TDAETRufNm6emL926dQurrrpqpv4VC+AO1YqAvS++GQ6UBsyQWNyC3XW33HLLwA7M0VHQffbZR0yWxA8TpdMjD6o4SHi+v5rOY6r1hXnijoAj4AiAQFqug98eJyamzI899dRTlYfHCVDiIw8mvCHIQTRUTjkQkIpgGmWOpxVyqk2NOfVs8eLF+gFdf/31FcLLA1U9ArWpDlY9evHGyLvhsNEDFAiubQ7E0UcfHa677jrhS3VCr/16qcKAWRMKRL0s5cHfc7zvymN3BBwBR8AQMH571VVXBY4kKNkJ0yLQIdTRk3XUUUeFc84+R+3vcXNyBBwBR8ARqD4EaICwl6VDxxQIRh9QEBiB6NmjZyZzB8lE6UaNGxeZKK2jDhLebG4znv3CEXAEHAFHoEYhkOjIwxJREmigPvvsszBy5Ei9HjjwGj3XKFS9MI6AI+AIFAoCdN4IX4aiy7Yy8sCBWRLzpejkYU+HTz/9VE3Q2NMBpcJGJlR5SM93sJ6wQoHA8+kIOAKOgCNQdgQSVR7okbJRBs56nW60yp5l9+kIOAK1HYElYvb4x59/6n4x8BF4i1PlEQBLFAU2peT4848/FGeuoV177ho22WSTQEcQZoHs14PaAf6Lxc8f4p9rN0dVuCr/IzibYte0aVMdEap8pB6DI+AI1FQE4OFJdN4kqjzU1Jfl5XIEHIGEEZBOB4QpSDshEk6+tiRHIxRtjOzeMU++Buy0007hxRdfTD5hT9ERcAQKBoEkFAfAcOWhYKqEZ9QRcAQMARtpQIht3bq1jzwYMFV4VgVBOr5ljDijoEUVCZKyhip6zvZThVmqdVGB648//qijPNOmTat15fcCOwKOQPkQYDGiJEZ+XXko33tx346AI5AnCJiQ+uCDDwY2LHOqOgQwXaIR0rOYJ3Gth7hDCLU6x0EmV9NQ6SHmSizR6lR1CFDHDzvsMJ0nyLWTI+AIOAJRBKwd5NyuXbtAJwNt4v777x9rp5orD9G34NeOgCPgCDgCqhzY6I5oCaoU1BUFYvm0AIvywORqlAX8ccS5m6m/EkfAEXAEHIHcCDD/jM6c2bNnK++ePHlyZsO43CEq7+rKQ+Ux9BgcAUfAEahRCJhyUEeUA67p1UJBiPZ+q8Igz3huR40CwQvjCDgCjkCeI2C89+/0qDA8GkXiL7mP03yp2pQHKzBnaZEyK0rk+Xvy7DkCjoAjUCsQ0JGELKXBlAfl24JCET5eK1DxQjoCjoAjkF8IWEcO/NmOOBUHSp+48vCXDK80kN1IZQ6eDHmnllfEkrOqd1POr1fruXEEHAFHoPAQUOVAsv03nTwQHT1Q+l5d7Vnqif86Ao6AI+AI1HAEEl0cHY1oORlOWadz5/Dd1O/CnDlzFF7rxarhWHvxHAFHoKYgYEJ0TSlPaeUQ5SA6wsCIhN2bElFa8Mo+846lyiLo4R0BR8ARqFoEElUerMFhiGWNNdYIDWWHUidHwBFwBAoJAV2BKG1fyrXxNc6Q3ds1nSbwvCiZG7apXFuY6FnDy4/Fy2pH2WRD00yYg5jEjH/iLIl4vpzkh7QtPYvH0soVFj88p8w2TG7huTc3wnKNP8tXrvjK4kY5oulxDVk5uaYs5l5a/vHr5Ag4Ao6AI1B5BBI3W6p8lj0GR8ARcASqDwETUBk5nS7L4kWXJzUznpYtWoZWK7fKKAYm3FquiQPB+Ntvvw1z587NKAj2HOF71VVXDc2aNdMlUhHcTcA3P5xRKObNmxemT5+eEew7y8iu5THq165VIJebmRLm999/V8GbeLqsv77GR9q5iF29F4mSMuWrr3RlpSIKipQFdaVxo8ZhzbZrZvKcK57yuFEOdrH+VlYPgTp16qS4LZR8/PDDD1r2evXqhY4dOwYmDBbJU3kScr+OgCPgCDgCZUagVikP1mCXGZ2YPJKP0hr3mJL1aB2BvEfAhD/7VrnPt2/F8jNixIhw7z336iZqUWDl605N4kpP5kKwPfXUU8KWW26l3lAweIRC0VvW4kYgt3JbPBaHuW+99dbhtFNPC+07tDcvmfMzzzwTBg0alLqXiO+5556w7nrrZp7nuiDtvffaKyyOjGaMf++9YiMk0bBL5F1M/e67cMi//60FSKkLKR9168hKTFqq1D357tmzZ7j44oszcVq5o3GW5fqLL78MRx55ZEBJeOuttzQIoyY33HBDGDdunCoU9913n7qj+BhmZYnb/TgCjoAjUOgIWHvJ2dqnuMtUK5QHGhQOGkw7xw1sSfHXrZt6ufnYwNH7CD5S+0rKvrs7AvEiIELnwoULVQBUAVpS41tJiiGWtXDGrBGY+Wb22Xtv/W7MtGjmzJnaM86GPV9JT33//icGRgTuuuuuUF8WjKCXHNMblAjKh9tuu+2mcS1atEjLO3Xq1EA8HO++807oc0Cf0GvffcP5558fEOQzeZBr4lABvs7f4bzzzwujRo0quSjid+zYsTp6UOcv6a03ob8s3z1+JNOE2a/XfrIc4F+aNqMiCxYsCN+JcvHNN9+E+fPnhzFjxoSXX345vCdKCe9U50qky1ty5kp+EuWZWl54lVC95etl+Do8Pt/qSskl8ieOgCPgCFQdAnvssYd2qPybDp6YqVYoD40aNdIGDixpXKqT/pLGmjxwbLPNNiJEID5UP9HgcixctDD89ttv1Z8hz0GtRICvoUGDBkUEwHxXZVEezjvvPPl2FmnvON8R3zeKBL3lAwacK4L0C+GLL74Iffv2Dffee28RO31eNMrDRRddpGG4RzheXgRyRiUQzPfdZ98wddrUMGr0aF104swzz9S4TVkhDB0Ti4W/YApF+toRwINskvzdcsstmlZGccj2U4b7c889R0cu6ksZWVOcNI1G3jUyDLt1mM55GC153nPPPTU/zIGoCuGeOK6/7jpNFww4GI2Aovmw/PjZEXAEHIGajABtho3Awme5rwpeWxJm1aY8nHHGGTrcfNxxx5WUtypzX2GFFRREgPzyiy9ltad1qizu8kbUuHFjzQsN3Jtvvlne4In4BycqXtOmTRNJzxNxBKIIvP/++3pLPeQ7UVt/qY/y4US95dU1Sg9CNGdj2giz5P/yy6+Q89/hpZdeCp9//nn4+eefw8orr1wk//iLKgJWdhQAnj066tFwyCGHhMmTJuuoQv/+/YspB6xkt9HGG4f//e9/4bDDDtOGhLCQfdMoM59++qmODpDP/fbbr/RRiiK5zLqR90F8xGOKCu+KNPse0Tfcetutev3uu+8GesSYu4CSZII+5lavv/56mDVrVmi/1lphPzHhat++vSZiGGalmLkljS9kRIeODvgUozqEgSgr+WE+yt1336NK12qrrRY22WQTNaXCn72bCRMmaH5WkffRTvJgE7yJn7IQ15ei9M2VeSXMP+nE3IpMLvzCEXAEHIH8QMB4MLmxjpQ4c5ao8gDT5vjkk0/C9ddfr4z52GOP1fLBpOMiGmoarT/++CM899xz1ao87LTTTuHGG28MP/30k5Y/rjJXNl4a5O7du2serVGubJwe3hEoCwL0VFPnULRhiFzHyR/Kkqey+MklVCpDl/xjavTiiy9qOa655hqdoxDleJSPI/qtRePDxOnkk08OJ554ogrkr732WujRo0cxXPqf0F/nB0yWCcbwOx3FkcwTLw0KgvuQIUNkVkYdEZbbKV8sS9lK9ZPON+VB6Cavf0l6CN+kh0AODjzn/oILLgjPP/98pryUGwXjwYceUn/wR+Z4LIsYPXn11Ve1E+r+++/X+MGMEZ5jjjlGJ1MrrjyR/8cfe1xHd+BrgwYO1LQuvPDC8P3336sCgokVZHWOa/J71NFHq0nWQQcdJHNXTsXZyRFwBByBWo1AosoDSMPMaWAgbVDkPm4izW233VbtfMe+MjacfMrJcSdZYvyUvWvXroqBNmwJlL/EzJTwwFYtKRShrYRiuHMBIgBPYBIsdPjhhxcTjgutSHxDfPN0XlA2rpkDUB4yoX/TTTfNKBdfTZYVj3oW550bbNAltF69ta6+NHTo0HD66acXEeLhOe/I/AmIIW78VAURr7wszR8CPAoggje0xRZbpPItz48+6qhAbz/+N9poo3Duueeq8I8yceWVV+rKUyhJ14lJ0nbbbafhc/2gmJiixeiHksT56y+/BOx9iR/3gaIkwPvJy6WXXqpKCyNAJ0kaTLgefsfwsOtuu+qqU8xN6dChg8ZLeA7qIkoY14z2OE/M9TbczRFwBGobAqkZZwmVGgZsBBM2uyxzi/Pcp08f7ZliSUMm82V6lyQfSZJhkJTiVJGyMbGR5SfJqzXQFYnHwzgCZUGAesb3AGHCAuF2xBFH6HUh/1AOBF0E2bZt22pRTKgua7mUT6YVkAaihBDnjz/9WCy48RSEb/w8+sgjgcnXCL98xzxnngLP2GeH0UXryCkWWRkcEKzHjXtVBWyuEcoHDRwkq0ptGRhdIU0Un31lkjfXkyZNCh9++KGmj9Jw++23q7BOHnbZZZfwikziXnHFFXUe2FlnnZXh0eDFSEmUonyJMhrtuuuuekkZMQtFAeGafKA8HHzwwfocBY73wnK6Zp5ppmCMnEiGtX0ij6S/wQYbqAJIXE6OgCPgCOQLAvBC44d2Jm/R6zjymvjIQxyFKEucLPV3ijSq82VFkDvvvDMw14LGg8YgbpDLkj/34wjUVgQQHvU7lPPZZ5+tQmOrVq3URr3QMTHhnPKhQCDAm5CPgFoWwj8CrArRaSXL5nEV4V00IhJht27dNFqWYcW8iXv8kYf//vdlFc4HDBgQFsocBDZYqygxqkGcmTIi4Ot/ahO6NdZcUyeHEz9lOOWUU9Q/ozAoFNlE3h988EFddQqFacaMGWGVVVZRPl3axG7D1EZMydPll1+uaWWngdnXoTIywWpVVu+GDRum80lmz56tyhaKBsT+GZh/QSgRxE/cZXtrGsx/HAFHwBGIFQF4EmT8rEibEGPKtUZ5QFHoKb1Sjz32mEyiu1tNIqznzcCPEWeP2hFwBEpAQAUyEeZmzPg+fPjBB8oErRe4hCAF40zZOGDsLGEKY0fwV2G+jKUgLL3hLHfKpGPCIlRbY2HRIBDLQ1UIzjnnnHD11VcHbPoZFUDANhOllVqtFDCBYoUkyZwFL/cZMyPyAMFfUW7q1Vs+tFm9TWjbrp1sGNdIhXSe4495XtDmm22u+clu5Mgj89MUG8kXcxGY6JztTyPJ+sHPt7JMLKvXgTfmR5anqFcUuFbpNMgT4dZdd93QunXrMPP7mYGFPAYPHqy43HDD9ZrvDWXUAX9/VwKraB782hFwBByBqkIAPgbvhO+t3WntMOXrKWqeyWhunFTxbqc4c1XVcQvjF+6vq4rQCAA2yyJC1rhz5pmTI+AIJIsA3x50rixpyhfI0spMqq1J9Osvv2qvNmViFLQ0Ag94lOFCwyA3ukwr4XDfWFZVKonAcC/ZAA76Y8EfuurQX9KTbxPRWbWJOK2HXT1W4GfnnXfW1YvYDI6FIJjA3b37jqGzCOO6PLbEaWWIqigsB52LKDNUxERJeLLFkSuMukmB8aPmSyQkB4oDoxfZZGngThg7TjrpJKl7f4fx48drONyfeuppDX7xxRdrfLg5OQKOgCOQTwjAy5Fd4U+Ys3L9gXTCxU21Q3mA6cvBsLOtg8sqHa+++oo2CoBMr5k20nEj7vE7Ao5AEQQwnXn00UfDZ599pj3srLxTUwiGvlhs8vfbfz8tEox93332KbWjAj8Iv5whzow6sEoS1y1atFAb/KggrB4jP5gGqX2/sL5DZdnWV4Tf/T77d21gWMY1SSKfjHLYqAICeq68w38Zbai7XKpZatOmjSqT8ObSCKGf+Nq3by9gpfDC3Cibn/MufvjhBx112WyzzTQt3MCUXjrmWzCyQ11kAjfvYK211tKjtPT9mSPgCDgCtQ2B2qE8yFulcWFYn+X2dtxxR20YzjzzLF3znEamMra/ta3SeHkdgapE4PU33gjXXnutRvkfWY2ny/rrZwTnqkynOuJi1+W9ZPdpW6SBycz1RLAvlYRPwa8QbDn/IisIddthB+0Rh1cZVqXGIQ9tl9E5c+aESy65hP4TnWsgp0SJcjDKcZfsrq27YItp0S0336zlIyM8hxgdgT+jLLBML6ZZ9kw9lPCDHxQAFKblxWwKwlwLtyhxzypO+GdODSZRXGvbIDjzbiDmxGHiRT4YkVBzsGhEfu0IOAKOQC1HINE5DzBvmDU7p9IIZjP3ON9FtBeKzYno1fr11191RZeHH344rCmT+yBriOwcZ548bkegNiLAd68Ku/ABNglj4i2CGnb4N910k36D8pPX0CjvSpvLMKKJaUuU5s6dqx0Ttp8Ltvi99usVDj30UDWvMX4En+Ggx5s4UtjIPgmyUzRKw8cff6wTdy1uhOINN9xQbwkHbhKDdn5wb7jhTk9/ly5dNA6UF4idqRkFsPSNByPcg3hRcVuDZH6IX4X/tC/dz0Hi0nQzvnJfkA752W777XQOxp2iSKA0/uc//9FVqF6Xid13DB8uk7gXalkGD74hFZGEW3751MIWmr90G0KaxGlnRglQAkY9OkoUpH1U0WLVJyaGb7755uE7mQ/BxOhPP/lU42VHcAtrZ0y9Lrv0sjDr11lSwr91U7jSlovNXVJ3dQQcAUeg5iOQqPJgcK4vDRpMvs0abcrU8Fi4qjozaY7h65YtW+r63uyyahsT0ZDQ8NIYOTkCjkDVI2DC2qhRo8Jll12mPIBlTDFX4lm+E4I39vR16qYEf5FhAx0SCOC6rKo44AdhFrd//OMfKpSu1no1dY8uLarCu4SH5zz9dMrGHgwIa4I6cXTr1k0F4aZNmmgcUcFZzXbIhBDuutSoXBMP+Pbq1UufdZfN0YhL0xQX0igaj0aQUUA0UOQH/6asoGmkMFhqbxvxWuIloyZMSH7ggQd06VZW14q+8xWbrxhuu/U2mfDcPhWHlIGi4YcSavnS2JoCRL4UL3GnTblr5MjQr18/3TPiiivY3XvphMIGDevLpOgzde+HaCZ15FnSOP+C81MrNUkBTzvttEzYqF+/dgQcAUegtiNQR5hxqtXJgQST8liXm56uiRMn5vBRfidLzhoMY+zlj6niISwPNH7t27cPM6bPCPUb1Fe7V3r2LG/4s+uKp+YhHQFHIIoAvewslfzRRx/p97X22mvrrsBL6EUXAbCs3xz+OF555ZXQRITqpIg0ySt7oRgZH4Nn2LWdGZnAr51RjxYJ76GDAgEYgTzjF54jz4lneenkIB3MZkxQ1rQlPhN24WHEo4K85Mvi4x5FgQM3FBbCMneCXadJj4NRYOLnmcXNORfhjmmRlbusnSyUxXipxU3+Z0oHDns7/CwjLJ06dZLJ1t11OVviVZJwy0n+uacM0XjIO0R8KEs0YlxncOS53D/33LNhypSvdY4IIxGNGjbUOmZxaSSElYMRGerkUWI6R1zjZS+I6jZZIp/MUWE+UOfOncPnn39uWfZzAgjwzfKt2kpn8C6+LerSzJkzw+677x6GyU7nmCLyXWE6x8E3aXU9gWx6ErUcAfgE9a1Zs2YBM1VW2qNjplwkcey5557haekIozPv22+/LTV44iMP2R+UNYql5rKKH1oeGIEAIBjAmDFjtOfvhRdeUNMJJtTZC7GGlnuYgjVQVZwtj84RqDEI8I1x0NjSqNLg0qg+/fRT4eKLL8kIu2wWxpr8fFsmlOY7CMoX0sKs5ZWy4g4ZT7MzCpE+Ez8m9JowbIJyxq/4gYjPnkXjtjR0mdW0vyg/4jlxgTVkvIs4INzxwz28zIRunpk717lI45YwRoQvC5GWpW/+bQJ1b9m8M0rkN+NXwtk9aUP2zPDCLfVkaf7Vb7q8u+66G14yhF8EQiVwEKwMZ8pz7LHH6iOb/0B6lnYqkP86Ao6AI5A/CET5E3zReCPuxi/jyG3iykMchahMnDQYzz33XHj3nXdCd5lIzQTHY445JjRv3jwce8yxoU+f3voCrKHU3kN5QU6OgCNQMgLWW0zPN73ed9xxh+6vwjVMjZVt3n77bV1jH798X3Ezu5Jz609qIwKqOEnBR4wYEdZZZ50wUsydUHIbyujE/vvvn9oHQ57H2QDXRty9zI6AI1B1CFgHB+1n9Ki6FHLH5FKw4ELvFsOQ7ChKLyiCDBMeBw4aGDaTyXasWvLMM0+HH3/8UXuqzKY4N6Tu6gjUTgTo2+aAgbHkJvsK7L3X3mGrrbbSHXqZDItgduutt4ZZs2ap4gBSttIZ4ZwcgaQQoNGF97N79OmnnR4+FpMlRqOpn4zQ8NwVh6TehqfjCDgCFUXA+FQ3mRsHD8P8KG5KdOQBRo3gbTa29DjSM1ndZKMK5IPVOTCleOSRR8Ipp5yido3YmWJqkT2EznJ/9KAi9NjLq+6yePqOQFII2PAo3wWrCv3++++qePNd2/eAH65ZzexBmSS7ddeuxbMnzyGLr7gHd3EEqh4B6iV1Dl4/YcKE0LFjx7B+eplgq79Vn6rH6Ag4Ao5A1SMAz3riiSfULBNzzLgpUcldexYRJqRUY54fEzp07KAMOyq8x13gZcVvJhR9xBa3d+/esnTgn2GsTMhkEt306dNVUSAOGp2ff/5ZD+69sQEFp9qEgJkksSrQkr9TduQoEhDf+nrrraemSqw2RG8I34gr2rWphuR3WamL1OEOHTqEdjJBUM2YUGR9BCy/X5znzhFwBEpEwObYxS2TJqo8mF3zJ7J2+W67pyayYWOaT2SKjCo6kjFWUejRo0eYOnVqJpv0sqI4/PHHH3q4QJSBxi9qIQIwKcyRGjVqpGv5swSyMa7sbyP7vhbC5UXOEwSoi7Q/NqKsSgPKA4eTI+AIOAIFioC1v3FmP1HlwQrCShswbiiJQlq65TlbvuwcDcvOpxxOjoAjUDoC2d+PmyaVjpc/TQ4B6mYRZTZ9n1wOPCVHwBFwBAoTgfgNowoTF8+1I+AIOAKOgCPgCDgCjoAj4AhkIeDKQxYgfutOBKJnAABAAElEQVQIOAKOgCPgCDgCjoAj4Ag4ArkRcOUhNy7u6gg4Ao5AlSKAmQxzqg466KDM8eWXX2ZMOEtKDAv8yZMnZ8IcfPDBOufKTD9LClcWd/LEgTlZZvO0sgTM8nPllVcG8nXdddeVaopKWkYs52tYFDEfMg9+dgQcAUfAESgdgcgCD2xuTBvz+uuvL7NdKT3SZT+tljkPy86W+3AEHAFHoGYhgIDMBN2vvvoqw9hZxe21117L3OcqMeHOPvvs8O2332YeM8lXBf5Iw5F5WJYLCbfd9tvrZOFHH300rN66te5hU5agufxQJhShNm3a5HqccctWElCKIJQKnjk5Ao6AI+AIlAOBdIcM/HPSpEnKR2lTtt56a1UkyhFTubwmrjxYA6E9UN5WlOtluWdHwBEoXAToc2cZPVvOFuF//vz5YcqUKaF9+/aZPXAooQrTLHsrDcMiUThQHPBvKwOxpLTx0ox/hG+OSO8+z6JEGOLBD6vFkQ67ftveOzzHTdMnriyy5zhHr7knDPnD3SjbD+5Wflbo2nTTTdWrppcubzQs1zyzczRuymp4RhWpaN4JqbkhT+l4GGFJYh10zbT/OAKOgCMQIwLGY41PkhSjD8rnY0w3cbMlK5Ay+BRbj7F4HrUj4Ag4AvmDQFT4ZRdj9hkYOHCgCtwoCUaMUNSVBgBih3v4JsI2ZI1F9BqBnAYDQRm/XOu9CM2kwXPzwxnlA3+an7SsD08mDIQfnhm/lhu9JxzxcW+UyY842X4e1pDhl41BUVBws4OwzZo1C8OGDQv/d9NN6k75Sc+W77a0yRPpapzpPNkO0OQTfzyzvJOelkvSQCkibP0GDXR/IfwtzbmVwM+OgCPgCBQmAsrT0vwYvmeH8ssYi5ToyANMHAZvjQKFi7uAMWLnUTsCjoAjUCEE4HsXXXRROO+888L48ePDr7/8Gpq3aK5x8QwhHMEYofu7775T9379+oVrr722SHrGP2kwrrn6mvDy2JfD3LlzdVQBARsBfbdddw0nnnSSxsdoQ+/9e0sv/NIRgH4n9FO+vOGGG4Yrrrgio2Swt825556re9wsWLAgEN8KK6wQdpX4TjjhBM2HCe7wduIkv3PmzMlsqkl6jRs31qWtR40apfMqyCv5/vHHH8Nxxx2n8Tz55JMaP+H3339/bQAfeuihMGLEiPD444+HBTJCgyJAefbbb79w5JFHajticf2VVrZefPHFMHTo0DBr1qxAnptI2hvKJoWDBw8OvXr10nTvu+++0KRJk4yCUQRQv3EEHAFHwBFYJgKJKg+mNGywwQZhyJAhodVKrbRXyHqMlplb9+AIOAKOQA1BYLXVVlOBGQH7zrvuDGeeeWZKuJbyoThAN954Y1i8aHFos0abwE7dxUgE6m9FuWDi8cKFC1UgXk564ldcccXw22+/BTa0vGvkyDBh4kQVxJeIkD99xvQigvcPP/ygtj2tZd4Dwvjy0sFzoSg2zzzzTEbAbtq0qQrjxHf33XeHe+65J7z00kuqTJCe8XbmPXTv3l2zSRkaSI//vHnzwjfffKMmSsS58sorZ9KfPn26CvSkizkRbcG0adNktKJu2GeffcKvv/6qeSAeykf6jFY8//zzAWUE/6SDYnFQnz7hKzEBIy6oZYsWYZZg8NZbb4Wtttoqgyn+zY969B9HwBFwBByBciGQqNmS9ZJxphetzwF9Mo1OuXLtnh0BR8ARKGAETHh94IEHtBT0skM29wAeifkOve5c9+/fX81u1FPkB9OmU045RQVrNq585513wrvvvRdeeOGF8J6cDzrwQB3FmDBhgoxu/BLqyegBIx3vvvuuCt5ENXr06PD+/94Pt912m8b85FNPqeLATbcduqn/ca++qnGPGzdOFRPy37t3b+XfOuogfsknisiaa64Z8Pe+pPP222/rtfX0X3DBBVoOVY6y7IeYh2C4LPl7SfhF8nvGGWdoOVg95D3J8yknn6LpoIxMnzZd84vicskll6jigMOAAQM0zHOiYFBO2hrSk3Fu9e8/joAj4Ag4ApVDIFHlIZpVGgkaGydHwBFwBGojAvC/dm3bhobSqw4/fOSRR1QYt57xV0Vg//PPP8VG/++w8847i5/iKNEbT88+5jyYHNn8BnyifBwgygOmQMTJnAIVoiVd0kPoR/DG5MeEdtyuueYajWfdddcNAwcNTIURf1CjRo1UUGf+BaZEmCiRpo4eS/6I57HHHtMRFRQhCLOlPXbfQ/389ONPOllZ01sG+z/iiCN0+VfyiH/Ohx52qI5mEO+kyZO0DcE8iZEIqG/fvmrWhIkVeaI8R4jbeuutpziqJ/9xBBwBR8ARqBQCiZotRXNKQwC5AhFFxa8dAUegtiCAQIyAfa70lF966aVhkEycxt5feaK400uPH5ZpLUnYxpxnzJgx+hxZHLOkn6XHfuzLY8OYF8aEjz/+OMNjdZUh8UNcxncRrrXHH1MeUSowoVKFRfwcffTRKrDzPkzRQPno2rWrjiYQjwr28hwFhfv2Hdrr2fg74aBVVl1FlZCFi1KmVeq4jJ+9995b4yWvHKgipEGZ//zjT1VcVClKK0f4YZQBP+QHYu6IOISRYrq1xRZbqJv/OAKOgCNQExGAB8J7OeC92qkTU0GrTXmIqTwerSPgCDgCeY8ATB6Cwe+yyy664hIjCEz4ZZTh66+/zgjOe+65Z1qhKF4swjM5GLOdN998UwVnhGeLf9VVV1VTIkKq8F08ipRLOj9MYkYgh1qv1jr1LP2LuzVIGr+kIwmpfxqrOnXrhLXWWkvzUCRg+oZ8lYcayygH8RYLJ/HwZ/S///1P50jgZuW2Z5yjpmDF4op69GtHwBFwBAoQAeNrHTt0lPltE0K3bt2Ud8ZZFFce4kTX43YEHAFHIAcCMHsEXYRjeodQIJ584gmdDLzTTjuFvmJqw3NGIjD7wX/d5YpbmbJPxO67764mSg3EVOcEmRux11576SpDmqzEwa6jZaWmsgoRRNq/zvq1SDDyYD1ZjFBwj3mQKg7in3tTPIoErOANQj/KChO4zQQqV1TM9WCOBHnmIB9GXOMGTlF3e+5nR8ARcARqBALC65i7luFz8EHhfXFR8dYorpQkXgpF48LxjUx4mzlzpl5nChtj2h61I+AIOAL5hAB8D8EWYpIvAjKbwTHZeZ4Iu0zwxe4ffqk8ksYgi95/f7wqDjx//Y03wsGy6pLtB0F8n3/+eWrIQcLhJ3NInAj9kOWB+5VatVJTH65ZGcmUgahQ/v7774dtttkmbLfddjrvAb8Wr0ZYhT8Wd2lRdujQQR+Th+HDh2teyLeF5XzQgQeVFoU/cwQcAUegYBGAx2F+Cp/m2u7jLFDiygM9SZ999lmA4bM0IGSNV5wF9bgdAUfAEchXBOCBHTt21Oydf/75eu7SZX1d1rS0PNev3yDzeJFMnhZmmtmpmt72Y445JjNiwfKnpKOHNDAI2xBzHExB4dmmm2yqz5577jmd22AKBP5J47TTTtM4WGq7sYxU2PNMRhK+YMK5LWN788036+pQbBSn5ZS8XH311bo8LfdOjoAj4Ag4ApVHIFGzJZg3K3MwmY1rhsDRkJwcAUfAEajNCMAP2T+BHn2jSy+9TPmk3ec6r9u5swr6hO8qYTeUPXTYTXna1Glh5g8zNQg8l06b0884PZxzzjlh/fXXV3fCQAcffLAuv7rRRhuF6667Lgy9eWjo0aOHLpXKZO2WLVuqYsOeC+zjoOFE7xg16lG9rm7lYbGUjV2q95VN4Fje9fjjj9c8swLV999/r8vYGgZaYP9xBBwBR8ARqBQCiUru1lhxpsFhKUHr/apUKTywI+AIOAJ5jgC8Dt5XZAQAAV7ceVZfVgZq3z61WhGmR+3WaldEeWCcAFMmm3dAXM1lIzSUDgs38aOPdI+DH3/8Ieywww5h7Nixuu8C0DDiy+Rq48PsurxGmzW0A2f27Nm6MzX54GDp037H99OlWVEa2D8CxYHOHuZUvPHmGzrqQLzWAUTemAORi1j1iHQtbcqAQM896VkcnNWfxAVO0F/SVlhY1B3zSziwIy7mhbDqFKstrdxqZS3nt998q+HZbO4tmUwOEVbxI6yTI+AIOAI1AAHkaeOHnPU65nLVkURK5KIbb7xx+PDDD8OGG24YJsoOpVVBJEdc9HJBFNoalKqI3+NwBByB2oGACZSvvPJKYBOyfCflc8L/bPIvgmyU/XLPCAFuCLhc40Y4u+YZh7pLgZdjVIH9G8TN+Gj0nIu/4pYdPx05xAlx5h7hHuKaXaQh0iF90rB09IH8aL5QBswhfcYfZkQLZcRZ45FriHRYPhblIDtt7sknZ/UnaWpZJJymk8ZH8yFuKD+SIVV2UGBIQfMp4bl+W5QfFAv8s+O0lU0e5TVRhsMOO0wVv84yyqRzWPI6xzUrc9RP9kdhPxXM+zj4Hrbcckuds8liBcNuuUU3X2QJYeoeB99X9vdRs5Dx0uQVAvBlyRB1zni38r80ry1TXiUOVvZ7Wua6tZX9h5h/VxolOvJQWkb8mSPgCDgCNRkBmDkMvp4I5SYUIxAbLUa4FqHDBGfcTcg3QYT7TC++CMasesQzDuI30rTS91yjfJgCgiDPNQI0+0JwDWk8FoGcLZzmQfKJkI+bpRfxmnHDT7RM+OEeU1XyTQ6JA9I8yxl3C8Mz0oMQwrjn4Dm4SCCZw5F6nsFJ3HYTIW7HHXdUQVsDR/z9IQIfO1Xjnz0qnBwBR8ARqCkIKP8Wfgexlw2jsHQywF/jpETnPMRZEI/bEXAEHIFCQAAbfciEecszQrEJ0SagZ/ux54RBqFYFQM6QNRa4Q3bmWgVvOUcVBa5ZoQNSQd7CpQV1wpu7hVfPOX4srVz+tCzpslkeicLyEi2jxcNzetAsfTvjHvVjisZVV10VzjzzTN0fo1u3bmEDmfvRpk2bMHnyZN0ojzCYhbEZH3mMxkecTilco+/HMXEEHIH8RwAeCH/j20VpoKPmCVn2e91114018z7yECu8Hrkj4Ag4Ao5AnAjQcDK/45GHH9GRhQULFugcjVGjRoWPZA4IygLzNF4dNy40b968YEyW4sTM4o4qYubmZ0fAEXAEloWAjzwsCyF/7gg4Ao6AI5DXCGCb3rZd2zD4hhsycy4wyWJOCIP39Mox4sMoBz11jOB4L3sKF3oqP/jgg/DzTz+L+dduef2ePXOOgCOQHwgkOvIQHXK34sPAvffD0PCzI+AIOAKOQHkQUCUgbd+bMthKhcYMjLaFSd62YhOjELjVdMXB2lQ7gwjXHLTDnFlBa4WmTXVuCROAP/r4I1WutJ2W506OgCPgCJSEQKIjD2YPiz0q9qnt2rUrKV/u7gg4Ao6AI+AIOAIVRAAlwJQlVuQSjSkwN4RduFlJxTruTJFiVCYz/4R5IZKuPatgFjyYI+AI1FAEElUe6O2AGcHQrrnmmgzzqqHYerEcAUfAEXAEHIHEEbBRhpkzZ4op1+Bwx/A7dO+LIqP/NrggZ9YBQ3HQZXllxAayzj5XIBJ/fZ6gI5D3CCSqPBgTsjPoRK/zHi3PoCPgCDgCCSCAIAexmhI80nqEEQpLIvwhHBpPxS8CYNStpLAVcWfJV+YRcGZuga2ORI91ybksOSXybWW1MpTs258UqwvyvsH9k08+Cbfeemu4RfYfKKIsZEGW8p1SHKgnvD/2MbB9Mux9ZAXzW0fAEchDBKyNIGt8z/CHOPloospDHuLtWXIEHAFHIO8QgPnTGHCYEFdMWMzOdbqxQAjUPRXS95isLC/LlFY5oTSk5xWwiRa0vNwz14B8l5eY4CyF1Q25VICVa6dlI0C9+Omnn3RFqfHjx1dIWSQOJk5H9w2xehenALLs0rkPR8ARKA0BaxeKfqcV6b4pLZXizxKdMF08eXdxBBwBR8ARiCJAY3DggQeGrbfeWneyZTKrNRBRf9nXbIa21VZb6bHZZpuFs88+W8OhSMRBqthIxOSNPJL2d999pzteVyQ99pxgo7dtt902jB49uiJR1IowjCagIL700kuhS5cugZ2NV2+9enjvvfeK9TYWFSiKw2PPeYcoDyiBHLxb2028eCh3cQQcgXxBwOYm0eHUsmVL7Wz65z83ij17iSsPNowKsypLgxg7Ap6AI+AIOAJ5hAACHbzRzmTt/vvv1/vsbJo/+Oo42ccAoZJGRAyAUiYrEg+9+XEQ+UPAjAqgdepI2pJ+RcnbhaLIGba48o4xRdpkk010ZKlHjx66KZS2qfKKDbvsc9EYi95Z/aG+XHfddaFDhw7hhuuvT416SV0ibvxA2fHWivtUwTNlt2/SMFF80tjg1ckRSByBdHtBnWRTTOrkLrvsEns2Ejdbso/v6ylTQtMVVggrrbRSWI7GJqYGLnYEPQFHwBFwBKoQARqB6F4ENAZ3jxwZDjnkkGKpwE95zvm8887Ts90X8+wOBY/AUUcdpe946NChOreBAlXJ+0a/REeQ841DhsjIz2OyvG3K9AxlFDKBWW9q8I+q2hGBzL4xigzW4PDLL78oAoZNDYbDi5bnCFAfOainzD+DkvhWE1ceKNSkSZPCeuutpwVkqDTNs/L8FXn2HAFHwBGIHwEdOZBGgMZgzTXXDDNmzJCVcn4Lr7/+upr0RHNgjQabfCHYoHS0atUq/PDDD1Fvxa4xTWEn5r8Wy4Tn5eqGRg0bhgZylErCu+fOm6fmLfjDXKZx48Y5g5AXRkEg5i/kIpsnUdLzXGEo7zzJA2FpKOuXkodc4QvdjQnNBx10UOi1777hT8Fg4oSJod8J/cK0adMqJTCAa6NGjXTCNPVi0uRJlYqv0HG2/PMNgg3E6IxNMuee77SVdH7ac9ycHIGkESjSeUB9Fd4rjYe2H3HmJXHlgY+RSVn2wdHY4ebkCDgCjoAjkOo1WvJXqocTAWWbbbYJr417LQwePDhst912md5PnlnDcdFFFyl0e++9dxj/3vhiMNKgsFEaAv0+++yjPafwYEZ9kY24btGiebhZzGLWXnttjZf44c+EwWzqpptu0oaJeCDCrCCjx8OGDSuW3rvvvhtOPPFE5e1cR4k8M7GackEoRczLKNYOSPyIbZpP8X/bbbeFESNGZCZj404eEXpZXahz587qt1g8mkph/lBGDiPmIqBAoDj8IUI+u2o/8sgjqlBNnTo13CA7bE+YMEFxAWfDiPDcW52x+MCKg3qw//77hz333FMVwiaNm4SGjRrqe6EOEK42EvhR/8Gdg85O7pncj+Lapk2bIrBY3bNzkYd+4wjEgADfZ5QqYzYajWdZ14krD8vKkD93BBwBR8ARWIrAwIEDQ1eZPM3GXj///HNYSSbF2e7JLOX6+Wefhe+//14F/RNOOCH07du3mCBOg/KRCJXHHHNMRhDstW+vsNHGG4XPJPxDDz0Ufps9WydqDxo0KHTv3l0VhcUiPF15xZXh8SceV+ETM9PjjjsuNJWdiV97bVx47rnnc5pT/fVXatQhlxCljV2kw2jhnwt1dKKYgCp+UDIQ2DDXmThxouahW7duYYcddgjsYXDvvfeq4Pzvf/9blZutZdL2UlF7KYY14QpB1gRYRl7AhVEClAnuV1xxxXDuuedq5xx15ZVXXtEjqnxErxUTAWvJ30tCSh0MGgfvlhGlhoxGiYBsywXzfsykJxW2piItpZO6B1aGuSoQKBGigJkiAS48BxPFRsLkqu+Klf84AjUMAVceatgL9eI4Ao5AzUIAAXrjjTcJ7//v/XD66aeHO++8M9RJCzYIL7dKjzzUvn370KJ5cxFmio/kIvyceuqp6q9FixbhscceUwWAHtTddtstnHHGGbrUJyZS55xzjo4GYE7066+/hscef0yFJHqlL774Yo2DdHfeeedw/PH9Qu/evVVg1QfpHyZOlyTFE5bDCLMphK6oG89w43jyiSfChA8niEMIDz7wYOjYqaMFVaWiX79+utJQ//79w/vvv89QReZ5oV9kYxK9txEgLaOUOSq4rr766jqSwCjT77//riszYdo2WxREyPBOje2k7nlf1BMUEVMYSI9rhONiyp3GVIN/pOwsCMCIDQoDZw7ql2ENJuxxwr3hY89qMDJetHxCQOqjVMBUjuQa7pdEHaydY5H59OI9L46AI+AIlILAIhHozjv/PPXx8ccfqyBDA4GwMmfOHF1liYeY9bBpWw7dIbzzzjvaQ48/zIzoVVaBiMZGDoRGTIK4RkCyazOHwqyFXu2o8Mo1QiqjHbmIZizqP5ef0twIS+/6cMlXnbp11MypfYf22jDyzA5MdUx4Y3SiJlFUCOAaQd4ORgVQ8DD5atCgYagvZ+5xT7mlnjMisa/MkbjgggvCNddco6ZJjC4oZih5QmCpIxDy7vVaztQP6oWZ6thoB/e14pCyU/4iigNgyXtg9MzMufgOVcFCgZAj+s7w7uQIxIqA1Dmj/ffvrTyAEWq+4zjJRx7iRNfjdgQcAUegkgggnDBxulPHTjqR9fzzzw9XX3WVNg7Y+iMo1hOhslmzZpqSCdXRZDFNwp242rVrl7k2QQcBCSFz5ZVX1g3H3nn77XDssceG7779TqPZYMMNVSjlBuWCeCwdJvCyzGdVE03iQhFUMcmC3nzzzWITxvWB/FAO8jV27NiwoeS1JpG9I8qEwMr7Bntzx00VinrLh3qiPJgCoQL+QgR9MXESIRh8cNtpp530ID7mSdx8881q+mRCMHFl4pRr3DksPcLVFrI6TtnBBDI8uDfljWtMCXnm5AgkiQB11Oill15UhXf48OHhrLPOMudYzokqD9boxFISj9QRcAQcgRqIAAIJDcSxxx0bzjzzTJlr8JqaU+D+6KOPas8oSoRRLiEPu3iIZ/SO/s2RbnRMMMIdBYTdihnBQHifv2C+CkTYwOMfvxzwcsypzKxDI8/60bTSwhRxESeCKWGX9pVlBYrcWjqcSZtwHJDlnWueM1bP6MTnn3+OU40kygl+ENcm4CPAMpLEwegA79pGBuzezJFSPemLBb8URBtssEG4/fbbVQhGgWTyOfFwJl5TJEhPcU4Fq1W/WtcALI0B3529C1UgRJljB3eumVtUW3GqVZUijwqr9S1dP+HHSVGiygOF5EPk4No+wqQK6+k4Ao6AI1BoCBjf/Ne//hWaNGmi5kcPPfhgmDd/vvJSVjxip2GlEhqP1Vu31scmgGOnzXwHI1Uo5IaJtiImhtVWW01tZ4n7t99+C19++WWGdxMG4R+be+KbmR4ZwN1IGzS50WUD5cw9B/4524p75s/CRc80hAiy5GXm9zPDEUccoSZSthSh+bX2hLOVw57VtDMKG5jRduqIkwitmCsxsgBWKA0Z8yJRJBi54d7cOKNAmBJm8aAooCCiNOghcTGKkVEeBMjkxJL8emvgbXXMsOeMspB94M7h5AgkiQDfZnati7seJqc8CGOPfoBcczg5Ao6AI+AIlIwAPcIIxQh6zC/Abv0WmbdgvfisRMR1afx08y22UKGGBuWss88OrKhEb6nZc5P6/ffdp0KlcObwn//8RzPEROqTTjpJJ04z3+If//hHRvDEA+mekp6IrQHSP9jUQ5meMEkXvxDCK5OcEbxMiNUHWT88I8yWkvfHZdL0o7IkKSs9gUOUEJht2ddnn31WTa+iz2vStfVuc0aJ4qzzG+RaRxUEWxQJrjlUmWA1JsEoqliklgJGkRN7fcydpC6w1wcKSENGH1hlSdzAnzSguIWRfH1P9l1Z+al/XHNwDT7mll0387VMni9HoLIIJKc88KHJAWGTukGXDcL6XdbXBo+P0z+6yr5KD+8IOAI1AgHhhwvFTh2K8kYE/f3220+VB+u5Z3Lsv2XnaZ5BCDSEMeFGJ1CLO+vRM3LBnIBXZAnPww47LNx1110EUeEHpeRtmecA0dO/7rrrqnDatWtXnetAevT8s3cDZ0uDibjMi7B0CY/Qv8Yaa3Cp/vDPBGwIYZTlYpnYbDyfydgQZbB8E7/RyaecEp586qnwu0wO32H77cMTokisvMoqOnIyX0Zfuu+4o6aDELeKuEfDWhw14azYIKxGCrO84ATelNkUQc52mAJh50Uy8mDzHwjDQbuMooDiwAhEdCK2CcaRJGv1pdVPlWSQaVAkBJGk1tav1eB74fMKgeSUh0ix+eA++vgjdVHmlW48Il780hFwBByB2omACCUIcZgPIaxEifvDDz883HP3PercrVu3lOAiAiSCOfw0GsbmJeDGaMNll10WHn/8cZ0bsEV6NIKICFtXeqG33GrLcOONN6pCsUiEUHq3//vf/4YDDjggTJ8+XfdSGDp0aEZAh5e3W6tdytxJ0mDUAjcmX/eWTcceHTUqMGJBWkqiEzA3gX0kUGSMCANF8841gjGmU6NHj9YVgxaIEtNz113VL2VNXYTQXNJ74sknU/e16BeMdGRAsEAJszkoYINZGspjVJGwEQlTOKz9BX9GH6h3Zg5FvMTJROCitbAWAZxVVFNpo/U0y4vfOgK1AoFqUR5ANruRqxVoeyEdAUfAEVgGAvBGdopmjwX2ZMimvn37pno8RXA8Qcx/EA4R/hAIoV69euna/u3br6V26iYg8oyVmhg9GCVCPb3/v/zyi06SZndmdhhm6VUIExeR5FUwxRYe4Z2di+n1nzZtmprEsALU7rvvHraSjdlukZ2pIfKL0IpwdbbsF3GIjIrcK+ZQrPYEtW/fPhx88MGhU6dOusoP/hBOyTvXPGPjM+ZwILyaO2m99957qsi8/PLLgf0oEHRx79GjR9hss800vGGhidWmH8EO/BiVoC7wzpfIWee2CLbgApZ6TisUCMIoh/SaEwa8USI5uMaNg3idUgg4El4THIH0tyBMxpTpYphsvPHG4cMPP1Qzo5q2fnaxwrqDI+AIFBQCCDUcr4gZDhOJnRyBmoYAzTMmZihfKHjlXU3KmncUB6452zWKA40/ArGtEmQKg51rGp5eHkegJiLAt01byIjvnN/nhKuuviqcLXPbykUSBxuBPv3MM6Ft27Y6mlxa+GobeSgtU/7MEXAEHAFHwBFwBCqHgI0aMJIAIWTYYff6QH7ML2ebn2jP/OwIOAL5iQCdASj7nOlEY0d5RnjjJlce4kbY43cEHAFHwBFwBPIAARQDUxI0OygTkXwVeRZx90tHwBHITwToDMAckW+XTR9/mzUrtFxpJe0kiPN7rhblAQ2JjWxY1YGCW69Ifr4az5Uj4Ag4Ao6AI1ADEUCZqIHF8iI5ArUFgWz5eaVWrRIpetEFs2NOEqUBmjJlim5Ig/IQp2YUc3E8ekfAEXAEHAFHwBFwBBwBR6BWIZCo8vD/7J0FgB3V1cdv3IMGlwQoHjRAS4WgxS04wYq0ULzY1yKltNSgFCilpbi0QPHg7g7FrbgTIAQK8ex+53feO5PZl/c2u5t9b+1/k9mZuXPl3N+dN3POtQlD4euvv/beBpaNC4OiS1FXYUVABERABERABERABESgAxKo6bAljAeGKbFnjBautMulAzKUyCIgAjUmQKMDk8QYsB3PlBqL0CWyg20458xJ7jke16JhKM61bx0CMKeRTXxbh6dSEYHORiD//ssf24vRn9XVKm9NjYdqFULpioAIdC0CGA48KHHr2xeGozGia1Fom9JGI1Db5N71coW3b12v6CqxCIjALAiUNizQsBZ+1ZzPJONhFhWjyyIgAu2PAIYDHwZj/pRc7Qh8YSt54FhPXL3GtePOh9uOPe642mWonERABDoEAf/QI73BJu3vf//7dMnFl6T7H7g/zT333FWVX8ZDVfEqcREQgWoQoGXl8ccfr0bSSrNIID4iRksWGwZb3759bXWebum+++7zj5bFx8TYeyuX1YucCIiACIhAbQjwgUd39oz+3e9+l7788st0wQUXpCN+9rOqCiDjoap4lbgIiIAIdEwCtGSF4cCwsPzQMMbhs+V7HzIDomMWV1KLgAiIQIcjEPMcwojgmcyzmud3NZtyZDx0uFtFAouACIhA9QnwUsJ4CEOB43DhR5hwPi5fPQ+BQ3sREAERqDqBmN9ARjyPMRxq8SyuqfFAN7iVymFGgWNfdcLKQAREQAREoMkEwnioK/Y6YDCEC+OB83hR0fMgJwIiIAIiUFsCPKt5DkdjTuyrKUVNjYfoVllmmWXS4ostngbPMdgLKwOimlWstEVABESgmQTsZRTGQwxZCuPBrnhvxNSpU/2FJaOhmWwVXAREQAQ6OIGaGg/Bikl3b771pr94wk97ERABERCB9kGAwUgYD75xbL3GMeeBCdM+ptb8fFJ1hLO9nAiIgAiIQOcn0Gb9zOpt6Pw3l0ooAiLQsQmEAeGrLZmxEM/tMCrqZDh07AqW9CIgAh2eQDyXKUj3boVvIPGMrqZrM+OhmoVS2iIgAiIgAq1DIAwFfxnF+8j2blAUjYfWyUmpiIAIiIAItIQAz2eMCIaV5o2JlqTVlDhd13hoLaustdJpSm11hjDBK/adoUxdtQzttQ7bq1yzuk/am9wmjxsO+b0vAJgb0pS/1t7knxVvXReBHAE3jnPnLT1srXRamn9HjSduzay5eN7G3qL369fPn9nzzjtv1Q2INpnz4IgosFlJ2267bRo/frwXuBI6bqrVV189nXLKKQ2A4O+WVnF/wAEHpJdfftnebJZSIwvcLrzwwuncc8/1Dx5FGpE3rWlMAORLfbfddltFuVhLt65ueho0aHC66qqrUq9evSKJmfZXXnll+vvf/+6yxrjhmQKZR48e3dM111ybBg4c6DKUhkHWBx54IP3yl7+sKBdfIqUMbCeffHL6zne+48mUlhPPd995J/1k/5+kSRMnFVWC0hwL55R199139600BJMoe9r1yVOmpK222ipNsT38yA8Z8o66Ivwmm2yS/u///i9/aabj7bbbLo0bN65iOYlAeiuuuGI6/fTTG9wXkRiskf3QQw9Nzz77rNf3pEmT4rLv85M9hwwZki699FL3J1456/3UU09NN99880xlyydKmszrue6662a6L6IephuHa+36mWeema2Vz7Vyjjq97LLL0nzzzec8ysn18MMPp+PsC7SlzCM94kTex/7iF2m99dePSzPtP/vss7Tjjju6PwzL5cfF+rr6tPseu6c99tgjK0MkhhyR5zbbbJO++uqruNRgzz3fzbpZyWd9k+nnP/95dr1cvqN3HZ0++vhDK2d5VkQm3tJLL53OPvtsv9/yv82Qi/uUvJ555plMzlJ2ddPrUs9ePdM8c8+TLr/i8oxf/p4hP2SnHsfccENiGE8lxz3Fw/2aa65JvaxOLeOGQYvnXD/jjDOS/5Yt7XyKpXmfd955adFFF/UylF4zgdN//vOfdORRR2XzFRpmWDhD/l5WziOPOCqttvpqafLkyX4fwWOqcZpiE6OZHP355597hO5WZwcffFDqP2CA/9YjX7j36tkrTbfn4p577pn23ntvZxbXI++4D0eNGuW/8fAv3Uf9/+AHP0i/tGdeJYecP/rRj9J7771rcjb89kRpnGHDhvmzv5JMhOfZ9Oijj5ZGzc5D/nnmmSddccUVhXufei+pT8L95S9/Sddee63zL80zS9AOevfula6//gbb9y777KeMY8aM8fQ4Jqvpdn/mHflxz3BXke+37DdAWPzyDr9XX301HXjggV4/xCvnevbkHVfvz8/NN9/c77HScMx54f7Ydttt0kR7j1BG7qdw1GHUI348V/bbb7+43GAfcsTzIs4bBCqecI374lcnntiAO/7kx55tn332SW+//bYfl0sn/LgveEfzrIg04hrl4bd7/PHHpwcffLBiWoSBLV9fp84bc+ecc47fO4QhTiVHmrxH+vfvX/a+QFbeR+hGlVzIxfP6tD+fllZZZRUPWlpOK1h6/Y03/L7gGdCYI82DDz44bbnlljMFC16kMSudoHt3dILpfl+gv80kUzF19Ibtt9/eP4BGmEqOuh8xYkT6wx/+UDYIsnGP7r///v4b6NOnjz/v8oHzv9OFFlooXXLJJf4eocz5eznicF88ZPdFY89+0hwwoL/rd6W/x0gH2fi4G1+I7mG/PVylsi633HLZO8KEysK99957LmsYEeXkjfxme2/CVXR2k1FL9cOHD68YpqUX7AdTv/9P9vf0rYC+J69KG2Hsq6YNsjPY9Wyk9cgjj9QTxh5V9Tbmq2I6pG8VWf/HP/7R4zVI0E5Iz5SnRuOThudFfratuuqqpclk51+MG+dpEY58K5Uv5LKHRFm5KCNuwIABjaYRcsFg8ODBnlbEzYQqHpiCVW83spehMblCNvtyYWkSfk76q622WlZOD19SB5SdzTnYNVPaCuUslisSJq2jjz7a05oVL/Khvk1xjugN9tTlSy+95Pn2KObdWDmRzRTwBmnkT957990myRV1sNCCC+Wj11uB/f4yw6HeDKOsHmd1v5KefWre0yqtS87twerXm5IOTAcPGtRQrpKzpZZaqlBPFrYxXnHtk08+KUmBotb5tsYaazR6f1F/cU+wf+GFF2ZKKzz4zTb1niDc3XfdVW/LjEb0bI9sb77xRla2qK8oD/vIJ67ZyyYrU5ZQ8cCUEy8D91g+jdLjSGv++ef3tErTQa5vvvkmy5v4xClNJ3++wAILlCaTnXP/zzdkvkbjkxZlJR9TXOtPOumkentJZn75vCIs91nwwS/KFenE+bv2ezGjYyZu3K8jR45smlw8z02+V155JStX6YG9cF2GvEylcsc5st1www3+O8ynA3t+l69aPhG2sX2Ucaeddipbl6T91ltvZfVH+MbSQ3ZbgbBiWnCkXkijsbSiDkzpyd6N+XJyTFm5BxuTJ/IhL/KlzvKONHDsrVEj4z+rOuC6KThly0lao7YdNcsyhtzIxm8v71wfsPuetK695hqXK54xEa/cHrkuuuiisnKRpjU+zZIXv4vIa4MNNsiL1eCY8gffWT2zkYvncfDOJ8SzDX9TgBuVDU5s5LXgggt6nHLpkba1WDdLJ5gwYUJepOyY9Oeea66snFHePHu/t6x8IVt2X1jcvKOcZnA2SCufTrnjjz76KJ9Edkxd3nLLLf5M4b4m73Lxww9mp512Wha/9ODJJ5/0+LO6772MVlZrzG2QBJyQid8XMufzjeNye/K7ccyYwn1R5EU67ornleq4gQD5E4u3+WabuQyLLbZY/krZ4274mnBlnSnF3jJnxkN67rnnyoaZHU+yxsqaMHFCxWQMult79pIsa+USkXQIh7X/yScf2zmNESWterkcTKlO9tAva8lHemaoJHth5WI1PLTK8xYDWph3Gz3aLMWGrTv50LR6P/74Y+ZVWKUkfy1/TCvs6NG7pX6WJtZkOffWW2+l22+/PbM0S8NEuekV2WyzzZPdBBmf0rC0BtNyZjdZxfSIQ5pmHLhFH+lHWsQNv/PPP9+t3rhWemsRjvAs1bveeutFsIb7QuV5S/vXX3/dqFzUAb0FW2+9dSZDPrGQzZQFuy8+KaZFi9SMUCE7PmaYpZ133nmmVnSuxT12//33W+/WSw3S4HreEZYWjb322mtmueyaPRr93uM3RUsWLRHIWskh46677poGmnyWYINgIdc71ot06623FsvYIIifkEbUx4YbbpiWXHLJmQMVfeBOTwcu4hQvzbSjlWeE9QqWyuUBi2W98MILvUdqpshFD2RjQybuC47LOWT517/+VbEXI+IQn25bejVL08qX58YxN6YPP/owolUs68ABA9Muu+yculvLUyVHy9MLL75YMQ3iIQt1vbe1kttJpaTS888/nx566CFPi3s8L3NpeWjJnXPOOSum9cEHH6Sbbrqp0fuL9EmXXkrqgBZ1ehpw+bwrZpK7QDqnnnqK9RSPSGuttZaXlzJkclteUXZT1qy1emIudukhP9RuaSmTaQO7Zys5ZLzSnmNfFHuws7zKROC+oMejXJjgYMpF4vfUmCM+z3563Rpz9AjyOyd8Yyy5L0iLfTnZyONFu79IL54VpelFPHhvbb3AQ6ynspwj3tixY71Fm+ul6eTjcG2dddZJtHRG+qXXTWlJ1OW0aSzdW3gv5sPk49HqzX1RyVG2iy++OJX2EOfDUz6T2t5ti6eNN944f6nBsWlW6aqrr/YeM8qRl6NBQDuZa665st7W0mucE5/3Lu/fSo5WdNO/vHeRnvrG8qNni9856UZ9lkvXFNy0+267pT7oBBUcesq9995b4Wr2c/Oeqm3sXbmgtaZX4vHFF1/4SApkIkwlR1nXXvu7aYUVVpipnMSN51ZjOoH9JMzxu6hLK6+8SjZKojRP5GDjnWTGSqNywZyRJZttttlMcpFusEZXpCe1UMbKOkHoiuXqkrj4c1+8+eabpWJn55QTlOgEe1qPbLm0gtnjjz2WnnzqKddBCrJlyTQ4QO/hOYYLORoEaMmJCbnFFlukG+19gd44y2egZVzxDqm28dCS8imOCIiACIhA6xDg8Y/yx4bBYC1grqwwFGK6KQFNdaEsMIzw3nvucSW4pw0BQRlGAWKTEwEREAERaKcEmmk8dN0J0+20/iSWCIiACNSKAMZDGBAYDoxTZrw8hkO5FrJKckVL5W9+85v0jbUOMqeEeT3uP4tWzEppyl8EREAERKB9EpDx0D7rRVKJgAiIQPUJmPFgY4pd0cd4QOmfZAbEmmuuaQMKKg+tKicYXd2L20YPhk+ytvTo0ajYtV0uEfmJgAiIgAi0ewIyHtp9FUlAERABEaguAebhoOiHAXHYoYeZ0t90tR9Dg3k5sTKTGw2WJs5HxhaPq1sKpS4CIiACIlALAjIeakFZeYiACIhAOyWQH57EMKMp1vOw8CILp8UXX7zJEvfu09snu9NzgQESw5hIwNMvzI5scnoKKAIiIAIi0H4JyHhov3UjyURABESgugSKSj0Kfmy9bVUQlP/Rtopc+FUawsREacKw3ju9DRzjIl7psV/UHxEQAREQgQ5NQMZDh64+CS8CIiACLSfgSr4ZABgBvuWUf5bU5GNDbhCUmf7ACkox4XqHHXbw+PnVlWKVpTAoWi6lYoqACIiACLQnAjIe2lNtSBYREAERqCEBFPswHFzZL35ngDXJ+dru9ttt32AIUl60mNfAdwAwGgjf3dJjz1fno1dCxkOemo5FQAREoOMTkPHQ8etQJRABERCB2SKAso/xgNFAb4N9bdo/gjZqu1FmEOQ+8pbLhaFMGAZ8WJEPpvWxOP369/e42Tceij0auWg6FAEREAER6OAEZDx08AqU+CIgAiIwOwR6oOCb4RC9B72t5wAjwnsfrEdhiy23KJs8qzHxhdn57EvGHt4MCIwOeh7YMEa6WdpyIiACIiACnYuAnuydqz5VGhEQARFoNgGGGKHsuwFhBkBmPNjxqFH0Psw86YFeh5122in16jnD2HCDo2g4xLClZgujCCIgAiIgAu2agIyHdl09Ek4EREAEqkzAjAAMAe+BMCMi64Eww2HgwIFpviFD0uojRhQmTpsoMVxp0KBB3vMwYOAANzbodSAuW8yj0HyHKtedkhcBERCBNiAg46ENoCtLERABEWhPBFDyGWIUyj+GAL0InLN06+677+bi5o2Bgw46yOY59EkMc4rhShE/DIh8+PZUXskiAiIgAiLQcgIyHlrOTjFFQAREoNMQyIYu2fClmLfAnsnQiy8+NM0///yFr0VbiRniNGL11T1cHyZLm4HhBkSx18GNETNI5ERABERABDofARkPna9OVSIREAERaBEBlH4mT2McYDj0M8OA/YABA9IxxxyTDV3af//9U19blalvv5JJ0mY8EBdDRE4EREAERKBzEujZOYulUomACIiACDSHgBsOzH0w5Z9hR977UBy+NHXq1DR8xeE+L2K6fX16/fXX9yVdfYnW4spMMWRJE6WbQ11hRUAERKDjEZDx0PHqTBKLgAiIQFUIuAGRW3mJoUgYCHXTp3t+xx53XHr66afTXHPNlfqa0UDPRH6FJQwPDVmqStUoUREQARFoNwSqbjzU19tq4LaNGzcuffbZZ/61Uj5IVN9uEEgQERABERCBIFBvPQv0NEydNi1Nnjw5TZo0yfccL7300mmhhRb0Z3kv651gvgPGhQ9vMkMDY4NlXfV9h6CpvQiIgAhUmQB6tmVBww2NOYsttphnWM3ho1U1HjAaohWKDwnh8JMTAREQARHoWATiReTPdVuwta6+rmwBeObrOV8WjTxFQAREoFUJxHOZ5SkYUkrv71lnnZV+/OMft2o+pYlV1XgozYwXyiKLLOKF4wUjJwIiIAIi0P4I8Kx2I6FoCIQxUGcvJ1w8v6NxiGavbt0L34tof6WRRCIgAiLQOQnw3R36HXhGv//++z66Z/z48dnzu1qlrqrxEC8YhI+XzyUXX5IGzzE4O69WwZSuCIiACIhAywjwvJ5u8xwwFthPtyFMdUU/rjE0iVWZaPViojStXf6ROdvLiYAIiIAI1JiAPZfXGTkyffPNN55xXv+uhiRVNR6qIbDSFAEREAERqC4BXjzRHU5OnGM0YCS48WBGQ4QhHJvmOVS3TpS6CIiACLQXAjIe2ktNSA4REAERaEcE6F0wqyAzEuiBiNasMBxij9hxrR0VQaKIgAiIgAhUgYCMhypAVZIiIAIi0OEJ0PtQ7HGgt6HUOIhz9nHc4cusAoiACIiACMySgIyHWSJSABEQARHougTyxgFGBM6Xu6BnQk4EREAERKDLEZDx0OWqXAUWAREQgZYRUA9Dy7gplgiIgAh0JgLdO1NhVBYREAEREAEREAEREAEREIHqEZDxUD22SlkEREAEREAEREAEREAEOhUBGQ+dqjpVGBEQAREQAREQAREQARGoHgEZD9Vjq5RFQAREQAREQAREQAREoFMRkPHQqapThREBERABERABERABERCB6hGQ8VA9tkpZBERABERABERABERABDoVARkPnao6VRgREAEREAEREAEREAERqB4BGQ/VY6uURUAEREAEREAEREAERKBTEZDx0KmqU4URAREQAREQAREQAREQgeoRkPFQPbZKWQREQAREQAREQAREQAQ6FQEZD52qOlUYERABERABERABERABEageARkP1WOrlEVABERABERABERABESgUxGQ8dCpqlOFEQEREAEREAEREAEREIHqEZDxUD22SlkEREAEREAEREAEREAEOhWBnp2qNCqMCIhAmxGor69PPXr0SBdccEF64IEHEue4bt26zSRTXCP8gAED0rrrrps222yz1LNnT4+H//Tp02eKJ4/ZJ0B9BH9qpq6uLvUw7vD2mipTX+VyjXRIa5999vEg+J133nlZ+uXi5f0efPBBv1+It/DCC6df//rXHbreKcdzzz2XzjjjDGcwcuTItPPOO6devXo559deey394Q9/cATc79tuu22TWeW56VgEREAE2pKAjIe2pK+8RaATEUDxRAF9+6230rPPPutGQ31dfeJft4JaWiitBUTh7N6tu1+zP+nhhx92xXGllVZKf/vb38oaHJ0IVZsWBfYouRgNDz/ySHr00UfdaNtxhx3S/PPP32TZSIcN98ILLxSMD0vXPJucxrjPP/d7hQgfffRRmjZtWuG+KcrY5ITaSUB4fP31125A8FtYZullCoaDHUPlcyvvM888k7p3755WXXXVjF87EV9iiIAIiECTCMh4aBImBRIBEZgVgW6mEGFAsA/Xu0/vNGzYsAZKEmFQpFCgvvrqq/T5Z5+lyVOmeJRnn3k2ff/7308P3H+/t4aj5Mq1PoF6MxxQdJ9//vn0r3/9y49XWGH5tMCCCzaoq6bkHIZIGIPUP+k3xcV9gCGDsk2P09SpU7MeqKak0Z7CcE9TFjaO+UFQLhycYB688CMM13WfQ0NOBESgoxCQ8dBRakpyikAHIBDKEaKiQC266KLpkksuaVQ5QnF65JGH04EHHmS6VjdXHn9z8snphBNOKFti8kDJpJWaPeeRbyhoZSOaJ+FQ2FBQGUrCed6hyDF0CtlxodTl4/Xp08fz5jppkFaEwy/vQp5QIHv37p2Fz8fh2MOieJpMHPdk6Jadh0xTzMBCtrzLcwiZkZWNsMQN2SMeaZNulNPztfDduxdYhgJM2iF3xM3vSZe4OM/TTcJCvefDzeqYuLhQpHtY/YRfxKVsyMO+u+UZjDhmyBV1gPPrKO1F5/JZ+lO5V8w/wgZHwhMm0iffSD/SKLcnTrDhmC2Tr5g/aUb6kQZljLJxr5MGcfOOc8rDfRZpcL1BXAsT6UTcTHbL1+u2WD/4+7Vi3qXxIr72IiACItBUAjOesk2NoXAiIAIi0EoEQrFZc8210vbbb2/qZ2E401NPPVU2BxSrUH7yx5FOqSJWmkgoxq48FpUqwkR8FEDSIFxeWeM656FwE4dzFHr2lVzIQ5hQLkkr/PPx3BgyRThUSRR8HHFRIjFUSl0M88kroYRHzsinnHzkTxzSDccxceyPe5F2e3Ewcdlsj+GA8zKYzFMmTy7wrMCVcnl9W5lx1EOUHUMBR1qkzxbp+4UyfwhDeDbSYsNveivxirSDP/XHRh642JcRzWXnOiHrioajn5sfHPL1XS6+/ERABESgKQQaNmM1JYbCiIAIiEArEUBRwrFfc80109VXX23aUfJx46VZoPi4wmaK1N13351uvvnm9O6776YvvvgiLWjDbRZffPG01157paFDh5ZGnXFeVMC+/PLLdPnll6fHHn0sffrZp66cLbLIIul73/te2sHG/tNK/be//93zIzITgmkNDiXuH//4R6bE7bvvvpl/lCcyZFjQQw8+ZAVMaY011vBx7tHjkVcCvxz/Zbry31f6/IOxY8e6QrrQQgul7373u2nHHXesmD75/O9///NJxy+//HL68MMPXa4hQ4b4BOTtttsurbLKKg2Uxo8//jhde+21XrannnzKwzPk6Pbbb0v//e9/3X/55Zf34WNRjrbedzcF/fHHH0+33nqrl5EyUB9zzTWX1/0WW2zhdRf1E/Iyx+Df//63GwvwZ4PvhRdemF588cX0ySefpL59+/q9s/nmm6eNNtooq9dIo3T/9NNPp+uvv85YvZ7GjRuXBg8enFZcccWEDMxjmF3HfcF9dMMNN6Q777gzvf/B+97TNd9886Vlllkm7bP33mnueeYpmw29fJPNmOrXr18aPXq0G6JvvPlmOt8msb9jvxV+Q5dddlnZuPIUAREQgaYSkPHQVFIKJwIiUBUC0RI8YcKETHHDGECBovWVVmM3Mez8MVMgDz7oIB92gzAoi4RDSUQZxKBg0i8KEgoUw4RwYXjQmn/ggQcmlOa6+sK49FDiP/jgg/TEE0+k0047Lf385z9P5517niv9xA8DgWPyyxsPP/7xj92Pa6UOhf6cf5zj3pRzNVMus9bfYgvxEUccke63OR44ZAkF+L333nOF+U9/+lM6/LDD08677OxxScfLY+EPOOCARC9NlqanUph8zKo/8CA9VsBCwSUcijcrIuEoizdT2+6ee+5Nd911t4dn9asf/OAHWX0Uk624Ix22kMPrq2LoGRcIj3zsox7iKuXEQHjt1dfSXj/ay1r2mXQ8o/Wd6599+mmC8b333utpoHBjdOFoeWcSNnVFWNyNN44xJrf4cf7P+++/n03av+WWW1L//v09Pcrk95gFfv2NN9Kee+6ZuE+jjkgDA+ItWyTgxhtvTIMGDUpHHnlkVhbKxOac8xmWOUZGei8uvfTSdNqf/5xxIShDnKg3FiLAGFpvvfXSyTa0jzjBjTwo66RJk9ICCyyQdtppp7S3GRovv/Sy38dcn6eC0VFGHHmJgAiIQEUCMh4qotEFERCBWhBAQcT9/ve/zxQtJk2H0oUiOs0Uweuvv94VJvxR3mh1Rnmmlf2KK66wXoRHPRxK1gYbbJAetOViccQnPIYIy2OOHz/ePWltR5lC+Wd/3333umLJUCSWDA2FkxWjquGYWDxi9dWzpFHuUAq32morN4ZYdeozm0xOeU/7DLfEqQAAQABJREFU82np3ffeTUcddZSf47e5tXTTck45kHWFFVbwZUFRfMeMGWPluc+Vb8Luscce6Y477nDlFgWX5XHxp6xT66Z6/F5mpNHCDyuuo9A3RemlAKQVYTluKjHiMISIMpQ66otegtG7WQu6hSNdegk22WQT75Eh/JVXXpnoCSAN3NZbb+29N4SnLFEG9hhQONJhWVh6k5hXcM3V16SnnrZhciY0hsFPfvKTdPFFFzkHj2B/3jPjYscddsyMFxiNHDnSZWHSPz0ZGJ/0Ap1w/AkJlsyzaIoLdsh8zP/9X7rrzrs8b/yXXnppvz8pHwYfS73i7rrrrrT22mu7wYMsxM077ll+GxjUuB42n4UerzCm82F1LAIiIALNJSDjobnEFF4ERKDVCIRSh2KEEYEShIKzb/G7AWREb8Hbb7+dfvvb3xaUJFPyrrvuOm9hDqUJRQpFeP/99/dlMlG8Ro3aLt14042uyKKI/vGPf0zjPh/nhgOKFMYIhkc4hiwde+xxvvoQrf2heDZdFY6UmrA3+fbdb79MSUQRPcXki/H2yL/lllsmWsRH2bcA8L/qqqvcOFhsscW8dRnFGkcPyh233pHmnnvuTGaGO6Fw7rrrrukNazHHMeSH5ViXWmop7+mgfGeffbYrpfChJRvjBX8U0pY46mOXXXZpclQUb1y37g2VX/ezP/93zDEZI4yq4447zpV/b6W38q2zzjrOgl4SWufhxrAdDCicl8Pul6hDDE4MjjnnmMNXBUPeH/7wh674kz7x6clgWNtgC4PDj2uR1tLf+la62IYHBSMkxyiFIUOfvhj3RdYz5gk04Q950OPBcDysXYwkDMA5kNNkpE7oDaJso0aNcqMKv1/96le+sACykEY4jMqxn451Gc8880wfTsXvinDEkxMBERCB2SEg42F26CmuCIhAWQKh1L9p460ZZ17q/Dq6TlFnRPFBsUHpPf300z04Sg7hWPbz2GOPzZSj0884PRuaEgoTe1p7zz//fFeAWWv/408+TuNtPsScc87pQ5+YT0F6bBgHecMh5EMcPurFMKInn3zS8/Q8copZhG3J3ots+b/xxpu+3j9lZJgVintPM2iY/EuLeZSLeRiXXHJp2nX0ri73brvt5h/gmzRxop+HDLTcYyz4MBa4GUvmbbBi1d9t7gbpTSQOyqOFs8gR1dPhuteJ+YZSnAVo4kEopTFvoonRPFj0HDSIYzK+ZIp8sDgew8ECIB/hoy5RtFdYfgUL+5Irxl+Z4s+QNRxhwnDAuGBYTxhZXI+0GeoE6/ffe9/9vv7mmzSnGRo47inSoXzwveyf/3R/zoMVE69RzhlSxLyJsuXxWDP/ibT9Hi9+F+UWG27Wr2gA5euGcjEkj/kV3Cv0JmFg9S2WN1LHGCPdu62HYsDAgeEtwyEjoQMREIHZISDjYXboKa4IiEBZAqGUheIT5wRGqXE3Q3/1YSv4r7baaq68cUwctv+ZIYBCiqNFmV6GUhdKHOEPO+ywdOKJJ7pi98dTTnHFnNbkSJOw9DLQUpx3+BOfcHwFmJZeHOet4TwdS59ehLvuvitT5Da0IVb0hEy1nhOUY/9GQi7PpZdZOpMLA4Bx8fPMO68PLcJIItL6G6yfttlmm7TN1tukZZddxg0HEzwx8fnPNn4eR/5swdU9W+kPirk72w1nboWVsSmOIWQM93HZIo1iRPyYJE3KGD1hMCA/DuV9mvVWjbG5Bj48xwKi3FdyGAhDhw71eKTdwFmaGJP09MCTdCOf22+/3WSw8Paf+Snh4p6Lc/b0FGy66abea5D3b+wYSd55+51CfnaywPwLpP42bGwmGYuJkAcfU3zsscfSdLtnHrd5Outaz1WszkUwZD/44IML6XBejKudCIiACLQGARkPrUFRaYiACJQlwBAZPkKWdyg2KEYofyhrtLii3NdPr/deh4ceesi/Mk2cvjYm/fXXX/foxGNM+ogRI8oqVlxHoSNdlD1anF966SVXpJgIHfkyN4DjUocfCioTtFlBBxcGRWnYlpx7/iafZe4fZ4MBfpdaSzKt2XzXgXHypUoj5+5nIlOmd20i9dChQ22s/tVp0+JwGcp73bXX+XCuYMCk2UMPPdR7cxjbj5LK3JEsvZYUokIc5Aq5zyu21FcI2sCboWMnnXSS+5FG3sGGslAn00xJ/uzTz9INY27w4VsYHVwPF2VqrMV/vvnny+J4XRjXzNkxRlmkiSIeYciLoWE4n3Ru8vC9CPJCvlLHqmEMOWqqoxSPP2FGkslAnszZWWuttTJZ8umEfHk/DGuGb+Ud4UaaQUGalKWcnPnwOhYBERCB5hCQ8dAcWgorAiLQZAIoMLGFYknkOEahWdzG71988cU2Hv8WG89+vCv9Tz/1tM9fQOGdYi3AEyZ843FCkWRfTokK5Ys8XBE1rWza1ELvgk8sLsab11rtmR8R30IgfDgf9lOUm3zyaUaY5uxjaAvyelqmyKF4srxs+EV6odjHeeyzsqLrWpmIy7K0c9kch0ceecSHV530q5OyZVoJz8ZKQ6waVTfdPta32KI+1j/Yxz7yaI19yNnctJ1LkU9eDvjDb/fdd0+vvPJKYUiWhcMvHHGXWGIJV45Z8aj0WoRjT90SPvLLX+OY4WLhou4JyzyDcPR8xbAywpRzzElpjqNaWWIXYwQjEFdJRvzDRRjuB6vw8PY9ZWUYFjzinm4QQCciIAIiMBsEZDzMBjxFFQERmE0CpgwxBn+99dZPx9sqNa78mX7EfAOGJ3E+11wzJgLTmv5Pa6XPK1GlEmRKrF1AUed86NAZw1XoyWCYkCtrOWUsn04oro3lkw9f6ZhhRaHQulyU18qEgum9LSbboYccmrbaeqtKSTTwJ42BNoY9FEfOmVNy7XWF7zZ8Y/m9aivyMNwHTpMmTrIhP918LP/GG2/sY+RRJkOmBom3sxOGDm2++Rb+HQ7Ky8YyqGvZBwUXWnghNxiiflghqXQY2uwWJxiz8pQPD7MEWU1pVu7VV1+dVZAG1xnixfCycPRcsPIYdVTJQCEs15ERg6ah6ZAyw5j4ft9F4tqLgAiIQCsQKN900goJKwkREAERmBUBFBsUHHoZGI6EYosmFCsEcc6ymkxGJSzfc2DSKMuNDraNfRxzzkZarEQ01r4B4OmbgsUk1mjVZYx9KGahICJnKGr4xRyJivKXamvFgLQLh7JGOqzLz963YqsyRsu3v/3tTJ4333ozKwOGARvj2qNs7Md+MtaXZaUHhR4Thm/xgTzK8o1N7kV28hhkw61Wt3kjrDrFpO/zLzjfy0pPDCsIsbpRyIfIcUzcOOeocOZebfbnoYcfTp9aHeKYFP2oLcXLylOLLLJwVlfIj6yh1FMOqibKQ9yWuOBCXL45wtKn5HPTjTfNxCZYRRyWyPX7uIkZM9maYUcusyXG/A3qPH8PcE/k7wfqnG9cfPLxJ16/pVmRFpsbGKUXdS4CIiACs0lAxsNsAlR0ERCBlhNA8ULpQsmh9RXFGu0MZRl/NlYNYiK1Tyq21mi+f+CKEYqjKUg41+XtmKE/TBTlA1msmoSCzWRbVlzq3sMed0Wl/xhboYaY5BeKXtZKa+myso+na8elDplCOQulnXRiojN+bCi+D5sCTPoYLijw5Mk1VpVyeeycj4sRFjmjzJE+ecNmp5138jKx9CqO5Ub5Eva2pkwzuZs0Iy4Sc2x/fGKtl69YjI9tKBP+OFrqUVzJKx8fhrSGB1sP3AZ/mBAMM8qy/vrrOzskhxPywgU3zobt0NofZWCP7M7AQ7TgT5EX9XX44YdbHdrcC8vv31f9O022IW/BzO8+ywtZ4EyvFnXenLxhTe8GRi/xmBTPh//8vsnVD6UgHza+UbGzLYnLNzAwCEvrKvJ3Di0ovqKIgAiIQGMEZDw0RkfXREAEqkrAlUFTkHAMSWLJURQelllFCcShLP7m17/x70Bwfomtsb+ffSMBFwqkaV0e74wzzvCPhqF4cW3ZZZd1AwHl/txzz/U4/LnzzjvTITaZmFZ8lnglT8IwaXYjW/f/HYyOouKWRSoeoJgxgTYUtOOPP97TyYdjDHt8NyD/ZeQIw0fp+BAejnTimw4YSKEYez5WhvVs1adgwbcu+B7GhhtuWDC0DCDLeqKwYgjgkNsVT+P2XxvCRLnQvElvOTPQwkihN4flYeFEGOYVkE9eafUE2+gPY/aRh/LcdtttZkbMWE0pvglCzw7DsXBxLzBUC0e81nDLLLOML5sa9wO9BP/5z3+8HsLI4j7CgAnjLmRpav7cdxdecKEHJx+GYbHELo66ifrnGr1K9DjgmMDNHJ64F91Tf0RABESgygQ056HKgJW8CHQVAig4tGaj4KDM0NoeSs+sGBDOP+xl+h6K13PPPedRSAs3x5xz+Br9fA2atGmZZUWaoUOH+pemGZLzzjvveP6hSN1gK/lEfPxY3nKPPfdIF9nXg3EPPvhgWt2+8MxXfGn5ZeIpk24jDmGiHOY5o+XbjuPjXMh60003pXvvvddlQfF+z1ZDGv+FrQZk/zBeUCojTRRg5nigwJ9qy8huaR8fi2FUGBAMTxk2bJiHpzeClXdgQz4orevZR9xIi6FcGBCs82+X0oEHHugGDJOHWSlq0qRJzoOx+sSnHBgzodSSBpPGY7IxZeULzGyE5SvOlDHk5nqp41psXOPYeRX3peErnUc84tJ7080Y4uhZOcUYcZ37imFtQ62+MbyYxEwrP4YCnF0OqyHmd/xk/5+kIaZQX2QT8Ukz+JEm4RpzWVgL5vJYfGJgvLAEKysvoczvu+++PowIeXBv233DksK4fB7cDzjSwrmcmQwFufGnXpZccom01157pQvta9WEp4cNg/dbtmIZ33Hg/qQnjSFU/OvZo2c6+69/Jbo74jRMvygLeWd5RmjtRUAERKDlBNTz0HJ2iikCIpAjkJ+wihKGIodSFIpTLmh2yDUULPZLLrmk74nL3AaUe+LTKotStPLKK/sSmCj7nBPnrTffckOCORIodfiNWH1EutGWymRd/3AR/qc//Wk67bTTXEmPayj3tCRjfBCuvylqKG7RC4D2iAKJAsaeMJuacs3QEY5xzEFgWdjnn3++MIzEyo6hwzcnCEM52LNlq/rYMYYHw6xYppVyo+y/8MIL6fnnnnfDwXREj/Pj/X7sH7bzzIp/6IVgSE3PXoWeExTv16yn4aknn/Jx8xNsXDz5UQ6+T8CSuORhkJwTPQ98y4LWaxRShuZQQsJgWBC3MUeZcDAPR9zwD7/G9vSW5ONjVJEvfuxvtl4Vxv5zzva2fWmcyfQvPP+CG0h9+/X1FaVopWcYGGEwul566eVMjkgr0i0nD2GQmz1lICybH9s5rDDU+JYGjmtf/+9rryfq6ismUhsG7lEmO3M9wlG3lnDRbwYrJvOTPnnyG+C+4P6k94zeBBy/KSbAP/PMM35/OltLmt4WljSmxyPSJp0oR+TtchRl8QT1RwREQARagUA3e9jMeJqVJLjqqqv6Q2v48OFZS2BJkCafxsP0nrvvSYPnGOwPuSZHVkAREIF2T4BHCb9zFBwUVhTQUMQaE544bDE8o/SRFNciXOSDEonST+s8BgXzIviuRNbaa3KUrnHveVheKGoo/LQo8xVshhYtseQStrrP5j72nDL4ak+2zCkWw2M2WdeVfisjaebzYEnUm0zJ5ZsVQ20JVXpEll1uOQ9DfuGQH2UvjJwoB9fxo0fiBjN6UJC5Rq/IGtbazheCyY8wxEeh5Dz2hKUlHhZMtmXI1KI25GdpG26DLKixMTwJGVA2GW7jw5zsPOQg/ZAxjAfqr5IjLHEJAy/OY18pTql/xInycJ00OI/0KTMt/g888ID34pDnsGHDvK64Rlji0IPD15eZXM1cEJazhSllZWjaJGOEIo+BgiOdvCMdyo2hAIu4h5EjWIeyT0/D/SYPPVUMt+Nd6ZPgLSxxMXi5XyI8+XBMWpEee+rC5SjGi7KQN6tN3X7H7XZ/vpXGjRvnPWfcEz68r5hWlIE6toQ9Lfw8bfyK6UeZ8ZITARHohATst77OyJG+gMbvfve7dPTRRzevkBafL9ffaA1arAZIY1pjTsZDY3R0TQREoEsSQAFbc401fXgIAJ6wpU/DeGiocnZJPCq0CIiACIhAeyJQY+OhcrNSe4IiWURABERABERABERABERABNqcgIyHNq8CCSACIiACIiACIiACIiACHYOAVlvqGPUkKUVABGpIwMem26RnJsHi8mPXCz76KwIiIAIiIAJdk4CMh65Z7yq1CIhAIwSY83DOOef4xFM3HCwsE4ynFicrNxJVl0RABERABESgUxOQ8dCpq1eFEwERaAkBDIZVVlnFVypitR5cfpWllqSpOCIgAiIgAiLQGQhozkNnqEWVQQREoFUJxBKYmA2x7GXsWzUjJSYCIiACIiACHYyAjIcOVmESVwREQAREQAREQAREQATaioCMh7Yir3xFQAREQAREQAREQAREoIMRkPHQwSpM4oqACIiACIiACIiACIhAWxGQ8dBW5JWvCIiACIiACIiACIiACHQwAjIeOliFSVwREAEREAEREAEREAERaCsCMh7airzyFQEREAEREAEREAEREIEORkDGQwerMIkrAiIgAiIgAiIgAiIgAm1FQMZDW5FXviIgAiIgAiIgAiIgAiLQwQjIeOhgFSZxRUAEREAEREAEREAERKCtCMh4aCvyylcEREAEREAEREAEREAEOhgBGQ8drMIkrgiIgAiIgAiIgAiIgAi0FQEZD21FXvmKgAiIgAiIgAiIgAiIQAcjIOOhg1WYxBUBERABERABERABERCBtiLQBsZDfVuVVfmKgAiIgAg0g0C3ZoRVUBEQAREQgXZCoL66unbPahaz3oT3l0+3wiuom+0PO/zw1L1791RXV1fNrJW2CIiACIhAMwjwfGabMmVK6tOnT/ryyy/T2LFj0xLDhqWePXuladOnNSM1BRUBERABEag2AXRptr59+6aJEycWs6tP06dPTz16Vk/Fr17KVgQ3HsxQ8L29lNg/88wz1Wap9EVABERABFpAAOMh/7w2cyI98+yzLUhJUURABERABKpNIBp9MCD82J7Z/fsPqKrhQJmqajx0txeRvYn8ZfTEE0+kp556yjn26NFDPQ/VvqOUvgiIgAg0kQAGAy8f9vbQtuP6dNhhh6Vp06alJZdYMh1yyCGpR4/u9nJi6+a9x+zlREAEREAE2o5ANPYgAc/kOeeYI43abjvXvc2jaoJV1XgIwTEiVl99dd+qVhIlLAIiIAIi0CICGA7Tpk61oUnT3WDg/NBDD/W05p133jR61129JaundYOz9bKtm/Uqy4mACIiACHQ9AtU1HroeT5VYBERABDoWAettYHzsVOtlmGoGxOTJk92AiJ4FWrYmTprk8yC8lctKx7y1HtYoFGE6VoElrQiIgAiIwOwQkPEwO/QUVwREQAQ6OAEfqETPgxkPTJbGeMCIwGEsYFgwEY/eCCZSM+y0hx2zlxMBERABEeh6BGQ8dL06V4lFQAREICPgBoIZAxgJGBBTMSBswx+H/yTreaC3ga1Xr15uODB8ST0PGUYdiIAIiECXIaBBq12mqlVQERABEZiZAEaCz3kww8GNB9vT+xCO6/izYUgQVk4EREAERKDrEpDx0HXrXiUXAREQAe89wEAIIyJ6IOhViJ4FNx5sKBNh3IAwIyKuCaEIiIAIdCQCPMfkZo+AjIfZ46fYIiACItChCeQNB3oV2DAQ8i9YNyjMDyNCPQ8durolvAh0eQJq+Jj9W0BzHmafoVIQARFoZQJ5xTV/3MrZKDkjEMORpueHJpmh4M4a6OCP8YDjOG9gRO+E6sjx6I8IiEA7IVDOQMj7+RcQqvgdhHaCoWpiyHioGlolLAIi0FwCKKE81L/5+uu0/Q47pNdff92TkHLaXJJNDx9so7eBFyzHfm4fjPvvf/+bdtxhR/sCUeEjREyaxrHaEmEjftNzVEgREAERqD0BnlUs9PDb3/42bbXVVv784hmWNypqL1XHzFHGQ8esN0ktAp2OAA/2GBJz5113pVtvvdVX96Gg4R+F1sM+SMz+Hu7Bk32wxkjgGpOnP/r4I++hyOdGWK7LiYAIiEB7JhDPqu7drOHDGkEOOuigtMUWW/jziw9e8hSLZ2B7Lkd7kk3GQ3uqDckiAl2UAAoriiit3XxrYJJ9VyAe5i+99JL7M7wmXFyLc+1bTsCZm4HA8qwsyTphwgSvA77twPceevfqnfr372/feOid+vTtm/r0Lu7tmw/RC9Hy3BVTBERABFqfgA9LimStoaO7bUcceWS6/fbbvdeUZ11fe55580exEUTvlQA2672Mh1kzUggREIEqEsBoCMMBRRZXV/TjYT5gwIBUj3GRkyEe8uyJG+cE4Vyu6QTqjHkYDv369fMXKr0NGAzUB8OTeMmy9TbDwY/NcOhlx/pQXNM5K6QIiEDtCEQPKjliSHTn45Y9Cr2pPNd4T/Cci+/W9GA4pr1P5JpGQMZD0zgplAiIQBUJYBzwQKd3gdbuaVOLvQxmB9ACnjceMBRiszdAA6OiiiJ22qR5iTpzYx8vVfhGrwIGAt39hPN6snBTivMephX3nRaOCiYCItDhCPiziueVbeHoeZg+3b5RY14YFvRwYzjwnMNk4JnXg/C2l5s1ARkPs2akECIgAlUiwMOdB3necOALx1OnTS3kaM9xupd5sMeLgIe9P/DND/9SV86vNIzOZxBww8zqAaYYCr2LL1Retv4u7d7N/XryZWm+Ks3L1q7RO9SdAHIiIAIi0F4I2DOJZxOOXtXp9n7B8Tzz4bHF5qYp1uvAc8zfJ+z1LHNOTf0j46GppBROBESgVQhgKKCknnDCCVlLN37R6k2L0FtvvpkZDH896yxvDeLBz8OeDQWXF8Riiy2Wtt56a0/PzQi7Jtd8AhgG9D7AOIw56iOYs0KJ90AUDQzOeeniqA85ERABEWgvBOI55vLY84mGJ3q1/bllvaiffPJJWmbZZdMbb7zh752e9j4iDCaHnmZNq0UZD03jpFAiIAKzS8Aezt5abUoniulTTz2Vbr755qxHgeRRRHmI+/hTO+f4nH/8o/Bgt+NwobBeeumlPgYff/yiRyLCad80Arxsmc8QhkO8fOEPV+qDHgdvpcvtST3qrGk5KZQIiIAIVIdAvBfiOcZ7JhpFMBzWWecH6ZZbbjEDoVuaaAtDRIMVvRMMWYrnXXWk61ypynjoXPWp0ohAuyWA4cDDOT5KduaZZ7rxEALzQM8e/vEgN7/6uhkTogttQwWjYsEFFkzf+973PE6hRcmMB2tBIo1Ihz15ys2aAJzYMsPBXqgGMuMJyzDOgu+sU1UIERABEagtgTAeeNfwrOIcI2KLLbZMw1dcKW22+Wb2Ein4Y0DQq0oYewDWVtAOnJuMhw5ceRJdBDoMgeJDmQc0D3SGJg0aNCitscYa3gPBA7ybja33B3iuUHljIeftL4R99t3H94xl5eEfWwMFl3ztulwTCGA4FOspDIkwEvL7OG5CigoiAiIgAjUnwPMLY4F3AY53DvMf/P1irwN/vtkgJc7ZOMfJdHAMTfoj46FJmBRIBERgdgjwUOYhjZEQe1ZROuyww9LOO+/sSePfVIcCu+uuu/pDn0m8GA6snEEPBMdScJtKsvAijdBwC3axwlWcx56w8bKNeNqLgAiIQHshwPMJw4F3Acc0H/E8o3HEn3H0aGMqYDTY5tdyRkR7KUd7lkPGQ3uuHckmAp2IAA9xDIRp1iJEzwNrbK+wwgppvvnmS2PHjvWHelOV0tGjR2fDn/xFUex9yBsPoew2Nc1OhLpZRYETjIJXsyIrsAiIgAi0MwLxPOOZFo1SzGvoac85/8p0UV5v1MJ4sHPi6F3R9Ios9Ok0PbxCioAIiECLCMTDOXtQ28McI2KffQrDj2b14I4uaPa777ZboSva0sDxkgjlN3+cvxb+2jecxxCM2MuJgAiIQEclEO+YeBfEOyX8fYI0poJ1RfAewd8btGxYE9fYYoI1DCJ+R+VRTbnV81BNukpbBETACeQV9uxBboo/D+4NN9wwnXzyybPuecDqMLfOOusklhadzjhWjIdiy1Hhqv6KgAiIgAh0NQJhCGAALL300t6zHe8a3hMxnJXhsj5iyf4w5y5c/h3F8WqrrZZuuOEGvxzGSITVPiUZD7oLREAEakag9AFNxnX21U/mL/zzn/9sVA4mVHer65Z22mknbxHClqD1KJ9m9E40mpAuioAIiIAIdHgCGAeu2Bd7EDinMenYY49N++67b1Y+wvi1ok+cf/rpp1mYOOAa75FDDz3UG6f8nJ5t85ObQUA0ZrDQkQiIQBUJ8EBmZST2fJSHliDmKNCFvNWWW3lrUGPZ03o0bNiwtNBCC2VpeJqkW9x40LPJiYAIiIAIdG4CPOsxCpgIzfuBFZUYdrTdqFHZe8DeCA0MB4jkDYlSQlzr27dv+va3v531bjcWvjR+VzmX8dBValrlFIE2JoCCT+sNRgPfY8BwYOvTp08aMHBAGrnuyEYl5CWw1157muHR01dW6mUfNfMJ0pZG3nhoNBFdFAEREAER6FQE3HAw42GaGQ9TzHiYbHPpDjnkkEKvtPVY5ydJz6rghD3zzDMKi3pYOj4XAsPENrkZBGQ8zGChIxEQgSoSoD+AnocwGlhala8ac47/9ttv32jurImx4orDU5++fdzgiPjs3SBRj0Oj/HRRBESgRgSs9VquNgToFWCLyc5TbBW/SZMmee9DSFBYTynOyu+jx5qw6/xgHTce6MUgXfU8zMyspsaDV7BNcpQTARHoggRMuY8vQNNTwNAlFP++9DwMGJAWWWSRNHToUO9FiAd5UKLX4bjjjnNjo9RoIGwvDBBLrzRexNdeBERABKpJgG8FoGjSQi3ToZqkZ6QdSj17uPMxOHodJtmk6D429AgjwOtjFsYcvQ2kwfvjZz/7WZpkBggrAUZ9RhqR3wwJuu5RTY0Hf7Fb5ciJgAh0TQJuNJiiT28Dw44YssRDvrftGWd6+OGH+8Oenggczwz/Z13PI0aM8PCEIx5GBEYDGy9rHux6uDs2/REBEag1AXtWafhkbaHnG4vi2c+ebzpgSOyz7z4uUD5cOQnr6mcMSdpoo42y5VojzXJxurpfTVdboiLeeOONtPEPf5gmsFyWnAiIQNcjwIIYxbY5ngn+JWP2RoIWHhwPfx74XMd4wFDYzb7tEMvtEYYXtRsXEc72ciIgAiLQFgR4Fh166CHp6KOOptWjLUToknnGO4D3AS7I02swZMiQNNdcc6XxX4xvlA1p4EaOHOmNWBzzXgoXeUS48O/K+5oaD1QPy1+99fbbGXOvDLSGqPHsig5EQAS6MgE3HIoP9fgiNTx4ZnAt7/RQz9PQsQiIQC0I8NyJBg+OTz/9jHSUGQ9SZ2pBf0YesI+V/FiUg2P82H7xi1+kI488kharyq6og+65xx4eh4CeTi6typG75pWaGQ+hCERrIcstjhkzpjBEwSoIK1FOBESgaxDghUu3MhuT2yZMmJC++eab9L///c/PjznmGB9zynNj+PDhvmY3w5UGDhzoWzZ0iSFQ1ivBS0JOBERABGpJgAm1DKH89UknpWuvu86z5lnE8y1awmspT1fMiye/GwumR8Ke3uke9l7obe+Fiea36KKLel1U0jGJw3tm3nnmTfPNN5/H90U8LG4P22Iund4xDe+umhkPDt4qqN7GllFR/LioTPw5VsU0rBidiUBnJsCLlYc8XcMxcZqVlzAKeC5ssskm6frrr3cEO++8k4fleqzOxDAm4unB3pnvEpVNBNo3gT72TPKJ0vYcy5zpN9JnMhrVPzAdMnoJMBim2ubvB9tj2PFOOfqoo9LJv/1toV6slyGGzSIc+ijulFNO8bl3MZ+Odw1GCO8qGYKOqMGfmk6YLuSsFsIGNaATEeiCBHi58iTwh74ZAT6BuvjQ56E9cuQ6bjDMOeecaZ555kn9+/fPJkn7B+bsgR4vDL2ou+ANpCKLQDsg4GqnPcvyrqCK5n10XG0C3vtQVPJ5P/AOYRU/jLt+ffullVZe2Q0Kf1c0rC43KPr16+fvGYwOjAfiuwFixkMsA673TMNabAPjoaEAOhMBEeiaBFD+6Rbm4ewffuvJsq19fdnWQYMGp5VXWjkdf/zx9gKY8TCPBzo9DrQG6YHeNe8dlVoEREAEMgJmwHlvdnEYa6zmxyp+vXr3Sv379U+bbrqp9zJET0PE5Zw5ERgQbPGOiaFLes8EqYb7mg1bapitzkRgBoHHHnssnXHGGRq+NgNJpz5q8PBmCKNt+OU3hjJy/qc//anQbWzrcNNVwXrc3fhiqBkOeScjIk+jcx7H/THHHHPYxNTT/UWPn5wIiIAI8E5gCBmNURgA9B7Qi8A2te/UtN1226Ubb7zR9Qxo8ezgvUHY1VZbzXu3GfYUcUiHzd8tJb1Lop2SjAfdBW1O4FhbDeGL8eNdMWQsohSCNq+Smgngg5eK3cg8pDEayjmuxcOe67pHylHq/H4FBaHQUogBwYu/0kTIzk9DJRQBEcgT4PkQmxsQGANmREzp09uNg29961vplVdeyXqseY9svfXW3hDhRkdxuBLHpEPPuFx5AjIeynORbw0J0PKMcrj9Dtun/fffP/th11AEZVVLArnWYtqNUf7qptsCCnXT/eM8rMCEHxv3RbQAMbSpR8/C/Ai6lLnGZpYE67fWsgTKqw0I8KLfcccd09ixY/3FTt2zhC/3h5wIiIAI+FBYex5gOPAeofeBoUu97TlBj8Kxxx7r3wsKUoTbaaedfFJ1P5tYPdNcBzMe/B0TEbTPCMh4yFDooK0I8ONEMVh44YXTOuus01ZiKN82IhArr2EsxPKtdRgP1gvBvUELEMaCz48oTmAL46GNRFa2NSYQPU2snMIx9wXmogyHGleEshOBdk6A90SdGRA8G1jGO4YvDRgwwJ8dLMf66aefeilYBnyQLf8dRgN74mFUsJfhULmy1SdTmY2uiIAI1IAAD2ge1Gz+oLcHeB9TEn21jOKYVcai8iJwI0IP9RrUirIQAREQgY5HwFfhs3cK7wreJ/5OsfcIBgETolmEI4bHnnjiiamv+fk8h2LPQzRU0Whl1kPHA1AjidXzUCPQykYERKA8gWjdwXjgod7NHvK0LtN65C3MtDLbxsM8zsunJF8REAEREIGuTMDfFfbuyDdI0as90Hoe8Ft22WXTvPPO6x8bHTxokM+FYMgSxgWGQ3w/iA/PyVUmIOOhMhtdEQERqBGBUqMA4yGMBUTIX+dYTgREQAREoIoE7Bk8zZRuFOqO5jASeH+wjx4IerNpnOLdst9++yWGLHmvQ7Gnmx4KH65k5e1IvQ6UCXljOGet6qrj3RW1IqN8REAEak7AH9rFXGv9MKx5YZWhCIiACLRTAvH8vfjiiwtDfWxRi/buWK2R2VD5VRspRwxTsgt+jXLg36N7D9937zGjVzvKHWUtzK6Ks3a4t7Y0GtSWWGKJdNNNN3lPSi2klPFQC8rKQwREoNkE1MPQbGSKIAIiIAKtQoCV8Gi5Z47AO++80yppVjsR3hko/+Vcg/dJ0Yjgu0F19Q2Nony4SmmVS7+t/ELe9957L7326qtplVVXrYkoMh5qglmZiIAIiIAIiIAIiEDHIBC9wKFAr7/+eumUU07Nhv6091Iwz4GPxrFqHz0PU6dMteW/bRnw4jlKNyszMaypuxlJMdSJoUtR9vZeRuRDVj5yhwtDwk+q/EfGQ5UBK3kREAEREAEREAER6KgEUEqnTp3mSniMsW/vZcEo8OFKZkS4Ut3belLqCotyuOzWQ+ErMxXnRoTxgDJeSyV8djlSxpAXw6hWTsZDrUgrHxEQAREQAREQARHogATogYheCDto/yUwgweHYu0GgR3XmWEQZWAfhgJhQgH3WJSVuCTQgVyUoRYiy3ioBWXlIQIiIAIiIAIiIAIdkACKdiim7DuA6cCM6MxwQP56DAT2xY1yxEaVhCGRL1v+uL1WW9QL8uWPqy2vjIdqE1b6IiACIiACIiACIiACNScQBkIYDXkB8sp2/jgfRsflCch4KM9FviIgAiIgAiIgAiIgAh2cQPScyEBovYq072/LiUDXIsCDhC5N35cU3Vsn8pOOKoQriaZTEWgxASa8xT3piXB/yomACIiACLQKARkNrYKxQSIyHhrg0ElXIMDybWE4uLFQNBDCjxUYCOPOxkW6k0JX4KC/rU6AF1uDl1vcc62ekxIUAREQAREQgdknIONh9hkqhQ5EAANhVVsTuXefPtm6zkyUYoul2tj3tLWel1xyyXTYoYelL7/8kplIHaiUErUjEOBeZC1ylhTEeNh4k028R6wjyC4ZRUAEREAEui4BGQ9dt+67ZMlR0lDYpk2blvU+ZCCKo0UYRsL25ptvptPPOD3NNddcaY011sjWuM7C66AiAfhtueWWacCAAWm55ZZrllI83ermjTfe8LgDBvRPd9xxR8V8OvoFDFVY4TBgZ9dIjbQGDhyY2A4//PCZ7/OODk3yi4AIiIAItCkBTZhuU/zKvC0IoGBhRPSx3oe33367gQhcQ4kb9/nn6bnnn08777yzX3/yySfT6NGj02WXXtogvE7KE4DvpEmT0sSJE33DLqPvhuFgDAur5GiN52ufhCN+KMOmAc+2Yl0pz87k39244yZMmOD7uNf9RH9EQAREQAREoBUIyHhoBYhKomMRQLF1JdWU2Pnnn7+s8Pgvs+yyaZ111kkLL7SwrWtdn26+6aaCAltUZEkDR3p5h3/er/S8UthK6UX4fDr547hebl8aLjs3GV2hL8oeSjpyh+xZ2HIJF/0qhYl0Sq83ZjiQJPGIYweeA4YcPRF5lxkguXBxvTQ//N2Pg2KamV/uHL9Sl6VVIZ8IH7zivNw+S6vcxWb4RTrscTPlXVKmqVOnFsqPf5lyNCPrWQYN2WYZUAFEQAREQAQ6NIHKTYAdulgSXgQaIVBUvEIBqxQSxRUjYqlvLeUK2ERrCXdnili06KK8MQTq3nvuTRtttFGab775fIjTcccdlz755JMZilsuE4ZN4T788MP0q1/9Kq266qppoYUWShtuuGF64IEH0uTJk73l+LrrrkvXXH1N+ubrr7PYE775Jl1zzTXp2muvzVqXs4vFg4nW6sz1q666yuOiQDZwVv43bEjWT3/607T00kunJYYNS7vuumt6+eWXvVzBJUyiaRafluwxY8ak7bbbLi288MJp5ZVX9l6Zhx56KE2ZMsV7CigXcW+44YZ09VVXp0/Hfuq9OMS9+uqrE+V5+umnG4hSekJPEHLfeuutfon0HrQ8rrYyX3755YXgxpy0rjY277zzjuc91lgfffTRafjw4em3v/1tlizxv/rqq3T23/6WRm07Kg2zsjKXBdY333yzXyMMG44yvPjii874xhtvdIX7o48/9uE/K6ywQhoyZN603377eTnycTgOA8zLa2UgP+6fVVZZJe2xxx7piSeeSFONVVOcs7TeF9zYsWPTSSedlDbddNM07zzzpGWWWcbTfvbZZ7PeGfKnHrg34BeyMfQOv2uM/7gvvvD04hr79957L3GvrmbzgIYMGZLW/s7a6R//+IfV3VhPI8ISkePHHnvM07v++uv9nJ6lyy67LK2//vqehnl6HvojAiIgAiLQeQmo56Hz1q1K1goEMA58wrSlxfh9HEoU/iiLF154Ydp3330b+H/22Wfpmf/8J/36179Oa621VnrkkUey8MRjnPvQoUPTu+++62lxjrKIsXHXXXelnnZ+6p/+5Aor/h999FEaYOPXyfe+++9PO+64oxssKM6LLbaY5x1/6iz8Aw8+mEaNGuV5vvrKK2b8fMsvh3I7aPBgNwbIF8MHI+ldUyKvuPwKG8rVO/339dfdmCESw2DuuffetPHGG3v+yEA8DJ/nnnsu/fvf//a0UXCZG0L5MDBIl2PCc22HHXZIvWwS+o9+9KN09tlne5xyf07/85/TGWeemSnihPnNb36TBd1pp508XdLDKLrowovSHXfekS614WTkh0N5p6ywg9UYM2am2XE4wr311lvp7rvvdplQwjGicJTt9NNPT+edd57LvolNYr7lllv8mOvERbnmOuWlbogT7l//+pcPbwvWhP/000/T8zYEDhkJSz3PPffcEaXsnnCww2B5xeqQY9IiXYyA162Orr3u2mzoHUYK993222+fsSMORhgbdYyh9+1vf9uHj8FuHjNEvjbDNNJFENJ45NFH3EDCoMDg4Tpp4f7yl7+4sTDHHHOkp556yg2ZqOulzCizwB5Of0RABERABDovAfU81LhuXQmwPONlnM+el3Q1t3xepcfIU6utNG/OKXfNnOWFclaaZ9SJ74vK0o/3+7Erv8jG/IeQkrh/MgV/n332cW4o8XfeeadP9KX3YLXVV/fiPP74425AoPRF3AXmXyC9+867fn1ZGxr1qBkXGBIosXvuuacpvXXp0EMPdeW3e7fuWTzyJB2UtUoOJdHHI1kAL0eOK63Jffv2TZOstdjutHTuued6K/szzzyTfve73/nQrMnWek1ZiIvh8NJLL6Uf/vCH1rpfbwrvXOleMyToHUB5Pf/88zMlnVbrcLR0X3ftdWmllVbydLhGT8GVV16ZjjzyyAhWdr+38bz2mmvNwPhrVj+//OUv0/XXXe9pRCTkowx/Ou1PrsxyvPjii6fDDjvMDR1Y0ZtCPAwHJm8/ZfNW4Mxk7PPPP8/TR4lexXpR4JbdD6Ynw5k8MBxQzKNuqaM111zTeXxhSvzxxx/vcQkLR/LkmB6o+83Qo2X/1VdfTX/961+9XjBoSI8wjTmuL7/88llv0EEHHZT+Ywbp+++/7370GuHobcCww2GQ0OME63CbbbaZM6AHC0PEMk6fmoGA4fO///3PGY4cOdJ7vODC5PTBZlzCg16iRRZZJJOV+xcuOAy0pZZays/79O7t9+2RRx1VCDuLsnkCLfyT51Zn+VBn+LWnLYoWMsU5++wey3vqWAREQAQ6GAH1PLRBhX1iShyKRulwkpyeVyWpQn0leV64VcpmFskWyjlDlik2TCeUAva1eMGixMH/F7/4RSYtEjEmH6WQVv1bTXFE8USRGjFihLe6mnCugI0fPz4dVVSWfvCDH6T7TKkGJ7KjfD/66KNuXBDmySee9OEe3/nOd9Jpp51WMEYsmb333judc845nh75oqihkG+91dZp21HbuvJOmlFNeS7546wAHCAfBSm64MrppqZI0jPRr39/V2rnnHPOTOliuA+9Aii2sKEl/rXXXisMFTIBunXvZmW8Ly2PAmqOdJdYYom0nBk/a3/3u35OLwQ9AptvvrmH+ctZf/F9f8sP5b0pdbviiiu6kvvf//7Xw5MA3DayYUZeNk+RQ1Ma7R+9H7SgU19MgMe5AWX72267zVmsO3JdV6oxhpynyb777ntYnHd92Fi+V8ITyPEbaYo1hgNphvz0JDF0ix6EP/7xj9kwKXokwj1trfIMRaNeiYeiveiiizobjL/brDfgh0WlP+LEPvKBAe7YY49NJ554olerp2cKPL0jGDYo/Aw3gweGYXAmHn7U0ZZbbclpgaf50TuB8s/1v5/zd78PObYAadiwYX7/H3DAAX5vfmxDtjD4/vCHP3hZCuGSDb+aassZ9/QhahiX+IfcnlkV/pA+9UBesKdHBZb5np/WyjYaF9h3t3u/mxnxPXqQdyH/gn9hiWfkiXPyj2PuNyb/c06Yfv36pQUWWMCPW0tOpSMCIiACbUFAxkMtqNtLL5QWXoAMpWDseviFCFyrpuMFVsk1lndj8Sql11x/XrAMoUBxDQWhWvmGconikR8fj8yhoHhPgfHqZWvwX3jRRV5nyOOcrJ5oqUdm5GX4i9cc9WxbKKk/+9nP3Dghnw022CB9Y3V+8cUXu0LLEB4UQGrEW1BtH2VH2WN5U8bek2drcKDFnZZrhkTRkj+HtS7jopzITcv1CSec4GPgCY9xtTK9B5TO/n/fjCR6VRhzHwrRt02xR25kxDAhndaQ14Vr5E8+HxRoFDPyxT82Wv4p34ILLliQya6bR0FW21NGwhYqr2FmUbcYDl42Cx8GBCG33XZbH35Fj0zI8v3vfz/9zeZWEH64ccPIYH4FzM3T5yww+TsMgIY5NjxjUjjzC7iXVjTDzuW0Y+6X6XaNeRzcT+5vftkk8obJzDijnOa4F6lDHPWNwYiLMpA+21lnneU9OvwmL7nkknTKKadkeXl4g7b77rvPGM5mMlEuv9bK90D0diD7uHHjvL4wrE44/gSTolAuz7hKf6Ae+cQ9Rlb549Lz/DWOwzEv6lcYgkUjKOLFde1FQAREoCMQkPFQg1rixcwrjpcgihYvQV4oDG1g7HC4/Esm/GIfSkKc5/fl4kX4ctciboSJ81rs8/KQP+cMgYFJ/379M2UWWfJhW1M2lFwcwy2YSJt3kSetuQxLQoHebfRu6cADD3TFxa+bzLQyI3MPUwJo8Z6hHhRSo77xwzDAsewoDoOAcjNciRZ5HK2TOD4WFo782LhfmlNPETbYIi/HKMq4qSYzE4uPsS1kjDw5j/jcq6/ZcJttbe4EreyM7ae3hR4KItLqTO8EPSeMoydelCPSq/aePIevONyH2URelJeNOmbYlNeXXWToEL0+TCZG8Y7fIPG6W4syaUVY/OAeLtLkPI6pK+LklUp6XehpYj4IvVfUMcPOSJ8hSAwTW53hbMW8CndG5DJj73JYGZhIj+MchZ/5BkxaZwI7BgSGBc6V6+Kxe5T7w3XLl/sZuXFMlA5DukEUC4vxhDFE7wZzVoiXvz8JHz0tIW+k4edxMpt7Z2zyRn3MOcecPtxq0MBBaSEzCg1Og3qbzeyy6JSXPGPP/cIWfnFMhErlxejgP2XgPqirr/OeIu/NxK9oQHgtzqr+Msl0IAIiIAJtT2CGttL2snRKCXhx8HJHieTFwzEvG14gW2+9ddpmm2281dAuN1BEWgVGLs3ZSq+SltOMRFGy/CVpf3lPesubHaNY0Ypb6HUofLgNZjCKfTOyaVrQ4osaZXdPm2OQd5Ene3olUOCY7IrCyRhwzpHti3Ff+MvfjQMqbxYORYKVaUIJ4gNejTmG78S90li40mvBLfyjPOO/GB9eBWUzO5v5gDTIm2FLK9l8gJjjwPh+5jP4/WzXMYS+973veQLIy1C8yL+sUjpzVi32IR+2lVZeqXwadg251113XTecXC56CbgP7RrzMFiGl1WIok7yCVFfDNUi7KxchMGQZI7DCy+84D04zD1AYaybVud+TJ4nLHMm6JVAmWfDj3oqdbfcfEvafY/dzBAZ3yAM4TGMkJu8muqIxz0YjsngLoP5513cd8OGDXNv4o03Y2je3LwWLuDvDtnjuODTOn8tXbjEhlxWLX6OYcYKVNTT9LoZhl7rZFxIJSufnYYM7DGs7Dbye4lzZPD/xoBzHHvkvdh6LVkpDIcBMWjQIJ+nQs8jjjy6WXpFku6nPyIgAiLQ3gkU+pnbu5QdVD5eIL6Z/LxIeNnTYoXjhUOrFi3SkydPSZOnTPYlOpkAyca1Jm82/pgxyGwRn+U+SbNiGrmwHsdkmBJbUYZIa8pUuzabG3JM8Y20imWbVtjzAnWFxZQvGHHMVi0XL+p40Uc+cc4emdijXOKQ64wzzsgUpmWXW7ZQt0UlIWQu3VPf+E2bPs17KKK34XObtNqYY8iNyzOzTtlYNI+D0uwKjYUMBWj+Beb3Y1qPmfRbKmfpOXmPslWT2GMI0MvAhGfqkTI9YRPBD7NJ3aRHHiix3qqey7NRQWfzInKxLbrIomVToqeF4VXsmQvAcLGJEyd4HIYOMZZ/K5uHET1DpJV3lrpPig5++WvljokfQ1EwpFiaNpg+ZvNf9t9/f2eFH/NhMGpImx6Eco6J9gxf+3L8l947yfwNfo+wZ8NQGzp08XJRy/pF+VgxLMrE6k8NS12ISn0TnsnyhMUoKjUcGmRiYarhkA05YMawLH6DUQ72DBmbNHlS5WdcPGdasuf5yPMwnsd2DndkcH97Hk6baufTrHei+BzDn+cuz3Q24nJ/IX9v6+U85JBD3OBB9njOOTc7Dxd1E+fai4AIiEB7JKCehyrWCi+CUCB4WfCiQQnHj6YmfxHZCyZeiLzJm9raWUWxPem8OjDj1TZ7ubpCW0w4uuzZwwNW8HCloPgy5bgaL9OMd0lxSvPifH6b4Oj1ZWHz3yhgyAcr69CayFKurFCDy6dBPFZjYhgLygNr49P6zHKsr772mg/XYkx8xCN88MgbKiEve3osyIMthkIZNE+Dv/jz/QKUX3hHXCbscgzjU089NV1wwQUNZI1wjPHnOumwxOnhhx+ePrbJqcQ/+eSTuW3JJK1qy3iubN8vYEnZFVgVyJYTjVZw4obj2OeAWN7kkb8WYfL7YIAfLEK79RIWy5kPXxCogQ8apy+liqFD/fzHeowwJEjDy2kykQ91EPIEdyQPPxiSFuVtzAU75g989eVXxmVln+Qc5V3DehrWtHpn2BErQn3wwfs+DCkrqxeuYQ5bbLFF9rtgcjD3TzhXpE3+l14qTJSuJJ2Xo5g2x+QXQ4+QjaWET/zlLzMuMVeHfBiidt999zmvhW0if1u5YIsS7sc5Vijt+OW3WssJ15CL+4W6CYMhq18Tivvru7awQJ2tpIZR0btXb/fz+87KUBi4WLw/a10I5ScCIiACzSSgnodmAmtO8Hip8RJho3udl0c4/KI1i2NePrhQYHgxNWXjBdSUrbG06IrPNkvPW1GL+8w/H6YFxwxRirSQBZk559jLnStvnPuFNvqDXPQUsHHM0CVXFEyezW3lIvyoM1bVCcOHesQR7h3rAbjwwgt91R9Wr6GU+W8WoEygSBAXBw8cy3Ky3j6OdIIP52uvvbb7kc8VV1xRyJdwthHu4Ycf9hVwCJt3LM3JKkjkQSv8g/YtCFyUJ+7FnWwyP8t1soZ/D+tVeM6GbLGKEkO46NGwTLI4pIXs0Xrvk5aLaZIu19nT04RsUT7yreQiDuGRiWE/E74prAxEqy4uGFdKAxmz4TkG/RtbWSh0zmDJtxeoC+Rjw9DgGj0BnEe4innkLng840BvAd9eYEIsBmO4LC1Ll99/nbWYZ8YmgQq3fwT3PZOhMXxwyIaLuTr8NvlgHh+A4/cD/ywPC8cx/rivv/nay2N/Mn/ur3C7jh7tX/D2+BYPR/npRQoOTJZuK4dcbBg2fv8UWUUZ8YtnSlvsI//CikwF4fy+Ld5HUQ/40XjE/Vz4zRR6U2AsJwIiIAIdjYB6HqpZY/Zi4OXgW3FVFl4eecfLx1+Ots9eRMUXZj5c6xzntBQ7zJ2ZjLkc/FqDq9lFD5YPm11p2gFlJWNaxSkvBkU4VwiKPMKvLfe88JGRVWlYX5+VXlx+E2qgjV1m/D/zViZOmOhDY5g4zBwWWm0Z7+7DPqycSy5V+KIxiukaa6yRRu86Ol162aX+BWYUbr7Oy3r8jJf/5z//6UNqIh8vf/Eewo/Vn2iFxuhgtRk+SrbLLrv4hGDG0aPgs7rPTMuPWkIMO2KsP/NLGO/PMp58dI3y0eNAjwiKKvcr30Sg/FfbBOMhNrEfP8LTy7CVlZlJ1EzivfOOO9Pn4z53LqQVw3DgxhKquA8++CANGzbMe034gBwrOs3KsYws9wj/d95lZ/sK9hJ+r/DxPYyaWbmNbflQJrxTBuqFJUwpM8PBMIzgRPowJQwK9d7Wc0AvAWVtjiM8Lfq33367c6m3NFmWlXkJ9CBgXN5/3/3ptttv83uD8PRI4cipXH4///nPs96L+eYbYt8Y2cUnYLOyFz1gTGL2+JYW8VnKlWExcKM8bDh6mFi1iaFHl9m9xYR3lpe96aabvOcLI4QvaXNfbrDB+mZ4jvEPw8ejpKMAAEAASURBVBEfPnzVmjrzc367NXTUTbaZ/JhDnOO4v/gdIBfld4a2r4bzVBtJGpEw4DAKpptcJmTh2M5jboPLSW3zvygv+yhPNeRWmiIgAiJQLQKzfgtXK+cukG68bwovi8ILnZcIzl92tuflwYswxo6zj9YqD1ilPygG/K+VK31Jch5lR4w4hkUcV002yxvGsVpNpXyQhfpi2VSMB5RulHWUZBwK6ZOmZLPOPROoUd754Bv1HvXLh+UuskmTUaf4X3TxRWnd9dZN9EbQ84Tifs8992RKBR+R+/0ffu/LaKKQBCvP1GT/yFq11zKF+M033vQ1/lHGPT/LmLkYfCiMCaXhQpbeNkmT3hMmqN9w/Q0en9b34E04DASU4EWLX67GsPjE5geQH19lfvHFl9ILNlE6XMjGyjt77bWX38tcIy2+DUCvBWXAMMIvlN6IX25PmvPOO2/aZdddfLlQehxefuVlj88kd9LJy1yaBtc3sO9C0GJ+xBFHOGMMPTZ3xmm55Zdz2VaxoVc4Vo3iI2ojTImm3nEYatRluZ8Jv1PCMe4+HGv4Y5TQo8TqVMwtYbI98uQTwkCMe4i4pEWY2PBj1SYmrBfmakzyYViUGUe+KPXwZX4F/hgPfFU8Vm/jflpvvfU8fHyhOpZ2JT9Wn2JIGsPjuK8ZooRhgiM95on82b72vd9++7mfl9VkdDYmBs8Pfht+7iGq8yfqmdTz06Jh1aO79Zba5twcsAWaUR3NEsjoNyt8BCZvZ2GNQsjKv6hHhjDljYdgRThc7PPPIfyILycCIiAC7ZmAjIdq107xRRAvlHx2vCj8BWit7yiXbGE8xIslH352j6uRZktlQpbY7MBfmH5uilHm39LEZxGPsfnUR/6lXSkKr3k+RuXO4hAP+eIc5ZMhRii4KGwsO4viS2v30KFDPTxxUKCp3ygbijYbSua99oE54jOUhaFFtKjeesutHod8SlWJuUyhZxnVCbZyDq3G0bJPr4dl6OFRXIIrxwx14RyHEs3R09aKz8RbhvjwETyGqtBr4fkhs8VDZibL8i0FlEU+ysb3IpB3qSWXMmV7hLd2e8rBxdLmnBZ3wlHm4BbGs10u6/Kc+L7ApbbhYmgO6XJMzwtpenq2j7IRNvLja9NsKPFRTj5q9z1bghSHMvf555+bcXehKd1z+gfu8OdbDX9nCd+i3PiVulPNMGFuCA452Lif+EDg+xhK5v/EE0/4ilR8kA3DhJW6qGPKkK9TyoJzQ5EDS4fnAL0GF9hHAx986CE33JjjsprNNRlh9RQ8MMpYfnZhY40hQV1TLnpZMExxwT7qKM7/bEvXYiBg8NCLRLy+ffraxwQ3deMhu889lQJXDGG2uBZpFYO0+i7ygW29yYdyjuO52cuWC8bF/Zpn6hdq+If7kPqb2s2GmJmIBSltOeg+toyzyc51ysCcNnqBCscFI5X6DgdPOREQARFo7wRkPNSshma8ICJLXipuNPQsGA0oDC0xHuIFG+m2dN9a6TQn/3yewYP4ef/mpNeUsKTdlPT9hW8vesaaexxXXmYoY7zmqT+uoyTQA7GhfQyO1vFy6YdiENfYo2DTO8E1lLcIg0rEmPfSYW6UjzBszMXga8GRnl/juikq9G+FsWIJc8nT9wP7Q9lQRDF+iB9phPLuBof5xzl75CO8f38AJceuhyxunETitocNeSADSiz3NS7y8ZMyfwiPI13CRr4hI6yj94FwyIQceUd++EccZF7Flpx1h8wmF/KyZwL6gQceVFDuzA+ZSY2hR9NtCBd54UrldhUPBsVrHg9ZzA/FHuWQoUBsEZcycX2a5ZGXzxOxP8GIc8JSVoZosRwuc10iDteRkXTp7WC4kqdd9At2Hs7CuGy2b+BfuMhfN3hG29wHwrmS7r7l/0RZIk3O8+mWjzV7vp6nse1heYVWjhLes7jcaaQeDOK8lvvgEXkiC3dHGA/0UHX3nhIrh9Up91/UIXs5ERABEehIBGQ8VLG24gVib1fLpTjUojgJkhciykBMIqZ7mxapMB64VsnFC7zS9Y7mn1dA2lPZog5CoS3lGrLmFczS8fiEiXD5+Hm/fJjwJ2/Uj3J5h1ykF+EjbU+rqPDm/eI49pFG7MM/8gvlptQ/zi1jP8zLnl2zA/wjrbxSXCpvPk7+OMJFGnEtzzr8Svf5/LJrRXk5D0Mn9vgFh9jjV6qc4hcu5IvziId/XCtVCt3frvds5Lcd6RE27iU/rlCnwSfypF4i3/CLMPk6i3zYh+wRLuLnw5QeRxz8I5/SMK15XpoH52XruTUzLabVFKMkbzz4c59nvm0YD1xzZ2C557gOPzYvl5VFTgREQAQ6EgEZD21YW7w4eIHw0o49x3He2qK1l1cUppRc4wRiwjMt73IiIAINCfDsdMXbvKvxXMs/ozyvhtlnZ/lweGIoeM+f7Tn2ngcktP/ei1fOaMDQkAGRMdWBCIhA+ycg46GN62hGO2H1BSl90VU/R+XQUgKL2Nr6PqnWKo0Pe8mJgAiUJ1CL51qlPOhFyBsyLmHRsMGfHmWGWBHOeyDMj4aicG4AyXAIHNqLgAh0EAIyHtpBRfFicaeXSDuojfYhwso2Rp9VeeREQAQKc0Bm4tAOWuxd+Z9JsIIHPSK9e/fKhi3FBHaMiBgilj37K6QhbxEQgdkj4HPubERHfphqGP35fRzPXm5dJ/aMJpCuU2aVVAREQAREQASqTqCXfUk6XBgPjRkcEVZ7ERCB2SNADx8GAb1/NM/6kEI7x2+aLYbB75FjFongGr9LzuWaRkA9D03jpFAiIAIiIAIi0CwCPmypqJTE/CUZD81CqMAi0CICsVLfQ7bU9VlnneXLqJcaCQXjoXvq179fWmuttdIxxxzjH01tUYZdLJKMhy5W4SquCIiACIhADQiY0eCtnsXWTJQZlJX8sKUaSKEsRKBLEcA457fG930OPvhg/yZQGO6AKO1dYDl0vnXEd5ruvefeNHyl4f7xTM01bPy20bClxvnoqgiIgAiIgAi0iED0PKDQTLWhEup1aBFGRRKBphEw4xxDgQ997rfffm4UYKzPykUYDAuMjnVHrusf5tTvtTI5GQ+V2eiKCIiACIiACLSYAN+iQAHhH0qNH9u5nAiIQBUI2G/rsssuSxdfdFHWwxCLE8wqNwwHVkbjN8rxTjvumMaOHTuraF32uoYtddmqV8FFQAREQASqRQAlpLdN1oxWzZigWTpsolr5K10R6GoEvvjiC5/fwHeSwgjgd7f++uunww49NC2w4IL+8cb4WCN8+D2++MKL6fCfHZ6Ij7FBnOn2Vfh99tknXX/99V0NY5PKq56HJmFSIBEQAREQARFonID3LFgQ9izx0qt3mdWW+GKcnAiIQKsTuOmmmworJ9lvDKOAFZcuv/zy9Pvf/94NB/zyhoP/Xu23usKKK6Tbb7897Wi9DdOnzegh/PDDD9PUKVPUY1impmQ8lIEir9oTqOXH8mpfOuUoAiIwOwRQt31DKW/vLicjw5a6dyu8ZqPnQbZDe69AyddRCTDXAQOBf7iDDjooLb300n4chgLXcZzHMUYG50cccUQaOnRx+4kWhi/hd8qpp/pX4z2S/mQEZDxkKHTQVgTixx7d+20lh/LtvATqbdJcvCg6byk7b8n8dW8v8lAAOkJJTVxfQz7uO4wHHPei3Yy+xbWOUB7JKALtncDkyZMbPOc322yz1KP4RffS31r+nOM439TiYOCHHxOoef7E9fbOoFbyac5DrUgrn4oEwuq/77770gEHHOBdjRUD64IINIMACttHH33k41gXWmihZsRU0PZEIF7kn332WXsSq1FZXNnAgqCzxLSPbLUl83NlpNHYuigCItBcAvzm6DWg54GGhoEDB6ZJZlA0ddI0+S2wwAINPhr38ccfu05C4yZpyhUIyHjQndDmBPhh84N/5plnfJOF3+ZV0qkE4IHvL5XivlMVrosUprQO+/fvz7gDf5m3p+dFKBe+LyoaIXt+rXmvtuLwiS5ShSqmCFSdQPb7qy8o+a+//npafvnls3zjeukzI+//8MMPNwi/4oorZu+P7IIOkowH3QRtTuCCCy5IF114YepuRoScCMwugVDW7Ilvq2ZMTzfdfJN/KGjhhRdO3/nOd9R6NLuA2zA+jQx8DZaPP9ESWKoEtKFoZbPmXqRnFVmzOQ+EZJhExMCIKBoa4aW9CIhA8wlgKLz04kuFngd7Vpxyyinp3HPPzZ758VssTTmGTH/55Zfp7rvu8t9sva22xNKtW265pQePBqjSuF31XMZDV635dlTuBW35tGOPO85+6ilNLq5s0I7EkygdkECdLdU3leX2bP/gQw/6et3LLLNMOsSUzp62fGYMleuAReuSIlNf060+qTvcFHtO9O3b1+u3vRoQ+dZMZI6eB5/zoIYSkMiJQKsS+OlPf5rYsMx5Zjz33HNpiy22SGPGjHEDno82xvdWImPC8Qz56quv0kYbbWRzkjDsC8OeMCo22GADv85xc4Y/RfqddS/jobPWbAcrV0wm5IcsJwKzQ8BbeTEe7Iu+kyZN8pcG6aFwTuErv3aPRYvw7OSjuLUjwMudnsloIWQVo3hm1E6KyjlxP4WxUDnUjEmXWa9DY4F1TQREoFkERqy+elp88cXT22+/nRnrn3zySVp77bUTjUe77bZbWnnlldO8887rz4/33nsv3X7b7d47zdwGeja9FdN+oDxzDjnkkNSLZ429T3jmtNeGimZBaqXAMh5aCaSSEQERaD8EUDIxFiZOnJg98GlxYjWOnqaEqgWp/dRVZ5Mkb0S4MtLZCqjyiEA7JUADw9lnn+1DjaKHwRuTrNfyxRdfTD//+c+9AYLfqDdI2DLKdfV1hWFKPnywYDRwfdlll0277rqrNzhhOFiEdlrqthFLzbxtw125ioAIVJkAL4e66TPGxdNSTW/EdPPDad2MKldAF0w+bzh0weKryCLQ5gSGDBmSHnzwwTTXnHO6gcBvkn8+PIl5DHaOY+/Dk+waBkbef8SIEemSSy7xON7QZO8SmQ4Nq1bGQ0MeOhMBEWgDAjzY4+HdKtnzsLdtel3ha6G0HPGCoDVq2vRpfk0vg1YhrUSaQaBV7/Fm5KugItCVCKDw32ZfjN53331Tb5vnwMTnmMvAeyG/cY3wvIMGDRqUxtxwQ/rLX/6SDXuCm94VM989GrY0MxP5iIAI1IhAd2v9iVVoWtWAsHRJmyFKKGztaXx8jdAqGxEQARHo0gQwHtj41s8dd9yRLrRVHZkYHUY8++HDh6ef/OTHNkxpOf8uBIYF/hGmSwNspPAyHhqBo0siIALVJVBnD+rNbTWMsWPHessPvQOz63jo8wIIFy+C8I9WJwukJTIDkvYiIAIi0IkI8JynQYqGI1Z0ZLL07rvv7kZBvGe47quf2Tvj008/TYMHD/bhrEyQ9mu590gnQtMqRZHx0CoYm56IKzKVgutGrURG/h2MAPc5jod0PIQ5DkWeazzcGUb09ddfc5r69O6d+tjym+FC2Y9z0olJcHnjIK7HPuJlRoJd6G1pjxo1qkH+EV57EZgdAn6/Fe9tvy9zz/EYNpfdkxau/v/ZOwtAq6qlAS/pUEBFxb4gT31iYBAqJWIgJiYGoWDw7Hio7ymoz25REX8FuxALWzHAAruxUFEwsIMS8J9vzpl99z2cc++5cOPEDOy791l75exZs2bWmjVLVsPMDoL4KNAostpjfMZzWT6Fp3UMRBiwPmfOMfhtwKr0jz/9FJ577rnAOVN4WurevXu45OKLw9/yzsYsi+/3JTHgysOSOKnSEBsQLFO23ZTOiVqo3x0DhYUBFAUuhHYO3mGjsjFzWqpCk7xf+JfsP5A7zHrf/fYLu+yySxlEEK+OeMTALhV7VH7Tp5C3MgE9zNy0zpkzRxWO+fPnSfpmURIdSGKDSfTCHxwDlcAA9IhCizBiNL9I6JkwaBAgDhfAOzmAJNQVel+8qI7SPen0t8Th7uAYcAxUDQZMCbC++eMPP4TzL7ggvDD5hcQ+COlz8XGpakotjlxceaiG71wq4CQUBRs49K6TTImBhN/6j7tcDo6BQsIATJnD2r74/Isw6NBBGWncmPcdd9wRbrnlljIoYM8CM7MsJ+OCT0F+c1ZDJmBjnHpWWviXumvluW7deqqEMJhwqfKQKQMPdwxUgAHl3UmePXLkSD2ESuldFIH4O2Y9USQA6Hf06NG6ORNhxoB0xHvkkUfKrIw5jRqG/O4YqDwGrD/ec889esr0L7/8UjoGyQyUyVx2r3wJxZ3ClYcq/P5KhDKgPCtLYa+99prOlDZv1lw24TQNy8usKTOnjRo1jAQX4uuslQgzPKM+JASdxIAD8SPoODgG8g0DNuPDTOsGG26gwj8rEHFhytpkzBvajwP0b7anBx54YGTeVHGfEFMQUSDoWwhpeFqqX7+eroLUr1dfN1HHy/Fnx0BlMaD8Wng29LXXXnsFFF8Ly5QXq2DpADo/4vDDdVwgP+f76bDkYY6BijFA35k2bVoYM2ZMmDJlSqDP2fhCat5bHyNcz2ERRaJhw4ahU6dOKoOptUjFRRV9DFceqogEbOCAMP/Rtm3497//HQn+9o6iIF6AMAgcezvAiNqELhSNJ554IvGO965EKC78T35gAPpGeOfCfKNfv34668q5C9kCedAvGsk+iI022kiToQgQVpECYX2OO6sX9cV8qnGTxqFBwwahruRRUfps6+jxig8DRlvwep7xK79xu43DO+++UylkQMekB3bfY48wX05Dh04xXcLuWkcKuTs4BhwD2WGAlb0bb7xR+5X2LeleTMvS16y/cW/atGnYeuutw27irKNLly5RP2S84r1DxRhw5aFiHGUVA0LFRAMTi5Xl6PM111gzzJw1s0xaI0riMjSYyZJF4r1pxWzuROhSe3ARfuomid/i+t0xkMsYgMZNcZgnpzzvuOOOqixz6nNlgD7RrWtXXTVAiWgkM0QI/7YJLl1eOmjIC+tvxEXpYP8Flykg6dJ6mGOgIgworxfFAV7NieXQ+ZDDh4Rjjz02EkIqykP5v/QRoEePHkrPTBCx+rYcfunlXaRAVJSZv3cMOAYUA0wK0S/tTj9jHGBloXXr1tJHjwkdO8oKQ7LvWV8mMWlszHB0VowBVx4qxlGFMSBWuzCz4Ln3Lr3DjTeIBiz/DIxg+R0P199CzCYQQcD777+/JiM16SytE7eixf/kOAaMZheJMDRXZlR/E5OlTTfdNLz55psqbGVbffLpLZuoYf5NmjTRVYhGDRuFOnUzm/Ol9hF+MzDQv5jVrSP31DjZ1sfjFTcGjK65ozRwZ5Jn7bXXVvoizIB3GUEmN9URgETYTxwFoFRDkyi3jB8825UxD3/hGHAMlMGA9T/rQ/RB+hn9avfddw8dOnRMKBfSv5jorS+TSpjWEg/FnXHCITsMOKayw1O5sSA8LogQApwnwtLOO+0sg0nlNFkIHuLv27evEjx5EUbe3B0cA/mCARXOrU+Id5m/hJYPOOCASikOtHXDDTdUoQw3rqw6oEA0aSqX3JtmuJo0bhziV2NZsUD5qC8zuqxaaN3yBZFez5zEgPFkFAd4NsL/f04/XXk180W8rwjY2L/SyivrfqCF5CN9hLwsrRtPVIRBf+8YKIsBeHycv/PMhBEHw10sblg7dOgQttlmmzBg4MAwbty4sED6nclWxDXlo2yu/isdBlx5SIeVSoQZo8e8yIR/hH5WFjBfsvfZZElcZkdRHuaJa8m/FvylyogpEJXJK5vyPI5joDoxgBkGMzmsEsCYod/WJSWVKvKggw7SPsFqAfbgZnZEPyEsm8vMnHCn6eAYqCoMQM9QFPyea+111lEFlcC4AJO2PBQM+XfUUUfpysXChbI/KDlR5Hw+LcY80DFQIQYOO/TQcM0114Ttt99exw3pYjpxRX9UJUF+01ffe++9cPFFF+sm6c6yUfrEE08Mr7/+uq88VIjh0giuPJTiYpmemGeC6eu+BxkEINDDkx40ss2Y5bV+B/RT7Zf0HDBEnj6YZItBj5crGIBZM+ODkM9sEPsM6tWrG3bp0ydi0JmWiEnL1UZsVEnLpUoDyoLkybvKgPUh+qiDY2BZMJBKe3Gags723GPPSFEurxwUB+h6tdVWS0RD4ZB/KLipZZSXj79zDDgGSjFAf2R14QI5ywFvS69MeSUMGTIkrLnmmkv0K/oggPnS5MmTw1133aX9TwP9T4UYcOWhQhRVPoJpuNjBVkbw5yCsrbfZWpUHls80n8oX7ykcAzmBAVYeTPBP7FdoHFZfffXQUlbkEJQy0TfCExd7HRqLCRIbpTFbYuVhaZSHnECGV6JgMGD0yV1X1pIKLbx+qw5bKc/nXXnARNHgwYM1iuVn8aPfFeRh8f3uGHAMLIkB+iPjz5FHHhkeeOABXVl49rlnwyabbBJFVvksPgMQvfGHijDgykNFGFqK9whFi/9O7FXYdttts87BTDTM7q6iASjrjD2iY6AWMMAsatzLEfsOUAR69Oihp3umq5LSvDDzlVZaKayzztqqPOBWr6GkIy+Etcoo5OnK8DDHwLJiADo1xYG7rbJB3+3bt68weyaKSkpKNA/dyC+ranVlZc4286sCUWEuHsEx4BjIhAH6ELKYyVPccYF/ww036DlcE59+Opx99tliXr5ypiw8vBwMuPJQDnKyfRUfSJhtVXtsuQM9e/aMlsuIlwo6SEh4MyHqTTfdROPWk9NwNU+ZndKlbMnL4qWm99+OgZzFgNA1dMvsD4oDqwhc7dq1UyUiXb2Jj+JNv0EQY8WC9NaneO/gGKhNDECDpjjUrZNwA8y+GltlU4cXSf4fr6fRLvceokDTJyLFAeUhaZZneUvniSf3Z8eAYyALDFg/Q3GwvmrJmHiifwHNmjULfcSM9rHHHguvvPJKGD58uJowWVy/l48Bd9VaPn4qfGuEyh1Wz3K0zkTJQMBM6criTaNFixaB03XLM9PYaeedNX5iqQ378MQsKzNUmjf5+2BS4ffwCLmFAWjWVh/U/EiViEahq5zd8LTM/NiskNUaDzTEZ/a2ceOEa1aELOsPFs/vjoHawoDxYxXyxRkAQr/SeP0GYX69+arwtmjePPz4009lqmgrZqTfbrseuo/H+gTp48pDmYT+wzHgGMgaA6ogSB+bK2ewPHD//WHUddeFP//8U1es6bPIYew1Ovroo8NOO+2UUOAlvLn02UwyWtaFF1FEX3mogo/NYICJhnp1kaVnBgK7mI3CNVgmQOUgzpZbbil3OQVXZma5168nm0zrlw4oNmBlysfDHQO5iAHtG8KY8aetKwlC3w3lnAZO90xVHKg/m9h6yKws/QClgcs8LJGXg2MgFzBgdG2KAzwcft1AeDd0ftLJJy1RTdJg3rTuuuuG5ZdfIaFwyD4ewkx5ID/iOa0vgT4PcAxkjYG777knYDJ+2WWXhT/++CNKZ8rB7NmzwxlnnCEHxnUMzzzzjPY3xiNT8KME/pARA648ZERNJV8kGX606iCDAAMJgk+3bt0ybqLDRGPQoEGiMCS80aA0cD5E4ndSeUjm7YRdyW/i0XMCA/QJhCsu9i6YYoACkQoITdttt12kaHAgnM3Ipsb1346B2sKACfjG76FRVSCSE0eNGjVW+2risRrNHf6NZ5fBgw8rVRwkXT3pF0bjlm9ttcvLdQzkOwYuvPDCcNFFF2mfWywr2UzQAijpqUB/GzZsWBgzdqy+8umpVAxl/r0kNjPH9TflYEAHCSFOBgEdCHRQSKxANGnSWD3MpBP+sbtr3bpEhaUGDeQgqwYiZInCUU+VCNlAJ8QtvUA7QjnF+yvHQE5jgI2gKNLMynJoGwpE9+7dl6BrZoLY56BxJQ6zuczKOjgGcg0DKA6mPECjqiAL/4Z2oW8ORUwoDAnnGQgxmLGiWGhcS8MqszzHFYhca6vXxzGQDxiYPn16GD9+vPYnZDLVG+RWsm6JOmalv7KazcZpldkkDn105MiRalrOnlWH7DDgmMoOTxXGghCNGBkEGAx0QJGBgYFi//33X0JQItP+/fvLe1YoEuYZDDyYeKjnDQYnyct9f1eIfo+Q4xgw0wz6QmNRDlAQmjVbQU+QjledVTqYuykQKlRJP9CBIB7Rnx0DtYyBiOcLfSq/TyrIPCOkcDo6dMzKA8D+Nc7+oQ8on9dJogSvV8WBMaSW2+TFOwbyGQNjZQUBZYCT37mzCjF16tQw+vrRup+BsFVWWUVNlcaMGRNtkKYvswfCzJryGQc1VXdXHqoQ0zB+87ZUL6lAsJLAwLD++usrMVtxEOsaa6wh7ijXkYEkdhCWKh2JNJHAJHEhegfHQL5iAFpGoEJwKt3L0DD0FBMlg7Zt24ZVV11VBasmMnOLgEXfifqBRfS7YyBHMGB0DW0z0YPikNink6BzTPAwTSXe8ssvL4JLS1Uo6AeYqHKPFAfJQyLmSMu8Go6B/MPAE088EY0XW221VeglJ02zl4H+x7+4HMV5D3hbAgifOXOmjlH51+raqbErD1WIdyVQiFQuBhIGBZQIVhUYVDp37pwg4mScvffeWwYalrgTZhrskdDBRDZdk1YHFQYUB8dAAWAAekYh4EI5QJhaXRRoTDnoM7137p3Y6yCzteyNMMFKXhZA670JhYgBlAZol5U16BU+z53VZJQIvLnwG+Gk7159Q9Omy8uYIBurWXUQk7w4n7e8ChFP3ibHQE1ggH7G6gF9CXmLKVcsOeij6YD+abBw4UJ79HsWGCgayRTTHwgrExFlgauKo0gZEK0NCHpPDiYMKjuLO1bqwLXSiiuGNm3aqGJBGgYa3e8g8RiIqrWeFbckL2JEMwoZGENeNCJTJZN08rcwwkIAmLgKWUkFwlYfMOvALz424uusu47eGydtwuk/hdgP0nmZKoRvXNk28G254IdAvn5rFfqFZ3NHMTAFAhpnjw8znNB5560769jQsJHwesYF9rXJORGWvrL4y6X49u3gV/Y9aZf8yKVqel0KHAOrrrKqthAF4s0331RaxEmBQlx/SIaNuvba5KuES3Gn1wSqsvlbNDsRIR+YGURljC4bBFU2DvRJ/pRlSgSzTMw+tWrVKjrzYdipp6qgxDs2kOpsFYMJKw4ysOiAUohCcWURWk58cMVAVZ3fs5ziq/UV7frm22/DF198oW2s1sJqKHO+E/0Pe9S5c+eqC705c+ZoGJ6XPv/88/D9d9+Hpss3jfY8kIbLBJIaqmq1FEM71l57bXXVaYpvtRSUR5nG+2/efuMkD1KeL6vG8HL4OkCbsKW+9957k+ZMsuIgCoY6xUh62DMlOS7b5NEn1Koya8sqOyvuC8VMBFzQdn7T5x0cAzWBgU6dO4UJEyZoUS+++GJ4443Xw5ZbbBlQajFbYt8RdPnJJ5+Es885J3w4bZrGxUU4e5RQNODTDhVjoCiUBw5o69WrV4JIqpk40g2AJvyYQkCcU045Retj7+we/2ROxHFsLPnccuWW4bHHHysY4TK1hbvvvns0CKe+y8ff0H1GOhftfuLEiVGzCpH2aT884LXXXtNJgmIUqviuKI/Mzl8rs35sWjSemc/f3NoQEbA8GK0jtPD/0Ucf1e9PnPK+fT7iwfo2bcNzDZMB1sZ8bA/tcMg/DPxr6FBVHpTXiqOCo44aGh555JHEOIoRk/xnb8PBhxyi9Gl0C41ee801avURrVTkX/NrtMZFoTx8//33SjRol0A6Rl8dWLfBw8ozZmplxZmqxbF33NOFxd8X27PNZhlefvv9N0WB/S4kfDBjR3sh2X/+859q/lAo7aMf8M24MwPPnb5gyrWt2BVKe2kbAvM777wjM2CJdhdK2yrbDr47igN3DmcyMF5YSH05aosoDvacOgZY++N3ixsPy/Vn+qz168ceeyx06tRJq2zfNdfr7/UrDAy0EHPwf/3rX2HUqFEJekzyW+M51srFixZHjgzob7ffdpuet+ImpYahiu9FoTyABl2uShJSdTM0iBEi/GvBgjBfrgVyTPo8uebPmxf+kuVdE5ZY2ubCLtZswFnytmXsij9fccUAr1w33niDuDw8ghG5YBEAjSJo8m/cuHFhI1EgCgX4hvSDedIf5tM3xISJL2k24vQH+kW+Lx7TJtqKUvTNN9+odzWbwCiUb1kV7cAryqviTlE0yKrIrkbz4PvGYaEoidA2/B++jwkPz1y2F4K7XfB7nSSIZVLd41OsqCp7ZEzj5OxvxdQS4EuWxYwG+x/HQLVigH6F+/stttgiDJVViAUifwHWx5Ct6LNc9LP27duHCy64QL38ZaPYV2vl8yzzolEebBA3oqnO7wRRQqzsXaifJFQYKWH1Y8oDwlJ8QLEZ13wcPKoTn5a34WU5TmzNe9HSWpX+jg1xHTlpHKFDIQ8Fq/QtS4RC6w1FQcA5AHf6B32BcO72rcvLI9ffmSiMvS3tclgSA/BE/dZ5St+pdIqrbmz/Lbyu9F8VShBW5J3xeKN14lncJbGTPyF8R9oZ8av8qbrXtIAwYPIdSsHkyZMDVicrymoESsS222wbVpCzhXCR365du9ClS5cEX07KaNAvdEweDhVjoGiUB6QTZv0gjpoAyuFikDDFhYED5hr/zXu7eF8IA0l14hf8/C1+0wt9BtdopTpxWVt58w2N1lGw6Q9c8fDaqltVl6v0Kplyd1gSA/BDBm37/kvGyK8QeL5+6aRSAG+PKw82Lti90OiC7+jgGKhNDND/UBboe6uttppWhRW+K6+6Mn21YryZvlpofTJ9o5c9tHiUh2XHVaVzgAgZJMwUKS4Q2judpULJcMWh0vj1BPmNARWgpI+YuOFMO7+/p9c+6dFPEFFX6Bp+jzCtyoOEQd/pLsebY8AxUDUYeOihh8KVV16p/S7bHG3ionu3bmH4iBHZJiv6eK48VCMJIBzZYGEzTQwogIVHvyUucRwcA0WFAQSq1AYzeynhDo6BfMQAfDw+Ax/n6/B9g/izhfndMeAYWHoM4Enpt99+K9P/ss3tjz//VBnMlP1s0xVrPFce5Mub5mn3qiIGGxxsMLG75W8KhMWzcL+nx4ANyMiWOiDLQFzeN8PWvJ4sVxaiHW683YaXgqGjmICVnhLyJ9S+U/xeXu0tHt/Svmt58YvhneEkn9oa74vx53xqQ2XryncyRUnPe5B9W0Cm9juNVxbDHr8iDGCqxFJ2OtpS+UuckDBbZbw1ok0JBpAVorBEkP/NgAFXHgQxaKpfzZhR7QeEGMHGv4UTahwbFT/TufFcY7MDHPYCsPHWAD7QbIUVwmpyKB8uMm1As/f5fjc6ssEaGko1kcj3NhZK/flGfBujV2ixQ4cO0eBl7TQ+oPElzitTpkQDoL2zuMV0p79/9NFHBTkBUGjfERrn+uP3P8LHH38cNa90rUWEM3mPoxA8MxkfiyL6g2OgKjCQJLhUvgnvXbh4oegOCfNB6I+rRYsWyqObNWvmikMl8O/KgyCrTZs2gYPkYHzO0CpBPbUUFUUBxrBg/oJw0IEHpd08zfs77rgjtG3btpZqWb3F0j5o1e4IWYWmJFUvBmsmdxQHm82ywSpTydH3lAhzZAl9BRnMSFusAD/eZZfe4cknnypWFORVu6F1BLPJL0wOz096XvlRKs3DuzmEa7fddgvDhw/38TavvnDuV/bwIUPC4MGDtaKMjREIzclgqZOJP/74YzjooIPCH3/8ofTH/aabbgobbLBBNJ5G6fwhIwZceRDULFqU8MvdarVWYaWVV8qILH+RuxhgkKojzIHl8vfee0+ZAmcIIFDzrpAgzhStbRy41aNHj0JqZlG2BXpFaMbcjnv8WxcbQsDF99/P1mYzW80kD1CIfVobVgR/pk+frue7/DD7hyJorTexpjHASJ+WZyYVCZzXtBKLhKeffjoMkPMgpsmqJm7RD5ETpznccCVx64oM4VAxBopeeUD44rRBCO60008Lxx57bMVY8xg5hwEToqkYdo/x3zlXWa+QY8AxUCkMbLjBhuHNt97UNDqfmBQGKpWJR651DKAAfvHFF3qGTa1XxitQtBhA3rtxzJiwzTbbKA74ffDBB4fHH3+8aHFS2YaXGopXNmWBxIdoWEZ1YbMwPijf0b9lYXxLb4VjwDAgvVoneDDjKqx1RGthcdzNDM95dHF871xupW6ulgraau+cOXNcdqjEByv6lYdK4Mqj5jAGUAKl5+sprj4w5fCH8qo5BpYCA9anbcBfiiw8SQ5gAD7Nt9T9hWKWJxphDtQqP6sAHrmeeuqpsPXWW4fll19e90jRR3Q8lGahrLEXpVgARQCg3facru2Gu80331wPlCPuCuJkJTUNeMTUad7cuUqrhtd0eRZbmCsPxfbFvb2OAceAY8Ax4BhwDOQtBlC+EHQRkqeIZ7bevXuHBiLkbrzJJmH06NGhffv2qligOCAoF4vQa0oBuOE5E4APcPN///d/YZHseTCX7un2mbEngn0QuH53KMWAKw+luPAnx4BjwDHgGHAMOAYcAzmLAROQEWpRHhB4seVbsOCv8Prrr6sraCrfqVOnMHTo0NDvgANU+DUFwu4528BlqBjKwPWjr1cPjOUqD/gFq4O1Av9LTZ3BTWq61157ragUsGzRX/R7HrJFFPG0k8o9lbgqk4fHrSYMsITLtxFGqi4Dk0wA5mrMNtOdGsE0Cpmp0kalW2ZjypmRIZ5D7WDA+Ap0aMvnFpapRtA6cQuddjO138Lhzan9W98Zvfs90e9rGQ9Gp3WWE9FD6DwTQNM6C5yMYP3B7pnSFUM4eOFCeVgo5xgp7SdEYG2+9YNXXnkl9BePQg2S52rcdutt4aefflKFgziaTu4WvxBwp+36O8ELoLVMl+gOiXar1FB2/E9NY3gx2rXfxX73lYdKUMD48ePDfvvtp9586LgOuYMB8x9OjWAgdPRDDz1Un8urJX7Jzz7n7LDbrruGv+SbFiqDMJxMmDAh/O9//9MBpDy8+LuaxQB0Z4ouz4MGDdIKZBavEvVbKMpx165dw5FHHhkpHDVb89ovDbyZeQaHQuK33YRPFzZr//vEawAf4lsBHM5aERAfG/7GjRr5fjZBVlxxwNxmgdD7ggULykUjOJw5c2boP6C/uDMXcx75d9lllymPadq0aagn3wOnMYUw9tHfE4pp6WRvucjJ4uVi4S/QIAccFgKOsmhyVlFcecgKTYlIF198sRIPHdghtzCgzE8UARgjHdyE5QprKdLZ3XffHfr06cNkRMGC4aRfv37BvUrk3me272M1++yzz8QWV0wSZBatvAGLd59++mnYtc+uYZ1117HkRXXX0+WTwg/nQQBMCiTWIosKFTnfWOgVAe+ll18K2/fcvsJvZP0C/nz22WfnfPuqu4KmPKAwzxelAcUBhTlboE8wNp5wwgnhxBNP1E3CvbbvFcaMHaMbrsG3XdnmmUvxOnXsFFCIaGNVgFoyuOKQFpWuPKRFS/pAmB4da7311gsff/xx+kgemtsYEKai5k1yb7dROzkkZlrCblSYsXzc3K77MtaO1jHQwFiPP/740L1bd7X7hKYd8hMDe+6xJ5JyhUJYfrYuy1pDvzFhAT69xhprhAYNGmSZgUfLNQyY8Pf111+rec7nn3+us+6FyKusrfFvQDtREOKAIMvstykM3P+Uk+hT48XT2LOVYXfCef7999/DffffF+5/4H7tLyhpp59+ethss80i818U8XyBjTfZOLTbuF004QIvMPzwbBYKtJ1w8Gw0RRhx4jgyPFmcfMFDTdTTlYdKYJmlKwgrlbgqkYVHrW0MCLOACcMMEmpEbVeodsrfcsstw557ieAJCE075CkGVG52nhT/evDnsWPHhl69esWD/TmPMMA3RLjbRLwHfSSnABcDsKrQs2fPMHny5EigrcjKQcexZeDfJsuQz/z588P999+vF+H0n1NOPlkUlrJKTC5/C+qNgsDJ0RMnTgxfffVVaNmypR4Gt424s8U0mThcKE64Z1WTJKE1M33M5fblUt1ceajE14CZQXQO+Y0BZhcAn01IzD45HvKXnnVWUBQIo+n8bUnV1hyaxlYZF4sO+YcBvh9CHXPehTrmmhCLXIGSwKQWihLh9GfOF6io7bwnPdfSgvYVKRsgP3jKSiutpN6aunTpkl+8Rep/4kknheeffz7RFiYJJezOO+8Ma665Zrjvvvv094cffhgO0z2RIRx08EG6Es838LEweypy5SF7XEUxncAiVOTngzAT4RLKRPKzActeaxiqDhSCh5oGmPTxxx0X7pK9JukAoYEZx7vuuis0a9Ys2mCZLu6yhMXbH39ms/LTTz+ts1aGp1wVztkTAeSTacGyfLNs0vLNAFccssFWjsaBP0nVCn2qTpUGaSt3NkAbH9p///3DJZdcUubj8A5HLZieYrLESsGvv/4abr75Zl1pKxM5ix/G0ygbYBb+qquuCt3EAcPy8mxmf9af7J5F1rUWZZKs2qA4AGycxh0rihUy26yZs8JZZ50VzjnnHMUzJmDArbfeGvBMxZ2zMtg/6VAxBlx5qBhHHsMx4BioQgzUEUb+088/hx9++CE0F+VgBbkMYPIsNX/77bdh5ZVXVj/lI0eOVGZvg53FXda7TgIwUCQVKAZHZqQYjHlmUEW18smCZcW0p3cMOAZSMcBKgyoNItyiENjGZxXShf/w2wR70ipPkrh4WJo/b57eUTgq6/nR+Bn5rb/++uGQQw5Rsx5OqG7cuLEKzwtEMSEel9YnWXmeLX1qe3Lh9zXXXKMTKaieWm9l74k2UO9HHnkknHnmmUu0AacTeP9ixcUhOwz4OQ/Z4cljOQYcA1WFgdiAdMyxx4YZM2ZE1/Tp03UGjoN5gOuuu04HUBQOG8SiAVUGsjjY+3gYz4Sne6dhku/LL70Uhh41NKy++uq64mHTnSgry3FJnDikyyv+3p8dA44Bx0B5GICHMMMNL7PVBFYSCIffYJuPV7y5c+fqNU+UBd7jYekvLnnPb+54ZUuFdCuR5Mt+gE033TScdtpp4TaZacdtN5ujmZ2nDBQWnlFQUEwiXpssINd5HxvrURxoa7fu3fT07RdeeEEnqazuP8vEFQ4VdhX37MRT97WC98MPPzwVjf67HAy48lAOcvyVY8AxUD0YsEEyNXc2rcHQt9hii9C6dWsdvD744ANdHSAcYIDYcccdQ0Px/b722mvrUjsDqb1nwCP/2bNnh/6H9FfTJ2aUhg0bpsv8p5xyiroqtHgffPhBmPDwBLWxXr3V6jr4pNZLBx7J8/zzzw9HH3104CRTwAak1Pj+2zHgGHAMZMIAfIMLQR0+xIUSYeF/L06YKNk74zPK44QPcrdLl0elION/lKmnJycLbyR8sl27duHcc88NV4pZEmfC4DFSii9NIz/iK7v6TBnJPCxvuyeDc+4Wr9+ll16q9aP9o2QSygBlYsUWLdSEady4cZGy8eOPP0bttbh+z4wBN1vKjBt/4xhwDNQGBmTQmiczbl9++aWWvsnGG0eDKkrDs88+q4MtNrm4cjxJNsjhs5znVq1a6SB43nnnhf/+97+anoGXzYec02IDCucBXCo2xQw2gwYdGg47bLCWwQDOOxusrfnE490dd9wR3n///bDXXntJmsPKDLgW1++OAceAY6AiDOjkhSgNKBDwFn6rRC8JbfYcIZ6LSRXu8CUTkEkHX6tbp9QpAPFMIdluu+1C7969NR0CNO/q1asrB+4lTJMaN2kcGjZoqPyuYaOGuscBm3/yZN8ZF2nyCTbffPPwxhtvKC4NT9xZVQZ3tIfxo2/fvrrKwgqE4ZQVHfZBgGeHijHgykPFOPIYjgHHQBViwJg1Wb788svhiisuj3L/5Zdfw6uvTg3PPPOsDoIq7AvzZ1C9RzZY437vgAMOCHeKEC+jqKZ79dVXQ+fOncPOO+8c3nrrLd0vccYZZ+g7bFnbyAoGBk4Mqrvttlt44vEndMDQDbWSrw0WDDIMLsy3MXinAoPp6NGj1TZ2rbXWitKlxvPfjgHHgGMgGwzACxXkrs9Jnga/gy+ZAA9fivMp0mBi1FAmUCycw9H23nvvsLFMtqAskNVysmmYPOrXryebgRskniUNSkIDmSRhooSLiRjSNLLfSQWirqQFonrqr9z9M3ToUWHw4CGqYF180UXhZFllRiljP8eKK64YMFliTGAsAG+//Vp6yjkmqobL3G1h7tTMlYfc+RZeE8dAUWAAIR2xn6X5ZyY+EyY+PbG03aonJGbXDj74YDUvYuDiOkh+k3b48OHh2+++0zB+Y7q07rrrhnfffTew9PzQQw/pgMHGuNaiODCKUh6D6O233x5WW201zYc8SZ8K5sEoNZzf22yzTbpgD3MMOAYcA5XCgPI1SaGmScKLyoDwJVMcWAmoL7zLBHmd4JD3pAd67dAr9N27r+6BWPiXbKBeJPsgRDiGtxEXBaM+CgN38kJxSP7mjvKQUDAknPfJeKS1sigHLkqemfgmcWobNt98Cz0r45lnngl333NPeF9MXvFcxVkP//znP8NLsr/t+++/D1eLE442YroV92gFXnK5bbWN29TyXXlIxYj/dgw4BqodA+oOT+T20/9zurrOixfIEv5WW20VbrvttjBt2rQwderUaNAiHva7LAywOmADKIMaF5v+Hn30UZ1BYoUidTBoIbauzECxGZH4Do4Bx4BjoLYwkMq/rB7MgJvCoIK+CLamPPAO3oXSAa9k/4JuppZ9X/A/3qM8YM6EUqBKQ4OEwmCKQxQu+arikFROeEZhII9U5UFnYKSCucw1WRnGLMmACaX33nuvzDjApvFbZWwBh4onaS+43FoOkfMxwTBX8d2Vh4pxlHMxIHjpDeoJhsrR0Q1w/yY9IGIuvEsVoCxuVd9rqpyqrrfnVzsYgFGnY9YMYKwesJqAGVIcoDEGyNRZIh2E5R2mSGy2njBhQpj+2WfhH//4h5Zh5XD/888/E+Uycye/swWjbwZs6siAE+972ebj8QobA0Yn5bUymzjlpV+Wd9Btpr63LPl62uwxoPyK6IzjKXzQfqtQb6sFcuc3oMJ9Mo3xH+6E234t8uA3aVR5ECXB7vBOveQdCokpCdxJR15c9qyFxv9InFwF5B/DbfxOe6B7YCHyUxIIZwWctp599tmqGCXWcyyG3zNhoFTqzBTDw3MOA3RyhCQInqsMxMLoGIB1ojLxquEHNYnKQjBzcAxUEgPG/DFFwobX6Ak6x8Ug9wceeEDvRt+ErbPOOqG5rCr88ccfYffdd9dS95PlahsQLR8OAmKWTkHSVRbIhzxdcags5oojPvRhPJnndBeYiMepacyY22Pq5pCbGFD6EP4Ej4PfMFteT+4oA6ZUoAywTwE+yQFvzZs3D6yscmd11S7CWkgYB25yYf9PmsZNmui5DuRhioVtmFYZIyk/5CaG0tdK5aLk2oj1Me6mIPBs4eSgfUCGgauvvlrxbAfHpc/dQ+MY8JWHODby5BmCp3MrCP/HfMMAZsPsw0477aSbO1dZZRVlQDUh7GCKwjHwAwcODN/JIV8rySFfDo6BymBAGTvMXmipRfMWYdacWeGP33/Xg+TefPNNnTHDHImN02x+ZtDDV/k333wT+u7VVwfG9u3bh65ySurkSZPDqquuGvC8tI4oIw/JasSoa0epG0NdoatMxSQudePkaw6Sw9vSPWJTSz1Nialkdh69ADEAjUAT3L/44osyLSQMPoywtrp4BWODZm2AnS/AGGJ1rY16eJnlYwB6iYBnuQjju0FH8D5+w394JgywsZ54KBq8Z6WB31z8jl9Wjt2jMvPwAUXpkP6H6OF3TVQ5aiT4KFXorUm0Hzy1XLml7H1oo+ZLjAnghz7hUDEGXHmoGEc5GQMChyEcOmhQGdMLfNu//vrrOjuL7fcMcXe5ighQ0iO0HdFgIb/jXSQKT7YWRhKFEVeuiLnYO+Imn3n8+OOPxdPBYO2IhC8B1CEZTn4AdzqyQ/FggG9u3z9Tq3mPe71Z38wKJ4gbVjtXgZUFFGN+cxGPfjB06NBw5ZVXRgMndq8nn3RyGHn1yHDEEUdEg+WIs0bouRAcvsRgkSrAQeN2xevIM+HQKmaDlAlEfSJTQzy86DBgNJHwpZ/gc4QZDYEQoTI5JGxxuFf8zO+9zz4RjozmiG9CYDwsiigP8fzi4TxrGvqZPFt9LBzzDC7GCk5xjwNlWny7x9/7cxVjQL5zZUBXjSQN+yH4PlwIvCgPumormUXhwquYiU9VGOw993wG6xfWBtqzT6wv8TvqI7G+YPsceI8JKhuon3zySZkU+kAmos617PxeAQZceagAQbn4GqLnwosCh5/wnAqYeLz37nsqUJ0nB1tZRyMuz9ap7BkGA1i8+J1nFfDlLoVFm4yI/+MPP4RVxXtN6qBj+RFHIZmWZ+u8mm+auicS+N9CxQC0wgoVVyog7CwWho4t7lRx2Wq0vVgEdgZCVtVQDAi3d9ARz3G64vell12qF+95xywcMFI8bWj6FKU1no90BI1Lz2Km1mj1LVn90HiSljx4dnAMZMIAqwypm/MRWHAlfOGFF4Z99t03PPbYY6oQK00KTRnAc40m5cGCo7vRH3fyVJ4r8aJT0SVc6Vf6G30O4fICKRPFIROYcrwE/86UwMNrFgPJbwovrCfPfC8uJjOMFxkdEc6z3S28ZitcPaXRprFjx4Z33n5H29ioccNwwfkXlNnPAM0TD6D3WD9hHGDfG4fmPfnEk/IiEaHn9j1L+xuJHMrFgE/5loue3H6JfR4dAqZhlw4S8nufffaWDvO3zNx+EzWCOF98/nlo3bq12joiiHGoFoMY6SKQePzecMMNA0t/dDaWA4+Qkyk51p6NrJiNAPiK5pCuU089NZx88sl61L3VKcqPB6nnrbfcEvCPT77UhXiEOxQXBmDofH8E+lSAGmw1IE5HhCH8AEo3co/TLM+WbzxcE0hZCEP4RQcoOx1oePKdCWA26JAeJcLCLR+rS7r8PMwxAAaMjqEvLmgJweXAAw9UBOEcwOjIaND6Br+h23QUq3ElB+7QflIG0n5BH7B+8NNPP+nMNCey474YlQL7eROstBLJP+SltJ6mb8bj+XPtYED5o4yZ0AvfiYtVB5QH7vbMb8Zti6P0USBjrfWVF198MUyaPCm88OILsnLwVBnFga9j/YN+wPPnIvscfvjh6m67e/fuutrASdy84x/9DHw5ZIcBVx6yw1NOxYLYbbCgYtaZuLOsuVA6wbVi211HDojpvXPvqO4XyaEpeJ/5VhQKhH0Gkj/FDISTeDEFMXhBOiWMh8NUevXqpasXnFR54w03qKIxa9assEBOY5Repxu1yPd8Wd3gjh98Bj5miuNAneeKl5xvZS8EF0BYarx4Gn8uTAxAp1xpGTU0nJwtovVx2jbB3dJbPH7b4JguX0sXn50zwSqOYc0vWTcLt7L4HZWHoJYSz+L73TFgGIC/QSfwyTi92DOTNwC8Ng4nySQMtAq98a5x48aBfTy//PKLKgTkC4+9Qfgx7jgjAVEEnzZt2oSDDjpIwzDFAJj4eUNMWTl5l2ufffeRlQrh0UmhKl72qFHXapk4H3DIPQyYEmk0ZN8eOolfhEM/xrNyryXLViP6AI4vrC+Qm9EzuLG2M8mJ2WrHDh3DvvvsG955552E7JJSvMUnP4fsMFCWa2WXxmPlAAYYPBDGOYIeqCMa9Ny588LXX38dvvrqK/XOwMbS/fbfT99j13f6aafrBtKZs2ZqGJ0MxaFTp05you8zenIunhgO7HegDj5PPfVU6NGjhw58Rx99dLj44otDSUlJ6YyxpM8W6JRDhgwJQ2RPBMIcA+pfstSO7aaDY6CmMADNY+udPeXWVM28nELDALTGahkrVjpLx++kcPLKK68EPH8h5B166KHKU4mPpzDMmPrssksYI2YZzCQfddRRauLHqu3v4jyAeKwWw7ubt2gebrrpprBrnz4SstQbAABAAElEQVThGTHnO+SQQ8K9995bBpUIlSgfJhattNJKopUnXH6SVxyIS51QXhwcAzmJAelD0DKeo7SPJfsUk6EcLPql7PO85pprwjezxOoiRt6aShLGaZ7Xm222mfa7PfbYI+qfOdnuHKuUS2459kGyqQ7Eb53mtddei5Jop5COxB2Tpm7du+kzGjmdiYFr6L+OUkUB5YNBAu2dTUZssqbzMKChXBDXFAcKIE8GLwahN15/o9KdTOtGPqI42ADqA1T06fyhBjEALbJEjemGKrI1WLYXVTwYgM8xQYJADs3ZaheznLyD/6JEILzw/pNPPlHFgVXeB8WUCSAcnlxSUhIuEoWB+JtvvrmuGpPHzJkz1bSUvHfYYYfAqjBuONkDEQdVYKRc4lEuacnb7hZ3yJDDxbTjCJ3ckZdUwF753TGQExhQ81GhSw4SpT8A9KknnngiPP3005EiHpkkCR1rnxOvS9A++5B27bOrOOI4QX/TD3hP30DZ9zEhu8/sykN2eMq5WDB9OgEzUamAuRFHseOBZl9RDHCZykm9aOHDh4/QDsPgYh2G9HQgOiIuL8kbv9Lc7R13OleXLl1U0dAXlfgTz4tnzKsAninbwTFQkxhwxbUmsV2cZcFf4WzD/j1MBZoGDRPuNHH1yyGGTOAcKfvIXn31VUUQ3sLwR8+EEJ6aAOOb82RVmQmh4447Tk9eJy18kzEAMF7OvVu3bmrPrS+SfwgHuJMWgJ+n8t7ot/NkxZH/yT0MMOlDXxgwYICYZ1+r9Awtq8m2yDXQMP3G+g4tYNJz2LBheh6Q8X5VFJJxSQ+44qBoyOqPKw9ZoSl/ItFhsHtlU/NncsIuCsHOMpPF5rzx48eLa8B7w5577RkNGtrBEOBlUOH5u+++070S/NaBhE4ozbdnzJtsIKoMVkhjnVnv8hvgORqwKpOhx3UMOAYcAzmMARSBeo0ahPPOP09rabwOhWKerPi2bNlSV3E/nz5dfM2vl7DhFm7L4V6YZKRC6zatA+f2mPcm+Gacr9ozvN/BMVCoGFjAqrGs5iHwT506NVx66aXhrrvuQkjRiVHC6Wvs+UR6wUHAW2+9FS644IKw6667hj5i4kd6lWsESS5/LB2lJCS4pUvrqXIUA3SGjh07aqf4eubXWku8CwD9DuynnY5n62Sn/+c/2umeePxx9b7Utu16+m7MmDHaIa1zfSirF++//36UXpUAMsoCiPvzzz+HDz74IHz00UeR5xxbgcgiC4/iGHAMOAbyCgPwPeOTJtwj5LBZuqSkRIWbt95+W9uEJxh4LRs8X3755TBFJn6mTJmi18MPPxz+I3yaAw/btG6t8VFCLG8C4Oekn/DQBH3vfxwDhYgBNbtL0jr0f8IJJ2gfuf7668O2224bOCWb1Qld9hMNIaFAhPC29DMOFMWpy9Zbbx3OOussTedOW5aOSlx5WDq81XoqBon4wGEVsgFk/fXX12W8qVOmajxms+g4mCuxbMfSNr7GV5bNc2yEXk3OamCFAnhCvHSQ/5DBQ/QQIVyw/qNtWz1dl/e84186oE68xw91HAjDr3+7du1C586ddaVD7XIl3KEwMMC3nyeb+OfOmaNLyfxWr1wpzWOfDX62MZ9IR8Mp0cv8hL65DEhf2TwsbVXdKZ9D57gcihsD8DQzC0JogTZQGuB/AM8AvzEBhY+ybwHgbB7O7jnxhBPDjBkz1DSDcOidjdR7yp40Dk5cQVYldpEN1ZhucGf/juUPj//2u4Q3O9JmAuJbPeNxWKlGSUGwcnAM5CwGYnIDtMzF3iE8Pk6aPDk89/zzoWvXruKprFFifJD3NlbQB+mnOCb417/+FTqJPML+CV29kP7qkB0GXHnIDk85FcuEJ7vHK4dWTjj7HTiW/aabbw6cykvH4YwGvC6tKidOT5YOhnvV3+UdJ/XioYk4QElJie6l6LNrH3UPeNlll4Xpn3+uy36cIJ2A9J2MGTXywUtIGZAwc01IHQFdOkyWWSau/8hLDEB3a6+9dmgiGzaZ3cGmFDowurJG4f63efPm0WY1C8/mjpvfcXIqL/t6yD8172zyqOo4KEt4KVthhRWqOmvPLw8xgHBiSrMpC+kE9datW+usKF7toGMmdV6SFYe69cTlaus2uvF5RXGZCp9EqD9eZljpN8S9T0xQobnHZbWYs3iYHGokvHfEiBGRIpEJddZn6K/2bHHZb4Enp0tkQin1ncXxu2MgVzFAf8ODY2PZC4Tc8rwoEVzHHHOMVjmuNJv8RBige4+Szxrgf8rFgO95KBc9ufmSDgLhG/M34qe2MHx+Yxu7+O/EDG18YxBu+tgUbUDcaJCQtKYS4Ft8gnj84DdxtKPJ+6OPTnRCeYzKsrzIhw57+eWXl+aZfEk+KB5cxCM/G1gtvd/zGwN8TxOSYMQXiQDy71NOWWITGrbgRr+VoQHS4BWs3wH9wtibxuqmUth+gvXXHu6gbWg66ke1VxUvuZYxYBMiKALMZBqvTqVzaAVzi3VE2WYyBWUDRZuNnazMsaEapYJVhU022URXHdaSuAD9gLi//fZbeOmll8KDDz6oLrpxksEZD9h2MyGUCdik3aNHD11VTo2DTXhLcbDBgXLxcSU1nv92DOQiBuhn8GNW5Xhm72ZTUa5x4UrfYMX7hRde0I3WTETF+TargPx2us/uy7rykB2ecjJW6oBEJdMRvnkQsHd2t0ZFv1O1bvltgllUlgQQHzUjdb9ClE+aeqS+s992t7r4Pb8xYN8TemGlazcRRjYUoUbtVIUxKySJymgqLnTbs+WDMhJPq++NBpOMXnOVwUIIM0GbVo4URj4oz7yzvKkD4VwIYvosYeTDb6uXVjMZJ56GZ8lM47P8TXoDyrDfVp79tjh+L2wM2Pfef//9MzaUOCgA/ZKnTMcj8g632VzpIE6f2HhzRSD0Z++h5Tg9WxwUFK50UFJSErgcHAP5igH4rvUBbYP0J4B+xWrdzjvvrIfi8hsHMJhTsx+Cs7JIZ3xbE/mfjBhws6WMqPEX6TDAigTL5MysJUXBdNE8rEgxAEMG8G7B86Zih2omHIQjzKQC8WDYHETIzC3KAhcb35iB5T0XYXvtuZfGHThgoLqpxAc+Jht1JR2bTAFqwIWJB/k9KTO4pGdg4I5pFeHszyBsphysuLJ4viEMutayRbBjQAHIi3j77befvvvt11/DxjIbTHwzy4oPODzTTg7rIh1xPv74Y83L/zgGqhUDyb4CnUOH0J+DY8AxUBYD9Av6SM+ePcONN96oXptYKbeV87Kx/Vc6DDhnSYcVD8uIAdyisVy+g9itOzgG4hiAGdtM50YbbaQHWfF744031mi8RzBPBRg2/urx2b333nuHX8QrF7bcKAR9+/bVTW0IQphiHHHkEcr0Dxt8mB58iNcMTOV4jyKRLCi8JuZN7PUh77vvvjsqEvfFLFe3atVK9+BwsNDa66yjnsBOOukk3eMzatQoTddeDuM6WjbUSYGanjK4VpE9Q3gMW0FmsQYNGqT1MWGNO7DTTjuqsoEjgl9F2cCBgYNjoLoxQH9DOWY1AhoHoFkHx4BjoBQDxstRIlg9tj5i/Ls0pj9lwoArD5kw4+EZMUAHi86ByBjLXxQbBowBmwIxfPhwtdf+4osvdFUhEz4GDhwYFv61UG21x91zT2gmKwaclot9KrR2ww03qCcj9stw+i7ldBVPNUPkd1vxAqYCvKwP3CzOAVAWeH/bbbfpfSVZlbhH8qROXKZgsJ8H2HffffWuezTEUwebnimHwxcp+7rrrgvUX02fJCZ5s5LCeSg///KLzlpZu1GM8LhEnZ579rlwyCGHqCcdVh4o28ExUN0YQBg6/fTT1SHGlltuqcW5QFTdWPf88xUDNlZZH7F7vranJuvtykNNYtvLcgwUGQYwX8LUbdS1o8KzzzyrwncqCiZNmqS2QQjpx8oJumwkxTsG97XWWktnhjgMKA4or8ynGrPfaeed1AxptngTY+7/gQceUPO6Sy+7VA/V+lLyJu4N/3eDaAAhbLHFFuFjWT344/c/VGHgN0oAcbjYZLf99tuL04G/1Xwpvm/ooQcfig7xsvK5MxBxuNfn4plMMgm33HKL5oVAx+XgGHAMOAYcA46BQsCAj2g5/BVtRjOHq5iomghYDo6BdBiAhjlYcDnZjLZ9r+11Rj81Ht5lEL45Af3uu+4Od915V7jn7nvUWw0z+au0TJyqWyadkBxprI/gYYbnYaeeGr4TBYJ9DOeee65sjpOzSyTuXWK6hJvib779Jhxz7DHqjeP72bMlk6B7EhLGRokSVCGQvG2VQ1cekjTOuy5duyQOISJ6Cu2zcoF/cRSJTWVfBEqD5lem8rn1I952rZm0qbrrTP727XILG1VcmxT6qOLcaza7QmpLzWLOS3MMFBwGXHmo5U9qA6j5rEfosDAbwO13VVfVNgdRZrzcSpXDgCKCwCKxG3RwDMQxAP1iyrPuuuvKfoXrla7XW289FagRqo2uOfiKuKxSfPf9d3LmyAw96Aphf7YI+LNmzQx9+vSJTJISZSQUVtKpoC4HbK0sLiYxS3rjjTdUOWCDM2eatFylZfjvf/+rex+If9yxx2q9/vGPf2gd9HA3CUeIpk4mTI8cOVKLYv+G1ZWydBWB+HJB+3qXmGyg/vHHH9WDBy6R3xOl6VRRZgDra/ojx/6ASb4TbZOGqkkintSiMHlv7a+KqlMO+DBPVVWZd1XUL1MexqP1veApXb0tjLviExrJU6AN1h7aAp3kMh3nKZq92o6BvMSAKw+1/NkQPL6WWdITZbMmLsSwt77t1tvU1zdVM+ZdHdVEQLD8qQeX/a5MeV9++WV459131Sd5dde5MvXyuLmDgUGDDtWZ/B9++CG8+OKLZYQQVg2E8MKee+6p4fVlj4AJ5AiwDRo21E36PBudzpEVCRVkJJ2FH3rooSrYD+g/IDQX8yE2jBK/f//+emdDdOuSklDSurWWx3t847OHgVPUJVICYXJ/5JFHAnTdQg7p6i6nsavCkAGd9Bku9m0YTJ8+XcM48XTKlClaR3uXa3faZoI8J8Pz/Omnn4UjjzhSN5LTNvseVVF38oLP4e0KqFc39z2GK1+UekMh0bPRi7Yi8Ye2IWhz5yIuVz4K3fE2MFbY71hz/dEx4BgoUgy48lBLH54B5aknn1S/wyUi0Fx55ZXh6aefDmPHjg0DBg6QExIbBzzJ2OBTUTWJF4fU3/ouGcfyJAXPnDa922676UmM8XSZnskrnsf5550X2Jz3s3jJARhkFFLqRJjOxqWGp9QrkVj+xsJ15iuWzsqP4vpDrWMg+u5pasL3evTRR1Wg51vWWa7UnGennXYKuwr9cbotXpc6dugYevTooTP55HnVVVeGZmIORB6sJHDnoCsOQrxf9jYYnQwbNkzpa/YPs8P+BxygtSA9KxCkQYA7RlYdAPYyALh3bdKksR5siGtXNmqjVNAfWEl45OGH9cAs4poAxXMcyFsvmZulPIRxzJdQkgD68Z/i+alWQepI3bgUX7Q/iQO+R12p87PPPhsOP/zw0Llz57DvfvuGqa9OjdJouipsAK5rWaUBb+++965ududANIAwg0ULF9ljrd4Vd1KDG8eMCbgJZkXJ6ml3qyD7cziQCs90BuUpnxYnV++0HTeWOADAg1lqe3O13l6v4sWATYi8++476ibb+Bd36NeuiKcnw4oXY5Vvee5P+VS+TbmfQgj1MRGkdtt9dyVihJ7zRAA3wsaTy3YiPDFjueGGG4Zp06ap4MMMK0SfEL6SgoB0Bv0tgz/Ae+so9jselhTrNa4NaLNmzVLBrv8h/VXwIX48LfHIk3K4x/PnuYt4vpkrs4gIeFaXKA8VFKVUiUcYAlwd8aUfB0qL14t45EN7JVFUZpRnMow4QLw+GuB/agUDfFtWz34RL0SpYN+I/Q8IVgDfk3DubHD+8MMPw3GyYZoT0P9a+JeaKnFKLxuuLW7HDh00Lkr2AtkrwQZlgLJZJcB7Eq6EbRWC8K222irsLn0N4XToUUcpremGaymX9D/++JN6dCLPn376KayxxhrhQDm8C+GPcrmgtS1EQf5DPEBx/kQcGspKCfsjOGQIsLZus8024WIRujgpeMiQw8Mdd94RT1ajz9bHrC1SSZ35R3minQjytJH3BjyDP1Yi4AHGL+x9Ze/kZxdprSxWIPCYxTdbUb7hlVdeJcrkrvo969RN8B7iUj9wa/itbPnLHF/KfvmllxMeu+RTQyecTWK8C4UUHLFidccdd2g/0BWtWFuzqQNnjSToMqFc1Vp7Y5XlMC3cGjPJ5eAYyFUMYFpIP8TZxguTX1DBgtOlN9hgA+VleNGDVzMWIF8sXrQ49Ny+Z/jfOefoJJGaJuZq43KsXq481MIHYUDuIyfvMtC8+847oV3SD76MplobZj4/FIWB2Vk8t8C0IXhgsaTF/z0DLuYWdrCVmiDJewYaBlnekT/v7fdfEtZIBDEGJ8pCgKITUR9g/oL5mk7fJ/Ni0GZDK/Eog47J+4ZiSkI6ymOWdz85TRWhihbQAf8SgaOedE7KQLFAACEdM5ypQP3Ii/qRP3VGYIyEBUlAe4hjgiTt53fTpk1VCMmFATa1XcX2G2Z8u7hINc9E8fbzrfj2CPiPPfaYfjPoRAhIL741JkRPymoccaFd+/7QKnTINyZvVgXs9F3iQnM6EEgeKBuA5i136xf333+/0jC0RZnkTRkAYaxkHHFE4gwJDZQ/lEkc7uSPkm97GCwOd9I/LCsUll/8HaZSXLUN1g5weNvtt+sZGeAOULzyHdKA9Tt9m8RXmmgVBoFDcE6Z8AJ+G1A+v7l+ktXLgYMGajzet5TD+6L3kn45+Q7kwfeoLWjQsIHyRBRdZuNZsaKO0FpVgLWXvHiubYh/q9qui5fvGCgPA4wPA6VPTvtwmnSeRP/RMUJ4CzyQvXMJWSYxvjDh89xzz6mTi5dfeSUn+lt57culd0tKcrlUu0KsixDxWWefrUSKK8iN2rXTViqDloEiPljM+mZWeEeUC2ZOAQZfTIw44ZkLQQzhGUG+Y6dOOigTj07Spk0bNfFgRg8/88s3XT60EJ/3CN+byam/2DYjqKNMYBOOBMa9UcNGAUGLenz11Vc6eFNG82bNw/KysoA5Bke8YxPOAE5ZzL5hboL3GtKNv+8+zefkU07RuMS3upLXZFxzCtCJEfIwKyGc/BmImzZpqptfZ8yYEeGD1Q3aDD5oA8+byyFeDjmGgQzCjgp78g56AaATaBBmr8/JcN4RlzCjL/mRSCf0ClgePFtcCyed5U0Y+Vt8lFfeWVx9iP3hXTpBSdNI2ZY2lkQf42Wkvqvu31anZLOiWXDCrd5sCEfx2W677dS8cORVIyPhnPrRZnhLurajpDN5sFAEduJkA+QTv6yOhDGQo5DEy0rNlzgG7JHhPYfy9R8wIHC6N9/TlEOLJ40tk2cUXg0P1L9fv35aD0znrP7xNlmx8XoS71mZwUeAYVXqxBNPtGh8BF2tuP766yMcjR49Wj2QsQLNAYlvvvlm1EbKghcS/xURegwInzlzpsafJit5BvBaVrfxBNa9e/cyJlXUi3SseFPmJ598oslwGEB80gKKd4lHD7JvhKktzhDuvPPOqG4a2f84BmoBA9AuK9jCgbR04z38uOD880v3khJDaHmR0D60DH9jdc0hewy48pA9rqokJgI7wjmMmBlUiBvmHSdyK8g2dDJAAa+IiUHPntuHeXPn6UAzT4QCBgpmYV+XE3Xx8ALQKcgP841x48aFCRMmqBnId3KyLkrFBx98oIMEcehobOqks2G+8OG0D9Xum3zwjIMJCif02qoE+WGHjG005WQC8rvi8ivCXnvtlTBDkQHo6quv1rYeLDMDtBlhbocddwwP3P9AtDmTZcWrRl6l5iMsNSK8UA74Yoa3/WbtQ6vVWkn9rwu3yKFgvCuvHpnq5+HVg4F0dFxlJQm9VjfE6x9/RjjNRaBfaD2lftzhLwCC5SmyCbyz7LdAAJw4caKeaUH8SMPIokEoHn8tKF2dtCSUFe93+pws2/DGnfKsj5riAP+yd5ZfRXdWKzAFYgKEyZBDZKLj7bffjupgArC2r6LMlvE9ZXSSyRoUMtrWvn37jDwcxRJAMF9HTjLfvlcvPT2dQwmvuOIKxQ+mQHw1PIKxAkae8L2jxMSOyZ8N5HRynll9NrxDjSgBrJahjJAGHACYDhKOy2JWqs+WySommMj/pZde0r04p8jEDvwUnmx5ssmfcjDfY7Ln+OOP17goD8TR/KUc6orSvr+sNu8o/Pv00/8TdpWVdMDqoD/8j2OghjFw7TXXaonQKzRP38KEif7xlCi6hGPRAfTsuZ1OWmqY9FN13KFv/E82GHCzpWywVIVxINS5c+aototwDLMlrEIQ4t+uZ0+ZSV1OBQPcRwLY3d4vM/3de/TQVQkGJJbTDe6TdzvLhlQpJKwim00ZgLcRgWLqlKl6Qu/64q6SPBgQ11577bC+DFQAgw4zlQxcffv2VXkDwWTvvfdW4eNbUUTMFMnKSr1v1WErPenXwhnQhg4dqisapGWDNZs0d99j93ClbIo1PLCSwQoHAydmKAPlBGIbHNtv3l431lqepMkCexbd746BgsKA8Q/6K/sXOBGbyQEFkfLoNwyWKvJJR6mscDdkyJBoltnKMgSSdzqwflzmHVGl/HiatPHKJCr7w+KbIgFvoE4IrpiTdezYsdLtK1tCdr9QghCeEcrhr+zjYW/DZWyQTsPLWX3YWExT4XfPP/+8KnPg4VdZRYH3IqSzVwfhHWBShZVYc0BBXPZA4LaYZ/DAnckh+DbxWB1i9Rd8fPrpp7pijJcwvOCdfdZZugIMXXDoImmZNNpEziHhMEb4/EZiMkg4gBCF+2RWPBijqD9larny/ncpt7VMQrE/iFVjMxW076OZ+B/HQC1g4J1331E6pWgmQ3H+QB/BioKJSaVx4UN49uMkdiZHUYAJZ0XR+lYtVD3vikyoYHlX7fyucENh8gAMHMjEdBkk58gGTfNDz28GBzZRq8CcZPaSgc7c0wFYGbA86TTaMTQkUQ6rGCzVMdhgNkJayidf0vNs9WGvxQgZeG688UadwWSmigsgPvmXB5hlaWdNRorHZzbrkksu0XwmPPSQ5suAzEW8gaIwUI9z//e/qG5kw+ZT3tuldZV4Do6BYsQA/Yu+yLL7e++9p3uk+M3FRANKw+K/ZUbaFIkK+mwqDuE5lGG8gffxZ4sf5xsWv8xdKmBxtM9Kwsqq/Zaf1cFMZx6e8LCucLLCWlNAXeCF8HCEdmY4EdQVknzU6vKSKHVsSEcRY8UCIQX+h4LAmSTg41jxAkZ7+G7kDRhXg9ehqADXXHON3uGDxGXVGHjowQf1PlFmV8l/b5nwYbKHVQnu4+8dH9Zcc83o27G/CHOnRNnH6DhgezZQXnAfjuIAsHpi5lfswVtJzlNBcUBpYFXavqvGdV6sOPM/tYMBvIEB7K9DcYA26Sfm+Y6+RP9CviC8cVIWIwxeZzyldmqfX6X6ykMNfy+IuafM9GCbxyZLBg0Il/BUYAVh1KhRYfjw4aolWzw6gEIyDeFNl2+qgzHL3dZhEMR5Tpd3alnx3+THgLOWzD6x3E56vNUwq7m9rH60ldUKwohXHrA3YclWlaZg0KUtm2+xhc7A0Zn5TQdmAOPO8rkNarznIDArt7LtKi3ZnxwDhYMB+gF9AzOSfffZJ/wpK5vYxzPzxmybgnRVGzjhC9kOkgitmE8y841DBJw1pOt/FhbHqoVxpzwEZvjTnzIhgr0/v7OF1L6O4rFe2/XUtr+d7BuD10R8MdtMqyAe9XpXlAYOHGQPls5uJvOF99FuzFQB9i2wpyBaCdLQxB82bVL/VH4J7igD71+MFeCNldnRwosBTDLOGjEiDBbFBKcVo2UPBLRwhSgzpJs7d44qjt17dI94tuVphyROmjRZ8zJujlJDWounL+UPYeY+nDBMnqA5B8dArmDA5AdomT2TWFNAx/BCgGf2VdoK3ExZzQOgbWSO2uAhWoE8/OPKQw1/NIj3fFkWvubaa/VcB5aSGfxSGTUDAAMNRM2eBggbgLjRrtmErJAcXHTWTUYes39NZf6p+ScSZ/579113q+KA+9abbr5JIzKw2QCTzawhdZAGLFEIdaEdDIbnnnuumhswo0a4XWyURFnR030lB/LS/JLPEnGJfD3AMVCsGIBfcM1jc7PMoK3XZj0dMBHUObmbja3sj6J/4Z4wW7DBlDx5ptdZPyQvg9Qw7a+Iwindn3A8nFDXygBlkRYTG/ghgjpCLkoDK7O8w8aZe7xelSljaeOyN+yGG27QlQVm6zH70XpIhuCMM3D4fbgI+Pvvf4DgMNEWqydxMtXd8L+i7PXoIG6K2SuBAjb5hRcCYeTbU1Z4H5LVW74RZ6mg6JFfAhIfABOpVeKeqwSfC5PKG2MJ+RhQDlAaknhDHPbPUAbnrbB/gray9yOePhHb/zoGah4DyFJvv/W2FjxA9kWdceaZ6qTAJkvoT61bt1YeAe3ee++9Ghf6xQmLQ/YYKN/uJPt8PGYlMACz/s9//qMMF1vYa0WRYDBlMOH+qaxKQOAQPJuqN910U1TmcNNNN+l77GTRqonPdcMN/xduvOFGfWam0AYlmL/FsYEgYvLJAMqwMJbgic/vz7/4XO/16ydmGglDMNlHZjZ5ZgCkriYEWDmKhmQe1mEJszrxrOklDm4YuVASWP4G6NzERQk6a8RZOvASbvXiWUHq4OAYMAzE6c/6UvydPRfinbbT12xmf46sPMyRGWcUBwTrddddV12KYpdP/11r7bW0n4EL+mL8iuOHvogJDCaO5El+0fXHnxqmZcXexX//8ecfOtHxZywu9Zk3b37EAyibmXjuBvH6WPhqq62mfAKf7auusqraKmOvzEQKdaJc6gouqhpS80y4m06Uwztqfthhh6mjCcx9cM0bT8NqEDBFDo/r1r1b6CEbndnsvF2PHrqJGhOK8ePHR7yUuMoHeQCSZYyQFQbyZVMzkys3i8MIgLIBJmLmC24fT7pCJoxN2lQQsypWk0mvdRZ8I1gBrB4YH+c3ZStIHGsHrYXGELZQ2H5g/8Xiv3Uce0c2rsfHgkRi/+sYqHkM9OuXOBwUWv1NVl1xDPBorD8QfuqwU7XPcrZQ3DrjulGJ1byar3V+lujKQy19t3PkUJLLL79c7WaZgcd+FqbNff31NwhfzfhK9zY8kFzyltFVBQA2HDNYolxoGjFB4ACqZs2bJTbcMdAkmT4M3wZi0mO3aoOBDRbc2SRN2dSJzsQAgWcOVjs4UZUw3qOZ46LVZrVw60p4VIaUx8bNOnUSh9nxjvI4v8HqBLp55h0zZXiFwUvUQbIsTxhtolzMLk497VT1DkV8TSd/6PxcpHVwDMQxAJ38IptHx90zTj3xCPEpneBG0jZ1xuMXyrOI/2WaQp+LX7zkN32d5Xpm7vGWhmtmTJI4j8XiRH1NcEl80tHfeNbfyfuixYl+aP2xvDt7LljtiNfJbOi1XKYipByA8hFOEa5HiLBM/eA/XCgH9PtFixbqnWculCarq2ZSxX+ok9UPVCOEw6sAxZe8B9gj1lLMKr8XL0eE6zteyDNmn+xJwVSIFSBczuJ+lpUKJoLg65YG8zB4PO85wJMzc8gDb0t4mrrlllu0Pr3FqxJpdkueGXSW7E9jn8uWSdfe1JlT24mDYsE4w6ZrFA82jDJpQ36XX3ZZ1B7SgGsDa4NRmP1m397EZyZqPTg8EaXQ+L2l9btjoKYx0KvXDmHllitnLLaJ8Ja2/2grHKcUoFssHNZddx3tK6Vv/Kk8DLjZUnnYqaZ3DHQwYTxdMIgzmLC3gZk0mDcejbqJpwxWKEwBoCq8u+qqq8KFstw2RbwlvfseG/SIv09YQ/YnKGOXfBmYEb7NptjuDAoID3geaJpcoiNsC9lz8KuUjaYOtBCbQOqI/S4b+vCIxP4E6oUXDgYKZrJ22GEHjX/hhReGM884Q/cjsAl75947i/IzQxSaxOFJ9WWAou7Uj7YCtkyPcMC+CgY1ZgKYQdx22231wLC4aRZKC+3QQVvykgfNx/84BuIYmCnCVr8D+4XTTjtNV+wwzeAgL+iZGVYTfuJpCuGZfoESgDCIAk97AdpLH0cpp98i5PMbBZ24CJHAnD/nyAbal8Onn32mcay/Eo++z0V88klVVjSDlD9/s0k7CfAw6oPLV6mO9mM24UpB0feAH3B2AqsklEX51BOgzrRjheVXCBzQxiSGXSgaXKS3+Jqoiv8Y3VAGdWOCRB5UqLeiaOM0Efgx6eGZeNxJg1cmvLvAK0tk4sfe01ZMykpKSjQb0my1VQcxS5qsHppom3mJoQ7wYBThVVquEurJtyE+gAkTm7I5vZ3vBFAGgDcmzLxY4R517ShUNYYN5eV4ZjIHHhpZ/sTxaPnr95J3piBQF0zIWAVh/8UGMuH19cyvo+9pefndMVCTGIBeOYR0l112UZkiXjbyBObd8DCTJZh8OFNW4PQQXqFp+oz19Xhaf14SA648LImTag2BMI04uTM4tG3bNtrQU17hKjhLhKbSCXpu31OvdPGJxzK/AQKAAe9QIAwsTw5o44oDgxAeC7jiQH5niLJgwAYkLgMb2O03d2szJlepYPXFlWtaEDzZWRf6Xn475D8GYOAIKmyIT4hAiTZBKwwCXLzTmV6541EIxg/A9KEbpV+JZ2mMnhM5BRE2G6pSau8tHAqiTAu33wwe5GG/o/hSfgTUjbQExMOjCDX7QG3AC22lPjyb0A9/YcYeO3n2CGCCBN5tFp9nhHPS9JLJgJ1kNptZb4RKXL/CAxBwObixoQjubJhW5SGGjopay3cEr5RZZy6mUKWHjhEOT2ATMN+CekATDRrUl2fZoC3PlMe95Sot1TsKB1vSLrtQHLgayWXfs6I6Le179qFxpQPoBocO4DMVqNf5ckgVl5mcYrIZTZDEEkyaPCn2K/FIegBX21wGFs7kSypYX2APBN8TGsDFNjjH8xI4s/SkjW+GtrzsPfsc0gF71cwDVLr3HuYYqEkM0EtQdFEg4GOfyWQId/olq3yMG/Aj4uGBCT5Jf7Xxxui9Juucr2W58pCvX87r7RjIUwzAqN8TDzVzRZhhM+n7stdmqtiDs+rE5lPOJYGJEw+3wtiYI6wjQLKixsUsOp40cEWsQlASFwwOqcBMsCoESQGM9+SHIMWsLyt+a625VujarasOMrz/4ssv1fwEkzrqFAeUGcxBGHg4ICwXBpyEwC3CvQreIvCLYLhAFAOUA8wGMX1BceBCiI/fwRnxFHeCGJSFtWWCgfMTmNFG6WjSuImcRt9IhXsVY2O4BDd8q/KAARp88R0o/+KLLw7/EzfMmNBQZxQBFBXicJlCgDKBckQYSgZ147I4Ft+UjorqUV4dq/ud0QmrKzUNlA2OS0pKtGiri3y4nFCAaxofXl5hYgDFAV4DfS8vfAvLBlwS49kSc0KbrGBCVK07JI66rC9MdFRrq1x5qFb0euaOAcdAKgZg7HvKyeP4jMfvPYoDYIIfwiSz3luJYiHSpoZj+43gw+nm2HXbigR5jZF9OZgm8UzaOCAkb7vNNqosxGeddhVHBMymkoaLQYV7iZTBLC0bcambmfnF8/xSFAsGHzb1Pyj+9UlX24BQTtu5aMtiBHARshlIabdef4kCsUBWHmTm306MR5BnRpo7F0oEgjv5mDcjbPBRHBDaEdKXBqgHdcSkknyoD3mBO8piZZFyWD0xBYF6oByw8kDcVrKaigkkz4Rbe7mTj11GR0tTz+pOQ92MXvhO4KQmwMq1silT952At5qogJfhGKgBDCT2XNZRkyUOMOQgxTI0L/2Pk+kff/xxHVeYkGAlL90KYA1UN6+LqBnOldco8so7BhwDVYkBhCaEGS5mhdg0j9CKoI8wjmCJ4D7rm2/UnSTv2GhK+PARw1XYZSadE3mx8x8wYEC4b/x9+h5BMg4MHKxemPDEu91k8yqbW3Hrp156pFzKwC4chQbf+XhBIy17dCZPnhxlSd0x7+AdDgZQYnIBEAGpExc4sBl5MztioyBnwWDC0qJFc11RYFWFy7yesbSPEM/p7sTT1YCkQK+Cugi6CLtLeyH0kw8HM6lSIHXlu9SXcMpdVZQDZgq52Fu1mqwYEZ+VB+7N5cwXBnmUGhSMhsmVCupjX4H8chn4PgY1pThQXrxcK59Z2nTh9t7vjoF8wwBmlSgHeKmEt9PH4Al2Qe/84zd3Vj45zJZVCZvMyLc211Z9XXmoLcx7uY6BIsaACU52lgeoQKBkNh/nATB3vMewKRQf+syKY6LE5jaETYR43FC+ISZMDALHn3C8CpgoGOUBJ7ZjD4vgySCDcI0QxcDxgvjOx4mBmZXgWADArTL1kT+6eXX297PVQ9kmm2yiKxrllVeb7xgoEbrBK7P4CNwoBOyZQjlgn9JKYpaEhyAUCMy7uKNEYK5EnCay1wEckc+yCJqk5ZvzPdmzgIJi+bGasKbMAGKHz0wgygPKBHXhuwAoiShAmGOZEsJ3c3AMOAYcA4YBTFDZxA+YwmDvuKsywWREkncwrrAqiscye47H9+fMGHDumxk3/sYx4BioBgwgNJrJBu5CAQvjGV/+/MYzBsrAM888o/FvknNOFJKCKM8b/fOfIhA3Ct/IKgWDQNwFaCJy2b+4y2RQaSHCsQnEqhhINGbEr7jiCl15IBXCLIIsSgWmPcxpnyEujJkJ57RgU4CIm/MgOGPAtBUJlAkUiSYyix9XJlAauFAsEPAbN2msaRDel1ZYB798T/CFIkK55A3+Ae4tRVlgFWRFWV1AaVGTKfGqRBrS6nqC3OWH/s55fHsFHQOOgRrHAF7NzPwSvtOxY8fw/PPPh6efekr5BuMOpqjPT5qkXiHhicZfzj/vfJmGcsgWA648ZIspj+cYcAxUCQZg1sakMVVS4VJyNmEcJQBpkd8Ilro6IGkYFADic+mz/GEDM3kCLFuXB2wiBmxGm8FEBw+5y4O+09/J/G8Vn/rU5Zijj1ETqrGiwJC2S5cuUVx9yIM/CYwlFDXDbXxVAi9pmAUh2HPnt+47kPayqdBwXNmmks4uvif4Q4GwMH6jMKiyklxd4JsTThz71pUt1+M7BhwDxYUBzkAxYGUaT2A6fshYAh83XsIqJmanbcUcFmAceObZZ5Z6gsTKLKa7Kw/F9LW9rY6BHMEAgiz7BW688UZVEnTVQAR2hNpRo64VCTeor26q26NHD25hZ3EjqmCKg9zxesTqBKsECKaqeCRipf2LdySEUs4WAUxhoT6sLiBMxz0o9RR72Fartwq33HpLeEk2ceP2Dw9NgA1E+iMP/5jwDg7ACW3XTcsiuDPg2oVCZnhalmbGy0EpoXyA74ZJFeWrK1ipj4NjwDHgGKgsBjgTBYCXcA4JPAbeYrzG8mPCCf49ZMgQC9I9dygRDtlhwLl0dnjyWI4Bx0AVYQCmDTPn3IZhw4aptwtmtgm/5eab5XTzxBkizAwRb+DAgWrS8vHHH+upyBKoNXnppZd0gEBhuBmTJkmPeU15wIw6pxfjcWjTTTfV1QyEWmxlOWkd4MwB6kK+DCbDhw9XBWUncSFLXA4xLBSwb0F7wDWmSbQRgZ67hiXxXRVttvzIm8uAcAfHgGPAMbAsGGBPFDwNBxhz58zVrHhOVQrgN/Cf999/X+Pw23jespRfTGlLuXcxtbpQ2iqdBKCzpF6pTeS9RFoiHp1K30kChKW6cnIqm0ZxeWbhafOKBWrZsXz4ndpZNU6y/FhSfyxiDMCsdxfPR7hZhZEz+z1w0CA1leEAHw46hI6YRXpXzoXA49Ltt9+uTJ60KAGYPd11512ha9euahePQgKQHwMCdGeCKc+EP/nkk+HAAw/UPJmVIi8257JB+uSTTg6HHXqo5kE4F6fAMwvPIHTRRRdpmJWhEfP4j+Gopppg34M7wN2udHWwb5fuXVWHUQ/OEHn99ddVWSR/q2dVlIX7YUzBoCnokBOhMcUz71209dRTT1WHAby//PLLqqJYzeOIw4/Qcim7V69eWi7PnLoOxMcBDfA/joE8xMDG4sSCfsT18CMPq4ML+pL2Y5mfkDfRuICr7ptvulk6uTRULswmK9ozl4coqbYql28gXG3FesZVggHpIAAdxQZgOgqgioAMDgYWx34T3zoZdwMZynVgs5lgGzzNJzimJpZX2XSSgwh6zFxavgxI1Ie6cC8txUrzezFiAJpCcIE+xo0bp88TJ05UOvmnbIDm8DcTZozxs3H5QzlMbp4cDof50K+yUrCZmCC1adMmEVcQyeY3XKxCb0qbUg629ZYXYTxzv/mWm/V6RfL66uuvwzZyFgQef6Bf6hd3wWp9AOVm6NChxfjJiqLNfOduooT+KS4efxQXjriGNX5aFQgYOGCgCu1nn322buRkU/pDDz0UpkyZoqtZ/zvnf2GNNdcIzz33rJpaNGggJ4ZXAeB++Pr/u15c9LYIN8vKHm5wrS/E+0YVFOVZOAZqFQOsGg+UlWromrN6cMPKZJGOB9RMhBAmidhITX833s54dPXVVyv/r9UG5FHhrjzk0cdKV1UOQdl3333DJPEogMcSZpLOO+88nSklPp2DjsMMF+YXuMZECBoyeHA4SwYxZnUBBjT8IhMXQQ73lGwK7d27t75jhvaUk0/WzammQGDqcckll6htOrNn86UMTo3FU8rxxx8fjj/uuHC7HMDCbBu/MVGhk1qdtGD/U3QYQCBjn4Ixbu4wecDCVHgXWgSM8XNvLLTUs2fPMuFGU0ZXxGPwMMHPwi0v3pEG2EZMkOLvqRf9QwJ1Qoq82ITHqsMBBxygqyKa0P8UHAagF5s0EaKL6KeqGjr7h9ma1emnnQZRK419/PFHcg/h2muvVTM6IrDCNviwwRonTptLWw/1d79cHVV8WekDOKEdiPct+oX91pf+xzGQZxhg8okJJM4OsnGAPsQFEMbYwk+jdd4hN6233no68ZRnTa616rrZUq2hfukLts6AT/wVW6yomvXysuSGu8rLL7tchXXswRWkY1x11VU6A4vJBQPJzz//HM6/4AKd3VKbP4lz8cUXhwsvvFCTEIYCcuutt2qnIxzFw+yhreazZ88O5557bhg/frx2RAQvfqN4oDBcL+4sEbp+mP2D2LH/V8OsU1sefi8+DMSXhk0RNSwYQxeCsqAl7sSJ4iXfpoaZ4sDreFyeTXGwjOPvVXGQFww1DCjskThUzJjocygRmWtlufk9HzEwevRo3XSPUA09IITg0hFavUn207Ahn43yTJbgUhYaMgX4sssu0/MpcPVL+ApCMwgw6h1M6IbVKvL69ZdfNe+1ZGVtrTXXCtwvvPAiIdCgyjNnXLz91ltKZ7zDmQCAUL9Q+CjmfXilogz4K3Uaf++9URx9iP2BZhGIdOOonMp+6aWXaj04R4U2xvsIcfn92WefhbaShg3t/GYiiL0+rOaBC+L17dtX2/vwww/rb8J4jxkhqxr33HNPFJfq9BOle8011gw//fRTrHb+6BioegxA1/Sbbt26KY3zGxkEGlUal99sll78d+nGaGQWJjeJR19zyA4Drjxkh6eciwUj5oh1OgGdAkGewWrK1CnCuP/WgYbw6bJkfeKJJ+qARpr54lGGeNPEBAQ77i222ELbhpeCxGAXwnGyYkBajm2vLNiAxIoFHREPNosWL1IFg87ZoUMH1+4ri9RCiy8MnJnW8feOR7LPydZBuxw2xKCCsAXtougw8DgUHgY4GBAh2QQNVsJ0NUy+OeYP3337re5HOOWUU3RzPQcEAszknywrsmzUPFcmXFBCttqqQ5g2bVpo27atxtloo43CDjvsIAfk1VO+yp6DHXbcIewoYSgV2GGzysshiCuIckB5TASxqgygpLCqfOedd+rBiDgSYDIHnr+PrDr/+9//LqMIkAb+DfTcrmfo3Lmz8mJWNGhTSUmJrnqkCkqsPhOHMeOwww6TPReXS1u2UqUJZcL2E7FfCG9l+MXXPKQs6jp50uTwreAJYYx+jeCGmeHdokx88+03qnRppfyPY6CaMADdI4NwXs9TcrbDgAEDEoqwrLxBj4uEr6OA0yfOP/+88Oqrr6oXPyaNUMq5HLLDQPGYLWWSUZJMFsIyhpsd6movFk1h5gmCR+DfUQYi7GXbb7552FwuhHXaQjwGGmaF7n/gAb3/JKsOwKqyGXXvvffWAWn09deHI444QjsX6bLCQxJvmlnyj6Xj/sgjj2goeAX2kEGWGTAO/Bong8kB/fppuP9JjwHDpeEvHsvexcPy7Rm3qwge6dqXC21hAIJeuRToF/Kg5lS5UMECrAN0nUoPGqacrHobDD2iPDBrjjte7J85sI5vTp0QOthIfdddd6mZqE2SsOmS1anPpk9Xvkl9B4tJKHttsK1m/wR22MADwoMx9WQlAyBfVnVPEzOmESNGhM0220yFesLJn4vngw86WDd+Hnvssbp6QFroEEWGMYDVkPNEYOf0bgPluhKHvQ4ffvCBHrjISvUFsuIM4GjAgDr/+uuvqpAgPKFAUa40SCeSxo4dI8rE4NBchC7aw7iBV7PX33hd+3AdqQMODeghCGZ4RbNvOe2jhFnWhRclyrUy/e4YqA4MQLeMK/Qd9hQNlQkg28eGogAYbRIX+YkJTtIwmWrnzxDHoXwMFMXKA4QAMRlBcI8uw4/Qis6i2O8cvjP7SXuY5cEjzdNPTwydRJM2hWKXXXbRDiEjQOBEXQYE7MRXXnnl6GLp3VYW3n7rbW0tnYkBwPBEoA4iSVzEw9N1LcOxdeB4Wp6pF3dOd3QoHwPgie8Gzn8RhQ/PLHaxgvSDbOjkdz6C0QX0kqtgdYzqJ99jibDopT9UFgN8e2bUmXWH70b8OM6bLVx4Uk3hPs7j4LNWLkI6KwP777dfNJbgkY6JGQRvzEG5fyCCOrP7CCTlgeVr7bbfUqAmi+ohdRh37zjF0RlnnKFla7+ReNzBHXiMKw6aQTIf8jVeHZUhEcif36Tnzio2cNZZZ5Xh/4QNGnSorhrM40BHiQ9sL6snKBmkIy8mqeBXKFcoJsz6gpsjjzxSx5T+/QdoOv/jGKhODNBPgYinyDP0qX1G3yRkGu0XEv7mm29of6XPYlpNX7I+EfXBZDq/lcVAUaw8QDgwMggGzTIVYHZ16+XPkhXE3VC0ZJaSWd6mbSgSk56fFA4+5ODwxONPhBVXXFGXjDdYfwN1P4jHDTY9lwHpPAxW6XASj2cDDcNavEN9M2tWPJo+W6eMd1ZeoP3PnDlT06+11ppLpPOAshiI469LF9yQmgiQiAeeHRwD+YoBhFBmr5cTW/y3335bZ+/jvIV2QeMI4bVN6/BbhAoOD4RfGrC5Gm9J/fv3V7Md45PNZP8ZgjR8eZlBysOLGGUx4ZMKlBnnFanvK/oNbrlQArh37NAxkZ/ky2oL7aD9mHWxV+57MZXC89mDDz6o48/YsWNDH5kUYj/Innvuqas3lHn33XfrM7O9W265pU5yVVQXf+8YWFYM0E9xAmN9z+Q+65uWv/GaBXLeTwQyxKJ8aJ+iXwjt82xxo3j+oBjI3am/KvxALF/VEZs3YP68+TogMSjZZQSSL0TCoPuOLBOz6jBI/OLD4Nk8d0C/A5TRb9Z+M12O++7770OXrl2U+E844YTQSuLD+LlWW3XVcMaZZ4bNNt0s4H/c2q4DtXQi+w3OGJxsec8GG96fiteQFCCcOHb4Cq8ZfABWOni3yy599Lf/yYwBcMZgzHfFfSP3+MXmSn47lGIgTrOlof6UUxgQ/gAwq7+57Lfim3GxUZlJHOPJdrdvavfqbAu8CV7HHcA0iHLriIIDrCn9MA5MhrB5WPmxeHehzyKsYBpqEzKaMtnGeNpsn63dCEW20kiYhWOGxB413a+WbaaxeLSVvHbddVe9T35hciLvJC6IyvvpYpYFMHag+CGgcTYKSgTtJZ+DDjpI76vI/gzMv3BBC07wuufgGKgJDEBvrHp16tRJlVZcsrLPkr07KLF28ZuLPW2kgX6fn/S8hpEG3rTlFluWMe+rifrnUxlFsfIAM5sqG4nN9s0Yr30ovEQweKWG2/tcuzMjhBcNNqnhEamkpEQHMVYi2FPAQUcACgKbPtnAhr3tLmLzOkw2160oM1gw9zFjxuggh60vsEgGKGDCwxN0A98GG26g7gPpcJMnTw69ZYYJjx3YBJMnSofNetEBATohz5zei8cm8p4lKxQcPPe9KDN4MWFfhkPFGODAKGjScGwpVKiRH7yDATokMAA+EN5QpqFDe3b85BAG5LsYTeOVLXJbmqwi7wwQvA8++ODwkdjQ1xRANwACMnw28TsZVlo13YUBT128aHHoJuMH3pUAeB+rvOb2mjxIZvlqpEr8IR35P/fcc+FMmexhL4aC4In9B5haIMizuXlpwAQnTLIoC1fbJ8pEUwtZueYdfQmej6coVRykXL4RGMHLFKsu7IGAR7GngnA89zGptc/e++j4cpB8Q02TxO3S1NPTOAaywQD7jHAgwGqdQZynWFjqPR7HnoXSU6P57xgGSjEcCyy0RxgaZGCeNGCSdsH0jLERli/AzNaMGTPUNR72pmy2QzBHSIfJYxMvjdRBkA7FhmUOS9lO9j4QF8F+ww03DL8nPXowUDQQ5aN169Yq7LOKwWY+cMPAtf766+sdrZxNpMwqkS8A3mwjqeEVhYyBDcVjt91207gnnXRSeEtcETpUjAG+B7TJ4M03KHNJcn47lMUAvff/xD0wXjTYFwLuHHILA8ZhlZ6Fxo1HUUvjHXavqyYEifAaaYX0KTwjUbdW4nJ0E1EIMvUzwvfZZx+tFkoE3pQQ7lEiNthgAxW8ecnZIH/JpsxlgSefeEL3s+H1C0UB18G777GHbk4m3wkTJiwxwZBteTYxweq8KSA402BSAi99jDNMYjRq3CjM+GqGZmuTcKxW0McmyR42vDRhFgtXwpsU+Jk5a2bYYvOENz9+Z8JltnX1eI6BijBAXwTMM1hF8f390mOgKFYeYGgMSLaZJhVdqlwIcyNOPoAJRayofC2n47KkzbI1ta/foEGZdsLogQdkeRmBFHMAAEZvAwe/LU/8fKcDXA9SjnnisP0TzO7GgTIYJJ599llVXPQwIsErPtCtLvH4/pweA9CiDbZL0KXgN5+Bdlmb7NmUpTLtop30Sbmb/TXPGiYRLS2zxNAW18iRI9VN5p577KneNqDxqKxkvHgZ8XKj/JL1g97pF6Rnc6z2F+rjsNQYMF4cz8D4AviPA7xFXVEvLhsej1OVz5RitvtMmHz8ySf6zTm3AaGdlV0D6ozZ6GfTP9PTaknHqi+nOLMiC99jAuUJEfwRZBpIQqND7rQVXmpjUpwXN2iQ8JrUtGkTpX02Q+OlidXeESNG6DkQ0C1mizjEQPAvD+IUazROfJ5pk4Vh/sRKD24s33jjDfUuRTy8OjHZZHUljPJpK0rTY489FpksEY5JJRNYrDQ/+NCD2m5rO2kdHAPVhQEmVKFnQKaIxcpiRe2f0F9ZGmT1bLnwqcg75h0MMzwmO4kHHcP74/2yuuqcr/kWhfJQ7scRQquZoancWizTS5h6nLFnyoyOgEempYXKlEMZDLBN5JAhhyrGAAJskkFWcc41lh0MHgYNTarwn2TYxuBV4JEwGwhUuU32VeIrU0/+jgufFp8+bQMGYVzpBgLCqIeVa8/Eh975rWllIOEuf6K4NYasIi7IvktNoIBvjdtVbKbj5fYXX/GHiHlOOmjdurWet6C0EYsA/ZJfHFgNNnojPq4hWY3lnAhLz33w4CHqGlXTJvsAtMjKxn/F1IvN01Y/4vNs93h59rxRu3YRHVs8yo7Xz8LZlI0wpXlC+5KJ1dnysztpWPWI+qb8NsBUlfcOjoGaxAD7YT/1YgAAQABJREFUpqxvoNw/mnQZL4Fl6J06MTnxyiuv6J4h0rBqiJLMM5NFRvtOx+m/YFGYLaVvuodWNQaiTuZjRlWjtqDyQ7CCVmDSnHqOuRwCCkIIF4LSbbfdlogjcYnHhs1VZA8PM8C8J35jUYQfnpA45Xbq1KmalhUyuD6HeBEXwD8/abp27aq/43/YWEeZCHaUg99+fp9//vl68BfpuAhjhpcZWYfCwwD0yDc2HobwAJiADW0A9l5/pPmDQKJxkvGJQlrCEjkkNmKXEciTQjZlWd/Q+LE8rFxMueJAeGrc+Ht7tvSUC1Anu+x3altNKbf33A0MH9iWax3kBXfLX+tkkf3uGKghDGCNofSYpEUcM+gKZooiD/3S36M+IGMG9E9a3fuZ7Hv8dkiPgaJXHiANGJ4xw/RoSoQqQ4SonKDSoolZOzogh9Q5VB8GjFaN8ZURRMopFlq3tOVEq/5X0oeo82effhpOO/W06GApaOe+++5Tpj5g4MCgJnQS9xOZCW27Xlv1o3/zzTeruQe2rQj1e/XdS003cCCA4M9sExIYJ1hPeGhCmbaYYFMmMPkj9R0+9ZsKPWOKwom/7P/BUQCeO9gQCy8wYStdfh627BiAVnXwNqlbcM6qU6YBPeLPS1G09YuoT4lgAcTpwt6ly97eQZOWxsKIr89JwV1+6G/iER7/XeY5WZDlo3GTeSVfZT12UZbVi7SWV/w5qs//t3ceAHZWVR6/k5lJAwKhGhRISOgoGKUkgoQqEAUUJHQCLAgKKAKisrqgoKGsDXdXlioiIKCAa0FR0ZVqwRUQEJRqQASEUBKSzEz2/M77zss3jylvynvzyv8k39zvu/3+73n3nnNrRG5mhMn7jzBul5WF9/Ab7lGWXHR6FQIVReDfbHaO44EZTGJWzNsE4/3SNiO+Z86c6f658PBLdjBA+CeTpTxf0YzXYeTdhzHqsABDzrJ1SDAJTMNJFhw91xtxARD+3nAhT28BZC8EKoAAIynBs5gIsZyWYszZ674SbxTNL+v449jiCmStrCjJL/n+MRdTmeyEQM6GS+w5npZlI5zwwob8adOmpXfY5k3uA3jllVd8jTb+2KyJEM/aatapMl3NLcEosM8++2x697vf7QcCUO7BEEIgR2NGeJaWzJgxw2cvyBPr1SHykheaBpOWwvSMQPA2rn8xRXN7q9MxY1huU2izI1TwNv55os7CXaYQEAJNgoD9/ukHWZbHoS7sOeIemb/bfVi9UQyqsUfpc5/7XG/eZF+CQNMrDyFa0OHQQT1im+R6I++cTNqJI0178yd7IVBJBOKoVgRXHgjThabsuzT9EKxcuBrhXT6RF4555CQXGvh2E9ZZm80yIu4kQYnHH8oOx15Cu+6yq89qYQ9RXpYm+SZ+t+k+Uhr+MqcBGSyngoiDdMCXjaRr2tIplAopDAOCc1CewZ2lYmxsZAPyHXfc4fUQdVIaqS87qtLm6tK09S0EhMDII0Cb8eUvfTldfc3Vnpl8W4FbX0QbQ7sefWpffuVmF+o1Owgw13euuSb9+rbb+oWCJROMappE0a9feRAClUIgmkAaut/97ncDSobR8xg1H1DACnjmtBYUA26j5bnVlgjda5dtXXzxxb50iannzUyhCOH9xZde9FzQuPO7pfzMAngHgYt1DigTfPPuj717pwFoAZy9RhwEc/+85CjOtMeKX3us/17Jbg/mFBni5CFsT+FzUel1kAiAL7PBKJfMLPVH+D/3nILS159fuQsBIdB4CHAf1VVXX+UFY9CB09ogZtutxS7a+0v+jzXy9AlSHPKg9P3e9MoDHc5atvQhLrphTW1v9IMf/CA9Y9NfhBEJASEwOAQQxmmkWQbIxtR97ZbeOXPmFH9X3A/ChuU99tij+HtDQEexKCVuMveZh0xJiA2r/gvNBHsX7i3Rjs6OYhoh8D/33HOFKHO/aX7f119/fbc84QlFJ27aJTxPXgkpzZu+h4YA2HIkNPfEOOXqKB8zx/gyG4eCx94UkRAQAs2JwNe++jUveLTvrjRYu8E/7GjbQ4nohlAm0tHmaFa5GzK9fjS98uCXmxlTFdaCFzqg3tCC+WAsBBSREBACg0OAdprf0dVXX+3CHjMNLGHCjsabc+XPmTfPlweRAkdUchEiF25dddVVPhPAcZUoDtxkzv4EBHvCR6fBvSdB66+/vncaDz74oFuFn6u+/W3fV0GHEqfY8I47ygOzOtPtNvQWS4t87b///h6es+35hkhTVBkEqIfY3+N1Zt89UZvVAfWgdrkndGQnBJoHAS4ypK3wdtx6ihNOPCEdbn1L3Bbv7YjBgXuesI/+p9Qt70/vyxFo+p4PFoJZEEDine+eHjonhAbW1oqEgBAYHALegNtv7HQ7s54bbI8++mhf284t5uuuu26aOHGiR8zGaX5vzESgJFx33XXuf307WYkLsjiOlbjmz5/vv1/eZ8+e7XbTp09PLDEi/ERbHsUZ3i+++GJawe4dYakTa+k5u5+LgQgX+5g8b5Y6591zm/pEMydPnpxG23IoLsOaMmVK+qGdHU5HI8VhcPVfbijqIuqjp/Y4byfFoVxU5U8INC4C3iabIEe7sfEmG6fD7Y6WpbZvLoYdos0oRQB72hBMUXkINP3MQ3kwyZcQEALDhUA00Nxuu2DBgvTd73433fLTW9Lf5v/NNyRzetKhhx7qN9haa27rVpelP/zhD+k225f0bZst4E4Gbv3l9B06hxDi6SDY6MxJS8wydNmRwSF8suTpym99K91sJzy9akeucroTG7Nvv/12OxL2L35nRL583/jGN9J6663nYZ62pYrbb7d9mnPAnKJykverdyEgBISAEBh5BHbccUe/JZ6RYPoXDfZWrk6kPFQOW8UsBIRADwigPMSoMssG99tvv/RBexjzwR73UDDydpzJvd273uX+iDb80kGgOLDmHZM18nvttRdeioSfgw85xJUS4vRbrc0/S5Hy6RUDmCeUGI6RjfwW3fQiBISAEBACNYfASR87Kf3yl7/0fXAMIHEyHjPZ0d/UXIbrOENSHgZQeXEBUIx0DiBo3XllDwjlNckJKa3u8t9nhq08lC+IpTMIlH4EKuVtUAqBPIrnhwOYAA3RuFaL4vcTaUbKRdPyUnTL5atol8sodmGPdbyXCvyRpvvBX27pYcSBguHupGn/Y3lixOmONfbHSm+8W1DGaixrI5Yd6o3fNxvpvQ0bsZwMf8LOi1mbHDyeN4c/xZGLkbLymxzpe2lGDgGlPFAEVl9jdT+5jwEpfv8sY11rzbXSAQcekDbddFO/B4g4830h/T57IpADWA5by+39QPGopH8pDwNAF2ZECOEuCC6jaliyzmmhnXk8xi5aiY2kjVJWGgYajjYTMFi+gvCFoJEXLhulrKXloOzRMF544YXp5z//uX+H0Fzqv56///a3p2zaeqwvg8p3FH2VCR7gYjo6EZYtcbpaCGZ9hRtRN9dzCgrEiOajhhKHn1EgOLa3EYnhDRRt/y1bW8Y7FL/twlf9/+W35+1yFLD+i6QSVBgBDt+46KKLvN2Gd2gL5j893+9+6PGUpSw//Ha233578/clXyZb4Ww2RPRSHgZQjbvtult6+OGHnTFfM8Gz0WmxnVizrIzz1esNBxqKaFjoebfbbjsvgo/Em1sjEqXy2RVrUCn/nXfeme666y4vaqNtNi0VospVHgCDsPj/hd05UU/UavUqWo4AJ2IVf+PLrRvmLfg0z+sD4fNaByJfLm+4aj3Dyl9NIADfOO9YZ7fMLoyMWVnue8jP0uZ/K9gX3a3tF5WHgJSH8nByX3OPmGsntBxa+6ORAygTP6IYecbkG+390ksv9dNqfvyjH/nsAx0xbpjdGvYBpFWrXmPastHKlcc7msRv2abhH1md1ntZ4cV8GfiGMF966SW/oZrvuYfPLXQgaIk5vTAfFn/1Sii8m9h0/No23d7MFIrClltumZ544olim9YwmGT8zRHF0IKXFjg/cwrYuPHjvbzO3g04+MEM0mmf+ETDVKUKUjkEYulxfpah2DdkWmh8Ry7wy+DLqFYukhOVi4CUh3KRMn+xvAXmaxThg+LHqDTvKBCMRPvRtXRY1hnFyHSUOUz81z1RlzQcZnqj0oCdL3UUPMsJQscdd1xhOUDdV54XzKeZKV8ov3/9y1/TTTfe5Ix95FFHelkRLkPxxWwUirLwG22o3+UAKggMuNcDQfqyyy5ruHY6z9vU8euvv572skMBXrKTyvbb74Pp+BOO9zYcxQL34IkBQFhzXikHv2dM74+sbAh2YVdzGVaGagKBI486Kh31L/9SPBCj3Ezxm4G3kPEabZ9UuRgM1J+UhwEgRkMGYbqgOYCwNenVBC42CtE488PB9HJZK82PiPf87b38wKLcgUFgUpPlKydTVkbKyhppX7ZUTpg69EM9wb1eb1bX9U7woZfFCgLvxgMPc5N0zDIU69b8E8brOQtb7xiQfy9f9rus+9/iICuEuqfD50jfZfZbDsK+7gVpKxPl4iZ2TPjb22krJPUd3942m1uUt955gbrz37eVmTLFJV9RtzKFQE8IwDM+GGrmQAh+g6Q4lI+alIfysXKfITwPMFhNemckh/LEww8oOqPofEL48s7J/OYp/OTt6u49a2yi8ai7/A8gw9SeN67Z0ocBBK05r0Xey3iS+uNBAXQz7DuXK0reqTSYoO2/S6udEBprrqKqnKHgC9q0RsCE36zztpWHtpn2OPibMrJWGzvKWpwtrjLmlUgu6jHiju8ww15m8yEQv21+Bz1RSCn4K4fgqVi6jH/xWDmomaJVnjf5algE7AfmnVAmdNFB5X+UfPuGolGFkSDz3LBQqGD1hwDcGPwbii9mEIJVWyqsE6dTaDE+V+cQ6MisBwScv42n4WveO5Z2n10JfseEt/EjHq+HmlUeB4MAijK8Pnfu3PTAAw8MJopuYXyuwkaWuFz0S3baEr8fUf8INM7i3/7LKh+lCNiPJIQv76AyBYLRrKDCqNfy0dzwH+4yhcBIIJBv4Hn3J/jXzKBOu2WaJQ/hx17cKR8+/MoUAjWHQI5fmVVDGWZZHvyLguDtc6ZU4C6+rrkaVIaGGYGh8nhhYVMuU7HCybqG/MBpzodee0BAykMPoDSNVTZKRXn5QfqTE7zy9nEMAX7it9Y0OKmgNYdAjKwG3xrzFjdU0gHQQcQobPjBFAmBekIgBmt830O00RkfBz/HvrXwW0/lU16FwEARcIU518bTzsdDXNE3xFI+t8v6A+8TrKcIP5F22Me3zP4R0LKl/jFqCh9FActKG50SBQ97e2sKHFTI+kIg+DMEp/iOUkRHEzwdZmnnEf5lCoFaQyB4GjP4OfIYbjTPwdthhh+ZQqCREKDt5pJXTtJ75ZVXuhWNAzFefPHF9OUvf9nveehc1ulHznPCILdHs9zp6aefTpdffnl6/vnnCwctmCJy8sknp1mzZvlvSH1DN0h7/ZDy0Cs0zecQ03k9dT4+2JWNeDUfMipxLSLQjU+NN/kOO5+HKBGowq0Wy6I8CYH+EOiTf/PTwWqn+4NS7nWMADMK/BZC2M8XBWVij913L8xEjGpJX/3qV9M222zjXjycKQoMNB1wwAHpj3/8Y/oXO9YVOv/889PMmTPfMCPhjvrTIwJattQjLM1hGZ1R0bSfFe+9ad786ERCoB4QCEW4p7zC38HzPbnLTgjUAwLRTmPGO/lWO10Ptac8DhaBaLvDzMfz9Qu+npYsXeozdHvssUfadttt/bcRR3Tbh38T9p3veEf6yEc+4sH5PsruiEDBEJWHgJAqDyf5EgJCQAgIASEwIgj0JChhl39GJGNKVAjUEAI3ff+m4sDQuuusUxwMZblfKS21wwemTp1a1LYXLVrky5pK/em7ZwSkPPSMS1Pa0hH1NGLbU8fVlACp0HWNgI/O5mYd8is96rpgynzDI5CfWcgXNuzFy3lUmujd+mzRcgQ4jYzfBM9N3/++O8QyJ+5yyMsyrTbLcMYZZ7gf3iHNPDgMZf2R8lAWTE3kSb1QE1V2kxfVOhOREGgIBMTLDVGNAy0EqkNRIDZFonRD/UDjq3f/06ZNczzAZP78+en9739/uu2227xYnFgGcaTxrbfemmbtuGNasGABi7VTiykP48ePd3f9KQ8BbZguDyf5EgJCQAgIASEgBIRATSCAosDpQTfeeGOaPHly2mKLLVJ7e/tyZaImclndTHziE59IHzrmQz6DgALByUonnHCCz0T0lhNObgLLc845p7gfoje/sl+OgGYelmOhNyEgBISAEBACQkAIVAeBbDS83MRimRqj5xDLbB566CHfGDx27FgfPf/Vr35lt5Av9QsFEaDjwT/vUE97ANyhzv9Mnz497bLrLl6+fLnBLf9NMQOLzs6utM8++7jyFfjWOQxVyb6Uh6rArESEgBAQAkJACAgBIZBDYBDLzWJpkt82bmv8mX3ADsH39ddfT7vuumsaPWaMbwb+3Oc+54oEygZ+QmCOfQC5nDTEKxicffbZfkRrKAyjWkYVlSXf05DbJsJMzQVfvyCdfvrpaYxh1qhKVSUqV8uWKoGq4hQCQkAICAEhIASEQA8IhBAfZg9e3mCFXx4EXBSGeJhlYMMvN41DoSQ89dRT6cwzz0woEBMnTkxHHHFE+uiJJ6ZJkyZxDXNxaQ9hGmXEnbJTlu233z799je/SQ/arAwzMczOcCkcR7auueaaafPNN0+zZs1K6667brHsS5cscXwbBQvqtZIk5aGS6NZZ3KGpR+MT31GMaLxQ3LXVNFCROWIIZFPwnr51GEHwabEDMGYNfqaz5cSNzswv/kRCoBYRgJvZ4AnvxsgyZsfSjiI/w+Phhj8I4Qj7+HZL/akYAoxkUwfFNidrb6i/ZVk7U5p49KNRR8wgEIdF4nXn7l0FRcHDYm8vUa+E40Fp4E6DDgsbigP+o13Lmy+88IJfhMZlaMTD/QbHHXtsmrbBBs4zMRMRJvF4i9pLGXCvRaJskGNr75tssok//eU1sIrw/fmXe0pSHsQF3RDgx0MDwnQeP0Deg3CLHxc/tvx3+JEpBKqBAPyXF/2j8Xd7c+taVhCmTvr4SZ4d+Dj4Nd6rkU+lIQQGi0DwtAtCFkkoCigICxcu9Lb517/+tY+qRhrB29FOh73MyiAQ7Q0n+/D+j+f+4Tca857vO0tTp055lpmS0NrWmpZmexRefPFF99rW3lboa7N2ztu67J1wnaZwLLIlSigeS2zEvFyCL8jbf//3f6evf/3rHmzLLbdMP/zhD9Nqq63m/T759j0Vub6/3Pjlr3kQkPLQPHXdb0lpVGiYWCNIY8YGLEw6K++U7Lr3gl5fGAVRB9UvpPJQQQR8HS88y4isdaJMO8OvPPArvPzoo496Zxm8Gp2nZ8t65O4qSAUzq6iFwCAQCL6lbQ4KHqY15qjJl156yZ3w4y20NdJ5/xFOZmUQAHPakWhz/nDPH/x7IHVAH4t/2iwo+l7qmmNEcceNb2/rrI1DgaTtizDllC54hDYSIr57/3hvevOb35za2trShhtumL7y5a+knXbeCW3VyzSQcpSTB/lpDASkPDRGPQ65FDQQsanq6Wee9kbl1Vde9XOSB9I4DTkjikAIDBCB6LwjGB1iULznO8D8e/iTKQRqEQF41RWCHjKHwMrIdfC4e1nO+j2EkNVwIxDYtyxbvlSsaJdrh/LplrY/+PdlSzlPl156aeLpiwhHXCgtAyH4hv9Fgmfsmzw8+OCDabf37OY8xYzEMcccU/SmFyGQR0DKQx6NJn2nAaIToj3hfYUVVnCT0Y7x48a5PQ1V1sY4St5Aml9rZZoUNRV7JBGA64qX/hgfFnkTXjY3RuWgcca/QeHHeTn4Fh4WCYFaQyATDK0h7rGNfe3V18y+sMeBU2K8Pc6VAV4XVR6BUdZHInQvXrzYZwQQ5FdaaSU60l4T7+aS+cvbed3R39JG5eo/X8f003wzsMcJS6Q/WIq4wqQMm222WTruuOPS4YcfnubNmzfYqBWugRGQ8tDAlVtu0Wg0/J+ZNEbsd4DolC688EJbk9nmU5pMa9Kw8LSOavXOq9w05E8IDDcC8CoPa35j7e+SJYvT448/kc466yyf6sekk42ld5jBx8OdH8UnBIYTAdplhoQ7Ojp9KR48Dr9jnnHGGS40zpgxw8+oHz16tCdN293u6+UHNho9nPluprhQHEbZct6LL74k3XnnnWmVVVZJ37/pJl9qVKi/3tEgLA+U90v7RN/LQ73yYMdlZmyMpr1DWVi0aFF69dVX02WXXZauuOKK3hMqw4U+/S1vfku66OKL0qabblpMm+VN5DGvuJQRnbw0AQJSHpqgkvsqYjRamHRMmAhYEA0GJzkwwsvMBO40Yn4sXIsalL5wlVvlEXCetI3RvgZ4SWGvQ3R2uHV02T4I6/ycj03garONiV1dbc7H2NFhioRArSEQbTI82tXFfh6EzI4Cn9tpSyFwRnsNjxOGthmTR7xdvVo1uItLy8B+cRkbmPEX9Uc9Q9Em8RXu1DXtG99skqY/pr5RIJaYAoEd8fRHxE0cYcIffG+11Vbpox/9aFpnnXV8xQF7LZjJgCJfvOM3nrw9bqLmREDKQ3PW+xtKHQ1DmHjgncYrGjlOsMGuK5t1UCPyBhhlUUUEnBet46Rz7ciEK24LzXem+KFvLvBqoQMtZLHQGVYxu0pKCJSJALyJ14JZ4HOEzeUCXObB22PcC36XuxfsykxO3gaNQOBsyHsctDO0P5j99Y8hwEfiHFTCUdJskC7UubVlKA9mxzfxhTLhAybW7i21J5TJiKfUJBzhSY9nl513TrN2nJWmTFnfVxkww0EcKCQ+w2FKKN88zHaIhEBPCEh56AkV2RURiEbwjaZ5sUZJJARGEgHvbI0P4c/oHHkPiuVKuDHzMMoU37DL+wv/MoVALSEQijAszQMfIzhG2wsvs1TJZ4TtvbUVPi8sL62lcjR6XqiXIEbvB0PRfjGzz16KEOT59rbKGCDfZvHOv/5opRVXTO+0GYbZs2f7KU5jxrAUqnCbsscR8ZqCgZLBA3nMMJ1ICPSAgJSHHkBpJisajxjV6NaQZCDQoNFBscfBTRq1VjuD2tZ5ioTASCIA3yJcteU6PezodBkJhJ8ZVUOgCqUBHg7hCvdswHAki6G0hcAbEciaV/jbZ9aYXcseeDgIwRIeDwWCkWIET9+TFp5kVgwB+kGWSIbyQLXFgSNhV5p4COd5+3zfG/0s4bHn29sqCwAPEJ6H5UV+H4SJ+fjFDn/kZ8KEley41Z3tpuXtvO0r8AdtX7vvoWi3NnLMmLHOO763gr0y2f6K4CX4qLQMkY983vXenAhIeWjOeu9WahoEHhqKaLDwgB0NCXYIXCF4YZY2Kt0i1IcQqAICdJaxRAB+RGDCpDOEcOe0Je+M4WHjZfz4DESuQ65CVpWEEBgwAsHfnWyY7ijs6UF4ZDlJCHEIfPB4uwmFCJK0187vxt+iyiMQAju4Qyw58tOW7J1Z0Z6oMK7/RpdiP0xfnLVPsYwJ36TlsxCFj2I7N3bcWHdb0WYYTjjhhLT22msXI49+m/yhMNAGurJp76OtneQ9HjZmM2uCGf5pT9XXF+HUSw4BKQ85MJr1NRotTBqK/FQoI1mtNtNAx0RDxKwDN2JGmGbFTOUeWQToSEO48sl7eNfWDMOX0ZGTQzpDhCns4N3gY+dz8ysSArWMQJft4WE/D5tkl3IogCkRKBMh0I02vh4/fnyBv619Dj6njRZVHgEGL6gL+kaI9wkTJng7RPtUDtFmBcV73uSduFAavd75tgDjLG1ozz339BO34sjWaBdxc37I+GJ0O0pBQWnAfkymJPiJTtnsVVFxoL20cMFnxCUSAnkEpDzk0WjSdxqnbg83SWcNmo/WmvDlioM1JmGGe5NCpmKPMALwHx13zDzArkv5Y//pGIO8Y7ROEgUCQQt+jk6ROMrt4CM+mUKgWgjAnwiMKA4+Y8bAzdJW/448MNLNzAM8Dd/z5IXZ8CezMghEP0j7EoQy15/QnW93Io4In3ezBoolAO5EW8fME3FH/Phde9Kk9LqdvETdM1iCPwg/PiMFb4zOZhwyHqFdDJ4J0wdZzC9HsxMW+3wbWZpPT0R/mhYBKQ9NW/XdC07DEI0SI7hBNCiFRgWhy5QIGh9rVKJBC38yhUA1EYBf88qDp212dLPwKW/se6BDLcyedVeAmf4XD1ezxpTWYBDIC2zOz6ndBTrsebxthsetTXZeNxM7vkXVQYB6CGGevpNlQF5vvcw8lM5HFFSDnvOKX9wxl5lS4H10lh6KQzyxwRplEzuWO2EHT8SgCe/+nQ2mwCP+0Mfbe7H/z5QTvoPPes6dbJsZAbUwzVz7PZTdG4tsMzTvhTXihQ6JBiaUCUa8REJgJBGgc4vOko612JHavgYELcj5Nesk/bLDTLCCtwkvEgK1jEDwaCjK8Dis7aZlHCExFIhomzGlPFSvVrsJ2CbpB/ZRRz3lhDADJeKj3/WwWXj4g4cZB45ahU/whx0DJOyJ6aZUwhumRDiPZEoD8fGd31+Rz1/+faB5lv/GRUDKQ+PW7YBLFo1dmB6BtXHdvgccqwIIgeohELwaMw/5lPOdLu884T/vT+9CoNYQCH51ns0UY3i3oCIvz234W26jt0ojQD2Ekkda0aZQF8NJUbcI+l73li6EfYctbWPGA/vwR55idiEUSlcqUBTMzZ+sHSwqJT1kOMrTg5OsmhgBKQ9NXPkquhAQAkJACAgBIVAfCDA7YNMEnlmUBJQCnq5McXiD8oCiYE/4zZu8i4TAYBGQ8jBY5BROCAgBISAEhIAQEALVQsAEflcgLD1Ef1cGbBahK5uFiGxgjz8UB5QLCLt4wp9MITBYBKQ8DBY5hRMCQkAICAEhIASEQJUQQPiHWHLkCoIpDT0tKwolIcwqZU/JNBECUh6aqLJVVCEgBISAEBACQqC+EcgrBb0pD/VdQuW+1hGQ8lDrNaT8CQEhIASEgBAQAkKgBwRQJERCoNoI6KzCaiOu9ISAEBACQkAICAEhIASEQJ0iIOWhTitO2RYCQkAICAEhIASEgBAQAtVGQMpDtRFXekJACAgBISAEhIAQEAJCoE4RkPJQpxWnbAsBISAEhIAQEAJCQAgIgWojIOWh2ogrPSEgBISAEBACQkAICAEhUKcISHmo04pTtoWAEBACQkAICAEhIASEQLURkPJQbcSVnhAQAkJACAgBISAEhIAQqFMEpDzUacUp20JACAgBISAEhIAQEAJCoNoIVFV54CbE/G2I8Z23qzYAzZ6eY2/1EuTXzeS+cW+xf3nCty6mySOi92ojkG8zeuPF4i2sGXsv6+pK1gAVs5qPo2ipFyFQAwjAu8GfYcK7XZ2dxdyFH9zjwbG330MxoF6GDYHW1tZiPRFp1Ekj1EEpT3VZ++lt6LChp4iGE4HgveGMs6+4qnbDNIzYMmpU6rTGb5SZ/3j22XTwwQcnfnzYNcKPrS+ga9Et3zh4w5B1QgteeskbxIULF6YTTjjBs06dRR2N4kbLrHMLu1osn/LU+AgED+fNxYsXG3/yvyWdcPwJ1u60eJsTvIoZ742PkEpYjwjAn/A0RNscJna0xQtfe83NW2+9Nd17773uh7402mbxt0NW8T/gTP0888wz3qbwTv2EWfEMVDiB4CPa0t///vfp4EMOaZiyVRi6qkVPm+D1tHxcrCppV015oHBoreuss44XrMsK/Mgjj/gPbVmXjZzYP9HIIRCNRHRY0QA+9thjxUx5HWYdWtFSL0KgBhFwXrU25fEnHi/mrpTHiw56EQI1ikApz0a77KYNur3yyivp5Zdfthk1KwATxJkZ7XiNFqths7XSSiv5YCiKXL0TvIcSNGHChNS1rCstWrTIZTbKJf6qndqNNqGtrS2Nbm+vWsaqpjw4w9mfiy++OB1xxBFpyZIlVSukEuoBAetkaBCY9eno6EhLly51k2nxq6+5Jt1www1pxRVXTBdfdHFqN4Zsb29LMGdbW3tqbWvVyG0PkMqqighk/EuKwbvwccfSjvTY44+l0047zXn0yiuvTKNHj06tNhqI2d5u79ax0zEyIyESArWMAANrS5cuSR3WLi+1PvN1ZtWMjjnmmPTqq6+m2bNnp8MPPzy1W9sMX7dZWw2vt9q3qLoI0KZMnz69ofpGynT3XXel3/z2t1IYqstOA0qNelpzjTXSxptsMqBwQ/Fc1RaGAkIzZ870QZKhZFxhh4YAA1SMHiB48aDM8fB+2+23e0dEZzRz5gwXukaPGZMpEe2uRKDtSvQaWh0o9BAQsLaEUTEelinl+XjlVVb2iOFv2poxxrsovpgFRdgErEyBsB/BEDKhoEKgcgjAmfB3tMvRRneaktxm/At/T5o0KW277bbO2yjHriibG8qEqMoIZPIN9cIT8k6VczFsyUU5xo0fn2btsMOwxauIKoCA8R4re9gaUC2qagvTTdjMfmjVKqjS6Y5A1EVpAxcNBp0WBDPm/fAeT/cY9SUEqodAdM6lvFj6TY6CpzEheD/CGzO7nf4IgVpDoCfOREBgyS+cjEJc5OMs88Hj4uvq1yYzn9QJRDtU70QZSvmr3svUiPlHVkNlQFarZn1VT02h1rIfVCP8sOqVCWE01i7CZN4R2be/23coDCxlCiZkRNc7qx7c6xUD5bt+EWBZXfAm/BpPnocZmY1v3qF8Rxj8jD3h4XGREKgVBKL9Dd7GxM6XmJrJNzO/fAf/Br9ThuB17ETVQ6CRFIdADT4T1TYCXkcjIFtXdeahtqugsXNHR+KdjjEZyzcQwlhH22GCk68VNyELO4StUS3LZxuicwqF7/XXX0/jbRqTjqu4dMniDPfGRlGlG0kEXBgyXgtBCd7k4Tt42BUHy2S+08MN/uRBUQhexSRs3hzJ8iltIeA8bjBghnKQ53Pewx60nJcz/ufd2+SM18Pd/YRfLEVCQAgIgSEiIOVhiADWQ/DokDjGj1FX1s6uvfba6SU7khUyscqmwZePUtEBEWbBggVp2rRpRXf8eUdkM7K432UbqdggFoJadFL1gInyWH8IIDjBYwhPm266aXr00Uddecjzb7xjQtM22KBbQcMe54997GNp3rx5PS7/6BZIH0KgCgiEIoz58MMPp7e+9a0F5daYNdrnbm2sNdmXXHxJuuSSS2iZi36iKWfvz7N2JDoj4t3CVaEsSkIICIHGRkBzUo1dv146Og6EfWYaMHnOOuss71SYZUCQyhOdF4Q/N7PeiA6ME5pw50i6t73tbcVRsIjXA+iPEBhmBIIXURx47rzjDufPUqEohCzMeM9nxU9YMn5nw/RnPvMZX7pHfOLfPEp6rzYCef5mpmzyeuulVVZZxbOR5+PgUzczHueddrnoZvb8Lpy/s/Y+2vRql0vpCQEh0JgISHlozHrtVio6jnjiZJr99tvPT57Jd0zdAvXywSwDJ9acfvrpvsSJZU8IX8RP5yUSApVAwAUk4zF4DeFq7LhxadVVVy0ITCYslUshYG2++eY+Y0Zcrjxk/CseLhdJ+RtOBNh/Bh86L1o7uthmhz//+c8POon20e1p7ty5aYmdRJbf2zboCBVQCAgBIZBDQMpDDoxGfQ3BCxNhCQWCpUt77LFHcclRuWUnDkZt999///Sa3UDNbEYoDhK8ykVR/gaKQPAwwhX7Frj9/OsXXOAjrKWzD33GbXoG/q+99lr/DSzJ9vx0SvntEzY5VhaB4G/aUgR+ePw973lPGmdK8mBo991393ae9hkejzZ6MHEpjBAQAkKgFAEpD6WINOg3nROKAw8dEwrEJz/5yQF3Kqyt3XXXXT0eFBDiY6M1nZNICAw3AvBtPPAYygM8x4lhLJtbeeWVB7ae25Ysccs98RAHvwXeiVsC1nDXnuIrBwH425jY+Q/eRtjnYAraV5QA3wTNrgbz0x/Fnp7PnXlmt/tPPA1+S2qn+4NQ7kJACJSBgJSHMkBqFC90IAhIoUCYVJY22mijsjqlwIC1tZ/+9Kdd6CouWaLzEwmBCiNQVB5MuEKwYmkHM2AuGJWZNgIYglWp4lBmcHkTApVBAME+a5+jjWaA58QTTyy0z/3rDYV8mb8NOCTA+HyxKSAoxtBAfiOFiPRXCAgBIdA7AlIeesemIV3oRKKTonOa98V5Ayqnn75kHRMKCB2USAhUG4G4pwEh66CDDvJldOXmgX0S602ejDTlv4P4PUi4KhdB+RtuBJwHs0hRbr1ttW/4G4o2t5yZB/z/+/nnu+IQQzribVARCQEhMJwISHkYTjRrNK7odDD9PROcWu0Iv9FjRqf17GQPKPyVFiPsMc8++2zfKO3+M4/Yh5/SsPoWAkNBIM9bvnzDeA1CsMINc+utty4m0RMf5sOhbDAaG7dxEjDSwMSvSAhUE4HCsiS7myTjbfaUheKA4H+mzZRBYddb3uBfluStNGGC8zfxEp5fjP9qzB2+FwkBISAEhoqAWpKhIlgH4UMoojPxxzqneKejOuKII1yA8o4m68DyxQp7lIwJdkSrefZjXjEJT1yRRj6c3oXAcCGAYJXnM/gu+PLUU08tumFXSmHH5tNdd9nFL0H0yxBzfEv88LBICIwEAvAegj183WYPZrStXOo5ZcqUfvkTPp9rJyxBHo8NDmESb/x23FF/hIAQEAJDREDKwxABrJfg3jlZBxWdEsetRgfDxlOWc9DB9EZ0TIcddlhqHz06jbawXDxEHBFvmL2Fl70QGBICCFcWQWsmYMF78CA8Cx9vvPHGRWWip3Tg31mzZiVm2zjGcrQJZCGkuWBl8cDDTj0oID3FKTshMFwIhIDv/Gw8Cm/zoDiMtjb30EMP7ZZUkVdzthMnTkxbb7WV/x7i9xHtvWYcckDpVQgIgSEj0Lu0OOSoFUGtIBCCfXQkdCwoANExYe61114umMUobWne6Zi22WYb78gQvNqzzo2OjXj7UjxK49K3EBgoAoj1MTIL/8J/8O3YsWP9+fCHP2zKReEyxNK44X8uQzz2Q8ca35vyazzrcWSKcPBvUSALJaI0In0LgQoiQBvKg9IAj8Lf8CkzZtw2TRsMwafRTkfbjv3ee++dxtjvwcMGj1v4ULKL/I1nkRAQAkJgCAhIeRgCePUUNDomBCU6Ex+BtY4FJYIO6r3vfW9aapuge+pgCLvvvvuawGb+EbjomOwhLvzj3lO4esJHea1tBEJxGJUpqkX+zYSk9dZdzzZCF/bulJYEQWvGzBnOr+zxcf6F7+13EPGJh0tR03c1EYh2NGbDaKNdwTU+xQ6e3fcDH/Aswc/R3roSka3U4+LPMeZv/Pjx3j4T3hXjrI2uZnmUlhAQAo2NgJSHxq7fYumicwrlIZQAZhFiBmL27NnZBrvua7/ZqMfMBIJX+KVjooPTqFYRYr1UGIHgYXgPpTdmz5h9gDcPOOCAolBVmpW5thZ8zNjCEpCiUGZxhIAVwlhpOH0LgWoh4PxtikK00fCmz6zZzAPmrrvuVhyoCX5105rrPffc0xUM2udQPDBdebA4u7fo1SqR0hECQqBREZDy0Kg120O5vHOyWYLonIoKhI1W0TmxcZoRWDvE0oWw6KDe9773uXup4kDnphHbHoCWVcUQgN94mHloQ4Ew3oUv4cUZM2Y4n5Ymzl0mq6+2mgtV8HnwsQtWFhd8HrxeGlbfQqCaCMCH0T7D0zxFRdmUX9pi/DCggxnLl4488kj/LTAYxG+CcKE8OG+bX5EQEAJCYLgQkPIwXEjWQTx0Ii542UgUHQtPCF9MjSNYsa8Bik6JMCgVdGCsvY2OiQ4uL3zVQfGVxTpHIM+/eQELnoznwAMPfEMpDzroQF8LHkpGCFYhXPGbEAmBWkAAHufpxt/MDmdKL0cNQ/gJkzZ75QkrF9ry7LcAb4eiLbXBodIfISAEhhEB9ZrDCGY9RBUdCp0LQhRrZBG8VlhxRTcPOeQQLwbu0HbbbZdWNLexpjjgv/iYe3R07lF/hEAVEIDnQgEOXgyFFuV2b1teBxXOZkq+yXTLLd9e4OHcrANhiSfiq0LWlYQQ6BeB4EeUh+BvlF7a6Zg122GHHXxwJwZ4OImJ9tqV46w9J2woEDppqV/Y5UEICIEBIiDlYYCA1bt3Oic6pvzIVizjQAhbf8r6aYMNNvCLtGz1kh8RGJ0W7jF6y0ZTjs0kPpEQqCYCwcMIRzzwJTyKOc42i7K5P4Swo48+2t3gVfyGUAX/h/JQzbwrLSHQHwLBu/AoM76uRBhvw98rrLBCmjNnTnHgZvLkyWmDadOM78cVl+PhP3hb7XN/aMtdCAiBwSAg5WEwqNV5mOicEKZ87biZY210y5UEW1d73HHHeuczddpUVyRwo+OiUwqhi84JBUKdU50zQx1mPy6Mgxc5MQm+hHeZeWCEFuGKfTuMzO68885uh1KBO36d7y0s4cW/dcgADZ7laJ9pY4vKcbTPZk6dOjWxjwf+Pu6443zW2GcnsnZa/N3gDKLiCYEaQKCwNqVCGaFx46ERxKRR7Ozs9E6bb9HIIMBcgQv/Vi8IU4xuceMuR/xRR1tttbXX0cc//nEXuBDMXIHArwln0TlZpTI5IWoyBOJ3jfA9ImQ8GvzLpul24134sgMetpHZN73pTWm7d22Xtnz7lmm8KQwoDigV8Ho8EX4klQdvEwHQyqP2cEQ4qddEYz61K+u/evVYIQf4k99Xpz20tygH44y/4RPcjj/++HTiiSemmTNnulvMvEXb3E0xpq81Hhspcj4Xj48U/Eq3yRCIPo1DFWgrKkUVVR4oRBQEk0aERm3p0qXeiVeqUIq3HwSsLkZldUFnwwkddJLRUWJ3wQUXpK233trryZUHE8L8cjgTwKhDmDLqtp/U5NxACLjwYvzz+3vuGVGBhIaRh8EI2pNFixalxYsX+7Nk8ZK0+x67pzXXXDM98eSTxaV2KBh+Br7xNzNu3QSsEagjlgdOmDDBU9ZvaQQqoI8k4XPoHuPzkaob+BvejmfJkiXp5ZdfTsvMHj4+5eST0xNPPOEDOyjR+QMtQonoo4hVc5o0aVJae+21RwzHqhVUCQmBGkCAdoJBsmjDKpWliioPZDq0n30/sG+64cYbvByVLlSlwGq0eEOho1z59ygndm7f5YtAwrrot6cwRU96aUgEqHOmm2phzsnzkkM52pU8X4afvFsECbv4rrZJ3lDCUYBEtYVA8JDzT43wOwjBL/AtD8ov/WvktVZ+l6U16QNNZtlpeRUJASFQeQSuueaatP8HP1jRhCquPNBwQA8+9KCbNHRrrLGGv+vPyCMQHVGxA8qyFIKVd55mF2bkuPQ77GUKgaogwMAwKzEywS74Ncye8jCqpdAWOa9bQPFwTyjJrtYQcAXBmL1rWU5RyDIZPOyni+VWJoV9rZVF+RECQqByCDz33HM+sPD444+nSp+yVnHloRtM1tFvuNGG6YorrlDH3Q2Y6n+4AMVSJRv1ZESIDooRUB7el9lsQ8uo5WvLGeXy5Uqm/Plyj2wErPo5V4pCYLkyG/wavBtmQeAyf8anDGDAs7GUg28fDTVe7kvZEM5CoBYQCJ5mTw/E/rTOThvFN2WhdZQtIW0t8HfwtbfPxtsiISAEGh8B+jqWKWFyjPNrr71WlUJXTXlwYdVG+6Ijr0rplEifCCA4IVy1WkdD/fDQ8YRAxnd0SPEeHRPfUJh9JiRHITDMCLhyAH/asyzjU5IIPg2lgG8uQAwlIs/PcHClR2eGudiKrskQ8DbaeDja3eD71jam3grLmOBxnvATv4Emg0rFFQJNiQC/e9oFzGpS1ZSHaAQxo2OvZkGV1hsRoJOB/K8pEXyzGa9on3VKfOcfwkQdhomdSAhUGwH4EoUgTPiRhjRP4e5+Ml7G3cUv8y8SArWMAPwb7WzweeSXbwgz3DDDf/iTKQSEQGMiEL91ZiSrSVVTHqpZKKVVPgLe+Vhnw+lLMCGjuC2ZQBUdErHl38uPXT6FQGUQcL4lavg1SwI7eLjolrMX/2ZgyKg7BJy/aaNNiYBCWIiCBL+HGfYyhYAQEAKVQkDKQ6WQrbN4o+PBjM4pOi2KEu51VixltwkQgDeDb8PMFzt4N8y8m96FQM0jAH9bJoO3e+Pj3uxrvnzKoBAQAnWHgJSHuquyymU4Op8wK5eSYhYCw49A8G2Yw5+CYhQCI4uAeHtk8VfqQkAIFBCo3PVzQlgICAEhIASEgBAQAkJACAiBhkJAykNDVacKIwSEgBAQAkJACAgBISAEKoeAlIfKYauYhYAQEAJCQAgIASEgBIRAQyEg5aGhqlOFEQJCQAgIASEgBISAEBAClUNAykPlsFXMQkAICAEhIASEgBAQAkKgoRCQ8tBQ1anCCAEhIASEgBAQAkJACAiByiEg5aFy2CpmISAEhIAQEAJCQAgIASHQUAhIeWio6lRhhIAQEAJCQAgIASEgBIRA5RCQ8lA5bBWzEBACQkAICAEhIASEgBBoKASkPDRUdaowQkAICAEhIASEgBAQAkKgcghIeagctopZCAgBISAEhIAQEAJCQAg0FAJSHhqqOlUYISAEhIAQEAJCQAgIASFQOQSkPFQOW8UsBISAEBACQkAICAEhIAQaCgEpDw1VnSqMEBhmBJYtS11dXWmZPdAy++7taWlp6ZZ4+Cu17+ZJH0NCAGxHgXtWLxEZ2ItGFoGoA+qI3xAmdt1/JYU8xm9lZHOs1IWAEBAC5SHQVp43+RICQqAZEbjjzjvT7bfdlkzyccGnLwxGjx6dVl555bT55pund7zjHWnUKI1N9IXXcLl1ZopdKGlhDlf8imdwCEQ9oHi3tra6AsFvorOzs9tv45///Ge65JJL/Pe13nrrpTlz5gwuQYUSAkJACFQJASkPVQJayQiBekTg/vvvT9d/97su+PSXfx9VZRTcCCEJBeIrX/lKam9v91HX/sLLfeAIIIgimCKo/uhHP/IIwH733Xcvq84GnqJClItA/B5+9vOfp46OpRasJe3+nvektra2bnXzyiuvpGuvvdajfec73ynloVyA5U8ICIERQ0DKw4hBr4SFQO0jgFCKgIrpMwl9LYcxoRWBiSUahPnd736XZs6cmX7729962HCLEdnaL33t55A6YWR7mdXPv/7rvxYzvNtuuxXf9TIyCASfn3322QkFocX+vXv77dP4FVboMUP8PnhEQkAICIFaR0DKQ63XkPInBEYQgRBmEITe/OY3p+/aLERfhP+f/exnBUE2k4OOPfbYdNFFF3Ubbe0rDrkJgWZCYO21106XX365Kw4rrbRSMxVdZRUCQqBOEZDyUKcVp2wLgWogwCIkRreZTYBiNNU/Sv6gOOCXUe97773Xl2Iw2vqXv/xFI6olWOlTCAQCLOt761vfWpzhC3uZQkAICIFaRUDKQ63WjPIlBGoBAZtxyJ8U01eWWk1x8M27pkS8d/Z703e+8x1XGhYvXlxYWpMpFygZKCGYHR0d6U9/+lP63ve+lx577DGPfurUqWmnnXZKM2bM8PX8vlyqJGHC+8ZTM+c//XS69dZb0+9///v0xBNPpDVWXyO9a7t3pVmzZiU2oC5cuDD93//9n6e32mqrpU022aQQ1vL7wvMvpD8//Gcv48Ybb5wmTpzoaZK3PJHeb37zm7R06VKPh+VYUQZMJ8LY+9+f+Xv6xa2/SHffdXd66m9PJUaWN9100zR79mzPT2m8jgeWFpb4b7/99nTHHXekP//5z2nJkiVp8uTJacqUKek9tl5+3XXWSeQs0nzggQfSggULLE9d3ZQ8wuMH7Lbeeuui/3zaPb0Thsfr3Dz89dFH0y233JL++Mc/pn/84x9psuVliy22SHvssUdaY401HAvyTzqvvfaa42xHP9l3q/ul7L6syuLyejS/rohaGnfaZnz8WmnSRhttlFZddVX3Q3yOifmhjuGP73//++mRRx5JS4yXpk6b5svhdthhhzR+3LjUYmnjP4j4SYu9IIR/+eWXPV833/zj9OSTT7n9Zptt5nWyzTbbpNVXX93LTD6Ji/L//e9/d34kLvgCvrFEPLeRDiZ+7777bq830tx2223dDoX5uef+0S1fVsx0l/kdZ3kmv9OnT09jxozxsPfcc4/nFf6DV4KiXKQD/fWvf3Veh5+fnv90Wn2N1dM0w2OPPXZPm222ebdyRxyYL9qm7IeMnyjPhhtu6GV+6cUXE/sx4Dd+Nxx2wD6lPffcM/Eb9LTB1dKmbJGXfLx6FwJCoDkRaLEGYXmrW4LB29/+dm90GRVhJHEoRIP40EMPeUP8rW99ayhRKawQEAJVQoDlRhdeeKELRG95y1vSDTfc0GvKIawh6Pzp/j+lw+ce7ptDEUp++tOfpk5TFHAbZUIdQvI3v/nN9F//9V8uzCHU8AThj+fMM8/0mQyaKTaaBuH31VdfTfvtt1/itJpRLSbc2D8UGBo0hEZo/Pjxvmn7wx/+sMe/oykU55x7rrvx5z/+4z/SZZdd5sLRWWed5WmRbmmzyOgwwupLL73kYREYKS/KD24InkusTDvvvHNatGhRN2ErHxdhfm4CG8tTsOeJ9M4///x03XXXFe1JyAVuMyMOwt90001prbXWcrcTTjjBhb+IgzD5d75ReiIevvsiwpLGU089lT7wgQ94PfEdeEZY/CFQ/8///I/HzUlb1Mncww9P99km+8hD7HfBjXgwycv2tvYfpY53BOaf3Hxz6sqwICzPT37yk/TpT3+6WHbSxj5vHnzwwenEE090O/7AI/AZPIDSCj4I2pEf/IAl/NIyqqAkrbLKKp4WbuSR59xzzknXZMrvBRdckFAyIm38BcFvs3bc0RU47MCa8GeccYZjE2Hy9Rxhb7TfEr+px01wh4/xy4ZpfhNBxAX2Dz74YDrssMMKebc0A0f88Q4P4u/UU05NBx50oPNlxEG8P/zhD9NnP/tZx5vf1G12ghrLCwkLBX9FfqeYsnqdbeJGmSLesI84ZQoBIVBjCFi7toP1bwzizJs3L5122mkDy6CFf9/73pd+YG3Fuuuu6wMKfUWgsxT7QkduQkAIlI0ACgGEIPKZz37GBQ6EE0Y6XeQzIQZhBLvDTcj8z//8T/fb2dHpjdVJHzspfeQjH3GBn7sL8PeZz3wmIdQjRJUSy6NetNFTBBsEQUavjz3uuHTsh45NkyZNckESQf5DH/oQmfL4SB/yMBauzeINwQhBNhSc0rTIC/7wY6m5iR35QnF44oknXSB+/fXX3Q1/++67rwu/CMqepoUjzC677JKeeeaZYh7I2yc+8Yl0/fXXuzv4MaoPFieddJLPHITw2dXZlfbaay9XmIgLwdfjBgP7BxUFwezbLcv9Y2kza0EnQn1SZsqI4HrKKaf4rENE9fzzz/tsCP7IC3V2yaWX+sh64EvZcYMQQsHqox/9qHdwYET+f/CDH7hCGfVA/hG+P/WpT1lhCnXFfpuPfexjCSUQZQM/PFdeeWX64Ac/6O+Ed3tLi/fddt01mwkpYEJaRx99tOO62eabFeNAIWQjM7wCoRCi4C7rWq7ckdeeCIWHcqFEkKYrL/b9pje9qcgH5Ak3HijeW0yBaTOh38NZehB+80Tc37YyHn7Y4UVr8oUie+qpp7qCR/3Eb+/c885N+++/f9EvL/k4qQsEi1Ac+J3AZ8fZ7waBgXLin1nAz/7bvxXKBhYl+eqWgD6EgBBoOgSWD+U1XdFVYCEgBMpBIISdUr/YI4xgIlxg/vKXv0zn2sj+c889596x/9KXvuRCSAhgX/va13wWEqGHkddLTeBcecIEpCoXd4844ojEEbEI/QjzjG6jKLzrXe8qCjHbbbedC3mkybITRuPH2Og3cSCgzj1iro9s77333j4q3GFCGBSCbAhDiGq8F/JvI9cmzIUfD5D9QaBEkAs30uWBGOE+9LBD3Z1vRrsPOeSQoiC2zz77ePzzvjgv3VOJSrEAABgRSURBVHjjjf4+d+5cP1oVTMjbr371K4I6XXXVVa4IkRYC+YEHHug4HGN4MAOMAvHtb387HX/88T4zc6YJ2pSbUesgTroaCFEW0qPeyH+U7d///d/Tu9/9bv8GIwRTyouwyXIiThE68sgjXYjvsjjILzzADAwzQ/g95phj0sU2gwXW/20mo94Qs0Lfsw34IfySJnj84he/KI7a44eZagTbIPjjb3/7myugjLI9+eSTPnt01FFHObbEQf4WmjJAnMTBKP9EWxYVRBwoeiwFYwZksS0PY5aDo4Wj7MYVrpAFf0TYvFngG1teZdhBXmeWPocEuNJqdjvazAQ4AcD/Wj3nT1uCryB4INJ107AmTmYcvpzL04EHHJhOPuVkDxNpf/KTnzTMfm4K6GmeX5Z3oZijFHQRr+UnfnsEpLz83q66+mqfwSIeCPyoGxRWiKN/maWgTJE3d9AfISAEmh6BnodTmh4WASAEhAAIhOCEAIHAhoAaz1ZbbZXiYV09D6OhCKCoAetPmeJLalhSYdKHCyALbJQ3li0ySsvI8YRMcYj0sH+rXTSHABRCP4JdEKOm7AVAoEEoQiBn7TijwOTT0zLPLA1iL0WlieVXjFqTH/ZqMKsSwhpm5PP00z+dGPEmjy+88IILaigkCHMhwOGf5UAhrCHWIVyj1IAtsziscWfGJcIMtXzEgxBLmmeYsEieeD/99NMTShrufHt69j5u7FhfcoZQjkD8l0f+4mXAD4Iq+eVUrrHmDzuWDX3Dlr799re/SRdffLFnl3KiFK6w4ooeL2GwIw1mYSDeqVsUzFJCmfimnVBE/OB5mSmgjL4ThiVXoTzxTf2gOPCeJ/Ye/Di7G4N47rI9GOShFog6IC//ZqP/EPmbbXsRTjn1FIDxOgKzcNtpx53SF77wBZ+Bw+/VphjE8i33VPLn6quv6aY4hDP1DREHRBrx7hb6IwSEgBAwBGqjpVRVCAEhUJMI5AUHFII8IYzhjhmCGX48jHk9zIRoF+oR6I0QiHw9fOaHZUYIcPhHSCGOVlMcIMS8Ld72Nn/nDyPMCIk8CJ1B++27n8eBPcIWJvGFIsFSFWYBIM9XBBxGk30hjLiTf2ZdKCdEXnwJDPkhX5Y/BOMoK2vbCbOiCdDkEz88jIZ/7atf8/0VuMeyIDZ6X2UzDtfaWnyEyuESdMGFPQvMEoTQTR7f//73+zIcluR4WUw4ZzkPbpDvR7CaIo8h5LqD/UEBuvY713o4sGFfyXHHfdg5iHzf8tNbvNykjbJI/MTz7LPP+lIy4iEONlH3VG/YvdmUCjb28r7UlB9mq4ibZVfEBbFfb7Jtmu+wvEe+3cH+UE/jTAGizOzNuNv2K0Rews9ImMwWoHC/arMVbGSGKA97OygrMxKUhfxjD4/B7yzTAi+WNaHM3vOHP3i9lvIJ+w/fNOlNHr7UjfjhR+oDQklnJk8kBISAEMgjoGVLeTT0LgSEQDcE2FgatMaaa/h9DfFdaj5tpx6xzIUTYRA+WPLw4x//2DclI+QgqLCkhXf+3XfffX46TWk88Y0gwwMR36N28g/C4nybAQnadsa2LgThj3gRqiKtCLflllv6bAf2g6UQslCOyHueSLvLBDaI03Z6I/wRTyxVASfyy3PFFVf4PgP88Fz+zcvTN6/4pkeFMMfoO8uUmOnBHXKhfghl8kiyP+SJ05TAmfgRTGdYWRBKe6XMDTw4jcnr1ewoI+EnrT3Jl1exqdki9miI72tf/WpaZaLt1bD3CBPlZmN9zDYxOxMblUvrLjAIAZp8c8IRpwWFAkSCHPqB0tZuylFpHFGneXsUtbDvtdw5h3zYnPWQXskvytBjjz/ueaas7Plg9oRywi9QYBDf5IXycjoWbg8//HDa2viltAZR2sGNchJfnogDxYXwvEfceT96FwJCQAhIeRAPCAEh0CsCHR2FTdAIE4xOc/Rmb4Qba/E5VpNNzggmnD4TggrCCAoGm5uRaIgTP9j3RNjjB8JkFHb99ddPi2ytOt+4s3kWIai3OAi7jh1vOlQq5oXslGTX0zZ7FC3K2hvl8xj5x46RXYRDhF6W+7DMBpwiHfYOsPadvQgQAiJLugYi5PaWJ+ypA/LzOkuvMuWIfCHA9kX4IRxUWu7IW36vgns07DgGNY+F29sfcHjK9i9EvCHcRv7CH2b4AaNIi1kL7J/N4idvCMo9hc/HVWvvlIEysScj8F3BbqXGDrfeCEF/wkq2d8gIfyxti70Y+TAsN4t4vPayOsz70bsQEAJCoC8EpDz0hY7chECTI8AoaLmEoIOAw7GTZ599djEYR5PuaksqINbss0QE4YWjQI+x029i1L4YoOSly+4wQDDiBCLSQJAiPO+c+OPLKvoQgFgDPxzE3oQQ6PPxhSBGHv/n+8uXVOX9FN5N8MvySRhOeiIM75QBkxOaeMCRkXdmau666650h53Fj9IE/Z8tR+Esfk4p8v0khcgH/Zc8QMxw+LoiG4xedbVVXRFkCUxvRL1EnRMH71DgwZ0McdJUxMEsBbyxxdu2SOtPXT+sC6aF34Q7DmxzM3Ewi3PGGWcUl34VMlfw2tllJxxl+SZdNpGTZ8LFxmjeH7fRe7AkZ33OonTPSdlfpB37XaLcZQfuxSNxEpfvKTE/vLPhur/4cX/xpcLpY/Apy74oeyk5HpaGSAgIASEwWASkPAwWOYUTAk2AQAiE5RQ1hBuWwCA0/u///q8LPFyAxfGkxLWzbShmdgIBhkvQVs8UAkaHIUwEYpaPsP6cC74gRrZjBoPZB5b8QJwOM2vWLE+H+AlPOPKAcEkYLsFiVgBht5TywlWnCaCEjbQoD3FgEi/2LoWWyNMoM+zJwH211QubnYknwkWaxEF6zCTg1m5+iJ+9BowyQ8zuRB5Yv85JTfvYiVHQ/X+6307E+RcfTUax+Kst09nILjDL11G8R1oesJ8/4XctO16U9FnnzsVzxcvTLK+eX6sX/OaxZV0+Qnmsk4+842//OXM8ZbD/wAfenzbYYAO/YwMM9p+zv5+qxMxR1BtpsG7/i1/8ooeDP3rb80AcpIFCB6+0ji0oYqTPBXDUOfH9wRQt6oU0ApuAI77zp1TFPQ24Bc+QDt+YEHXGOw9p8OCO2RehOPXnh/D4IQ34PPLI0b7/fOGfaeVVVnb+IG0wiPh4p14ob9htvPFGzq4WSbdsETbyG2Y3D/oQAkJACPSDwBuHJfoJIGchIASEQH8IcDs0S2AQgjilCSGFZ/KUKSYdFQQkjvpkqQnCDBurcUcIwmRUHmEIpWMnUziYuSAu3Di6FGIjLke0MvLLO0RcbDglPA/KBxfbxeyFe8r9YQ8FRLz32TGoCPIhmOVH9VlKRPohmOWi8GM5Q5CbYwIzfsg78eSJ8JfbCUGUh+M7OaKWvKJkcW4/D3cgEJ78QI6FCcRsVN5iiy39/opwm//0/EL0mdCKPWHz4Qse+v5LviDK4Hsq7J38czkacfo+ADPBhhkSsMad05h2tvrZfffdfXkafikz8Z1y8ile78Q7ddrU9Ck7Lev9NtPEEa6WQecN7pKg7hDuvd4sbBxjShm4f4H7BngvJfJBeszSECcPChXx7PDuHTx++I9bx4P/wLqUmLkKnuMyQ+qc9Hy5Uzazkt9DQfioa8rJKU+l9RxplObb68cce/Mf4YgXTDjVCgWCeAj7xXlfdDOUIfzzjjsm+0VQ+lAAUWjfZrM7LFsqzUekI1MICAEhMFgEpDwMFjmFEwJCoFcEpk41ocf+IdQg1LngZEIOx7LOOWCOfxMYYZub50Noxw7BFKGHs/gJD/mmW14sjrfZKUyr2oi1L0MxuXJHm3ngFCfIBX6EWPP35JNP+fKeEL4iLveY/Xm7baaOvHGjMIId/jE9H5Y+l7d94xvfsBN7CseZ5sPzHqcSIaw+8fgTfk4+aRFvnlCWuK07hMc5cw7wfG5sswcIpAiNCKrc+cBmaCfLC3sPiIm9As9zDG4W76abbFbwY98h0OIW7gXH/v+SV8pKubmYzQyPg03c59hNy4Gpp5FFx43FP7vlZ/7FJX8FZbHgeP5556fb77jdP5gJQPGKOmAvzCT2zViBmDUoXvCWxYsRMw+8U+8seysl+IP7DfxYYCsz+0DWsPs+SGfDjTb0x/fWWMCDDjooPfP0M45RPh7uh3jve9/rS56ok89//vOuKOGHjdeBI0cLx9HA2EXdXvmtK/0IWvyTLvjkKeoi4sGMePL+St+JP+oTLAlH/L+0JWwnf/xk/w47/PGglHKDNP5Ig7s14CeREBACQqASCGjZUiVQVZxCoEEQcKHIlp1ghhBUTtHa20cXhByTEtn8G+ExT/74x31EmNNgWO5z2KGHpZUmrOSXwHF0K6cqcTeAp2eC7FvWeYvfLEzYoFvsrgdmJRidxnbu3LlpzTXX9LsmEFjv+f096cmnnvQ4EMQRNhHuS8uwqq0LH29pvp7NOCAEcyQqx1m+YrMWv7ZlUT6zYXGQD0axQ2AjPzzcZ8AsAnlA8LvT7guYOXOmHxPKCDazH3fffZfldYFnH6GOOxsmrjrR/XMbMcezckoO8Z12ml32ZQIjZ+6vtdZanj7LaTgNKWhzuweD4zbJC4R/sIvlT/lTme6+++6ivwifNwkbgibpnf2Fs/0YVmYYUJx4OPVo3XXWTc/+41mfZVj4mu3/MCJ9jmF1Mv9cLHb1NVd7ObD7yU9+4iPhvJMOdcMleLNM4aOs8+fPt6VYRzl+KEjYMcvERXF+8pIpbBwJy8ldzMxwdwdCP/tmqHjqlpOUzj//fOcDi4CkPE9cKkiaKKZ777O3z9pQDurj/vvu97K4Z0t4n7338ToLxQ4cqNfFry92RYf6hCfgDXiOZVGxoZmDAoLHyT9p8kRc5Dn2LFDP4YdZMzbKxyyK58X+ENb9WNnWWXcdL3tc1nbb7bc5j0+fPt3v+0Ch5GjaUP4I+x67UBGlK9LBhHALfsGEV3ui8I8f+IJyhF1P/mUnBIRA8yHQfaik+cqvEgsBIdAHAi6AcDoS/034KJdiLTv+GWG++eabXXBByLGI/BKrgw862IVJ4ma5Bce63vC9G3zdNuFIe/o7pvuyI5Zi5Im8IJjO2HZGcSSYGQ5GxDntiSU9+GHT6FfsaFDe20e356Pwd9L4uQmq3LOAsIQ/1tpzudwvbr01LVq4yIXIK755ha/Zxw9PCIYhVCFUojRwpCp2PBxfiuBN2RcsKOzd4Gbf8847z29qRpBGOEMAZkT+gAMOKMZNeJYzXXfddY5LKA7kD+E6BHYEfPKCIHj9ddf7Pgr88ETeIq9vKHwPFoRhCRBLvdh4TLw8CKjfufY76VbDhPpkVmnNtdb0/SsI1YRjBon7HninTJQTXEsJofxHP/yRL39iaRm3Zp991tme58g7eJxyyimGvV3+Z+VDgUOZoIwoQ14m4xv2fJC3FbPTiKLczJbgj1kq6gtCwOfSOWYyUIKCmP34lM1iUM4QlnEjvQkrTyjW9QMPPOB8QXiUirG21O47NlsVd01EfGGCAw+85PxrMjzfQaTn/GQYYM87+c8T5UThoNwcGIA//LAc69prr3UeiXjYd8KsTf6wAuKKOFGe8YuWlc9HPr3ACrtYnsZ7b/5xEwkBIdB8CLRYo7C8NSspP1PBjABy0Q4N/FCIDobOhSn6uGF2KPEprBAQAtVBAAGGpRAIuzzlEM0KF3M5ZQIRghnhiQ8lIuJCGOWmaY4jRUicZaPSbLieNGlSN4Ey31QRB/FhxzsbqBF4H3rwIb9fgJN6OJGINLhPgtFtBCcEY5biQIhpLG8KoY0RakaUEdhZ50+7xwVzoVhgF3nIKzOEJw+RF+Kmvbz5xzfbWft/tjX/03yPA6PF7O0g3+AZ+cdEwOMhDhQpBGI2mjM7w7p32s/dbESZtewI5pyCRZo8CODMrEDEAbbYQ+Qt1vG7RZl/CMeIOHcuICxz4hMzQgjjO9meDTYlgwF+LFHPtyuGWfxgzUwI+QjhNZ808TNy79gh0Foc5BMsIHBwNwtPvSCkgynHjzKjwCzE5MmTi6P2nt8sAeIgfY/D4qWOURwQth955BHPD/0Qy5nYkO1pmh8wDP4kLDhjR1zMCqGUYs+sDyP7eb5wvM2NWZCoRzctPGUjf/AP+y6IczRlNd6MMsIPEN/xu+A7sIuyEPbXv/61Kw3wBjMXzDKx/Arewh95IZ48UYaoH+qNeCk3fgkThD154beBLXUSeQw/MoWAEKhBBOx3vIP1nczmz5s3z2ewB5RLC88+tB/YABxHbMcFlb3FIeWhN2RkLwSEQEMgcN9999r+iSO9LKE8uGCXE5oaoqAqhBAQAkJACDQnAlVWHroPTzQn5Cq1EBACQkAICAEhIASEgBAQAmUgIOWhDJDkRQgIgXpGYPk68lgGQmmW29Zz2ZR3ISAEhIAQEALVRUDKQ3XxVmpCQAhUGQHWdOeVBpIvXetd5SwpOSEgBISAEBACdYtAebsf67Z4yrgQEALNjsA6b1nH7y9AgZjMJltTJtgsygZW3yzb7ACp/EJACAgBISAEBoCAlIcBgCWvQkAI1B8Cq9p9CtxEjNLAw+kxoUDUX2mUYyEgBISAEBACI4uAlIeRxV+pCwEhUGEE/CBKUxognbJUYbAVvRAQAkJACDQ8Atrz0PBVrAIKASEgBISAEBACQkAICIHhQUDKw/DgqFiEgBAQAkJACAgBISAEhEDDIyDloeGrWAUUAkJACAgBISAEhIAQEALDg4CUh+HBUbEIASEgBISAEBACQkAICIGGR0DKQ8NXsQooBISAEBACQkAICAEhIASGBwEpD8ODo2IRAkJACAgBISAEhIAQEAINj4CUh4avYhVQCAgBISAEhIAQEAJCQAgMDwJSHoYHR8UiBISAEBACQkAICAEhIAQaHgEpDw1fxSqgEBACQkAICAEhIASEgBAYHgSkPAwPjopFCAgBISAEhIAQEAJCQAg0PAJSHhq+ilVAISAEhIAQEAJCQAgIASEwPAhIeRgeHBWLEBACQkAICAEhIASEgBBoeASkPDR8FauAQkAICAEhIASEgBAQAkJgeBCoqPKwrKurmMuW7K3L7HhEQkAICAEhIASEgBAQAkJACAwOgY6OjrRs2bLUMmqUm8TCd6WprZIJRGFaWlpSFOX5555L5517bhrV2lrJpBW3EBACQkAICAEhIASEgBBoWARCUcBcunRpajXZ2mVuFAqTvStFFVUeyHQUYvz48a4NvfDPf6brrr8+tdg/kRAQAkJACAgBISAEhIAQEAIDR2CZDc2HkhCKxNixYwce0QBDVFx5oDA8P7vllnT2F76QFi5cmNra2rR0aYAVJe9CQAgIASEgBISAEBACQqA3BNZaa6104oknFhWK3vwN1b6iygNKAxoRzyoTJ6bzzjsvddr6rFZTHkJDGmoBFF4ICAEhIASEgBAQAkJACDQ7AjFgjznK9kFUiiquPOQzjhIRikNMs+Td9S4EhIAQEAJCQAgIASEgBITAIBBg0N6UhkofTFRR5aE3rUeKwyAYQkGEgBAQAkJACAgBISAEhEAvCKA4QL3J370EG7B15eY0BpwVBRACQkAICAEhIASEgBAQAkKglhGQ8lDLtaO8CQEhIASEgBAQAkJACAiBGkJAykMNVYayIgSEgBAQAkJACAgBISAEahkBKQ+1XDvKmxAQAkJACAgBISAEhIAQqCEEpDzUUGUoK0JACAgBISAEhIAQEAJCoJYRkPJQy7WjvAkBISAEhIAQEAJCQAgIgRpCQMpDDVWGsiIEhIAQEAJCQAgIASEgBGoZgbKVB90IXcvVqLwJASEgBISAEBACQkAICIHBI9CSWsoKXJbywKVuceV1WbHKkxAQAkJACAgBISAEhIAQEAI1j8Aycmiyfpm6QypLeSBObqtDgaj0ldekJRICQkAICAEhIASEgBAQAkKgOgh0dHS4nF9Oam19eers7HTn++67L7W3t/flVW5CQAgIASEgBISAEBACQkAI1CECIfOXs02hV+WBwPvvv3+6//77HQI0EpEQEAJCQAgIASEgBISAEBACjYUA+x34t8022/gMBFsWeqMWUxJ8qVNPHmKJEkuWREJACAgBISAEhIAQEAJCQAg0EAKoAdneZkqF7I/i0Jfs36fy0EDQqChCQAgIASEgBISAEBACQkAIDBEBTSkMEUAFFwJCQAgIASEgBISAEBACzYKAlIdmqWmVUwgIASEgBISAEBACQkAIDBGB/wfE8uXdayUW5QAAAABJRU5ErkJggg==;" vertex="1" parent="1">
          <mxGeometry x="200" y="10" width="783" height="781" as="geometry" />
        </mxCell>
      </root>
    </mxGraphModel>
  </diagram>
</mxfile>
